<?xml version="1.0" encoding="UTF-8" standalone="no"?>
<svg width="512px" height="512px" viewBox="0 0 512 512" version="1.1" xmlns="http://www.w3.org/2000/svg" xmlns:xlink="http://www.w3.org/1999/xlink" xmlns:sketch="http://www.bohemiancoding.com/sketch/ns">
    <!-- Generator: Sketch 3.2.2 (9983) - http://www.bohemiancoding.com/sketch -->
    <title>added-lane-entering-roadway</title>
    <desc>Created with Sketch.</desc>
    <defs></defs>
    <g id="us-symbols" stroke="none" stroke-width="1" fill="none" fill-rule="evenodd" sketch:type="MSPage">
        <g id="added-lane-entering-roadway" sketch:type="MSArtboardGroup" fill="#000000">
            <g id="Group" sketch:type="MSLayerGroup" transform="translate(132.000000, 106.000000)">
                <path d="M146.297116,75.809566 L160.845473,0.807664151 L86.4136085,15.1850264 C83.0598782,15.9038943 80.919037,19.0189887 81.3896358,22.3737075 C81.8668479,24.5303113 83.5370903,25.7284245 85.4525709,26.9265377 L102.386969,36.0322019 L0.985987879,137.871849 L24.3627685,161.354868 L125.776995,59.5152264 L134.837412,76.2888113 C136.030424,78.6850377 137.236718,80.1227736 139.370908,80.6020189 C142.479419,81.3208868 145.813291,78.9246604 146.297116,75.809566" id="path3390" sketch:type="MSShapeGroup"></path>
                <path d="M202.130935,157.282623 L202.130935,157.282623 C197.352238,162.075075 194.734147,168.784509 194.972753,175.014698 L194.972753,277.093962 L161.806529,277.093962 L161.806529,175.487283 C161.567923,160.397717 167.771681,144.822245 178.747541,133.799585 L189.246207,123.495811 L172.305196,114.390151 C170.151109,113.192038 168.732737,111.987264 168.248893,109.597698 C167.526442,106.242981 169.673897,103.127887 173.014382,102.409019 L247.711456,88.0316604 L233.388328,163.033566 C232.665935,166.388283 229.570632,168.538226 226.230147,167.826019 C224.082692,167.586396 222.889662,165.909038 221.458025,163.752434 L212.629601,146.978849 L202.130935,157.282623 L202.130935,157.282623 Z" id="path3398" sketch:type="MSShapeGroup"></path>
                <path d="M108.829333,176.451774 L108.352121,298.892321 L120.998261,298.892321 L121.24348,176.451774 C120.766268,150.093264 131.264935,123.734774 149.869594,104.804585 L150.346806,104.32534 L141.518382,95.4593019 L19.8358855,217.906491 L28.4323358,226.526264 L114.323904,140.747981 C110.499575,152.010245 108.597359,165.189509 108.829333,176.451774" id="path3406" sketch:type="MSShapeGroup"></path>
                <path d="M233.142395,3.44284717 L241.970819,12.3088887 L224.559341,29.8013453 L215.730916,21.1749283 L233.142395,3.44284717 L233.142395,3.44284717 Z" id="path3414" sketch:type="MSShapeGroup"></path>
                <path d="M202.607583,34.1145547 L211.436007,42.9805943 L194.011189,60.4730509 L185.182765,51.6070113 L202.607583,34.1145547 L202.607583,34.1145547 Z" id="path3422" sketch:type="MSShapeGroup"></path>
                <path d="M172.06659,64.7855943 L180.894995,73.6516226 L163.476772,91.1440943 L154.648347,82.2780566 L172.06659,64.7855943 L172.06659,64.7855943 Z" id="path3430" sketch:type="MSShapeGroup"></path>
            </g>
        </g>
    </g>
</svg>