<?xml version="1.0" encoding="UTF-8" standalone="no"?>
<svg width="512px" height="512px" viewBox="0 0 512 512" version="1.1" xmlns="http://www.w3.org/2000/svg" xmlns:xlink="http://www.w3.org/1999/xlink" xmlns:sketch="http://www.bohemiancoding.com/sketch/ns">
    <!-- Generator: Sketch 3.2.2 (9983) - http://www.bohemiancoding.com/sketch -->
    <title>added-lanes</title>
    <desc>Created with Sketch.</desc>
    <defs></defs>
    <g id="us-symbols" stroke="none" stroke-width="1" fill="none" fill-rule="evenodd" sketch:type="MSPage">
        <g id="added-lanes" sketch:type="MSArtboardGroup" fill="#000000">
            <g id="Group" sketch:type="MSLayerGroup" transform="translate(135.000000, 88.000000)">
                <path d="M266.019513,215.905544 L239.49712,242.456791 L186.718791,189.725822 C179.21444,182.214952 173.500974,172.933165 170.427347,162.759732 C168.611677,156.72873 167.700733,150.437678 167.700733,144.146607 L167.700733,126.276533 L145.918908,132.883383 C145.373595,133.044335 144.840667,133.07535 144.295337,133.131078 C142.659382,133.310636 141.13497,132.821477 139.75927,131.923635 C138.172886,130.871001 137.057459,129.21154 136.704246,127.341558 C136.320029,125.223899 136.729014,123.341538 137.980787,121.638742 L186.427533,55.365909 L234.793722,121.638742 C235.71085,122.901908 236.218993,124.319874 236.206609,125.880259 C236.169369,129.527337 233.833225,132.288964 230.27624,133.050566 C229.210383,133.279674 227.915258,133.205376 226.849401,132.883295 L205.185319,126.276445 L205.185319,143.960766 C205.185319,148.022704 206.034274,152.08466 207.83756,155.737933 C208.977773,158.022775 210.353456,160.295226 212.169126,162.10948 L266.019513,215.905457 L266.019513,215.905544 Z" id="path3502" sketch:type="MSShapeGroup"></path>
                <path d="M68.7926466,126.481488 L68.7926466,287.002557 L31.339053,287.002557 L31.339053,126.481488 L9.56961726,133.094534 C9.04288774,133.255487 8.5037638,133.336016 7.9522472,133.348408 C6.39064851,133.385618 4.82904983,133.094534 3.50912655,132.21528 C1.90414914,131.131685 0.726752921,129.416495 0.342550461,127.490786 C-0.0478492105,125.490779 0.4478925,123.484574 1.65007932,121.84989 L50.0844414,55.55848 L98.4258436,121.84989 C99.1198855,122.815839 99.5970426,123.812749 99.813945,124.976836 C100.160957,126.822052 99.7085503,128.630109 98.6551299,130.178115 C97.6264597,131.713729 96.0400757,132.865427 94.2120039,133.193616 C93.0160196,133.404135 91.6589218,133.453667 90.4691382,133.094622 L68.7926466,126.481576 L68.7926466,126.481488 Z" id="path3506" sketch:type="MSShapeGroup"></path>
                <path d="M209.231845,273.411137 L199.416064,283.231632 L152.177704,236.067271 C149.791918,233.670973 147.393749,231.274675 144.99558,228.872181 C144.753909,228.630699 144.524623,228.3892 144.295337,228.141523 C140.118684,223.646153 136.357216,218.74828 132.94276,213.670848 C130.011663,209.299309 127.520553,204.766782 125.05421,200.135173 L125.05421,335.343399 L111.408806,335.343399 L111.408806,144.729284 L124.930284,144.729284 C125.147168,148.976976 125.438409,153.212293 125.804024,157.447629 C125.996123,159.552896 126.250195,161.651984 126.578622,163.738681 C128.673149,176.847104 133.605834,189.584036 140.397541,200.971091 C143.155124,205.577934 146.340293,209.968043 150.033606,213.875189 C153.881831,217.961911 157.792029,221.986692 161.75798,225.955762 L209.231845,273.411137 L209.231845,273.411137 Z" id="path3510" sketch:type="MSShapeGroup"></path>
                <path d="M111.407577,1.07952333 L125.052981,1.07952333 L125.052981,28.287113 L111.407577,28.287113 L111.407577,1.07952333 L111.407577,1.07952333 Z" id="path3512" sketch:type="MSShapeGroup"></path>
                <path d="M111.407577,48.7578217 L125.052981,48.7578217 L125.052981,75.971602 L111.407577,75.971602 L111.407577,48.7578217 L111.407577,48.7578217 Z" id="path3514" sketch:type="MSShapeGroup"></path>
                <path d="M111.407577,96.3927752 L125.052981,96.3927752 L125.052981,123.606556 L111.407577,123.606556 L111.407577,96.3927752 L111.407577,96.3927752 Z" id="path3516" sketch:type="MSShapeGroup"></path>
            </g>
        </g>
    </g>
</svg>