<?xml version="1.0" encoding="UTF-8" standalone="no"?>
<svg width="256px" height="256px" viewBox="0 0 256 256" version="1.1" xmlns="http://www.w3.org/2000/svg" xmlns:xlink="http://www.w3.org/1999/xlink" xmlns:sketch="http://www.bohemiancoding.com/sketch/ns">
    <!-- Generator: Sketch 3.3.2 (12043) - http://www.bohemiancoding.com/sketch -->
    <title>arrows_both_bra</title>
    <desc>Created with Sketch.</desc>
    <defs></defs>
    <g id="Page-1" stroke="none" stroke-width="1" fill="none" fill-rule="evenodd" sketch:type="MSPage">
        <g id="arrows_both_bra" sketch:type="MSArtboardGroup" fill="#000000">
            <path d="M153.908759,111.613441 L153.594994,189.357363 L176.161151,189.44701 L176.454994,111.817637 L177.904288,111.792735 L185.270288,116.095794 C188.617112,117.893716 192.626328,114.063794 190.514641,110.492853 L167.226328,72.3629704 C165.876641,70.2662253 163.919347,70.1915195 162.539779,72.4028136 L138.872955,110.378304 C136.975426,113.401402 140.098132,117.958461 143.853347,115.976265 L153.121857,111.135323 C153.525269,110.980931 153.933661,111.080539 153.908759,111.613441" id="path9" sketch:type="MSShapeGroup"></path>
            <path d="M77.2157002,148.81697 L77.4348375,71.0730489 L99.9960139,71.137794 L99.7669159,148.772147 L101.21621,148.81199 L108.597151,144.548774 C111.968877,142.785716 115.94821,146.635559 113.811622,150.196539 L90.2593473,188.172029 C88.8997002,190.253833 86.9473865,190.323559 85.582759,188.092343 L62.1699355,149.95748 C60.297308,146.919441 63.4498963,142.387284 67.1901708,144.399363 L76.4238178,149.300068 C76.83221,149.44948 77.2406022,149.359833 77.2157002,148.81697" id="path11" sketch:type="MSShapeGroup"></path>
        </g>
    </g>
</svg>