<?xml version="1.0" encoding="UTF-8" standalone="no"?>
<svg width="512px" height="512px" viewBox="0 0 512 512" version="1.1" xmlns="http://www.w3.org/2000/svg" xmlns:xlink="http://www.w3.org/1999/xlink" xmlns:sketch="http://www.bohemiancoding.com/sketch/ns">
    <!-- Generator: Sketch 3.2.2 (9983) - http://www.bohemiancoding.com/sketch -->
    <title>arrow-s-l</title>
    <desc>Created with Sketch.</desc>
    <defs></defs>
    <g id="symbols" stroke="none" stroke-width="1" fill="none" fill-rule="evenodd" sketch:type="MSPage">
        <g id="arrow-s-l" sketch:type="MSArtboardGroup" fill="#000000">
            <path d="M154.301683,91.350272 L154.116208,85.5634268 L92.2229308,147.401061 L92.2971211,192.378944 L136.959695,148.551011 L136.829862,406.566406 L172.515408,406.529311 L172.459795,346.58353 C175.973947,321.798003 189.667498,304.699639 219.607745,298.489653 C219.607739,298.489647 284.802491,298.415463 284.802491,298.415463 L241.308414,342.503062 L286.861272,342.632896 L348.29086,280.350119 L342.374182,280.442857 L348.161027,280.275929 L286.323393,218.382652 L241.364057,218.438265 L284.709753,261.913795 L222.056025,261.4872 C202.507273,263.015705 186.302071,268.557354 172.385604,276.844597 L172.274289,148.921963 L216.361888,192.416039 L216.491722,146.863181 L154.208946,85.4335938 L154.301683,91.350272 Z" id="path2806" sketch:type="MSShapeGroup" transform="translate(220.256895, 246.000000) scale(-1, 1) translate(-220.256895, -246.000000) "></path>
        </g>
    </g>
</svg>