<?xml version="1.0" encoding="UTF-8" standalone="no"?>
<svg width="512px" height="512px" viewBox="0 0 512 512" version="1.1" xmlns="http://www.w3.org/2000/svg" xmlns:xlink="http://www.w3.org/1999/xlink" xmlns:sketch="http://www.bohemiancoding.com/sketch/ns">
    <!-- Generator: Sketch 3.2.2 (9983) - http://www.bohemiancoding.com/sketch -->
    <title>bicycle-slippery</title>
    <desc>Created with Sketch.</desc>
    <defs></defs>
    <g id="us-symbols" stroke="none" stroke-width="1" fill="none" fill-rule="evenodd" sketch:type="MSPage">
        <g id="bicycle-slippery" sketch:type="MSArtboardGroup" fill="#000000">
            <path d="M348.397154,226.200098 C341.952877,229.577237 335.508599,232.947795 329.123704,236.456862 C321.762568,240.487004 310.582383,244.813965 306.486277,252.531265 C293.835177,276.36255 346.33262,270.076583 356.266164,270.736185 C366.931875,271.441951 380.539378,274.739945 379.648921,288.103411 C378.362698,298.379938 371.093945,307.83859 366.252491,316.743168 C363.5943,315.206308 360.942727,313.676029 358.291135,312.139169 C359.128829,312.026986 361.081236,308.339883 361.509965,307.706662 C363.983465,304.177814 366.351418,300.569819 368.429153,296.796915 C370.460724,293.122956 373.092515,288.175956 371.3116,283.928141 C368.772155,279.587999 361.932112,279.086687 357.486423,278.631577 C345.085979,277.655373 332.612971,279.060305 320.192726,278.249012 C315.502982,277.938992 310.773675,276.870443 306.717132,274.396943 C299.349434,269.898491 295.550147,261.231369 297.931283,252.867667 C301.420568,240.56615 315.529364,234.933184 325.693782,229.352982 C312.462244,227.605049 300.338819,219.808584 293.439431,207.942415 L281.276423,213.654544 C281.131332,215.316732 280.16831,216.807429 278.882087,218.120015 L284.059943,228.310815 L286.968771,227.525885 L287.971356,230.38855 L278.901869,233.297378 L278.064194,230.157694 L280.30682,229.564056 L274.640872,219.498583 C270.327093,219.940512 267.207191,216.97892 267.50401,213.133451 L213.139929,177.132581 L212.625442,182.692995 C224.887376,187.949994 234.240473,198.61569 237.663795,211.398718 C243.824435,234.365928 230.210332,258.124667 207.342059,264.463399 C197.830652,269.654435 188.068597,274.35738 178.715491,279.818854 C172.686757,283.347703 164.72541,287.819773 164.969462,295.860275 C165.332241,308.029864 180.648116,308.13541 189.341622,308.247537 C201.722283,308.313539 214.828502,306.638113 226.925527,309.909725 C250.882133,316.406766 233.376397,341.115328 226.239561,354.25452 C223.587968,352.72426 220.916595,351.187382 218.265009,349.657122 C219.036739,349.604395 221.114474,345.791871 221.497041,345.224615 C223.957344,341.708966 226.331889,338.087771 228.416216,334.328049 C230.441187,330.640908 233.066397,325.693909 231.305263,321.439512 C228.778999,317.099351 221.912588,316.598058 217.466893,316.162711 C205.073042,315.166726 192.600039,316.571676 180.173204,315.760364 C175.483461,315.450345 170.754139,314.394996 166.697612,311.908314 C159.329898,307.409843 155.550399,298.755922 157.911762,290.379019 C161.631894,277.239827 177.67332,271.171514 188.503934,265.426421 C172.28441,262.656101 158.30752,250.75695 153.789271,233.864635 C147.60224,210.765498 161.387844,186.881445 184.486979,180.701008 C191.208285,178.893709 198.529826,178.689234 205.178577,180.245885 L208.318266,143.829451 L202.751257,138.354795 L208.16656,128.005704 L224.524599,123.62596 L226.02189,128.276122 L211.669027,132.114991 L209.597887,136.033005 L214.577856,141.184478 L214.360188,157.318245 L273.110594,141.573624 L273.262229,138.598851 C268.381212,139.238653 259.463434,138.519761 257.069098,137.34561 C254.661562,136.178114 255.947785,134.166344 258.150829,133.506741 C269.601471,129.898747 286.572931,124.325145 289.844543,123.421487 C293.116155,122.531029 293.887866,124.08769 292.344425,127.082264 C290.781164,130.057038 289.455378,132.721829 281.494022,136.237478 L280.874002,142.886229 L299.388922,156.388205 C304.876778,150.656293 312.244496,146.45466 319.948614,144.396707 C343.047733,138.209685 366.931801,151.99528 373.118822,175.094423 C378.758388,196.129009 367.83544,217.803414 348.39708,226.200098 L348.397154,226.200098 Z M301.05111,204.373984 C308.728847,217.658304 325.166033,224.346637 340.277433,220.296695 C358.983645,215.29035 370.15063,195.937736 365.144285,177.231521 C360.13134,158.538504 340.791907,147.3715 322.085713,152.384445 C316.109746,153.980669 309.579723,157.239099 305.338507,161.539676 L330.317488,181.070382 C332.586514,180.503128 335.086396,181.987226 335.74598,184.421143 C336.398982,186.894636 334.934686,189.447281 332.461186,190.113477 C331.775202,190.298168 331.016672,190.311355 330.330688,190.192622 L301.05111,204.373984 L301.05111,204.373984 Z M200.099597,220.646278 C206.299821,212.289176 210.831262,204.684003 212.05811,191.571189 C220.725238,196.030063 227.156319,204.116747 229.682582,213.535817 C234.688927,232.242029 223.535126,251.581444 204.828917,256.587789 C186.122708,261.600734 166.783285,250.433749 161.763741,231.727536 C156.750794,213.034524 167.917794,193.681911 186.623997,188.675551 C192.586772,187.072727 199.162968,187.165071 204.855301,188.748115 C204.354006,200.165769 202.559898,206.464937 194.519389,217.453849 C192.059093,218.225579 190.706912,220.738643 191.353323,223.119797 C192.01292,225.580097 194.558966,227.064193 197.03246,226.391409 C199.505952,225.738406 200.798772,223.238525 200.099591,220.646297 L200.099597,220.646278 Z M213.898389,168.267586 L214.063281,165.226839 L272.66859,149.442653 L269.74658,200.911117 L267.747991,196.155409 L269.548688,195.667317 L268.480139,192.586978 L260.637511,194.704295 L261.640115,197.54716 L263.651885,197.006304 L265.544928,202.276486 C265.544928,202.276486 214.182008,168.432486 213.898382,168.267586 L213.898389,168.267586 Z M290.471163,201.320064 C290.147962,200.317479 289.560905,198.721255 289.250905,197.573542 C286.131002,185.938225 286.86315,173.623525 294.554069,161.500107 L280.504618,151.619315 L277.503463,206.247264 L290.471163,201.320064 L290.471163,201.320064 Z M297.918026,197.481214 L325.370506,185.100537 L300.971965,166.447096 C293.782339,177.139185 295.253253,187.270616 297.918026,197.481214 L297.918026,197.481214 Z" id="path6605" sketch:type="MSShapeGroup"></path>
        </g>
    </g>
</svg>