<?xml version="1.0" encoding="UTF-8" standalone="no"?>
<svg width="512px" height="512px" viewBox="0 0 512 512" version="1.1" xmlns="http://www.w3.org/2000/svg" xmlns:xlink="http://www.w3.org/1999/xlink" xmlns:sketch="http://www.bohemiancoding.com/sketch/ns">
    <!-- Generator: Sketch 3.2.2 (9983) - http://www.bohemiancoding.com/sketch -->
    <title>bicycle</title>
    <desc>Created with Sketch.</desc>
    <defs></defs>
    <g id="symbols" stroke="none" stroke-width="1" fill="none" fill-rule="evenodd" sketch:type="MSPage">
        <g id="bicycle" sketch:type="MSArtboardGroup">
            <g id="BikeSymbol" sketch:type="MSLayerGroup" transform="translate(94.706672, 156.203125)">
                <ellipse id="FrontWheel" stroke="#000000" stroke-width="12.71644" sketch:type="MSShapeGroup" cx="57.9001689" cy="141.693581" rx="57.9001689" ry="57.9001689"></ellipse>
                <ellipse id="RearWheel" stroke="#000000" stroke-width="12.71644" sketch:type="MSShapeGroup" cx="264.686486" cy="140.614696" rx="57.9001689" ry="57.9001689"></ellipse>
                <path d="M135.034835,0.167988889 C87.3601705,0.632654647 95.4453464,-4.75746318 69.7958198,77.6741735 C48.9005083,143.536986 51.17651,136.354405 51.0672297,140.974324 C50.9906433,144.563495 53.8879138,147.409198 57.5286512,147.652778 C65.1001233,146.887212 61.915391,148.471645 88.165587,66.955892 C184.082845,168.139357 148.097095,151.731507 199.716254,153.786359 C267.557396,153.135827 273.071427,157.317816 273.876847,147.373976 C273.783912,143.997407 272.204054,141.983859 225.644582,38.3634831 L230.10537,26.0963164 L245.439327,25.8175174 L244.88173,12.992753 L187.727887,12.992753 C182.678525,19.9007782 189.772418,19.8698006 215.329013,25.538718 L210.868226,38.0846812 L96.8393416,38.3634831 C104.521809,11.5368021 100.184932,13.2095974 134.756037,13.2715523 L135.034835,0.167988889 L135.034835,0.167988889 Z M93.54443,52.1137915 L205.123943,51.9159563 L172.876674,138.56813 L93.54443,52.1137915 L93.54443,52.1137915 Z M218.576791,57.2575274 L186.923028,140.348654 L256.165632,140.546489 L218.576791,57.2575274 L218.576791,57.2575274 Z" id="Frame" fill="#000000" sketch:type="MSShapeGroup"></path>
            </g>
        </g>
    </g>
</svg>