<?xml version="1.0" encoding="UTF-8"?>
<!DOCTYPE svg PUBLIC "-//W3C//DTD SVG 1.1//EN" "http://www.w3.org/Graphics/SVG/1.1/DTD/svg11.dtd">
<svg xmlns:svg="http://www.w3.org/2000/svg" xmlns:xlink="http://www.w3.org/1999/xlink" xmlns="http://www.w3.org/2000/svg" viewBox="0 0 512 512" width="512px" height="512px" version="1.1">
  <defs>
    <path id="wheel" d="m 0,-55 a 55,55 0 1 1 -.0001,0z" />
  </defs>
  <g fill="#000" transform="translate(35,160) scale(.68)">
    <path d="M 553 0 C 387.2 0.149 198.94 2.406 40.938 0.875 C 35.628 8.525 28.085 19.445 29.125 29.375 C 29.365 37.285 44.7 38.889 35 48.719 C 23.41 75.759 11.809 102.804 0.219 129.844 C 5.109 139.214 10.871 148.365 8.781 159.375 L 8.781 221.281 C -2.569 222.981 0.389 233.515 0.219 242.125 C 1.449 249.305 15.7925 243.11625 22.3125 244.90625 C 44.9625 244.46625 67.6 244.03375 90,244 A 60,60 0 1 1 210,244 L 414,244 A 60,60 0 1 1 534,244 L 645,227.031 C 654.14 212.521 634.87625 213.834 632.156 205.344 C 631.716 165.864 633.925 126.27 628.875 87 C 627.505 74.66 626.904 61.961 625.844 49.781 C 617.574 40.531 629.415 37.061 635.875 32.031 C 644.125 28.601 635.125 17.98 634.375 12 C 629.483 3.651 630.353 1.774 630.688 1.469 C 630.313 1.629 628.576 1.92 622.531 0.094 C 599.915 0.013 576.686 -0.021 553 0z
      M601,29 L 613.5 118.719 L 555.531 118.719 L 555.531 29.71875z
      M141.438 29.281 L229.844 29.281 L229.844 119.656 L141.438 119.656z
      M245.469 29.281 L333.906 29.281 L333.906 119.656 L245.469 119.656z
      M349.531 29.281 L437.938 29.281 L437.938 119.656 L349.531 119.656z
      M453.688 29.281 L539.156 29.281 L539.156 119.656 L453.688 119.656z
      M 75.781 37.031 L126.563 37.031 L126.563 149.594 L 39.719 148.844 L27.969 123.094z" />
      <path d="" fill="red"/>
    <use xlink:href="#wheel" x="150" y="244"/>
    <use xlink:href="#wheel" x="474" y="244"/>
  </g>
</svg>
