<?xml version="1.0" encoding="UTF-8" standalone="no"?>
<svg width="512px" height="512px" viewBox="0 0 512 512" version="1.1" xmlns="http://www.w3.org/2000/svg" xmlns:xlink="http://www.w3.org/1999/xlink" xmlns:sketch="http://www.bohemiancoding.com/sketch/ns">
    <!-- Generator: Sketch 3.2.2 (9983) - http://www.bohemiancoding.com/sketch -->
    <title>car-right</title>
    <desc>Created with Sketch.</desc>
    <defs></defs>
    <g id="symbols" stroke="none" stroke-width="1" fill="none" fill-rule="evenodd" sketch:type="MSPage">
        <g id="car-right" sketch:type="MSArtboardGroup" fill="#000000">
            <path d="M380.339395,323.795498 C369.792373,323.683976 355.544781,323.474916 336.311781,323.683437 C317.297441,323.426817 303.188952,323.601573 292.727564,323.704205 L292.72758,323.704205 C292.928658,353.402781 293.707854,351.569668 283.357494,351.807154 C270.976792,351.733127 271.601449,353.479787 271.684448,323.367281 C260.582715,322.198288 263.383256,317.899989 263.062998,303.663162 C262.692256,276.333901 261.20927,299.849771 277.680978,259.332553 C289.597811,231.791431 277.522089,239.206344 339.171818,238.200035 C394.042208,239.31227 382.972802,231.367718 395.578157,260.603678 C411.361335,298.049006 410.143173,278.452445 410.037247,302.868698 C409.717544,317.575157 412.555767,322.137974 401.458918,323.410102 C401.555939,353.865167 402.123217,351.545226 391.288097,351.645384 C380.130824,351.41264 380.3213,353.880291 380.339374,323.795497 L380.339395,323.795498 Z" id="Car-2" sketch:type="MSShapeGroup"></path>
        </g>
    </g>
</svg>