<?xml version="1.0" encoding="UTF-8" standalone="no"?>
<svg width="512px" height="512px" viewBox="0 0 512 512" version="1.1" xmlns="http://www.w3.org/2000/svg" xmlns:xlink="http://www.w3.org/1999/xlink" xmlns:sketch="http://www.bohemiancoding.com/sketch/ns">
    <!-- Generator: Sketch 3.2.2 (9983) - http://www.bohemiancoding.com/sketch -->
    <title>car-left</title>
    <desc>Created with Sketch.</desc>
    <defs></defs>
    <g id="symbols" stroke="none" stroke-width="1" fill="none" fill-rule="evenodd" sketch:type="MSPage">
        <g id="car-left" sketch:type="MSArtboardGroup" fill="#000000">
            <path d="M219.339395,323.795498 C208.792373,323.683976 194.544781,323.474916 175.311781,323.683437 C156.297441,323.426817 142.188952,323.601573 131.727564,323.704205 L131.72758,323.704205 C131.928658,353.402781 132.707854,351.569668 122.357494,351.807154 C109.976792,351.733127 110.601449,353.479787 110.684448,323.367281 C99.5827151,322.198288 102.383256,317.899989 102.062998,303.663162 C101.692256,276.333901 100.20927,299.849771 116.680978,259.332553 C128.597811,231.791431 116.522089,239.206344 178.171818,238.200035 C233.042208,239.31227 221.972802,231.367718 234.578157,260.603678 C250.361335,298.049006 249.143173,278.452445 249.037247,302.868698 C248.717544,317.575157 251.555767,322.137974 240.458918,323.410102 C240.555939,353.865167 241.123217,351.545226 230.288097,351.645384 C219.130824,351.41264 219.3213,353.880291 219.339374,323.795497 L219.339395,323.795498 Z" id="Car" sketch:type="MSShapeGroup"></path>
        </g>
    </g>
</svg>