<?xml version="1.0" encoding="UTF-8" standalone="no"?>
<svg width="512px" height="512px" viewBox="0 0 512 512" version="1.1" xmlns="http://www.w3.org/2000/svg" xmlns:xlink="http://www.w3.org/1999/xlink" xmlns:sketch="http://www.bohemiancoding.com/sketch/ns">
    <!-- Generator: Sketch 3.2.2 (9983) - http://www.bohemiancoding.com/sketch -->
    <title>car</title>
    <desc>Created with Sketch.</desc>
    <defs></defs>
    <g id="symbols" stroke="none" stroke-width="1" fill="none" fill-rule="evenodd" sketch:type="MSPage">
        <g id="car" sketch:type="MSArtboardGroup" fill="#000000">
            <path d="M328.793916,316.375975 C311.249238,316.19077 287.548763,315.843583 255.5552,316.189875 C223.925372,315.763705 200.456292,316.053924 183.054063,316.224366 L183.054091,316.224366 C183.388578,365.54491 184.684749,362.500652 167.467211,362.895045 C146.872257,362.77211 147.911357,365.672795 148.049423,315.664835 C129.581998,313.723482 134.24062,306.58528 133.707881,282.942123 C133.091161,237.556309 130.624255,276.609211 158.024485,209.322102 C177.847806,163.58445 157.760177,175.898425 260.312792,174.227244 C351.588166,176.074338 333.174516,162.880787 354.143174,211.433064 C380.398054,273.618673 378.371676,241.074584 378.19547,281.622755 C377.663654,306.04583 382.384958,313.623319 363.925657,315.735948 C364.087049,366.312796 365.030701,362.460062 347.006779,362.626395 C328.446965,362.239876 328.763816,366.337913 328.793882,316.375975 L328.793916,316.375975 Z" id="Car-2" sketch:type="MSShapeGroup"></path>
        </g>
    </g>
</svg>