<?xml version="1.0" encoding="UTF-8" standalone="no"?>
<svg width="512px" height="512px" viewBox="0 0 512 512" version="1.1" xmlns="http://www.w3.org/2000/svg" xmlns:xlink="http://www.w3.org/1999/xlink" xmlns:sketch="http://www.bohemiancoding.com/sketch/ns">
    <!-- Generator: Sketch 3.2.2 (9983) - http://www.bohemiancoding.com/sketch -->
    <title>children</title>
    <desc>Created with Sketch.</desc>
    <defs></defs>
    <g id="symbols" stroke="none" stroke-width="1" fill="none" fill-rule="evenodd" sketch:type="MSPage">
        <g id="children" sketch:type="MSArtboardGroup" fill="#000000">
            <g id="Group" sketch:type="MSLayerGroup" transform="translate(128.000000, 145.000000)">
                <path d="M187.978533,21.7837424 C187.978533,33.7386957 178.315057,43.4301002 166.394555,43.4301002 C154.474053,43.4301002 144.810577,33.7386957 144.810577,21.7837424 C144.810577,9.82878904 154.474053,0.137384533 166.394555,0.137384533 C178.315057,0.137384533 187.978533,9.82878904 187.978533,21.7837424 L187.978533,21.7837424 Z" id="path5681" sketch:type="MSShapeGroup"></path>
                <path d="M45.6413873,222.495907 L41.4744989,127.3091 L15.084192,148.668097 C9.31453398,148.209468 3.21618984,148.204095 0.088532069,144.10222 L41.32017,103.705875 C50.6810929,106.334189 59.5327287,105.557422 67.8647976,101.306856 L97.4960195,107.343094 L111.84864,137.059945 C107.406213,137.904792 105.044408,142.063693 95.1810779,134.273988 L87.7732745,119.415563 L75.7355959,118.951238 L86.3843143,161.669215 L114.163581,164.919496 C121.555191,165.825103 122.015237,172.455563 123.886326,177.920623 L78.9765109,178.384948 L71.1057127,167.241128 L58.1420526,170.955735 L58.6050474,213.67372 C54.7264904,219.722021 50.1907224,221.156622 45.6413873,222.495907 L45.6413873,222.495907 Z" id="path5675" sketch:type="MSShapeGroup"></path>
                <path d="M86.9003768,88.2504159 C92.7205003,86.4263729 151.649223,49.9454878 151.649223,49.9454878 C165.40495,57.6623947 176.990607,52.0103304 188.388734,45.2029726 L225.128254,56.8768529 L244.407403,94.8169741 C236.84291,98.8267565 229.44011,97.809723 222.218192,91.168888 L212.39674,71.4692054 L192.026315,64.5378402 L197.118919,111.962992 L213.488007,151.727156 L250.227526,167.778744 C259.359937,178.07093 255.943174,183.198338 254.956375,190.032092 L200.756493,168.143559 C197.917013,167.611777 196.870959,164.382075 195.300133,161.941808 L178.203526,121.812829 L160.015644,210.826196 L139.64522,221.770462 L157.105582,120.353593 L152.376734,72.1988274 L106.907045,97.3706392 C95.1681715,99.1941328 90.9279374,93.8242767 86.9003768,88.2504159 L86.9003768,88.2504159 Z" id="path5677" sketch:type="MSShapeGroup"></path>
                <path d="M71.3222694,78.4766451 C71.3222694,89.0083909 62.809206,97.5460578 52.3078102,97.5460578 C41.8064144,97.5460578 33.293351,89.0083909 33.293351,78.4766451 C33.293351,67.9448992 41.8064144,59.4072323 52.3078102,59.4072323 C62.809206,59.4072323 71.3222694,67.9448992 71.3222694,78.4766451 L71.3222694,78.4766451 Z" id="path5679" sketch:type="MSShapeGroup"></path>
            </g>
        </g>
    </g>
</svg>