<?xml version="1.0" encoding="UTF-8" standalone="no"?>
<svg width="256px" height="256px" viewBox="0 0 256 256" version="1.1" xmlns="http://www.w3.org/2000/svg" xmlns:xlink="http://www.w3.org/1999/xlink" xmlns:sketch="http://www.bohemiancoding.com/sketch/ns">
    <!-- Generator: Sketch 3.3.3 (12081) - http://www.bohemiancoding.com/sketch -->
    <title>children-au</title>
    <desc>Created with Sketch.</desc>
    <defs></defs>
    <g id="Page-1" stroke="none" stroke-width="1" fill="none" fill-rule="evenodd" sketch:type="MSPage">
        <g id="children-au" sketch:type="MSArtboardGroup" fill="#000000">
            <path d="M141.818367,80.0415149 C135.567749,78.3870275 134.737519,64.9629819 138.691565,59.8143602 C142.463438,54.5731589 150.275964,53.8384947 154.140417,54.9404909 C158.001883,55.675155 158.643967,55.675155 161.036105,59.4470281 C163.425257,62.2960914 162.872766,63.0307555 162.872766,66.8026286 C162.505434,70.2967628 164.252489,70.6640949 163.885157,72.9606693 C163.885157,75.1676457 162.872766,75.8127166 161.036105,78.2018682 C159.289038,80.3162698 157.631564,81.8811641 157.631564,81.8811641 L157.631564,85.6500507 C157.631564,85.6500507 164.987153,92.453148 168.113955,96.8671056 C170.966005,101.003324 171.975421,102.935551 175.836888,105.509861 C179.331022,108.544084 183.192488,107.44209 189.168354,108.176752 C194.409555,108.544084 196.156622,108.176752 196.156622,108.176752 C196.434361,107.44209 197.903689,107.071772 198.64134,106.611858 C199.376004,106.244528 200.018088,105.509861 201.397823,106.244528 C201.765155,106.244528 201.123071,107.44209 201.397823,108.176752 C201.765155,108.911416 202.870138,109.189155 203.23747,109.649067 C203.512223,110.751063 204.249873,113.417956 203.23747,113.692706 C200.388407,114.887282 197.261605,113.417956 194.409555,113.692706 C188.43369,114.519952 182.825156,119.026487 177.583955,117.554177 C171.975421,116.359601 169.861022,107.071772 164.619821,106.244528 C161.863349,105.877196 163.885157,112.680305 164.619821,115.624932 C166.73422,124.635022 170.595686,132.910446 171.975421,142.287866 C172.342753,144.127513 170.228354,144.127513 169.861022,145.596841 C169.218938,146.794401 169.861022,148.263729 169.861022,149.368712 C170.228354,152.402937 171.608089,155.804489 171.333337,158.746132 C170.595686,167.75622 167.654043,176.031644 165.999556,185.041734 C165.999556,186.514047 166.366888,188.718039 167.104539,190.282933 C168.113955,192.122582 168.113955,192.489912 170.228354,193.224579 C171.975421,193.95924 174.827471,195.156805 176.20422,195.524137 C177.583955,196.258801 178.96369,196.626133 178.321605,198.098448 C178.321605,199.660356 176.20422,200.027688 175.102224,200.027688 C172.713072,200.027688 170.228354,198.46578 168.113955,198.098448 C166.73422,198.098448 163.240098,197.360797 162.138102,197.360797 C160.758367,197.360797 161.863349,200.39502 160.758367,200.39502 C159.289038,200.765338 159.74895,200.765338 156.529568,200.39502 C154.782501,200.027685 155.887484,196.626133 155.887484,195.156805 C155.517165,192.857246 155.517165,191.0176 156.254816,188.718039 C156.529568,186.881381 158.643967,185.409066 158.643967,183.479826 C159.011299,180.535197 158.001883,177.500975 158.001883,174.46675 C158.001883,170.790445 159.289038,166.654224 159.74895,162.515019 C160.116282,161.780357 161.036105,160.215463 160.758367,159.848131 C158.276635,156.906488 155.517165,153.137601 152.39335,153.137601 C150.275964,153.137601 152.668102,158.008484 151.655699,160.21546 C148.531883,165.916573 144.300099,171.157777 140.0713,176.031644 C137.956901,178.605955 134.002855,180.167863 132.255788,183.109508 C131.703297,184.214488 131.981036,186.514047 131.981036,187.616043 C131.981036,189.088357 132.7157,190.650268 133.820682,191.752261 C134.737519,193.224576 136.944498,193.95924 137.956901,195.524135 C137.956901,196.626133 138.231653,198.098445 137.956901,199.200442 C136.944498,200.027685 135.197431,199.660353 133.820682,199.660353 C133.083032,199.200442 131.703297,198.83311 130.968633,198.098445 C128.854233,195.891467 127.107166,192.489912 124.992767,190.650265 C124.625435,190.282933 123.798191,192.12258 123.2457,191.752261 C121.498633,191.017597 120.118898,190.650265 119.658986,188.350707 C119.384234,186.881379 120.763969,186.143728 121.865965,184.58182 C123.613032,183.109506 125.360099,180.905513 127.107166,179.707953 C127.107166,179.707953 130.508721,174.099418 130.968633,170.423111 C131.703297,167.021556 134.002855,162.147689 136.209834,160.675372 C137.956901,159.113464 137.956901,154.606927 137.956901,154.606927 C137.31183,153.504931 136.209834,152.032616 135.197431,151.297952 C132.7157,149.368714 126.739834,150.470708 126.739834,147.161733 C130.968633,139.988306 132.7157,133.552528 134.002855,126.931592 C135.197431,121.693377 137.956901,114.519952 135.197431,110.383731 C133.083032,107.80942 129.774057,115.254614 128.486901,118.199243 C125.727431,123.162705 124.350683,129.048978 121.865965,134.747104 C120.48623,137.781327 119.384234,141.5532 116.902502,144.127511 C115.430188,145.229507 113.130629,143.760179 111.201389,144.494843 C108.534499,146.424083 105.685436,149.368712 102.833386,151.297952 C102.191302,152.032616 101.086319,153.137599 100.076902,153.137599 C99.0644993,153.137599 98.0520964,151.665284 96.8575206,151.297952 C94.835701,150.103379 93.0886339,145.596839 91.3415668,147.161733 C88.8598356,148.998394 88.3999239,153.504933 88.8598356,156.539153 C89.134588,159.113464 92.0762309,161.413023 93.0886339,163.249683 C93.823298,164.721998 94.835701,166.654224 95.1104534,168.490884 C95.9376972,169.963199 96.8575206,171.525107 97.3174322,173.364753 C97.3174322,175.29698 98.0520964,177.871291 98.0520964,180.167863 C98.0520964,183.847156 95.9376972,187.248711 95.9376972,191.017597 C95.9376972,192.12258 97.3174322,192.857244 98.3298352,193.591908 C99.7991635,194.786484 101.546231,195.524135 102.833386,196.626131 C103.478457,197.360795 104.305701,198.098445 104.305701,198.465777 C104.305701,199.200442 103.478457,200.395017 102.833386,200.395017 C101.546231,200.765336 100.444234,201.5 99.0644993,201.132668 C97.3174322,200.765336 95.9376972,199.660353 94.1906301,199.660353 C93.823298,199.660353 93.823298,201.5 93.0886339,201.5 C91.7088988,201.5 89.5944997,200.765336 88.8598356,199.660353 C88.2147646,198.098445 88.8598356,196.258799 88.8598356,194.329559 C89.134588,192.857244 89.9618317,191.752261 89.9618317,190.282933 C89.9618317,188.350707 88.3999239,186.514047 88.3999239,185.041732 C88.3999239,182.742173 89.9618317,180.167863 89.5944997,177.871291 C89.5944997,176.76631 88.3999239,175.664312 87.1127685,174.837068 C86.1003655,174.099418 83.9859663,171.525107 82.2388992,172.262757 C78.9299242,173.364753 76.5377862,177.500972 73.7813025,179.707951 C70.2871683,182.742173 65.5954718,185.409064 62.9315678,189.088357 C61.9191648,190.282933 63.2988998,192.12258 63.8513912,193.591908 C63.8513912,194.786484 65.045967,195.891467 65.045967,196.993463 C65.413299,197.731113 66.1479631,198.83311 65.413299,199.660353 C65.045967,200.395017 63.8513912,200.765336 62.9315678,200.395017 C61.9191648,200.395017 60.3572569,199.200442 59.4374336,198.465777 C58.4250306,197.360795 57.2304548,195.524135 56.6779635,193.95924 C56.2180518,193.224576 56.2180518,192.12258 55.9432994,191.752261 C54.9308964,191.384929 53.7363206,192.489912 53.0016564,192.12258 C52.4491651,191.017597 51.714501,188.718039 52.8164972,187.616043 C53.7363206,185.409064 56.9527159,185.041732 59.0701015,183.479824 C60.1720977,182.374841 62.104324,180.167863 63.2988998,178.973287 C65.045967,176.76631 67.1603661,176.398976 68.5401012,173.732085 C68.5401012,173.364753 67.1603661,170.790443 67.1603661,169.963199 C67.1603661,168.490884 68.0801895,166.283908 68.5401012,164.354665 C68.5401012,163.620004 69.2747653,161.780355 68.5401012,161.413023 C67.5276982,161.042704 65.5954718,161.780355 65.045967,162.515019 C63.6662319,163.620001 63.6662319,166.283905 61.9191648,167.388888 C60.8171686,168.490884 58.4250306,169.595867 56.9527159,168.858216 C55.9432994,168.490884 55.9432994,166.654224 55.9432994,165.549241 C56.2180518,163.620004 58.4250306,162.882351 59.0701015,161.413023 C60.8171686,157.641149 61.4592531,153.504931 62.9315678,149.736044 C65.045967,145.596839 67.1603661,141.182881 69.2747653,137.781327 C71.3891645,134.747104 74.5159666,132.910444 75.8031221,130.610886 C76.2630337,129.508889 75.6179628,128.403907 75.6179628,127.301913 C75.6179628,127.301913 72.7688995,129.04898 72.0342354,120.495817 C71.5743237,111.945639 76.2630337,109.649069 78.744765,108.911416 C81.5042351,108.544084 84.9057897,106.61186 87.1127685,109.649067 C89.9618317,112.312973 90.3291638,114.152617 90.3291638,117.18684 C90.3291638,119.393819 92.0762309,123.530037 89.5944997,126.104348 C87.4801005,128.403907 86.6528568,129.876221 86.6528568,129.876221 C90.3291638,133.552528 92.6287222,138.518977 96.3050292,141.920532 C97.3174322,143.38986 100.076902,144.494843 101.546231,144.127513 C105.225524,143.389863 109.269163,140.725958 112.395965,138.886312 C113.408368,138.059066 113.683121,136.679331 114.510364,135.484757 C117.269835,126.931592 119.384234,117.186842 122.603616,108.911416 C124.625435,102.935553 127.84183,97.3270172 130.968633,91.9932458 C133.083032,89.0516029 136.209834,87.122363 138.691565,84.5480522 C138.691565,84.5480522 142.463438,80.0415149 141.818367,80.0415149 L141.818367,80.0415149 Z" id="path3673" sketch:type="MSShapeGroup"></path>
        </g>
    </g>
</svg>