<?xml version="1.0" encoding="UTF-8" standalone="no"?>
<svg width="600px" height="600px" viewBox="0 0 600 600" version="1.1" xmlns="http://www.w3.org/2000/svg" xmlns:xlink="http://www.w3.org/1999/xlink" xmlns:sketch="http://www.bohemiancoding.com/sketch/ns">
    <!-- Generator: Sketch 3.2.2 (9983) - http://www.bohemiancoding.com/sketch -->
    <title>circle-x</title>
    <desc>Created with Sketch.</desc>
    <defs></defs>
    <g id="circles" stroke="none" stroke-width="1" fill="none" fill-rule="evenodd" sketch:type="MSPage">
        <g id="circle-x" sketch:type="MSArtboardGroup" fill="#000000">
            <path d="M285,315 L285,549.55742 C289.962444,549.851086 294.963832,550 300,550 C305.036168,550 310.037556,549.851086 315,549.55742 L315,549.55742 L315,315 L549.55742,315 C549.851086,310.037556 550,305.036168 550,300 C550,294.963832 549.851086,289.962444 549.55742,285 L549.55742,285 L315,285 L315,50.4425797 C310.037556,50.1489143 305.036168,50 300,50 C294.963832,50 289.962444,50.1489143 285,50.4425797 L285,285 L50.4425797,285 C50.1489143,289.962444 50,294.963832 50,300 C50,305.036168 50.1489143,310.037556 50.4425797,315 L285,315 L285,315 Z" id="cross" sketch:type="MSShapeGroup" transform="translate(300.000000, 300.000000) rotate(-45.000000) translate(-300.000000, -300.000000) "></path>
        </g>
    </g>
</svg>