<?xml version="1.0" encoding="UTF-8" standalone="no"?>
<svg width="512px" height="512px" viewBox="0 0 512 512" version="1.1" xmlns="http://www.w3.org/2000/svg" xmlns:xlink="http://www.w3.org/1999/xlink" xmlns:sketch="http://www.bohemiancoding.com/sketch/ns">
    <!-- Generator: Sketch 3.2.2 (9983) - http://www.bohemiancoding.com/sketch -->
    <title>cliff</title>
    <desc>Created with Sketch.</desc>
    <defs></defs>
    <g id="symbols" stroke="none" stroke-width="1" fill="none" fill-rule="evenodd" sketch:type="MSPage">
        <g id="cliff" sketch:type="MSArtboardGroup" fill="#000000">
            <path d="M331.041005,186.680612 C331.359277,188.928957 332.595037,190.947182 334.457598,192.250454 L368.342962,215.976314 C371.514871,218.198136 372.702408,222.33566 371.188113,225.900683 L362.722583,245.843456 C361.956996,247.645739 360.457167,249.033401 358.599428,249.654223 C356.744004,250.275141 354.710252,250.071351 353.013963,249.091269 L342.797845,243.194669 C340.932872,249.235937 335.558334,253.519288 329.251936,253.991873 C322.945538,254.4633 316.994832,251.027418 314.249599,245.329882 C311.505716,239.63225 312.528041,232.836293 316.828463,228.199661 L243.949772,186.123638 C242.083546,192.163653 236.710165,196.449415 230.402609,196.920842 C224.097369,197.392172 218.144155,193.956291 215.40143,188.259912 C212.657643,182.562377 213.679969,175.76642 217.97904,171.128631 L202.849009,162.392956 C199.5794,160.506187 198.459471,156.326418 200.347397,153.056906 L210.586469,135.322741 C212.065659,132.75844 215.028956,131.437133 217.925995,132.054386 L231.579248,134.956247 C233.937348,135.456608 236.395559,135.111718 238.5246,133.979734 L261.48005,121.774421 C263.976936,120.44588 266.981126,120.498925 269.430946,121.913014 L323.08413,152.890537 C325.269882,154.151566 326.751482,156.346865 327.104763,158.844908 L331.041005,186.680612 L331.041005,186.680612 Z" id="path15" sketch:type="MSShapeGroup"></path>
            <path d="M448.701603,316.478528 C439.449943,317.474331 430.115147,315.612927 421.952071,311.143822 C416.590938,307.496916 409.545476,307.496916 404.181739,311.143822 C390.556262,318.603904 374.065188,318.603904 360.439614,311.143822 C355.077228,307.496916 348.032923,307.496916 342.668125,311.143822 C329.042648,318.603904 312.552635,318.603904 298.926,311.143822 C293.564675,307.496916 286.519406,307.496916 281.156923,311.143822 C267.530192,318.603904 251.040178,318.603904 237.413544,311.143822 C234.792629,309.361889 231.697877,308.408329 228.528282,308.408329 L228.528282,327.546937 C231.697877,327.546937 234.792629,328.49934 237.413544,330.281176 C251.040178,337.742609 267.530192,337.742609 281.156923,330.281176 C286.519406,326.635525 293.564675,326.635525 298.926,330.281176 C312.552635,337.742609 329.042648,337.742609 342.668125,330.281176 C348.032923,326.635525 355.077228,326.635525 360.439614,330.281176 C374.065188,337.742609 390.556262,337.742609 404.181739,330.281176 C409.545476,326.635525 416.590938,326.635525 421.952071,330.281176 C433.151936,336.414068 446.412172,337.56293 458.499339,333.44836 L469.07954,351.774315 C467.884769,352.216809 466.74912,352.803874 465.695449,353.518827 C452.069972,360.981417 435.578801,360.981417 421.952071,353.518827 C416.590938,349.874333 409.545476,349.874333 404.181739,353.518827 C390.556262,360.981417 374.065188,360.981417 360.439614,353.518827 C355.077228,349.874333 348.032923,349.874333 342.668125,353.518827 C329.042648,360.981417 312.552635,360.981417 298.926,353.518827 C293.564675,349.874333 286.519406,349.874333 281.156923,353.518827 C267.530192,360.981417 251.040178,360.981417 237.413544,353.518827 C234.792629,351.738148 231.697877,350.785746 228.528282,350.785746 L228.528282,391.186024 L42.9204604,391.186024 L153.246741,197.13418 L228.528282,197.13418 L228.528282,285.170678 C231.697877,285.170678 234.792629,286.124334 237.413544,287.903759 C251.040178,295.366349 267.530192,295.366349 281.156923,287.903759 C286.519406,284.259265 293.564675,284.259265 298.926,287.903759 C312.552635,295.366349 329.042648,295.366349 342.668125,287.903759 C348.032923,284.259265 355.077228,284.259265 360.439614,287.903759 C374.065188,295.366349 390.556262,295.366349 404.181739,287.903759 C409.545476,284.259265 416.590938,284.259265 421.952071,287.903759 C426.013693,290.128089 430.388764,291.720698 434.92895,292.624878 L448.701603,316.478528 Z" id="path19" sketch:type="MSShapeGroup"></path>
        </g>
    </g>
</svg>