<?xml version="1.0" encoding="UTF-8" standalone="no"?>
<svg width="256px" height="256px" viewBox="0 0 256 256" version="1.1" xmlns="http://www.w3.org/2000/svg" xmlns:xlink="http://www.w3.org/1999/xlink" xmlns:sketch="http://www.bohemiancoding.com/sketch/ns">
    <!-- Generator: Sketch 3.3.3 (12081) - http://www.bohemiancoding.com/sketch -->
    <title>crossroads-ahead</title>
    <desc>Created with Sketch.</desc>
    <defs></defs>
    <g id="Page-1" stroke="none" stroke-width="1" fill="none" fill-rule="evenodd" sketch:type="MSPage">
        <g id="crossroads-ahead" sketch:type="MSArtboardGroup" fill="#000000">
            <path d="M141.38753,95.7599638 L141.38753,126.684024 L198.834964,126.684024 L198.834964,149.552566 L141.38753,149.552566 L141.38753,207 L114.61247,207 L114.61247,149.552566 L57.1650358,149.552566 L57.1650358,126.684024 L114.61247,126.684024 L114.61247,96.1184865 L103.197985,99.0673831 L103.194304,99.0692236 C102.842303,99.1542559 102.4811,99.1980605 102.119896,99.1980605 C99.6558914,99.1980605 97.6566195,97.2010892 97.6566195,94.7370843 C97.6566195,93.8444289 97.9257965,92.9724795 98.4250393,92.2339682 L128.694799,49 L158.964558,92.2339682 C159.463801,92.9724795 159.730677,93.8444289 159.730677,94.7370843 C159.730677,97.2010892 157.733706,99.1980605 155.269701,99.1980605 C154.908498,99.1980605 154.547295,99.15444 154.195294,99.0692236 L154.189772,99.0673831 L141.38753,95.7599638 L141.38753,95.7599638 Z" id="crossroads" sketch:type="MSShapeGroup"></path>
        </g>
    </g>
</svg>