<?xml version="1.0" encoding="UTF-8" standalone="no"?>
<svg width="512px" height="512px" viewBox="0 0 512 512" version="1.1" xmlns="http://www.w3.org/2000/svg" xmlns:xlink="http://www.w3.org/1999/xlink" xmlns:sketch="http://www.bohemiancoding.com/sketch/ns">
    <!-- Generator: Sketch 3.2.2 (9983) - http://www.bohemiancoding.com/sketch -->
    <title>curve-r-l</title>
    <desc>Created with Sketch.</desc>
    <defs></defs>
    <g id="us-symbols" stroke="none" stroke-width="1" fill="none" fill-rule="evenodd" sketch:type="MSPage">
        <g id="curve-r-l" sketch:type="MSArtboardGroup" fill="#000000">
            <path d="M198.556059,215.965239 L198.556059,224.078667 C198.556059,245.734103 208.714185,267.115109 226.03857,280.238993 L293.676575,331.460709 C299.111636,335.576215 302.351822,341.867154 302.351822,348.673989 L302.351822,398.23654 L352.188617,398.23654 L352.188617,348.673989 C352.188617,335.680839 348.667521,322.72028 341.82791,311.660539 C337.614446,304.814447 332.32308,298.36685 325.888632,293.487128 L257.081249,241.291949 C253.814953,238.809497 251.12344,235.53672 249.653709,231.682495 C248.713021,229.20671 248.203421,226.541489 248.203421,223.876086 L248.203421,215.194357 L281.199322,224.692706 C281.72207,224.829735 282.244633,224.888806 282.754048,224.960653 C285.086323,225.274154 287.333417,224.646968 289.273677,223.314451 C291.350966,221.870644 292.820883,219.649659 293.278079,217.173689 C293.78768,214.443104 293.296597,211.882323 291.697243,209.648191 L223.490752,113.76346 L161.392432,209.870401 C160.39286,211.41198 159.798449,213.358721 159.811596,215.194357 C159.811596,219.878165 163.306398,223.9546 167.833548,224.908249 C169.492712,225.261007 171.086696,225.006392 172.65457,224.49031 L198.556059,215.965239 L198.556059,215.965239 Z" id="path3219" sketch:type="MSShapeGroup"></path>
        </g>
    </g>
</svg>