<?xml version="1.0" encoding="UTF-8" standalone="no"?>
<svg width="512px" height="512px" viewBox="0 0 512 512" version="1.1" xmlns="http://www.w3.org/2000/svg" xmlns:xlink="http://www.w3.org/1999/xlink" xmlns:sketch="http://www.bohemiancoding.com/sketch/ns">
    <!-- Generator: Sketch 3.2.2 (9983) - http://www.bohemiancoding.com/sketch -->
    <title>curve-r-r</title>
    <desc>Created with Sketch.</desc>
    <defs></defs>
    <g id="us-symbols" stroke="none" stroke-width="1" fill="none" fill-rule="evenodd" sketch:type="MSPage">
        <g id="curve-r-r" sketch:type="MSArtboardGroup" fill="#000000">
            <path d="M226.556059,215.965239 L226.556059,224.078667 C226.556059,245.734103 236.714185,267.115109 254.03857,280.238993 L321.676575,331.460709 C327.111636,335.576215 330.351822,341.867154 330.351822,348.673989 L330.351822,398.23654 L380.188617,398.23654 L380.188617,348.673989 C380.188617,335.680839 376.667521,322.72028 369.82791,311.660539 C365.614446,304.814447 360.32308,298.36685 353.888632,293.487128 L285.081249,241.291949 C281.814953,238.809497 279.12344,235.53672 277.653709,231.682495 C276.713021,229.20671 276.203421,226.541489 276.203421,223.876086 L276.203421,215.194357 L309.199322,224.692706 C309.72207,224.829735 310.244633,224.888806 310.754048,224.960653 C313.086323,225.274154 315.333417,224.646968 317.273677,223.314451 C319.350966,221.870644 320.820883,219.649659 321.278079,217.173689 C321.78768,214.443104 321.296597,211.882323 319.697243,209.648191 L251.490752,113.76346 L189.392432,209.870401 C188.39286,211.41198 187.798449,213.358721 187.811596,215.194357 C187.811596,219.878165 191.306398,223.9546 195.833548,224.908249 C197.492712,225.261007 199.086696,225.006392 200.65457,224.49031 L226.556059,215.965239 L226.556059,215.965239 Z" id="path3219" sketch:type="MSShapeGroup" transform="translate(284.000000, 256.000000) scale(-1, 1) translate(-284.000000, -256.000000) "></path>
        </g>
    </g>
</svg>