<?xml version="1.0" encoding="UTF-8" standalone="no"?>
<svg width="256px" height="256px" viewBox="0 0 256 256" version="1.1" xmlns="http://www.w3.org/2000/svg" xmlns:xlink="http://www.w3.org/1999/xlink" xmlns:sketch="http://www.bohemiancoding.com/sketch/ns">
    <!-- Generator: Sketch 3.3.2 (12043) - http://www.bohemiancoding.com/sketch -->
    <title>cyclists_crossing_bra</title>
    <desc>Created with Sketch.</desc>
    <defs></defs>
    <g id="Page-1" stroke="none" stroke-width="1" fill="none" fill-rule="evenodd" sketch:type="MSPage">
        <g id="cyclists_crossing_bra" sketch:type="MSArtboardGroup">
            <path d="M123.332166,78.6258002 C128.177023,78.6258002 132.105166,82.5594523 132.105166,87.4155393 C132.105166,92.2671915 128.172595,96.2052784 123.332166,96.2052784 C118.48288,96.2052784 114.554738,92.2671915 114.554738,87.4155393 C114.550309,82.5594523 118.48288,78.6258002 123.332166,78.6258002" id="path9" fill="#000000" sketch:type="MSShapeGroup"></path>
            <path d="M132.632166,154.398496 C134.505452,149.129974 136.383166,143.848148 138.252023,138.579626 C138.16788,138.016409 137.791452,137.69267 137.025309,138.051887 C133.45588,139.337974 129.886452,140.628496 126.317023,141.914583 C128.416166,146.078844 130.528595,150.23867 132.632166,154.398496 L132.632166,154.398496 Z M138.079309,96.7330176 C135.856166,93.9213654 133.633023,93.9213654 131.40988,96.7330176 C124.731595,104.759974 118.057738,112.791365 111.388309,120.818322 C106.880023,125.567974 109.634595,130.783278 116.481166,125.918322 C119.81588,121.931452 123.150595,117.949018 126.485309,113.962148 C127.481738,113.257018 128.243452,113.257018 128.770452,113.962148 C130.878452,118.357018 132.986452,122.751887 135.094452,127.151191 C129.709309,129.905191 124.324166,132.659191 118.943452,135.413191 C115.254452,137.519713 114.789452,139.63067 115.781452,141.741626 C118.593595,147.542322 121.39688,153.351887 124.209023,159.148148 C125.989309,160.966409 127.924595,162.199278 130.178738,162.137191 C129.651738,163.60067 129.124738,165.064148 128.597738,166.532061 C126.436595,173.450322 133.575452,177.313018 136.848166,169.698496 C141.883452,156.686844 146.914309,143.675191 151.949595,130.667974 C152.658166,128.455018 152.423452,125.936061 151.24988,123.10667 C146.856738,114.312496 142.468023,105.522757 138.079309,96.7330176 L138.079309,96.7330176 Z" id="path13" fill="#000000" sketch:type="MSShapeGroup"></path>
            <path d="M88.541309,139.045278 C97.9121661,139.045278 105.502738,146.650931 105.502738,156.030496 C105.502738,165.410061 97.9121661,173.020148 88.541309,173.020148 C79.179309,173.020148 71.5798804,165.410061 71.5798804,156.030496 C71.5798804,146.650931 79.179309,139.045278 88.541309,139.045278 L88.541309,139.045278 Z M88.541309,136.277974 C99.4355947,136.277974 108.270595,145.125365 108.270595,156.030496 C108.270595,166.940061 99.4355947,175.787452 88.541309,175.787452 C77.6470233,175.787452 68.8164519,166.940061 68.8164519,156.030496 C68.8164519,145.125365 77.6470233,136.277974 88.541309,136.277974 L88.541309,136.277974 Z" id="path17" fill="#000000" sketch:type="MSShapeGroup"></path>
            <path d="M168.76488,139.045278 C178.131309,139.045278 185.726309,146.650931 185.726309,156.030496 C185.726309,165.410061 178.131309,173.020148 168.76488,173.020148 C159.398452,173.020148 151.799023,165.410061 151.799023,156.030496 C151.799023,146.650931 159.398452,139.045278 168.76488,139.045278 L168.76488,139.045278 Z M168.76488,136.277974 C179.659166,136.277974 188.494166,145.125365 188.494166,156.030496 C188.494166,166.940061 179.659166,175.787452 168.76488,175.787452 C157.870595,175.787452 149.040023,166.940061 149.040023,156.030496 C149.040023,145.125365 157.875023,136.277974 168.76488,136.277974 L168.76488,136.277974 Z" id="path21" fill="#000000" sketch:type="MSShapeGroup"></path>
            <path d="M188.494166,156.030496 C188.494166,166.940061 179.659166,175.787452 168.76488,175.787452 C157.870595,175.787452 149.040023,166.940061 149.040023,156.030496 C149.040023,145.125365 157.875023,136.277974 168.76488,136.277974 C179.659166,136.277974 188.494166,145.125365 188.494166,156.030496 Z" id="path23" stroke="#000000" stroke-width="0.155" sketch:type="MSShapeGroup"></path>
            <path d="M89.5111661,153.09467 C91.1851661,153.09467 92.5358804,154.451713 92.5358804,156.119191 C92.5358804,157.791105 91.1851661,159.148148 89.5111661,159.148148 C87.8460233,159.148148 86.4864519,157.791105 86.4864519,156.119191 C86.4864519,154.447278 87.8460233,153.09467 89.5111661,153.09467" id="path25" fill="#000000" sketch:type="MSShapeGroup"></path>
            <path d="M167.936738,154.070322 C169.606309,154.070322 170.961452,155.427365 170.961452,157.090409 C170.961452,158.762322 169.606309,160.119365 167.936738,160.119365 C166.271595,160.119365 164.912023,158.762322 164.912023,157.090409 C164.912023,155.422931 166.271595,154.070322 167.936738,154.070322" id="path29" fill="#000000" sketch:type="MSShapeGroup"></path>
            <path d="M90.091309,153.116844 C95.547309,145.400322 101.007738,137.6838 106.463738,129.962844 C108.341452,127.089105 109.949023,128.122409 108.25288,131.0538 C107.615166,132.104844 106.973023,133.147018 106.335309,134.198061 C109.745309,134.069452 113.159738,133.940844 116.569738,133.812235 C115.081738,134.459713 113.726595,135.14267 113.310309,136.056235 C110.706309,136.184844 108.102309,136.313452 105.502738,136.442061 C109.284738,140.185018 113.049023,143.923539 116.826595,147.666496 L118.004595,150.438235 C118.376595,151.174409 117.473166,151.285278 116.512166,150.682148 C112.265166,146.6598 108.022595,142.641887 103.780023,138.623974 C99.9625947,143.990061 96.1451661,149.356148 92.3321661,154.722235 L90.9238804,154.722235 C90.6094519,154.442844 90.2817376,154.163452 89.9628804,153.888496 C90.0027376,153.631278 90.0425947,153.374061 90.091309,153.116844" id="path33" fill="#000000" sketch:type="MSShapeGroup"></path>
            <path d="M155.426023,138.898931 L168.375166,155.870844 L166.851738,158.509539 L146.086166,158.647018 C144.474166,158.327713 144.509595,155.84867 146.086166,155.870844 L162.976738,155.870844 L163.80488,154.345278 L153.41988,140.043105 C152.587309,138.978757 153.41988,137.431018 155.426023,138.898931" id="path37" fill="#000000" sketch:type="MSShapeGroup"></path>
        </g>
    </g>
</svg>