<?xml version="1.0" encoding="UTF-8" standalone="no"?>
<svg width="512px" height="512px" viewBox="0 0 512 512" version="1.1" xmlns="http://www.w3.org/2000/svg" xmlns:xlink="http://www.w3.org/1999/xlink" xmlns:sketch="http://www.bohemiancoding.com/sketch/ns">
    <!-- Generator: Sketch 3.2.2 (9983) - http://www.bohemiancoding.com/sketch -->
    <title>dead-end</title>
    <desc>Created with Sketch.</desc>
    <defs></defs>
    <g id="us-symbols" stroke="none" stroke-width="1" fill="none" fill-rule="evenodd" sketch:type="MSPage">
        <g id="dead-end" sketch:type="MSArtboardGroup" fill="#000000">
            <g id="path3460-+-path3464" sketch:type="MSLayerGroup" transform="translate(142.000000, 163.000000)">
                <path d="M216.702019,35.3552386 C216.702019,44.6087709 214.517712,52.1568724 210.369878,56.3020106 C208.43,58.2600955 206.261452,58.9943787 202.610412,58.9943787 L191.657292,58.9943787 L191.657292,11.7239944 L204.053495,11.7239944 C206.986939,11.7239944 209.399939,12.9399023 211.111124,14.6611229 C214.517712,18.3088444 216.702019,26.1017085 216.702019,35.3552386 L216.702019,35.3552386 Z M227.899613,35.3552386 C227.899613,21.7197038 223.767538,10.7528469 216.457567,4.42065324 C212.822286,1.49931676 210.141185,0.772931762 203.083556,0.772931762 L180.71204,0.772931762 L180.71204,70.182308 L201.869166,70.182308 L205.764658,70.182308 C209.399939,69.9375476 213.06676,68.7216397 215.732102,66.2898239 C223.523086,60.2023906 227.899613,49.2434297 227.899613,35.3552386 L227.899613,35.3552386 Z M147.868416,39.492483 L134.013393,39.492483 L141.063131,20.0063792 L147.868416,39.492483 L147.868416,39.492483 Z M170.247824,70.182308 L146.425355,0.772931762 L135.472235,0.772931762 L111.633986,70.182308 L123.304702,70.182308 L130.110011,50.711994 L151.771799,50.711994 L158.577107,70.182308 L170.247824,70.182308 L170.247824,70.182308 Z M106.287542,70.182308 L106.287542,58.9943787 L74.1694104,58.9943787 L74.1694104,39.9741099 L94.364488,39.9741099 L94.364488,28.7782846 L74.1694104,28.7782846 L74.1694104,11.7239944 L104.087459,11.7239944 L104.087459,0.772931762 L63.2320492,0.772931762 L63.2320492,70.182308 L106.287542,70.182308 L106.287542,70.182308 Z M36.9571504,35.3552386 C36.9571504,44.6087709 34.7649527,52.1568724 30.6328774,56.3020106 C28.6930221,58.2600955 26.4929339,58.9943787 22.8418939,58.9943787 L11.9045327,58.9943787 L11.9045327,11.7239944 L24.3007139,11.7239944 C27.2341798,11.7239944 29.6629386,12.9399023 31.3662327,14.6611229 C34.7649527,18.3088444 36.9571504,26.1017085 36.9571504,35.3552386 L36.9571504,35.3552386 Z M48.1389633,35.3552386 C48.1389633,21.7197038 44.006888,10.7528469 36.7126986,4.42065324 C33.0616586,1.49931676 30.3884256,0.772931762 23.3307974,0.772931762 L0.951390353,0.772931762 L0.951390353,70.182308 L22.1242974,70.182308 L26.0118986,70.182308 C29.6629386,69.9375476 33.3140009,68.7216397 35.9872115,66.2898239 C43.7703268,60.2023906 48.1389633,49.2434297 48.1389633,35.3552386 L48.1389633,35.3552386 Z" id="path3460" sketch:type="MSShapeGroup"></path>
                <path d="M185.821922,120.59013 C185.821922,129.843669 183.637615,137.399657 179.489781,141.52901 C177.549904,143.487097 175.365596,144.213471 171.698775,144.213471 L160.761414,144.213471 L160.761414,96.9667881 L173.157618,96.9667881 C176.091061,96.9667881 178.519842,98.1826781 180.215246,99.8960071 C183.637615,103.543744 185.821922,111.33659 185.821922,120.59013 L185.821922,120.59013 Z M197.003735,120.59013 C197.003735,106.946701 192.871682,95.9956338 185.577471,89.6555352 C181.926431,86.7420948 179.245307,85.99992 172.187679,85.99992 L149.824053,85.99992 L149.824053,155.417197 L170.973288,155.417197 L174.868802,155.417197 C178.519842,155.180339 182.170882,153.964427 184.851984,151.508923 C192.627208,145.437284 197.003735,134.470416 197.003735,120.59013 L197.003735,120.59013 Z M133.516599,155.417197 L133.516599,85.99992 L122.563456,85.99992 L122.563456,130.333185 L97.2821504,85.99992 L86.3290304,85.99992 L86.3290304,155.417197 L97.2821504,155.417197 L97.2821504,108.407371 L123.801496,155.417197 L133.516599,155.417197 L133.516599,155.417197 Z M74.9027656,155.417197 L74.9027656,144.213471 L42.7925198,144.213471 L42.7925198,125.216899 L62.9797068,125.216899 L62.9797068,114.013173 L42.7925198,114.013173 L42.7925198,96.9667881 L72.7184362,96.9667881 L72.7184362,85.99992 L31.8551586,85.99992 L31.8551586,155.417197 L74.9027656,155.417197 L74.9027656,155.417197 Z" id="path3464" sketch:type="MSShapeGroup"></path>
            </g>
        </g>
    </g>
</svg>