<?xml version="1.0" encoding="UTF-8" standalone="no"?>
<svg width="512px" height="512px" viewBox="0 0 512 512" version="1.1" xmlns="http://www.w3.org/2000/svg" xmlns:xlink="http://www.w3.org/1999/xlink" xmlns:sketch="http://www.bohemiancoding.com/sketch/ns">
    <!-- Generator: Sketch 3.2.2 (9983) - http://www.bohemiancoding.com/sketch -->
    <title>disabled</title>
    <desc>Created with Sketch.</desc>
    <defs></defs>
    <g id="symbols" stroke="none" stroke-width="1" fill="none" fill-rule="evenodd" sketch:type="MSPage">
        <g id="disabled" sketch:type="MSArtboardGroup">
            <g id="g8408" sketch:type="MSLayerGroup" transform="translate(256.000000, 256.000000) scale(-1, 1) translate(-256.000000, -256.000000) translate(189.576279, 158.919177)">
                <path d="M131.756409,145.347411 C131.760232,168.807955 112.74278,187.828487 89.2822359,187.828487 C65.8216922,187.828487 46.8042394,168.807955 46.8080632,145.347411 C46.8042394,121.886868 65.8216922,102.866336 89.2822359,102.866336 C112.74278,102.866336 131.760232,121.886868 131.756409,145.347411 L131.756409,145.347411 L131.756409,145.347411 Z" id="path3069" stroke="#000000" stroke-width="10.2190337" sketch:type="MSShapeGroup"></path>
                <path id="path6617" stroke="#FFFFFF" stroke-width="9.02828855" sketch:type="MSShapeGroup" d="M98.1777341,98.1785005 L98.1777341,110.782146"></path>
                <path id="path5730" stroke="#FFFFFF" stroke-width="10.0970443" sketch:type="MSShapeGroup" d="M44.492693,123.411493 L61.048831,123.411493"></path>
                <path id="path8406" stroke="#FFFFFF" stroke-width="10.0970443" sketch:type="MSShapeGroup" d="M58.4476117,105.619235 L75.0037497,105.619235"></path>
                <path d="M1.6971976,189.652395 C8.4454951,164.336271 22.1113326,113.547519 22.9135115,111.864597 C24.5927031,108.341841 24.924648,105.530993 30.4788667,105.288291 L67.0013263,105.724491 L67.0013263,90.2450046 L28.9530883,90.2450046 C29.7432496,86.7977157 28.7000957,83.3504267 34.9239523,79.9031378 L66.7594571,79.9031378 L66.7594571,49.3694306 C66.7594571,41.367365 96.7509832,41.3862191 96.7509832,49.3694306 L96.7509832,111.045542 C96.7509832,117.342102 90.9802334,121.687695 82.4808227,121.687695 L34.1073953,121.687695 L12.823084,189.894228 C11.5189769,194.761197 1.6971976,193.316328 1.6971976,189.652395 L1.6971976,189.652395 Z" id="path6630" fill="#000000" sketch:type="MSShapeGroup"></path>
                <path d="M95.9521728,18.4929752 C95.955433,27.1779294 88.9157884,34.2202255 80.230812,34.2202255 C71.5458412,34.2202255 64.5061965,27.1779294 64.5094568,18.4929752 C64.5061965,9.80802101 71.5458412,2.76572492 80.230812,2.76572492 C88.9157884,2.76572492 95.955433,9.80802101 95.9521728,18.4929752 L95.9521728,18.4929752 Z" id="path6632" fill="#000000" sketch:type="MSShapeGroup"></path>
            </g>
        </g>
    </g>
</svg>