<?xml version="1.0" encoding="UTF-8" standalone="no"?>
<svg width="512px" height="512px" viewBox="0 0 512 512" version="1.1" xmlns="http://www.w3.org/2000/svg" xmlns:xlink="http://www.w3.org/1999/xlink" xmlns:sketch="http://www.bohemiancoding.com/sketch/ns">
    <!-- Generator: Sketch 3.2.2 (9983) - http://www.bohemiancoding.com/sketch -->
    <title>disabled-p</title>
    <desc>Created with Sketch.</desc>
    <defs></defs>
    <g id="symbols" stroke="none" stroke-width="1" fill="none" fill-rule="evenodd" sketch:type="MSPage">
        <g id="disabled-p" sketch:type="MSArtboardGroup">
            <g id="g8408" sketch:type="MSLayerGroup" transform="translate(255.908562, 257.172102) scale(-1, 1) translate(-255.908562, -257.172102) translate(146.408562, 97.172102)">
                <path d="M218.987198,239.78258 C218.993611,279.131556 187.096767,311.033565 147.747791,311.033565 C108.398815,311.033565 76.5019707,279.131556 76.508384,239.78258 C76.5019707,200.433603 108.398815,168.531595 147.747791,168.531595 C187.096767,168.531595 218.993611,200.433603 218.987198,239.78258 L218.987198,239.78258 L218.987198,239.78258 Z" id="path3069" stroke="#000000" stroke-width="19" sketch:type="MSShapeGroup"></path>
                <path id="path6617" stroke="#FFFFFF" stroke-width="9.02828855" sketch:type="MSShapeGroup" d="M162.667682,160.668967 L162.667682,181.808314"></path>
                <path id="path5730" stroke="#FFFFFF" stroke-width="10.0970443" sketch:type="MSShapeGroup" d="M72.6249512,202.990766 L100.393578,202.990766"></path>
                <path id="path8406" stroke="#FFFFFF" stroke-width="10.0970443" sketch:type="MSShapeGroup" d="M96.0307074,173.148869 L123.799334,173.148869"></path>
                <path d="M0.846608733,314.092697 C12.1651273,271.631466 35.0860249,186.446509 36.4314718,183.623845 C39.2478802,177.715334 39.8046317,173.000867 49.1203928,172.593797 L110.377345,173.325409 L110.377345,147.362586 L46.5612953,147.362586 C47.8865858,141.580653 46.1369658,135.79872 56.5758709,130.016787 L109.971672,130.016787 L109.971672,78.8044136 C109.971672,65.3830241 160.274677,65.414647 160.274677,78.8044136 L160.274677,182.250091 C160.274677,192.810937 150.595742,200.099543 136.340185,200.099543 L55.2063083,200.099543 L19.5073972,314.49831 C17.3200957,322.661387 0.846608733,320.237994 0.846608733,314.092697 L0.846608733,314.092697 Z" id="path6630" fill="#000000" sketch:type="MSShapeGroup"></path>
                <path d="M158.93488,27.0171689 C158.940348,41.5839267 147.13317,53.3955516 132.566376,53.3955516 C117.99959,53.3955516 106.192412,41.5839267 106.19788,27.0171689 C106.192412,12.4504111 117.99959,0.638786134 132.566376,0.638786134 C147.13317,0.638786134 158.940348,12.4504111 158.93488,27.0171689 L158.93488,27.0171689 Z" id="path6632" fill="#000000" sketch:type="MSShapeGroup"></path>
            </g>
        </g>
    </g>
</svg>