<?xml version="1.0" encoding="UTF-8" standalone="yes"?>
<svg xmlns="http://www.w3.org/2000/svg" version="1.1" width="512px" height="512px" viewBox="0 0 519 350">
  <path d="M0,107.46C2.64,100.79 50.77,53.05 78.50,27.72L30.24,3.05L93.79,2.92L112.74,23.13L129.41,6.56C135.97,12.87 135.92,27.78 129.66,43.81L212.56,55.19L483.37,55.02C489.07,58.14 503.82,55.37 510.55,84.22L510.69,194.62L518.92,204.91C514.46,218.13 510.29,231.71 504.58,243.36C498.76,233.01 494.50,219.09 493.63,200.15L493.46,82.12C488.11,74.00 481.80,68.96 472.52,73.31C476.38,79.87 479.81,86.66 479.44,95.49L479.56,346.80L448.62,346.93C463.67,309.05 454.22,271.30 424.43,236.39L377.04,347.01L347.64,347.01C357.70,330.60 369.41,316.83 371.61,287.84C371.13,258.92 367.30,232.30 349.16,215.49L261.35,230.82L270.58,346.88L240.73,346.97C251.70,312.74 239.80,269.95 218.83,245.45L205.51,347.01L174.57,346.93C216.55,238.86 152.61,185.07 105.60,129.04L22.00,128.94C11.28,126.30 5.18,117.50 0,107.46z"/>
</svg>
