<?xml version="1.0" encoding="UTF-8" standalone="no"?>
<svg width="256px" height="256px" viewBox="0 0 256 256" version="1.1" xmlns="http://www.w3.org/2000/svg" xmlns:xlink="http://www.w3.org/1999/xlink" xmlns:sketch="http://www.bohemiancoding.com/sketch/ns">
    <!-- Generator: Sketch 3.3.3 (12081) - http://www.bohemiancoding.com/sketch -->
    <title>domestic-animals-au</title>
    <desc>Created with Sketch.</desc>
    <defs></defs>
    <g id="Page-1" stroke="none" stroke-width="1" fill="none" fill-rule="evenodd" sketch:type="MSPage">
        <g id="domestic-animals-au" sketch:type="MSArtboardGroup" fill="#000000">
            <path d="M124.959417,153.629761 L126.091903,156.455684 L126.091903,159.530332 L125.925205,162.279522 L125.038797,165.991852 L125.599748,168.248886 L126.57612,169.055915 L126.250663,170.672619 C126.250663,171.320888 126.57612,171.971803 127.057692,172.286676 C127.539263,172.691514 128.190178,172.937591 128.830509,172.937591 C129.637538,173.093705 130.288453,173.093705 130.939368,173.016971 C131.579699,173.016971 132.230614,172.691514 132.791565,172.45602 C133.037643,172.45602 133.519214,172.207296 133.675328,171.881839 C133.765291,171.569611 133.675328,171.320888 133.519214,171.07481 C133.273136,170.672619 132.958263,170.513859 132.712185,170.188401 C132.230614,169.70683 131.825776,168.741042 131.254241,168.090127 C131.095482,168.090127 130.770024,167.764669 130.61391,168.090127 L130.444566,166.317309 C129.058065,157.445287 130.56099,148.89343 132.632805,140.301881 L133.675328,133.840361 C134.326243,133.356143 135.056538,132.874572 135.135917,132.874572 C135.617487,132.874572 138.207917,130.374106 138.366676,130.374106 C138.44341,130.374106 141.1926,128.106487 141.922895,127.299459 C141.922895,127.299459 142.809304,126.008213 142.809304,125.841515 C142.809304,124.796349 144.097904,122.205918 144.097904,121.31951 C144.097904,119.300615 145.714607,114.53253 145.883951,114.048313 C146.196179,112.680333 151.289719,109.449574 153.557337,107.756136 L154.67924,107.181955 C155.081431,106.621004 156.293297,104.602109 156.383261,104.435411 C156.383261,104.435411 157.674507,103.469623 158.402156,103.469623 C160.500431,103.469623 161.140762,104.199918 161.947789,104.199918 C163.249619,104.199918 165.504007,105.332404 166.55976,105.332404 C166.885217,105.332404 168.411957,106.779764 169.060226,106.946462 L169.385683,107.181955 L169.869901,107.181955 L170.520816,107.181955 C171.563338,107.181955 172.775204,106.946462 173.751577,106.946462 C173.751577,106.946462 174.312528,106.139433 174.312528,106.049469 C174.312528,105.893355 174.714719,105.409138 174.873479,105.332404 C174.873479,105.332404 174.873479,104.927567 174.963443,104.927567 L175.445012,104.681489 L176.085343,104.030574 L176.085343,103.469623 C176.085343,103.313509 176.331421,102.818708 176.331421,102.583214 C176.331421,102.337137 176.487534,101.852919 176.487534,101.450728 C176.487534,100.966511 176.331421,100.484939 176.331421,100.159482 C176.331421,99.7572905 176.085343,99.0269956 175.926583,98.8708818 C175.601126,98.5454243 174.468642,98.3760805 174.468642,98.3760805 C174.063804,98.3760805 172.449747,96.2778057 172.134873,96.121692 L170.351472,94.5049884 C170.351472,94.179533 169.139606,92.890933 169.139606,91.9145604 C169.139606,91.9145604 168.814148,90.9487719 168.814148,90.5439345 C168.814148,89.8162856 168.578655,88.9298769 168.578655,88.199582 C168.578655,88.1228482 167.927739,87.4719331 167.927739,87.3131734 C167.927739,87.3131734 167.525548,86.7522222 167.525548,86.6622584 C167.525548,86.5855245 167.041331,86.3500308 167.041331,86.3500308 C166.795253,86.3500308 166.390416,86.1013072 166.078188,85.9451934 C166.078188,85.9451934 165.504007,86.0245733 165.673351,85.9451934 C165.752731,85.7758497 166.390416,85.7758497 166.55976,85.6197359 C166.639139,85.5403561 166.313682,85.2942784 166.313682,85.2942784 C166.154922,85.2148985 165.17855,84.9688209 165.17855,84.7333273 L165.673351,84.1617921 C165.752731,84.0824123 166.313682,84.0824123 166.313682,83.7569548 C166.313682,83.600841 165.673351,83.600841 165.673351,83.600841 C165.022436,83.600841 164.056647,82.949926 163.405732,82.7144323 L164.215407,81.7380598 L165.17855,81.0077649 L166.234302,80.5261936 L167.692246,80.3700799 L168.734768,80.3700799 L169.139606,80.1240022 L169.139606,79.8885107 L168.658034,79.6397871 L167.446168,79.2375957 L165.673351,79.2375957 L163.88995,79.3143296 L162.273246,79.8885107 L160.825888,80.6955374 C160.333733,80.7722713 159.928896,80.5261936 159.693402,80.5261936 L156.867478,80.5261936 C155.081431,80.5261936 152.660345,82.4683547 151.133605,82.4683547 C150.964261,82.4683547 148.945366,84.0056784 148.540531,84.0056784 C148.305037,84.0056784 146.521636,85.2148985 146.521636,85.2148985 C145.074276,85.2942784 141.753551,87.9640884 140.306191,88.0434683 C140.306191,88.0434683 139.094325,88.4483057 138.612754,88.4483057 L132.553425,88.4483057 C130.770024,88.4483057 128.671749,88.0434683 126.732234,88.0434683 L121.964151,88.0434683 C118.900088,88.0434683 115.187756,89.4114482 112.359186,89.4114482 C110.250327,89.4114482 106.863454,90.5439345 104.76518,90.5439345 C101.534418,90.5439345 97.5733624,91.4303432 93.937766,91.4303432 C91.3579199,91.4303432 88.0371949,90.0623632 86.1082638,90.0623632 C83.1129964,90.0623632 78.9958287,88.0434683 75.8418015,88.0434683 C74.4738215,88.0434683 71.8040116,87.0670958 69.7057367,87.0670958 C68.5732526,87.0670958 66.3955979,87.3131734 65.3424915,87.3131734 C63.9718655,87.3131734 62.1117303,88.199582 60.8998642,88.6837993 C59.687998,89.1759546 57.9151807,90.5439345 56.8594283,90.5439345 C56.7033145,90.5439345 55.086611,91.2742294 54.6050397,91.2742294 C53.7980109,91.2742294 51.855852,92.0812582 51.5303944,92.0812582 C50.2417944,92.0812582 47.2465269,94.1795309 46.6855758,94.1795309 C46.6855758,94.1795309 45.0688722,95.6374747 45.0688722,95.9523482 C45.0688722,96.5238833 44.3385773,98.1405869 44.3385773,98.9476157 C44.3385773,99.9927841 43.857006,101.606842 43.857006,102.818708 C43.857006,104.681489 43.9363859,107.025841 43.9363859,108.798659 C43.9363859,112.198764 44.5873009,115.831714 44.5873009,119.221235 L44.5873009,128.757402 C44.5873009,130.374106 44.4179572,131.8982 44.4179572,133.356143 C44.4179572,133.840361 43.7008923,135.128961 43.7008923,135.454418 C43.7008923,136.991742 43.206091,139.259358 43.206091,140.706718 C43.206091,142.646233 42.8912175,144.990586 42.8912175,146.842783 C42.8912175,147.975269 42.9705974,149.107756 42.9705974,150.073544 C42.9705974,151.375374 43.7008923,152.98943 43.7008923,154.280676 C43.7008923,154.606133 43.9363859,155.492542 44.4179572,156.053493 C44.4179572,154.606133 44.5079211,153.875838 44.5079211,152.98943 C44.5079211,152.338515 44.9127584,151.531488 44.9127584,151.049917 C44.9127584,150.399002 45.3149498,149.433213 45.7991671,148.951642 C46.0346607,149.591973 45.9552809,151.049917 45.9552809,151.690248 C45.9552809,152.497274 46.0346607,153.473647 46.6855758,154.921007 L46.6855758,151.856945 C46.6855758,150.724459 47.0083873,149.591973 47.0083873,148.951642 C47.0083873,147.975269 47.7386822,146.527909 47.7386822,145.395423 C47.7386822,143.612022 48.0535557,141.759825 48.0535557,139.82031 C48.0535557,137.722037 47.3338448,135.623762 47.3338448,133.681601 C47.3338448,133.356143 46.6855758,132.549115 46.6855758,131.8982 C46.6855758,128.757402 46.9316534,125.682755 46.9316534,122.531376 C46.9316534,119.87215 47.0083873,117.12296 47.0083873,114.37377 C47.0083873,112.680333 45.875901,108.798659 47.4132247,108.798659 C49.1066621,108.798659 49.2654219,114.127693 49.4321196,114.778608 C49.4321196,114.778608 53.3032096,115.260179 53.6286672,116.236551 C54.2795822,117.929989 53.4725534,117.604531 53.7980109,119.546692 C52.9883361,119.065121 53.1470959,121.891045 53.1470959,122.531376 L53.1470959,126.489784 C53.1470959,127.78103 53.6286672,129.238974 53.6286672,130.374106 C53.6286672,130.932411 54.6050397,132.393001 54.6050397,133.030686 C54.6050397,133.681601 55.2453707,134.972847 55.5708282,135.779876 C55.726942,136.105333 54.9199132,137.147856 54.9199132,137.396579 C54.9199132,137.722037 53.6286672,139.571586 53.6286672,139.571586 C53.1470959,140.222501 51.2049369,142.241396 50.5672519,143.297148 C50.5672519,143.297148 49.9930708,144.104177 49.9930708,144.339671 C49.9930708,144.588394 49.7575771,144.990586 49.7575771,145.226079 C49.7575771,146.527909 49.9930708,148.144613 49.9930708,148.951642 C49.9930708,152.822732 51.5303944,157.342093 51.5303944,161.472493 L51.5303944,166.476069 L51.5303944,170.357745 C51.5303944,170.672619 51.855852,170.839316 51.855852,171.164774 C51.855852,171.320888 52.0146117,171.569611 52.0146117,171.569611 C52.1813095,171.320888 52.6628786,170.672619 52.6628786,170.357745 L52.9883361,170.188401 L53.1470959,169.862944 L53.4725534,169.862944 L53.6286672,170.188401 C53.6286672,170.357745 53.7980109,170.513859 53.7980109,170.672619 C53.7980109,170.672619 54.1102384,170.839316 54.1102384,171.07481 L54.1102384,171.479647 C54.1102384,171.569611 54.2795822,171.805105 54.2795822,171.971803 C54.2795822,171.971803 54.2795822,172.207296 54.1102384,172.37664 C53.9541247,172.691514 54.1102384,172.937591 54.1102384,173.093705 C54.4356959,173.498542 54.6050397,174.070078 54.9199132,174.395535 C55.4120685,174.554295 55.726942,174.710409 56.2217432,174.956486 C57.1055059,174.800372 58.1506743,174.800372 59.2037807,174.800372 C59.6086181,174.631029 60.1695693,174.395535 60.5744067,174.305571 C60.8204843,174.070078 61.2253217,173.824 61.4713993,173.498542 L61.4713993,173.342429 C61.0665619,173.016971 60.8998642,172.781478 60.5744067,172.691514 C60.1695693,172.051183 59.4525044,171.479647 58.9577031,171.07481 C58.7222095,170.839316 57.3436455,169.550716 56.9388082,169.550716 L56.5339708,169.055915 L56.5339708,168.248886 C56.5339708,165.184825 55.726942,162.110178 55.726942,158.879417 C55.726942,157.836894 55.8962857,156.053493 55.8962857,155.087704 C55.8962857,154.201296 57.2642657,152.338515 57.5897232,151.375374 C57.5897232,151.375374 57.7458369,151.20603 57.9151807,150.880573 L60.8204843,156.053493 L62.5139217,161.067655 L63.0854569,163.896225 L63.8051678,167.126984 L64.4560828,169.225259 L64.9376541,168.574344 L65.2631116,167.439212 L65.7446828,168.741042 L65.7446828,170.188401 C65.3424915,170.357745 66.0701404,171.07481 66.0701404,171.479647 C66.0701404,171.479647 66.4749777,171.971803 66.6310915,171.971803 C67.7635778,171.971803 68.8987101,172.45602 70.0311943,172.45602 C70.6715253,172.45602 71.6478978,171.971803 72.1294691,171.971803 C72.4549266,171.971803 73.4180691,171.164774 73.4180691,170.839316 C73.4180691,170.672619 72.7803841,170.188401 72.7803841,170.188401 C72.6110404,169.862944 71.4785541,168.248886 70.838223,168.090127 C70.838223,168.090127 70.187308,167.764669 69.8618505,167.608555 L68.7399503,166.317309 C68.1128493,160.850684 63.003431,155.794185 64.2073592,150.242888 L64.8582742,144.913852 C64.7021604,145.876994 64.9376541,146.361212 64.9376541,146.842783 L64.9376541,149.107756 C64.9376541,149.107756 65.667949,149.266515 65.7446828,149.107756 C65.8240627,148.951642 66.3955979,147.975269 66.3955979,147.570432 C66.3955979,147.009481 66.4749777,145.395423 66.6310915,145.395423 C66.6310915,145.395423 68.2477951,145.797615 68.2477951,145.876994 L68.2477951,147.570432 C68.2477951,148.300727 68.4144928,149.433213 68.4144928,149.758671 C68.4144928,149.758671 69.3802792,149.91743 69.3802792,149.758671 C69.549623,149.591973 69.7057367,148.951642 69.7057367,148.951642 C69.7057367,148.300727 70.187308,147.493698 70.187308,147.009481 C70.187308,146.607289 70.3566518,145.876994 70.3566518,145.630917 C70.3566518,145.474803 71.1636805,145.474803 71.1636805,145.630917 C71.1636805,145.956374 70.9969828,146.763403 70.9969828,147.334938 C70.9969828,147.895889 71.3224403,148.782298 71.4785541,148.951642 L72.1294691,148.951642 C72.1294691,148.626184 72.9364979,147.334938 72.9364979,146.684023 C72.9364979,146.361212 72.7803841,145.395423 72.7803841,145.226079 C72.7803841,145.226079 74.5532014,144.665128 74.7093152,144.665128 C75.1141526,144.665128 76.7282101,143.376528 76.7282101,143.376528 C77.0536676,143.376528 78.5909913,141.759825 78.5909913,141.759825 C78.5909913,141.680445 79.8028575,139.82031 80.128315,139.010635 C80.6098863,138.933901 82.0678301,138.933901 82.5520452,138.933901 C84.2454827,138.933901 86.4231374,140.066387 88.0371949,140.066387 C88.3626524,140.066387 89.8205962,141.278253 90.4609273,141.278253 C90.630271,141.278253 91.3579199,141.434367 91.7627573,141.434367 L93.4561947,141.434367 L94.8241747,141.434367 C96.6869537,141.434367 99.0313062,140.706718 100.401932,140.706718 C102.823018,140.706718 106.381883,138.685179 109.128425,138.685179 C110.901242,138.685179 113.481088,138.282988 115.669327,138.282988 L117.767602,138.282988 C118.093059,138.282988 119.135582,140.066387 119.135582,140.706718 C119.135582,142.646233 118.979468,144.744508 118.979468,146.842783 C118.979468,149.107756 119.135582,151.690248 119.135582,153.875838 C119.135582,155.492542 119.384305,157.185979 119.384305,158.643923 C119.384305,159.935169 118.65401,161.628606 118.65401,162.761093 C118.65401,163.16593 118.013679,164.457176 118.013679,164.859368 C118.013679,164.859368 117.521524,165.343585 117.521524,165.510281 L117.521524,166.476069 C117.521524,167.439212 118.418517,168.574344 118.418517,169.550716 C118.418517,170.188401 118.65401,170.839316 118.65401,171.479647 C118.65401,171.971803 118.418517,172.45602 118.418517,172.937591 C118.418517,173.093705 118.249173,173.419163 118.249173,173.74462 C118.418517,174.395535 118.900088,175.281944 119.135582,175.922275 C119.135582,175.922275 119.709763,176.327112 119.786497,176.327112 C120.516792,176.327112 121.649278,176.898647 122.456305,176.898647 L124.073008,176.898647 C124.633959,176.898647 125.364254,176.57319 125.766446,176.41443 C125.766446,176.41443 126.406777,175.922275 126.57612,175.766161 L126.406777,175.20521 C126.406777,174.800372 125.440988,174.305571 125.440988,174.305571 C125.284874,173.993344 124.477846,172.937591 124.308502,172.612134 C124.308502,172.612134 123.82693,171.971803 123.578207,171.725725 C123.578207,171.164774 122.694444,170.357745 122.694444,169.862944 C122.694444,169.862944 122.368987,169.550716 122.368987,169.225259 L122.368987,168.248886 C122.368987,167.608555 123.096636,166.476069 123.096636,165.66904 L123.096636,164.208453 C123.096636,163.401424 122.861142,162.594395 122.861142,161.874684 C122.861142,160.41674 123.82693,158.241732 123.82693,157.66755 C123.82693,156.535064 124.229122,155.087704 124.959417,153.629761 L124.959417,153.629761 Z M195.874745,168.248886 L195.964709,169.78621 L195.795365,171.07481 L195.795365,172.37664 L196.44628,173.824 L196.771738,174.956486 L197.176575,175.20521 L198.219097,175.517437 L199.026126,175.361324 L199.105506,175.20521 L199.026126,174.956486 L199.27485,174.631029 L198.465175,173.342429 C196.994001,169.966138 197.996834,164.996959 198.949392,161.707986 L199.105506,160.900958 L198.465175,160.260627 L199.19547,159.935169 L199.430964,158.802683 L198.949392,158.397845 L199.430964,157.836894 L199.351584,156.455684 C199.835801,156.053493 200.002499,155.323198 200.002499,154.841627 C200.002499,154.685513 200.812174,154.516169 200.812174,154.516169 C200.812174,154.516169 201.293745,154.034598 201.293745,153.955218 C201.293745,153.799104 201.529238,153.148189 201.529238,152.98943 L202.100772,152.338515 C202.100772,152.092439 202.336265,151.20603 202.336265,151.129296 C202.336265,150.970537 202.741103,150.645079 202.741103,150.645079 C202.741103,150.645079 202.910446,149.91743 202.910446,149.591973 L203.233258,149.107756 C203.233258,148.951642 203.794209,148.456841 203.794209,148.144613 L203.794209,146.932747 C203.794209,146.842783 204.524504,146.607289 204.524504,146.607289 C204.524504,146.527909 204.680618,146.035754 204.680618,145.720881 C204.680618,145.551537 204.849961,145.316043 204.849961,144.990586 C204.849961,144.990586 205.331533,144.509014 205.331533,144.339671 L205.331533,143.297148 C205.331533,143.207184 205.892484,143.127805 205.971864,142.971691 L206.376701,142.320776 C206.376701,141.759825 207.18373,141.02953 207.18373,140.381261 C207.18373,140.381261 207.509187,139.74093 207.509187,139.415472 C207.509187,139.259358 207.678531,138.608446 207.678531,138.608446 C207.678531,138.203608 207.990759,137.798771 208.395596,137.147856 L210.258377,137.147856 C211.491411,137.624135 211.636941,137.057892 212.758837,136.912362 L212.928181,136.912362 L213.163674,136.586905 L213.73521,135.779876 L213.891218,135.218925 L213.891218,134.972847 L213.409646,133.760981 L211.0653,129.799925 C211.221414,129.397733 211.626251,129.238974 211.626251,128.913516 C211.626251,128.757402 211.390758,128.431945 211.390758,128.262601 L211.390758,127.050735 L211.221414,126.489784 L210.660463,126.41305 C210.660463,126.41305 210.504349,125.841515 210.504349,125.682755 C210.504349,125.526641 210.099512,125.121806 210.099512,125.121806 C209.932814,125.121806 209.527976,124.875728 209.292483,124.875728 C209.046405,124.875728 208.720948,125.121806 208.720948,125.121806 C208.39549,125.121806 207.913919,124.550271 207.678425,124.550271 L206.778787,124.550271 C206.702053,124.550271 206.543293,124.875728 206.376595,124.875728 C206.061722,124.875728 205.490187,124.629651 205.005969,124.629651 C204.849856,124.629651 204.524398,124.875728 204.19894,124.875728 C204.19894,124.875728 203.794103,125.603375 203.637989,125.682755 C203.312532,125.841515 202.584883,125.682755 202.180046,125.682755 C201.933968,125.682755 201.124295,126.648544 201.124295,126.648544 L200.317266,127.220079 C200.317266,127.220079 199.835695,127.70165 199.835695,127.78103 C199.835695,127.950374 199.756315,128.588059 199.756315,128.588059 C199.600202,128.588059 198.949287,128.913516 198.703209,128.992896 C198.703209,128.992896 198.465069,129.564431 198.465069,129.799925 C198.465069,130.048648 198.623829,130.53022 198.623829,130.53022 C198.623829,130.855677 197.8168,131.091171 197.65804,131.091171 C197.65804,131.091171 197.332583,131.493362 197.332583,131.81882 L197.332583,132.549115 C197.332583,132.549115 196.681668,133.110066 196.681668,133.20003 C196.604934,133.356143 196.120717,133.760981 196.120717,133.917095 L196.120717,134.647389 L195.639146,134.816733 C195.639146,134.816733 195.157574,135.779876 194.988231,135.779876 C194.988231,135.779876 194.181202,135.938636 194.101822,135.938636 C193.945708,135.938636 193.450907,136.184713 193.374173,136.261447 C193.294793,136.261447 193.215413,136.912362 193.048715,136.912362 C192.643878,136.912362 192.003547,136.510171 191.67809,136.510171 C191.352632,136.510171 190.950441,136.666284 190.466223,136.666284 C190.389489,136.666284 190.064032,136.912362 189.984652,136.912362 C189.503081,136.912362 189.177623,136.586905 189.00828,136.586905 C188.526708,136.586905 188.121873,136.666284 187.965759,136.666284 C187.796416,136.666284 187.484188,137.071122 187.314844,137.071122 C186.910007,137.071122 186.507815,136.912362 186.182358,136.912362 C185.946864,136.912362 185.462647,137.071122 185.372683,137.071122 C185.216569,137.071122 185.13719,137.642657 184.655618,137.642657 C184.250781,137.642657 184.084083,137.147856 183.758626,137.147856 C183.353788,137.147856 182.872217,137.317199 182.546759,137.317199 C182.390646,137.317199 182.065188,137.071122 181.829695,137.071122 L181.255513,137.071122 C180.773942,137.071122 180.773942,137.798771 180.369105,137.798771 C180.043647,137.798771 179.641456,137.317199 179.482696,137.317199 L178.194096,137.317199 C178.104132,137.317199 177.868639,137.798771 177.699295,137.798771 C177.543181,137.798771 177.387067,137.317199 177.138344,137.317199 L176.331315,137.317199 C176.251935,137.317199 175.849744,137.473313 175.849744,137.473313 C175.849744,137.473313 175.365526,138.124228 175.040071,138.124228 C174.714613,138.124228 174.468536,137.317199 174.063698,137.317199 L173.426013,137.317199 C173.100556,137.317199 172.775098,137.642657 172.618985,137.642657 C172.539605,137.642657 172.293527,137.473313 172.293527,137.473313 L171.407118,137.473313 L170.756203,137.473313 C170.597444,137.473313 170.430746,137.878151 170.195252,137.878151 C170.025908,137.878151 169.711035,137.642657 169.711035,137.642657 L168.983386,137.642657 C168.814042,137.642657 168.253091,138.449686 168.007014,138.449686 C168.007014,138.449686 167.199985,138.608446 167.041225,138.608446 C166.964491,138.608446 166.313576,139.259358 166.313576,139.259358 C166.313576,139.259358 166.078082,139.976423 166.078082,140.145767 L164.696873,140.706718 L164.215301,141.02953 L164.056542,141.680445 L163.328893,142.085282 L162.844675,142.802347 L162.757357,143.612022 L161.947683,144.339671 L161.870949,145.069966 L161.947683,145.720881 L161.635457,146.527909 L161.545493,147.16824 L161.712191,147.334938 L161.635457,148.054649 L161.791571,148.626184 L162.598598,148.951642 C162.844675,150.163508 163.159549,150.478381 163.159549,150.880573 L163.159549,152.013059 C163.159549,152.261781 163.564386,152.822732 163.564386,152.822732 C163.564386,152.822732 164.215301,152.98943 164.215301,153.148189 C164.215301,153.304303 163.731084,153.799104 163.731084,153.799104 C163.731084,154.201296 163.966578,154.516169 163.966578,154.685513 C163.966578,154.841627 164.371415,154.841627 164.371415,155.087704 C164.371415,155.492542 164.215301,155.897379 164.215301,156.053493 L164.215301,156.625028 C164.215301,156.860522 164.540759,157.185979 164.540759,157.432057 C164.540759,157.836894 163.966578,158.241732 163.966578,158.397845 L163.966578,159.204874 C163.966578,159.363634 164.215301,159.765825 164.215301,159.765825 C164.215301,160.014549 163.328893,160.260627 163.328893,160.340006 C163.328893,160.665464 163.249513,161.382529 163.249513,161.707986 C163.249513,161.78472 162.677978,162.033444 162.598598,162.033444 C162.598598,162.033444 162.442484,162.435635 162.442484,162.515015 C162.442484,162.840473 162.677978,163.16593 162.677978,163.322044 C162.677978,163.647501 162.27314,163.806261 162.27314,163.806261 C162.27314,163.896225 161.947683,164.208453 161.947683,164.61329 L161.947683,165.343585 C161.947683,165.420319 163.082815,166.396689 163.159549,166.317309 L163.159549,167.283098 L163.249513,168.651078 L163.564386,170.839316 L163.564386,174.474915 L163.966578,174.631029 L164.371415,175.035866 L164.540759,175.686781 L164.540759,176.247732 L164.696873,176.57319 L165.503901,176.729304 L166.885111,176.65257 L167.366683,176.49381 L167.289949,176.247732 L167.69214,175.842895 L166.885111,174.474915 L166.480274,172.858211 L166.078082,170.839316 L166.078082,168.090127 L166.559654,166.396689 C168.657929,164.208453 168.007014,169.055915 168.007014,170.513859 L168.096977,171.725725 L168.657929,172.37664 L168.814042,173.263049 L169.06012,174.474915 L169.711035,174.879752 L170.597444,175.035866 L171.732576,174.879752 L171.96807,174.631029 L171.88869,174.305571 L172.044803,174.149457 L172.134767,173.90338 L171.483852,172.858211 L170.922901,171.400268 L170.597444,169.550716 L170.756203,166.632183 L170.756203,164.782634 L171.483852,164.782634 L172.293527,164.052339 L172.044803,163.24531 L172.775098,163.491388 L173.25667,162.279522 L173.25667,161.549227 L174.063698,161.303149 L174.389156,160.340006 L174.063698,159.453598 L175.040071,158.553959 C175.198831,158.241732 175.60102,158.553959 175.60102,158.553959 C175.60102,158.553959 175.849744,158.879417 176.005857,158.879417 C176.251935,158.879417 176.487429,158.802683 176.577392,158.802683 C176.656772,158.802683 176.892266,158.553959 177.138344,158.553959 C177.387067,158.553959 177.543181,159.204874 177.868639,159.204874 L178.675667,159.204874 C178.831781,159.204874 179.080505,158.879417 179.482696,158.879417 C179.562076,158.879417 179.71819,159.204874 179.71819,159.204874 C179.887533,159.284254 180.212991,159.609712 180.292371,159.609712 L180.773942,159.609712 C181.0994,159.609712 181.424857,159.204874 181.580971,159.204874 C181.739731,159.204874 181.985808,159.609712 182.065188,159.609712 L182.716103,159.609712 L183.353788,159.609712 C183.443752,159.609712 183.443752,158.958797 183.599866,158.958797 C183.758626,158.958797 184.084083,159.453598 184.250781,159.453598 C184.250781,159.453598 184.734998,159.530332 184.891112,159.453598 C185.060456,159.453598 185.13719,158.879417 185.372683,158.879417 C185.542027,158.879417 185.867484,159.453598 186.102978,159.453598 C186.182358,159.453598 186.584549,159.204874 186.910007,159.204874 C186.910007,159.204874 186.989387,158.802683 187.314844,158.802683 C187.484188,158.802683 187.484188,159.204874 187.796416,159.204874 C188.121873,159.204874 188.526708,158.802683 189.00828,158.802683 L189.00828,159.204874 C189.00828,159.453598 189.503081,159.609712 189.503081,159.935169 C189.503081,160.091283 189.177623,160.340006 189.177623,160.742198 C189.177623,161.067655 189.503081,161.382529 189.503081,161.549227 C189.503081,161.549227 190.064032,161.78472 190.064032,162.033444 C190.064032,162.279522 189.503081,162.594395 189.503081,163.08655 C189.503081,163.24531 189.659195,163.806261 189.659195,163.806261 C189.659195,163.806261 190.064032,164.208453 190.31011,164.377796 L190.871061,165.991852 L190.950441,167.844049 L190.950441,169.62745 L190.714947,171.725725 L190.624983,173.498542 L190.624983,174.474915 L190.950441,174.631029 L191.352632,174.800372 L191.521976,175.440704 L191.67809,176.41443 L192.239041,176.65257 L193.696984,176.898647 L194.506659,176.65257 L194.832117,176.49381 L194.662773,176.247732 L194.988231,176.088973 L195.06761,175.766161 L194.181202,174.631029 L193.776364,173.824 L193.374173,172.781478 L193.215413,171.725725 L193.048715,169.70683 L193.374173,167.934013 L193.776364,165.264205 L194.101822,163.896225 C194.181202,163.806261 194.662773,163.491388 194.988231,163.16593 L195.559766,163.972959 L195.874639,166.150612 L195.874639,168.248886 L195.874745,168.248886 Z" id="path3726" sketch:type="MSShapeGroup"></path>
        </g>
    </g>
</svg>