<?xml version="1.0" encoding="UTF-8" standalone="no"?>
<svg width="512px" height="512px" viewBox="0 0 512 512" version="1.1" xmlns="http://www.w3.org/2000/svg" xmlns:xlink="http://www.w3.org/1999/xlink" xmlns:sketch="http://www.bohemiancoding.com/sketch/ns">
    <!-- Generator: Sketch 3.2.2 (9983) - http://www.bohemiancoding.com/sketch -->
    <title>double-reverse-curve</title>
    <desc>Created with Sketch.</desc>
    <defs></defs>
    <g id="us-symbols" stroke="none" stroke-width="1" fill="none" fill-rule="evenodd" sketch:type="MSPage">
        <g id="double-reverse-curve" sketch:type="MSArtboardGroup" fill="#000000">
            <g id="path4023-+-path4027" sketch:type="MSLayerGroup" transform="translate(164.000000, 130.000000)">
                <path d="M158.693699,164.64134 C158.668004,168.662233 156.394046,172.4056 152.944567,174.406366 L114.531373,201.055269 C106.861581,206.38634 103.489185,216.699963 103.489185,226.193917 L103.463491,252.591111 L126.170956,252.591111 L126.19665,226.316544 C126.19665,222.715167 127.918178,219.288049 130.802379,217.145294 L164.603421,194.046136 C174.849081,188.037386 181.362623,176.536213 181.362623,164.512259 L181.362623,164.525167 C181.349775,150.371366 181.349775,136.224019 181.362623,122.083131 C181.362623,122.218667 181.362623,122.083131 181.362623,122.083131 C181.362623,110.059177 174.849081,98.5579984 164.603421,92.5492536 L130.802379,69.4565444 C127.918178,67.3137893 126.19665,63.880223 126.19665,60.2788403 L126.170956,50.055575 L138.690574,53.8118505 C140.424949,54.2894525 141.703248,54.4895291 143.045782,53.5859576 C144.953595,52.2886872 145.454636,49.6489678 144.150643,47.7321056 L114.833282,4.16705457 L85.4581086,47.7321056 C84.1541156,49.6489678 84.6551572,52.2886872 86.5629697,53.5859576 C87.8412683,54.4508046 89.1645322,54.3023607 90.7447406,53.9022076 L103.463491,50.055575 L103.489185,60.414376 C103.489185,69.8954219 106.861581,80.2090444 114.531373,85.540121 L152.944567,112.201927 C156.394046,114.202692 158.668004,117.933152 158.693699,121.966953 C158.706546,136.191748 158.706546,150.41009 158.693699,164.64134" id="path4023" sketch:type="MSShapeGroup"></path>
                <path d="M77.8332822,164.64134 C77.8075878,168.662233 75.5336294,172.4056 72.0841503,174.406366 L33.6709558,201.055269 C26.0075878,206.38634 22.6287683,216.699963 22.6287683,226.193917 L22.6030739,252.591111 L45.3105392,252.591111 L45.3362336,226.316544 C45.3362336,222.715167 47.0577614,219.288049 49.9419628,217.145294 L83.7430044,194.046136 C93.9886642,188.037386 100.502206,176.536213 100.502206,164.512259 L100.502206,164.525167 L100.502206,122.083131 C100.502206,122.218667 100.502206,122.083131 100.502206,122.083131 C100.502206,110.059177 93.9886642,98.5579984 83.7430044,92.5492536 L49.9419628,69.4565444 C47.0577614,67.3137893 45.3362336,63.880223 45.3362336,60.2788403 L45.3105392,50.055575 L57.8365808,53.8118505 C59.5645322,54.2894525 60.8428308,54.4895291 62.1853656,53.5859576 C64.0931781,52.2886872 64.5942197,49.6489678 63.2902267,47.7321056 L33.9728656,4.16705457 L4.59769194,47.7321056 C3.29369889,49.6489678 3.79474056,52.2886872 5.70255306,53.5859576 C6.98727528,54.4508046 8.30411556,54.3023607 9.88432389,53.9022076 L22.6030739,50.055575 L22.6287683,60.414376 C22.6287683,69.8954219 26.0075878,80.2090444 33.6709558,85.540121 L72.0841503,112.201927 C75.5336294,114.202692 77.8075929,117.933152 77.8332822,121.966953 C77.8461294,136.191748 77.8461294,150.41009 77.8332822,164.64134" id="path4027" sketch:type="MSShapeGroup"></path>
            </g>
        </g>
    </g>
</svg>