<?xml version="1.0" encoding="UTF-8" standalone="no"?>
<svg width="256px" height="256px" viewBox="0 0 256 256" version="1.1" xmlns="http://www.w3.org/2000/svg" xmlns:xlink="http://www.w3.org/1999/xlink" xmlns:sketch="http://www.bohemiancoding.com/sketch/ns">
    <!-- Generator: Sketch 3.3.3 (12081) - http://www.bohemiancoding.com/sketch -->
    <title>emu</title>
    <desc>Created with Sketch.</desc>
    <defs></defs>
    <g id="Page-1" stroke="none" stroke-width="1" fill="none" fill-rule="evenodd" sketch:type="MSPage">
        <g id="emu" sketch:type="MSArtboardGroup" fill="#000000">
            <path d="M151.823706,196.087925 C150.120773,195.970233 148.417842,195.852541 146.714909,195.734849 C144.36587,194.913408 142.249814,194.560332 141.075295,194.14961 L137.141017,194.14961 C136.790342,193.738889 136.437266,193.328167 136.026544,192.917446 L136.026544,190.568407 C134.498949,184.107351 134.498949,184.107351 132.14991,175.652733 C131.621496,174.300474 131.093083,172.95062 130.564669,171.540716 C125.866593,163.729802 125.866593,163.729802 125.102795,161.969225 C124.752121,160.619369 124.338997,159.26711 123.928276,157.857207 C124.045968,155.33283 124.16366,152.808454 124.281352,150.224033 C123.517554,147.464273 123.517554,147.464273 123.224525,147.171244 L122.636064,147.171244 C121.110871,149.049514 121.110871,149.049514 119.583275,151.57389 C119.347891,152.808454 119.114908,154.040619 118.819477,155.33283 C117.644957,157.681869 117.234236,158.034946 116.059718,160.794706 C115.942026,161.969225 115.824334,163.143743 115.706642,164.318262 C115.47366,165.315043 115.178228,166.374272 114.885199,167.431099 C114.767507,169.369416 114.649815,171.305332 114.534525,173.303696 C114.709862,177.060235 114.534525,177.237974 114.709862,180.583793 C114.59217,180.936869 114.474478,181.347591 114.29914,181.758312 C114.885199,185.870329 114.885199,185.870329 115.47366,188.394705 C116.002073,188.687735 116.002073,188.687735 117.76265,189.040811 L123.810584,189.040811 C125.92664,189.391485 128.097938,189.804609 130.27164,190.21533 C131.739188,191.036773 133.266784,191.858216 134.791978,192.682061 C134.852025,192.799753 134.90967,192.917446 134.969717,193.092783 C134.674286,193.385812 134.381257,193.678842 134.030582,193.974273 C132.856063,194.031918 131.621496,194.14961 130.389332,194.267302 L130.389332,196.027878 C128.744044,196.087925 128.744044,196.087925 124.045968,195.734849 C119.936351,194.14961 119.936351,194.14961 117.940389,193.738889 C115.942026,193.621196 113.946064,193.503504 111.890055,193.385812 C110.893274,193.032736 109.836447,192.622014 108.777218,192.211293 C108.661928,190.568407 108.837265,189.744562 108.661928,185.457206 C108.777218,182.875187 108.89491,180.290763 109.012602,177.648695 C108.89491,171.833745 108.777218,166.021195 108.661928,160.206245 C108.248804,158.034946 108.248804,158.034946 108.073467,154.158311 C108.837265,152.983792 109.601063,151.809272 110.422506,150.634755 C111.950102,146.700475 111.950102,146.700475 112.183084,145.350618 C112.067794,145.115234 111.950102,144.822205 111.772362,144.529175 C110.540198,143.823023 109.130294,143.472348 108.544235,143.059225 C106.195197,142.530811 103.84616,142.002397 101.497121,141.473984 C100.144862,140.594898 100.144862,140.594898 99.5588037,140.534851 C97.7982255,142.062445 97.7982255,142.062445 96.445967,142.883888 C94.0969282,142.883888 94.0969282,142.883888 92.1009677,143.236964 C91.8079383,143.354656 91.5149089,143.472348 91.1618325,143.647685 C88.5774095,143.823023 87.9889488,143.647685 87.0498137,143.765378 C86.0530334,144.644466 86.0530334,144.644466 85.0538512,144.997542 C82.9401986,144.822205 82.1187556,144.411483 81.530295,144.411483 C81.4126028,144.529175 81.2949107,144.644466 81.1772186,144.822205 C80.6488049,144.87985 80.1203913,144.939897 79.5919777,144.997542 C79.2413032,144.704513 78.8305817,144.411483 78.4174583,144.116052 C78.3598131,143.705331 78.242121,143.236964 78.1244289,142.766195 C78.242121,141.241001 78.3598131,139.653361 78.4775053,138.06812 C79.2413032,135.133022 80.0051011,132.195523 80.8265441,129.260427 C82.1187556,126.618359 83.4109652,123.976291 84.7608219,121.274176 C85.5246198,120.099656 86.2884177,118.925137 87.1098607,117.750619 C87.1675058,117.45759 87.2851979,117.104513 87.4028901,116.751437 C87.6959194,116.693792 88.0489958,116.5761 88.4020722,116.458408 C89.2235152,115.636965 90.0449582,114.755475 90.9264483,113.873985 C91.7478913,113.405618 92.6293813,112.877204 93.5108713,112.348791 C94.5076497,111.291963 95.5644769,110.232734 96.6237061,109.175907 C98.9727449,107.650715 100.733323,106.82687 102.907025,105.301676 C105.489044,103.891773 108.073467,102.424224 110.715535,100.954273 C112.653852,100.308167 114.59217,99.6644635 116.58813,99.0183577 C122.871449,98.6076362 122.871449,98.6076362 126.983468,98.6076362 C129.39015,99.1360498 131.799235,99.6644635 134.205919,100.192877 C139.432409,102.128793 144.6589,104.06711 149.885389,106.065474 C151.352938,106.123119 152.820487,106.180764 154.348083,106.240811 C155.11188,106.005427 155.873276,105.770043 156.697121,105.477013 C157.225535,104.888553 157.753949,104.302494 158.340007,103.656388 C158.868421,102.306532 159.399237,100.954273 159.927648,99.5467714 L159.927648,93.2634548 C159.163852,86.2163384 158.340007,81.6935999 157.989333,76.9955242 C157.343227,74.0604267 156.697121,71.1229272 155.99337,68.1878297 L155.99337,63.489754 C157.578611,61.3760994 157.578611,61.3760994 158.575392,60.5546564 C160.102985,60.0262428 161.628179,59.4978291 163.155775,58.9093685 L166.914718,58.9093685 C167.267794,59.0270606 167.678516,59.1447528 168.089237,59.2624449 C168.442313,59.8485036 168.792988,60.4946094 169.146064,61.1407152 C171.377409,62.7259561 171.377409,62.7259561 174.312507,64.311197 C175.429381,64.7819655 176.546255,65.2503321 177.660728,65.7211007 C177.720775,66.6602358 177.720775,66.6602358 177.48539,66.8956201 C173.373371,67.3063416 173.373371,67.3063416 171.377409,67.7170631 L168.675296,67.7170631 C168.206929,68.2454748 167.678516,68.7738884 167.150102,69.3623491 C167.03241,70.2438391 166.914718,71.1829742 166.797026,72.1221094 C166.857073,73.532013 166.914718,74.9419167 166.972363,76.4094655 C167.207747,77.2909555 167.443131,78.2300887 167.736161,79.1692239 C168.792988,80.989849 169.849815,82.8104742 170.906641,84.6310994 C171.905823,86.9200892 172.96265,89.2114829 174.019477,91.5004747 C174.783275,94.0248508 174.783275,94.0248508 175.604718,98.372252 L175.604718,106.769225 C175.371736,108.236772 175.076305,109.764368 174.783275,111.291963 C173.255679,115.987639 173.255679,115.987639 171.670438,119.688935 C168.560006,125.148408 168.560006,125.148408 166.210967,128.671966 C164.623324,130.434945 164.623324,130.434945 163.861928,131.609464 C162.158995,133.25235 160.456062,134.897638 158.753131,136.542926 C154.172745,139.653361 154.172745,139.653361 151.410583,141.120907 C149.943034,141.767013 148.475487,142.413119 146.947892,143.059225 C145.715727,143.354656 144.481161,143.705331 143.191351,144.058407 C141.7214,144.000762 140.253852,143.940715 138.726256,143.823023 C138.610966,144.176099 138.493273,144.529175 138.375581,144.939897 C137.318756,145.703695 137.318756,145.703695 133.91289,149.637975 L133.91289,151.809272 C132.327649,154.922109 132.327649,154.922109 131.914526,156.50735 C131.739188,160.970043 131.739188,160.970043 131.914526,162.379947 C132.971353,165.728166 134.030582,169.134032 135.087409,172.539898 C136.905633,176.942543 138.726256,181.407638 140.546881,185.870329 C141.310679,186.809464 142.074477,187.806245 142.89592,188.805427 C143.48438,189.158503 144.130486,189.509178 144.776592,189.862254 C145.951111,190.037591 151.823706,189.862254 156.344045,190.037591 C157.165488,190.272976 157.989333,190.50836 158.868421,190.801389 C161.628179,192.389032 161.628179,192.389032 162.274285,193.092783 C162.274285,193.385812 162.274285,193.678842 162.21664,193.974273 C161.217458,194.324947 161.217458,194.324947 157.753949,194.678024 C157.753949,195.264081 157.753949,195.264081 158.16467,195.617157 C158.107025,195.910186 158.046978,196.263263 157.989333,196.616339 C157.518564,196.909368 157.518564,196.909368 155.933323,196.909368 C154.583467,196.498647 154.583467,196.498647 151.823706,196.087925 Z" id="path3427" sketch:type="MSShapeGroup"></path>
        </g>
    </g>
</svg>