<?xml version="1.0" encoding="UTF-8" standalone="no"?>
<svg width="512px" height="512px" viewBox="0 0 512 512" version="1.1" xmlns="http://www.w3.org/2000/svg" xmlns:xlink="http://www.w3.org/1999/xlink" xmlns:sketch="http://www.bohemiancoding.com/sketch/ns">
    <!-- Generator: Sketch 3.2.2 (9983) - http://www.bohemiancoding.com/sketch -->
    <title>end</title>
    <desc>Created with Sketch.</desc>
    <defs></defs>
    <g id="us-symbols" stroke="none" stroke-width="1" fill="none" fill-rule="evenodd" sketch:type="MSPage">
        <g id="end" sketch:type="MSArtboardGroup" fill="#000000">
            <g id="path14-+-path16-+-path18" sketch:type="MSLayerGroup" transform="translate(114.000000, 200.000000)">
                <path d="M1.1613477,111.77621 L1.1613477,0.734876667 L66.5674647,0.734876667 L66.5674647,18.30261 L18.7118637,18.30261 L18.7118637,45.4843833 L51.0009594,45.4843833 L51.0009594,63.3835833 L18.7118637,63.3835833 L18.7118637,93.8785167 L70.044752,93.8785167 L70.044752,111.77621 L1.1613477,111.77621 L1.1613477,111.77621 Z" id="path14" sketch:type="MSShapeGroup"></path>
                <path d="M156.973928,111.77621 L114.585646,36.5332767 L114.585646,111.77621 L97.033625,111.77621 L97.033625,0.734876667 L114.585646,0.734876667 L154.986907,71.67025 L154.986907,0.734876667 L172.538928,0.734876667 L172.538928,111.77621 L156.973928,111.77621 L156.973928,111.77621 Z" id="path16" sketch:type="MSShapeGroup"></path>
                <path d="M263.279566,105.478343 C259.139939,109.45745 253.178875,111.44625 247.381891,111.77621 L241.089657,111.77621 L207.310295,111.77621 L207.310295,0.734876667 L243.078184,0.734876667 C254.336465,0.734876667 258.643184,1.89501 264.604247,6.53554333 C276.195205,16.6452767 282.818609,34.21301 282.818609,56.0913167 C282.818609,78.2995833 275.864035,95.8673167 263.279566,105.478343 L263.279566,105.478343 Z M255.993822,22.9431433 C253.178875,20.29141 249.370418,18.30261 244.734035,18.30261 L224.863822,18.30261 L224.863822,93.8785167 L242.415843,93.8785167 C248.211322,93.8785167 251.688609,92.7168767 254.834726,89.5679433 C261.45813,82.9416233 264.935418,70.8400767 264.935418,56.0913167 C264.935418,41.17381 261.45813,28.74381 255.993822,22.9431433 L255.993822,22.9431433 Z" id="path18" sketch:type="MSShapeGroup"></path>
            </g>
        </g>
    </g>
</svg>