<svg xmlns:svg="http://www.w3.org/2000/svg" xmlns="http://www.w3.org/2000/svg" version="1.1" width="512" height="512">
  <g transform="translate(0,-540.36218)">
    <g transform="matrix(2.407321,0,0,2.407321,-124.07602,454.74157)" fill="#000">
      <path d="m53.4 83.4 26-1c13.5-4.6 49.7 35.8 49.7 35.8l19.5-7.4-2.8-16.2-3.3 4.6-16.7 7-3.7-4.2 17.2-10.7c1.8-28.3 24.2-28.3 27.4-6 2.4 16.4 4.2 26 4.2 26 1.4 3.7-0.9 7.4-0.9 7.4l15.3-2.3c21.3-2.4 27.4 3.2 27.4 3.2 11.1-7 40.7-8.1 41.3 24.1 0.4 18.1 10.2 23.2 10.2 23.2-1.9 6-20.9 8.4-24.2-4.2-3.2-12.6-1.4-40.4-20.9-39.5l-1.4 0.4c9.3 6.5 14.9 19.9 8.8 33-8.4 18.1 5.1 27.4 5.1 27.4l0 17.2c2.8 13.5 11.6 21.4 11.6 21.4l0 12.6c-18.1-7.9-15.8-23.2-15.8-23.2-0.4-23.7-21.4-33.4-21.4-33.4l-0.4 16.7-4.6 9.8-1 19c-12.5 4.2-12.5 15.3-12.5 15.3l-11.2-0.5c-0.9-9.7 7-10.2 7-10.2 26-33.4-0.5-63.6-0.5-63.6-25.5 18.6-59.9 7-59.9 7-4.2 33.9 12.3 54 12.1 54.3-3.3 4.6-2.3 12.5-2.3 12.5l-11.2 0.5c-0.5-5.1 4.6-11.6 4.6-11.6-6-29.3-24.6-50.1-24.6-50.1-24.1 7.9-32.1 33.9-32.1 33.9-3.7 13.9 1.9 17.2 1.9 17.2l-6 7.9-5.6-14.4 0-6.5C74.3 178.1 93.3 162.8 93.3 162.8 87.8 156.3 91.5 141 91.5 141L77.6 114 67.3 127.9c1.9 4.6-11.6 12.1-12.5 0-0.9-12.1 0-21.4 0-21.4l-3.2-5.6 5.6-12.1-3.7-5.6M151.2 66.1c6 0 10.8-4.9 10.8-10.8 0-6-4.8-10.9-10.8-10.9-6 0-10.8 4.9-10.8 10.9 0 6 4.8 10.8 10.8 10.8" fill="#000" />
    </g>
  </g>
</svg>
