<?xml version="1.0" encoding="UTF-8" standalone="no"?>
<svg width="512px" height="512px" viewBox="0 0 512 512" version="1.1" xmlns="http://www.w3.org/2000/svg" xmlns:xlink="http://www.w3.org/1999/xlink" xmlns:sketch="http://www.bohemiancoding.com/sketch/ns">
    <!-- Generator: Sketch 3.2.2 (9983) - http://www.bohemiancoding.com/sketch -->
    <title>exclamation</title>
    <desc>Created with Sketch.</desc>
    <defs></defs>
    <g id="symbols" stroke="none" stroke-width="1" fill="none" fill-rule="evenodd" sketch:type="MSPage">
        <g id="exclamation" sketch:type="MSArtboardGroup" fill="#000000">
            <path d="M292.314965,394.426237 C292.314965,414.48694 276.06274,430.723891 256,430.723891 C235.946424,430.723891 219.685035,414.487959 219.685035,394.426237 C219.685035,374.379789 235.946424,358.127564 256,358.127564 C276.06274,358.127564 292.314965,374.379789 292.314965,394.426237 L292.314965,394.426237 Z M274.072963,323.427638 C273.204345,333.407075 264.38069,340.785748 254.384961,339.902873 C245.645826,339.118775 238.700953,332.184085 237.919909,323.427638 L219.846946,120.821659 C218.052684,100.853621 232.81003,83.2144585 252.787232,81.4212149 C272.75527,79.6442643 290.377122,94.3934639 292.162219,114.361501 C292.350606,116.521337 292.350606,118.66386 292.162219,120.822677 L274.072963,323.427638 L274.072963,323.427638 Z" id="path9-2" sketch:type="MSShapeGroup"></path>
        </g>
    </g>
</svg>