<?xml version="1.0" encoding="UTF-8" standalone="no"?>
<svg width="512px" height="512px" viewBox="0 0 512 512" version="1.1" xmlns="http://www.w3.org/2000/svg" xmlns:xlink="http://www.w3.org/1999/xlink" xmlns:sketch="http://www.bohemiancoding.com/sketch/ns">
    <!-- Generator: Sketch 3.2.2 (9983) - http://www.bohemiancoding.com/sketch -->
    <title>falling-rocks</title>
    <desc>Created with Sketch.</desc>
    <defs></defs>
    <g id="us-symbols" stroke="none" stroke-width="1" fill="none" fill-rule="evenodd" sketch:type="MSPage">
        <g id="falling-rocks" sketch:type="MSArtboardGroup" fill="#000000">
            <g id="Group" sketch:type="MSLayerGroup" transform="translate(107.000000, 96.000000)">
                <path d="M338.919663,170.18452 L170.438212,1.86692 C170.179249,1.6082 169.795207,1.51668 169.446399,1.63284 C169.097591,1.749 168.845674,2.05172 168.794585,2.41428 L164.925984,29.49892 C164.918938,29.54468 164.915415,29.59044 164.915415,29.6362 C164.915415,29.79988 164.955933,29.9618 165.036969,30.10612 C165.036969,30.10612 174.31386,46.78388 174.581632,47.26788 C174.544637,47.8258 172.661425,76.0474 172.661425,76.06852 C172.661425,76.14772 172.671995,76.22692 172.691373,76.3026 C172.691373,76.3026 180.222461,106.40564 180.363394,106.96884 C180.16785,107.51092 172.71956,127.97268 172.71956,127.97268 C172.689611,128.05364 172.671995,128.13812 172.664948,128.2226 L170.725363,151.437 C170.723601,151.46516 170.721839,151.49156 170.721839,151.51796 C170.721839,151.6306 170.742979,151.74148 170.779974,151.84884 C170.779974,151.84884 178.360389,172.65556 178.474896,172.9706 L178.474896,192.0314 C178.418523,192.25844 174.625674,207.39268 174.625674,207.39268 L170.744741,224.83076 C170.728886,224.8994 170.720078,224.9698 170.720078,225.0402 C170.720078,225.06484 170.721839,225.08948 170.723601,225.11412 C170.723601,225.11412 172.434171,247.30068 172.58215,249.21556 L130.661736,249.21556 L131.894896,246.7586 C131.961839,246.62484 131.998834,246.477 131.998834,246.32564 L131.998834,235.67236 L142.644534,235.67236 C143.180078,235.67236 143.613446,235.2394 143.613446,234.70436 L143.613446,201.81348 C143.613446,201.66212 143.576451,201.51428 143.509508,201.38052 L142.644534,197.95732 C142.644534,197.95732 135.867435,188.48676 135.867435,188.2738 C135.867435,188.1946 135.856865,188.11716 135.837487,188.03972 L128.072098,158.94692 C127.975207,158.65828 127.747953,158.43124 127.459041,158.33444 L121.650855,156.40196 C121.552202,156.36852 121.448264,156.35268 121.344326,156.35268 L28.3957236,156.35268 C28.2917858,156.35268 22.2827703,158.33444 22.2827703,158.33444 C21.9938583,158.43124 21.7666045,158.65828 21.6697133,158.94692 L13.902563,188.03972 C13.8831848,188.11716 8.09613813,201.5794 8.09613813,201.5794 C8.0767599,201.65508 8.06618995,201.73428 8.06618995,201.81348 L8.06618995,234.70436 C8.06618995,235.2394 8.49955782,235.67236 9.03510187,235.67236 L17.7429775,235.67236 L17.7429775,246.32564 C17.7429775,246.477 17.7782107,246.62484 17.8469153,246.76036 L19.080076,249.21556 L1.29085316,249.21556 C0.755309119,249.21556 0.321941244,249.64852 0.321941244,250.18356 L0.321941244,261.80308 C0.321941244,262.33812 0.755309119,262.77108 1.29085316,262.77108 L247.220078,262.77108 C247.47728,262.77108 247.72215,262.669 247.905363,262.48772 L338.921425,171.5538 C339.29842,171.1754 339.29842,170.56292 338.919663,170.18452 L338.919663,170.18452 Z M35.7770708,249.21732 L37.0067081,246.76036 C37.0736511,246.6266 37.1088842,246.477 37.1088842,246.3274 L37.1088842,235.67412 L112.636451,235.67412 L112.636451,246.3274 C112.636451,246.477 112.671684,246.6266 112.738627,246.76036 L113.968264,249.21732 L35.7770708,249.21732 L35.7770708,249.21732 Z M23.7167599,187.30932 C24.0180034,185.3434 27.0621485,165.55924 27.2876407,164.09492 L122.450648,164.09492 C122.67614,165.55924 125.72557,185.3434 126.030337,187.30932 L23.7167599,187.30932 L23.7167599,187.30932 Z" id="path18" sketch:type="MSShapeGroup"></path>
                <path d="M140.521736,92.4946 L144.369197,93.26372 L144.587642,93.48196 L145.461425,93.48196 L150.20557,94.4306 C150.475104,94.48516 150.755207,94.42004 150.977176,94.2546 L158.721425,88.45012 C158.964534,88.26708 159.10899,87.9802 159.10899,87.67748 L159.10899,75.10228 L160.079663,74.13604 L159.10899,73.16628 L159.10899,72.19828 C159.10899,71.90084 158.97158,71.61924 158.735518,71.4362 C158.501218,71.25316 158.194689,71.18804 157.904016,71.2602 L146.393342,74.13604 L144.587642,74.13604 L143.983394,74.73796 L142.411995,75.13044 C141.98215,75.2378 141.679145,75.625 141.679145,76.06852 L141.679145,78.00276 L140.710233,79.937 L141.679145,82.83748 L141.679145,85.58132 C141.584016,85.86468 139.792409,91.23796 139.792409,91.23796 C139.758938,91.33828 139.743083,91.44036 139.743083,91.5442 C139.743083,91.71316 139.787124,91.88036 139.873446,92.02996 C140.012617,92.27108 140.248679,92.43828 140.521736,92.4946 L140.521736,92.4946 Z" id="path20" sketch:type="MSShapeGroup"></path>
                <path d="M154.949715,117.381 L160.764948,111.57476 C161.023912,111.31604 161.113756,110.93236 160.999249,110.58388 L159.059663,104.78292 C158.927539,104.38692 158.557591,104.12116 158.141839,104.12116 L154.266192,104.12116 C154.162254,104.12116 154.058316,104.13876 153.959663,104.17044 L151.202668,105.0874 L150.397591,105.0874 L149.994171,105.49044 L148.151477,106.10292 C147.755104,106.23492 147.489093,106.60452 147.489093,107.01988 L147.489093,114.7586 C147.489093,115.17396 147.755104,115.54356 148.151477,115.67556 L153.959663,117.61156 C154.30671,117.72948 154.68899,117.64148 154.949715,117.381 L154.949715,117.381 Z M149.425155,114.0634 L149.425155,112.82436 L150.170337,114.31332 C149.872617,114.213 149.606606,114.12324 149.425155,114.0634 L149.425155,114.0634 Z" id="path22" sketch:type="MSShapeGroup"></path>
                <path d="M155.516969,142.5314 C155.700181,142.71268 155.945052,142.81476 156.202254,142.81476 L158.141839,142.81476 C158.399041,142.81476 158.643912,142.71268 158.827124,142.5314 L159.512409,141.84676 L160.081425,141.84676 L160.081425,141.27828 L160.76671,140.59364 C160.948161,140.41236 161.050337,140.16596 161.050337,139.909 L161.050337,137.97652 C161.050337,137.71956 160.946399,137.47316 160.76671,137.29188 L158.827124,135.35588 C158.532927,135.06196 158.081943,134.9898 157.708472,135.1746 L153.832824,137.1106 C153.505155,137.27428 153.29728,137.61044 153.29728,137.97652 L153.29728,139.909 C153.29728,140.15716 153.392409,140.40356 153.580907,140.59364 L155.516969,142.5314 L155.516969,142.5314 Z" id="path24" sketch:type="MSShapeGroup"></path>
                <path d="M145.02101,125.5034 C144.647539,125.31684 144.196554,125.389 143.902358,125.68468 L141.962772,127.62068 C141.781321,127.80196 141.679145,128.04836 141.679145,128.30532 L141.679145,132.1738 C141.679145,132.70884 142.112513,133.1418 142.648057,133.1418 L146.525466,133.1418 C146.782668,133.1418 147.029301,133.03972 147.210751,132.85668 L149.141528,130.9242 C149.324741,130.74292 149.425155,130.49652 149.425155,130.24132 L149.425155,128.30532 C149.425155,127.93924 149.219041,127.60484 148.889611,127.44116 L145.02101,125.5034 L145.02101,125.5034 Z" id="path26" sketch:type="MSShapeGroup"></path>
                <path d="M154.26443,55.7546 L158.140078,55.7546 C158.39728,55.7546 158.64215,55.65252 158.823601,55.47124 L160.764948,53.53876 C160.946399,53.35748 161.048575,53.11108 161.048575,52.85412 C161.048575,52.59716 160.944637,52.35076 160.764948,52.16948 L160.079663,51.4866 L160.079663,50.91636 L158.93987,50.34788 L156.887539,48.29924 C156.508782,47.9226 155.895725,47.9226 155.518731,48.29924 L153.580907,50.23172 C153.399456,50.41476 153.29728,50.6594 153.29728,50.91636 L153.29728,54.7866 C153.295518,55.31988 153.728886,55.7546 154.26443,55.7546 L154.26443,55.7546 Z" id="path28" sketch:type="MSShapeGroup"></path>
            </g>
        </g>
    </g>
</svg>