<?xml version="1.0" encoding="UTF-8"?>
<svg  xmlns="http://www.w3.org/2000/svg" version="1.1" x="0px" y="0px" width="512px" height="512px" viewBox="0 0 512 512">
  <!-- This icon is sized to fit exactly on the icon "tri-angular" -->
  <path d="M6 472.506l13.04 -22.57l103.73 0l-11.29 -11.3l-13.55 0l-13.54 -24.84l31.62 -33.87l18.07 2.27l13.54 -6.78l31.62 11.28l20.32 18.07l-2.27 27.12l-36.12 18.05l85.8 0l15.8 -85.82l11.32 -9l-9.04 -90.34l13.54 -9.02l-9.04 -13.55l9.04 -63.22l45.14 -22.15l182.27 315.66z"/>
  <path d="M149.87 352.85l24.84 -15.8l6.78 -22.6l-15.8 -15.82l-9.04 6.8l-9.03 -6.8l-22.57 18.07l2.25 13.55l2.25 15.82z"/>
  <path d="M233.42 255.76l-20.32 -4.53l-27.09 22.58l-2.27 29.37l18.07 15.8l9.04 -13.55l9.03 0l19.2 -22.58l-5.65 -6.78z"/>
  <path d="M271.81 176.74l-47.41 4.5l-13.55 -27.1l15.8 -11.28l2.25 -15.8l36.14 -6.78l18.05 11.3l4.52 -2.27l13.55 11.28z"/>
</svg>
