<?xml version="1.0" encoding="UTF-8" standalone="no"?>
<svg width="256px" height="256px" viewBox="0 0 256 256" version="1.1" xmlns="http://www.w3.org/2000/svg" xmlns:xlink="http://www.w3.org/1999/xlink" xmlns:sketch="http://www.bohemiancoding.com/sketch/ns">
    <!-- Generator: Sketch 3.3.3 (12081) - http://www.bohemiancoding.com/sketch -->
    <title>falling-rocks-au</title>
    <desc>Created with Sketch.</desc>
    <defs></defs>
    <g id="Page-1" stroke="none" stroke-width="1" fill="none" fill-rule="evenodd" sketch:type="MSPage">
        <g id="falling-rocks-au" sketch:type="MSArtboardGroup" fill="#000000">
            <g id="Group" sketch:type="MSLayerGroup" transform="translate(35.000000, 39.000000)">
                <path d="M82.5779526,-1.42108547e-14 L0,83.5850419 L57.6137259,141.007821 L129.590856,141.062224 L117.401847,132.660976 L114.220311,128.088602 L109.716575,125.588693 L108.337564,123.088786 L106.11152,120.855706 L104.574981,116.708188 L100.864049,112.827499 L101.553555,106.501306 L96.835478,95.1752935 L97.5249835,88.318029 L93.1787747,81.7768173 L94.7695439,72.6838825 L94.1316868,65.611602 L96.1459725,62.4225983 L95.0329505,53.8089229 L98.4262472,39.9311894 L93.230423,28.0222966 L93.6565219,21.535485 L91.6938846,17.6003965 L91.3762472,15.2067008 L89.4161943,12.8130052 L88.7266888,4.78480072 L82.5779526,7.87775642e-15" id="path3076" sketch:type="MSShapeGroup"></path>
                <path d="M110.564262,17.9630797 L118.621403,16.5797101 L123.285249,20.5147987 L123.445359,25.6726429 L125.087776,37.5297241 L121.960468,42.7937821 L118.515523,45.506117 L107.96635,44.8144322 L104.257998,38.4882386 C103.514262,34.8717893 102.933218,31.5739834 103.568492,26.3099255 L107.96635,21.9499798 L110.564262,17.9630797" id="path3080" sketch:type="MSShapeGroup"></path>
                <path d="M111.139505,70.4637681 L107.428571,73.0154871 L108.595824,73.4947443 L107.69456,74.556882 L109.179451,78.865016 L112.146648,80.4608131 L116.069339,78.6525885 L117.28824,74.2382407 L114.85044,70.6761957 L111.139505,70.4637681" id="path3084" sketch:type="MSShapeGroup"></path>
                <path d="M133.813132,49.7391304 L141.180767,49.8453442 L146.851756,57.7155233 L145.315218,67.4457407 L141.234998,76.5360828 L135.721538,76.5360828 L129.94467,71.4844524 L129.306813,68.1374255 L128.087912,67.2333131 L128.831648,57.9279508 L133.813132,49.7391304" id="path3088" sketch:type="MSShapeGroup"></path>
                <path d="M118.770547,93.2608696 L123.010877,94.589837 L126.455822,94.3774094 L130.112523,98.2062842 L133.188183,99.908295 L133.717578,106.819962 L131.915051,112.296445 L128.046591,114.796355 L119.460053,114.796355 L114.106703,109.104853 L111.986538,106.76556 L111.56044,99.5870631 L113.468846,95.175308 L115.64324,94.4836232 L116.810492,93.5276993 L118.770547,93.2608696" id="path3092" sketch:type="MSShapeGroup"></path>
                <path d="M152.564066,91.0329689 L157.705657,90.872353 L160.621207,84.9192008 L166.503954,82.8985507 L176.469497,85.3958675 L179.914442,91.61844 L184.36653,93.5328784 L186.380816,102.838239 L169.68549,112.407838 L167.03335,117.086425 L155.851481,117.617494 L148.747253,100.125902 L152.564066,91.0329689" id="path3096" sketch:type="MSShapeGroup"></path>
                <path d="M128.565657,125.464366 L134.236646,124.347826 L138.742965,126.314076 L141.392523,127.005761 L143.512688,128.920199 L143.778677,132.694674 L142.082029,135.194583 L142.505545,136.259312 L140.969009,137.640089 L135.403899,137.95873 L131.532855,136.790378 L128.24802,135.246395 L126.021978,130.142953 L128.565657,125.464366" id="path3100" sketch:type="MSShapeGroup"></path>
            </g>
        </g>
    </g>
</svg>