<?xml version="1.0" encoding="UTF-8" standalone="no"?>
<svg width="256px" height="256px" viewBox="0 0 256 256" version="1.1" xmlns="http://www.w3.org/2000/svg" xmlns:xlink="http://www.w3.org/1999/xlink" xmlns:sketch="http://www.bohemiancoding.com/sketch/ns">
    <!-- Generator: Sketch 3.3.3 (12081) - http://www.bohemiancoding.com/sketch -->
    <title>firemans-car</title>
    <desc>Created with Sketch.</desc>
    <defs></defs>
    <g id="Page-1" stroke="none" stroke-width="1" fill="none" fill-rule="evenodd" sketch:type="MSPage">
        <g id="firemans-car" sketch:type="MSArtboardGroup" fill="#000000">
            <path d="M126.961123,101 L126.961123,103.46944 L128.460423,103.46944 L128.460423,112.1125 L126.696533,112.1125 L126.696533,114.75833 L136.133343,114.75833 L136.133343,116.69861 L123.962513,116.69861 L123.962513,103.20486 L113.555563,103.20486 L113.555563,106.02708 L109.939593,106.20347 C108.383843,106.26697 106.701093,106.19277 105.441673,107.26181 C104.185783,108.33425 103.871813,109.95351 103.677783,111.49514 L102.795843,118.5507 L102.266673,112.55347 C102.164363,111.43516 101.719873,110.144 100.767367,109.46667 C100.382839,109.19856 99.966562,109.02217 99.532645,108.84931 C99.874839,108.73995 100.227617,108.54239 100.502784,108.32014 C100.897895,108.01322 101.201284,107.7169 101.384728,107.26181 C101.536393,106.90551 101.525813,106.49275 101.561113,106.11528 L103.589593,107.61458 L103.854173,107.08542 L102.002093,105.58611 C101.843343,105.1663 101.621083,104.73945 101.384728,104.35139 C100.922589,103.56822 100.255839,102.88031 99.532645,102.32292 C98.985839,101.90311 98.357895,101.59266 97.680561,101.44097 C97.281922,101.35627 96.865645,101.25758 96.445839,101.26458 L96.445839,101.35278 L96.181256,103.38125 L94.858339,103.38125 L93.182644,103.38125 L93.182644,103.73403 C93.408422,103.77283 93.655367,103.78693 93.8882,103.82223 C94.082228,103.83973 94.226867,103.88923 94.417367,103.91043 C94.844228,103.97393 95.309894,104.0127 95.740283,104.08682 C95.503922,104.61245 95.295786,105.19807 95.211117,105.76251 C95.101756,106.51393 95.302837,107.31826 95.828478,107.87918 C96.248283,108.32015 96.791561,108.65529 97.327784,108.93751 C96.96795,109.12801 96.572839,109.29381 96.26945,109.55487 C95.902561,109.87237 95.574478,110.21809 95.299311,110.61321 C95.059422,110.96246 94.921839,111.36815 94.770144,111.75973 C94.611394,112.27479 94.445589,112.73692 94.329172,113.25904 C94.089283,114.30679 93.934061,115.38276 93.711811,116.43404 L93.270839,118.81529 L87.802783,118.81529 L86.479866,112.64168 L86.920838,102.14654 L84.98056,102.14654 L83.745838,111.75973 L54.818057,115.4639 C54.327696,115.5239 53.879668,115.57329 53.406946,115.64029 C52.930696,115.70029 52.454446,115.7814 52.084029,116.08126 C51.586612,116.47637 51.170329,117.12196 51.11389,117.75696 L49.614584,134.07293 C49.561664,134.69029 49.293557,135.25121 48.820834,135.66043 C48.35164,136.05206 47.751918,136.1155 47.14514,136.1014 L43,136.0132 L43,140.7757 L57.287502,140.7757 C56.874752,142.70187 56.536085,144.57511 57.022918,146.50834 C57.700252,149.14711 59.326558,151.46839 61.60903,152.94653 C63.178891,153.97311 65.168558,154.21654 66.988892,154.44584 C69.077336,154.27651 70.925892,154.03661 72.721531,152.94653 C75.113365,151.51425 76.841976,149.17181 77.572226,146.50834 C78.083754,144.64567 77.685115,142.62073 77.307643,140.7757 L156.947233,140.7757 C156.411033,142.70539 155.917123,144.60334 156.329873,146.59653 C156.894313,149.3094 158.622923,151.65537 160.915983,153.21112 C162.496423,154.28357 164.450813,154.57284 166.295843,154.79862 C168.419563,154.60812 170.303403,154.3647 172.116683,153.21112 C174.480293,151.70123 176.096013,149.22473 176.702793,146.50834 C177.129653,144.59981 176.671093,142.6172 176.173623,140.7757 L214.450013,140.7757 L214.450013,136.0132 L210.481263,136.0132 L205.895153,116.69861 L194.782653,116.69861 L194.782653,114.75833 L205.895153,114.75833 L205.895153,112.1125 L203.161123,112.2007 L203.072923,103.38125 L205.895143,103.38125 L205.895143,101 L126.961113,101 L126.961123,101 Z M130.047923,103.46944 L136.133343,103.46944 L136.133343,112.1125 L130.047923,112.1125 L130.047923,103.46944 L130.047923,103.46944 Z M137.985423,103.46944 L143.982653,103.46944 L143.982653,112.1125 L137.985423,112.1125 L137.985423,103.46944 L137.985423,103.46944 Z M146.187513,103.46944 L152.184733,103.46944 L152.184733,112.1125 L146.187513,112.1125 L146.187513,103.46944 L146.187513,103.46944 Z M154.389593,103.46944 L160.386813,103.46944 L160.386813,112.1125 L154.389593,112.1125 L154.389593,103.46944 L154.389593,103.46944 Z M162.503483,103.46944 L168.500703,103.46944 L168.500703,112.1125 L162.503483,112.1125 L162.503483,103.46944 L162.503483,103.46944 Z M170.617373,103.46944 L176.614593,103.46944 L176.614593,112.1125 L170.617373,112.1125 L170.617373,103.46944 L170.617373,103.46944 Z M178.643073,103.46944 L184.640293,103.46944 L184.640293,112.1125 L178.643073,112.1125 L178.643073,103.46944 L178.643073,103.46944 Z M186.756963,103.46944 L192.754183,103.46944 L192.754183,112.1125 L186.756963,112.1125 L186.756963,103.46944 L186.756963,103.46944 Z M194.959043,103.46944 L200.956263,103.46944 L200.956263,112.1125 L194.959043,112.1125 L194.959043,103.46944 L194.959043,103.46944 Z M137.985423,114.75833 L193.106963,114.75833 L193.106963,116.69861 L137.985423,116.69861 L137.985423,114.75833 L137.985423,114.75833 Z" id="path3220" sketch:type="MSShapeGroup"></path>
        </g>
    </g>
</svg>