<?xml version="1.0" encoding="UTF-8" standalone="no"?>
<svg width="512px" height="512px" viewBox="0 0 512 512" version="1.1" xmlns="http://www.w3.org/2000/svg" xmlns:xlink="http://www.w3.org/1999/xlink" xmlns:sketch="http://www.bohemiancoding.com/sketch/ns">
    <!-- Generator: Sketch 3.2.2 (9983) - http://www.bohemiancoding.com/sketch -->
    <title>fire-station</title>
    <desc>Created with Sketch.</desc>
    <defs></defs>
    <g id="us-symbols" stroke="none" stroke-width="1" fill="none" fill-rule="evenodd" sketch:type="MSPage">
        <g id="fire-station" sketch:type="MSArtboardGroup" fill="#000000">
            <path d="M252.926707,209.132132 L252.926707,213.434748 L255.539004,213.434748 L255.539004,228.493937 L252.4657,228.493937 L252.4657,233.103884 L268.907875,233.103884 L268.907875,236.484521 L247.702095,236.484521 L247.702095,212.973758 L229.569602,212.973758 L229.569602,217.891038 L223.269336,218.19837 C220.558683,218.309009 217.626753,218.179727 215.432409,220.042363 C213.244216,221.910923 212.697172,224.732232 212.359105,227.418283 L210.822462,239.7115 L209.900465,229.262258 C209.722206,227.313777 208.947751,225.064131 207.288157,223.883989 C206.618177,223.416849 205.892879,223.109517 205.136846,222.808335 C205.733066,222.617792 206.347727,222.273575 206.827163,221.886339 C207.515582,221.351578 208.04419,220.835287 208.363813,220.042363 C208.628066,219.421566 208.609632,218.702396 208.671136,218.044713 L212.205448,220.65701 L212.666437,219.735031 L209.439476,217.122716 C209.162878,216.391262 208.775625,215.647543 208.363813,214.971408 C207.558608,213.606856 206.396899,212.40828 205.136846,211.437115 C204.184122,210.705661 203.090027,210.16475 201.909878,209.900454 C201.215311,209.752877 200.490013,209.580925 199.758566,209.593122 L199.758566,209.746796 L199.297572,213.28109 L196.992594,213.28109 L194.072956,213.28109 L194.072956,213.895755 C194.466339,213.963358 194.896603,213.987925 195.302278,214.049429 C195.640342,214.07992 195.892352,214.166166 196.224269,214.203104 C196.968008,214.313743 197.779359,214.381294 198.529245,214.510436 C198.117422,215.426265 197.754778,216.446617 197.607255,217.430066 C197.416711,218.739298 197.767063,220.140718 198.682911,221.118034 C199.414356,221.886356 200.360933,222.470285 201.295219,222.96201 C200.668264,223.293927 199.979844,223.582807 199.451236,224.037664 C198.811989,224.590858 198.240355,225.193222 197.76092,225.881657 C197.34295,226.490171 197.103233,227.197022 196.838928,227.87929 C196.562331,228.776702 196.273442,229.581891 196.070603,230.491604 C195.652634,232.317146 195.382184,234.191857 194.994947,236.023549 L194.226622,240.172507 L184.699384,240.172507 L182.394407,229.415951 L183.162732,211.1298 L179.782099,211.1298 L177.630788,227.87929 L127.228625,234.33323 C126.374247,234.437771 125.593628,234.523825 124.769983,234.640563 C123.940191,234.745103 123.1104,234.886425 122.465006,235.408884 C121.598334,236.097302 120.873025,237.222142 120.774689,238.328531 L118.162382,266.756574 C118.070177,267.832227 117.603042,268.809543 116.779396,269.522546 C115.961898,270.2049 114.916975,270.315434 113.859759,270.290867 L106.637497,270.137193 L106.637497,278.435109 L131.531249,278.435109 C130.812096,281.791161 130.222022,285.05499 131.070252,288.423343 C132.250402,293.02099 135.083987,297.06546 139.06084,299.640889 C141.796079,301.429545 145.262764,301.853684 148.434413,302.253204 C152.073203,301.958172 155.294024,301.540184 158.422646,299.640889 C162.590045,297.145363 165.601881,293.064026 166.874228,288.423343 C167.765487,285.17793 167.07092,281.649787 166.413234,278.435109 L305.172844,278.435109 C304.238599,281.797294 303.378038,285.104177 304.09719,288.577001 C305.080639,293.303755 308.092474,297.391243 312.087774,300.101896 C314.841446,301.970473 318.246666,302.474481 321.461345,302.867868 C325.161597,302.535951 328.443895,302.11183 331.603254,300.101896 C335.721477,297.471147 338.536618,293.156231 339.593838,288.423343 C340.337575,285.098026 339.538606,281.643636 338.671841,278.435109 L405.362503,278.435109 L405.362503,270.137193 L398.447573,270.137193 L390.456989,236.484521 L371.095185,236.484521 L371.095185,233.103884 L390.456989,233.103884 L390.456989,228.493937 L385.693367,228.647611 L385.539692,213.28109 L390.456972,213.28109 L390.456972,209.132132 L252.92669,209.132132 L252.926707,209.132132 Z M258.304976,213.434748 L268.907875,213.434748 L268.907875,228.493937 L258.304976,228.493937 L258.304976,213.434748 L258.304976,213.434748 Z M272.134837,213.434748 L282.584078,213.434748 L282.584078,228.493937 L272.134837,228.493937 L272.134837,213.434748 L272.134837,213.434748 Z M286.425704,213.434748 L296.874928,213.434748 L296.874928,228.493937 L286.425704,228.493937 L286.425704,213.434748 L286.425704,213.434748 Z M300.716554,213.434748 L311.165778,213.434748 L311.165778,228.493937 L300.716554,228.493937 L300.716554,213.434748 L300.716554,213.434748 Z M314.853747,213.434748 L325.302971,213.434748 L325.302971,228.493937 L314.853747,228.493937 L314.853747,213.434748 L314.853747,213.434748 Z M328.990939,213.434748 L339.440163,213.434748 L339.440163,228.493937 L328.990939,228.493937 L328.990939,213.434748 L328.990939,213.434748 Z M342.974474,213.434748 L353.423698,213.434748 L353.423698,228.493937 L342.974474,228.493937 L342.974474,213.434748 L342.974474,213.434748 Z M357.111667,213.434748 L367.560891,213.434748 L367.560891,228.493937 L357.111667,228.493937 L357.111667,213.434748 L357.111667,213.434748 Z M371.402517,213.434748 L381.851741,213.434748 L381.851741,228.493937 L371.402517,228.493937 L371.402517,213.434748 L371.402517,213.434748 Z M272.134837,233.103884 L368.175555,233.103884 L368.175555,236.484521 L272.134837,236.484521 L272.134837,233.103884 L272.134837,233.103884 Z" id="path3220" sketch:type="MSShapeGroup"></path>
        </g>
    </g>
</svg>