<?xml version="1.0" encoding="UTF-8" standalone="no"?>
<svg width="512px" height="512px" viewBox="0 0 512 512" version="1.1" xmlns="http://www.w3.org/2000/svg" xmlns:xlink="http://www.w3.org/1999/xlink" xmlns:sketch="http://www.bohemiancoding.com/sketch/ns">
    <!-- Generator: Sketch 3.2.2 (9983) - http://www.bohemiancoding.com/sketch -->
    <title>flaggers</title>
    <desc>Created with Sketch.</desc>
    <defs></defs>
    <g id="us-symbols" stroke="none" stroke-width="1" fill="none" fill-rule="evenodd" sketch:type="MSPage">
        <g id="flaggers" sketch:type="MSArtboardGroup" fill="#000000">
            <path d="M283.117728,138.692242 C296.676353,138.692242 307.736086,149.742474 307.736086,163.301099 C307.736086,176.854973 296.676353,187.914706 283.117728,187.914706 C269.563854,187.914706 258.489868,176.854973 258.489868,163.301099 C258.489868,149.742474 269.563854,138.692242 283.117728,138.692242" id="path6456" sketch:type="MSShapeGroup"></path>
            <path d="M139.349741,194.596619 L189.740888,194.596619 L189.740888,257.339702 L139.349741,257.339702 L139.349741,194.596619 L139.349741,194.596619 Z" id="path6458" sketch:type="MSShapeGroup"></path>
            <path d="M194.250301,194.599002 L310.909583,194.599002 L354.131855,203.273863 L361.134454,182.907419 L372.650259,185.244789 L363.471819,222.628394 L311.21363,218.785043 L321.152189,373.307758 L309.80741,373.184239 L288.039498,284.36907 L273.350196,373.112977 L262.499499,373.112977 L261.330813,219.122345 L194.250301,206.110056 L194.250301,194.599002 L194.250301,194.599002 Z" id="path6462" sketch:type="MSShapeGroup"></path>
        </g>
    </g>
</svg>