<?xml version="1.0" encoding="UTF-8" standalone="no"?>
<svg width="512px" height="512px" viewBox="0 0 512 512" version="1.1" xmlns="http://www.w3.org/2000/svg" xmlns:xlink="http://www.w3.org/1999/xlink" xmlns:sketch="http://www.bohemiancoding.com/sketch/ns">
    <!-- Generator: Sketch 3.2.2 (9983) - http://www.bohemiancoding.com/sketch -->
    <title>footpath</title>
    <desc>Created with Sketch.</desc>
    <defs></defs>
    <g id="symbols" stroke="none" stroke-width="1" fill="none" fill-rule="evenodd" sketch:type="MSPage">
        <g id="footpath" sketch:type="MSArtboardGroup" fill="#000000">
            <g id="g1953" sketch:type="MSLayerGroup" transform="translate(148.472252, 107.885798)">
                <path d="M37.1945061,210.125299 L53.5818538,210.125299 L53.5818538,274.504153 C53.5818538,280.87962 37.7797584,279.98345 37.7797584,274.504153 L37.1945061,210.125299 L37.1945061,210.125299 Z" id="path1914" sketch:type="MSShapeGroup"></path>
                <path d="M59.8216261,210.125299 L76.2089738,210.125299 L76.2089738,288.550445 C76.2089738,298.046667 60.4068785,297.733165 60.4068785,288.550445 L59.8216261,210.125299 L59.8216261,210.125299 Z" id="path1916" sketch:type="MSShapeGroup"></path>
                <path d="M0.198912161,204.075665 C4.86797406,181.523638 8.1291872,161.631357 39.7209224,131.860053 L39.7209224,86.7511743 L34.1340382,85.3027159 L34.1838445,137.247696 C31.5916412,139.850867 29.150173,142.604788 26.6848592,145.334864 C21.3937111,142.705764 20.8504942,134.485111 18.2010895,127.100857 L14.9659467,106.700845 L17.9941556,89.6480755 C23.601987,77.0820316 27.1053855,63.9823905 48.8254623,55.7129495 L61.8615098,55.5060157 C86.9586282,59.8543208 91.7512112,77.6941064 101.043555,95.2761334 C112.266973,116.511934 125.505615,135.388472 112.764207,142.826888 C126.883711,152.020543 134.274655,167.94276 155.183118,170.347457 C165.162474,171.375342 170.358035,168.416759 177.944476,167.450556 L214.155733,211.31791 C215.875909,222.576674 211.714515,224.03284 207.741176,225.802416 L183.324442,196.626486 L191.808211,239.666152 L179.80677,239.666152 L187.462868,285.188882 C187.462868,289.556411 172.771443,290.708507 172.771443,286.016571 L165.322264,244.011511 L155.051497,243.896388 L150.423922,292.017291 C150.423922,296.961738 137.180941,296.064643 137.180941,292.017291 L142.974743,189.798077 L100.762766,150.896837 C95.8960606,142.288481 99.4396143,139.616781 100.762766,135.377724 C94.83377,117.65007 84.7734616,101.988072 76.7598678,85.3027159 L73.8629666,85.3027159 L74.0698847,132.066971 C107.941918,161.345695 109.12914,181.661369 113.591895,204.696419 L0.198912161,204.075665 L0.198912161,204.075665 Z" id="path1918" sketch:type="MSShapeGroup"></path>
                <path d="M79.3333643,21.9634498 C79.3379392,34.0878793 69.510447,43.9190846 57.3860332,43.9190846 C45.2616037,43.9190846 35.4341115,34.0878793 35.4386864,21.9634498 C35.4341115,9.839036 45.2616037,0.00781496247 57.3860332,0.00781496247 C69.510447,0.00781496247 79.3379392,9.839036 79.3333643,21.9634498 L79.3333643,21.9634498 L79.3333643,21.9634498 Z" id="path1922" sketch:type="MSShapeGroup"></path>
                <path d="M177.364646,139.308433 C177.368732,150.139573 168.589509,158.922134 157.758369,158.922134 C146.927217,158.922134 138.147995,150.139573 138.152081,139.308433 C138.147995,128.477293 146.927217,119.694748 157.758369,119.694748 C168.589509,119.694748 177.368732,128.477293 177.364646,139.308433 L177.364646,139.308433 L177.364646,139.308433 Z" id="path1924" sketch:type="MSShapeGroup"></path>
            </g>
        </g>
    </g>
</svg>