<?xml version="1.0" encoding="UTF-8" standalone="no"?>
<svg width="512px" height="512px" viewBox="0 0 512 512" version="1.1" xmlns="http://www.w3.org/2000/svg" xmlns:xlink="http://www.w3.org/1999/xlink" xmlns:sketch="http://www.bohemiancoding.com/sketch/ns">
    <!-- Generator: Sketch 3.2.2 (9983) - http://www.bohemiancoding.com/sketch -->
    <title>h-align-r</title>
    <desc>Created with Sketch.</desc>
    <defs></defs>
    <g id="us-symbols" stroke="none" stroke-width="1" fill="none" fill-rule="evenodd" sketch:type="MSPage">
        <g id="h-align-r" sketch:type="MSArtboardGroup" fill="#000000">
            <path d="M289.276971,217.880035 C291.204984,224.317394 293.158672,230.761207 295.093103,237.205039 C297.279884,244.45758 303.089781,257.215841 312.457872,248.294111 C315.007038,245.867984 316.333154,242.089662 317.866504,238.997157 C320.862049,232.896216 323.87685,226.801748 326.885415,220.694351 C339.346066,195.404285 351.819555,170.114198 364.286625,144.824129 C336.027016,144.824129 307.780245,144.816793 279.527055,144.816793 C272.84384,144.816793 266.154206,144.811291 259.47741,144.811291 C255.873917,144.811291 251.784982,144.423103 248.297761,145.438844 C242.701517,147.056262 239.207877,153.538918 243.070321,158.708204 C244.862439,161.127876 247.307988,163.327586 249.339434,165.579031 C254.127097,170.858316 258.895137,176.137601 263.66336,181.416867 C244.163711,190.273897 226.100214,203.12921 212.707926,219.956908 C200.577199,207.832674 188.446472,195.701987 176.322348,183.577753 C174.096688,181.345711 171.858191,179.113669 169.619693,176.868679 C168.099363,175.348295 167.355337,177.418602 165.9643,178.803111 C159.882798,184.891105 153.801296,190.96617 147.713375,197.041216 C158.653513,207.975005 169.580814,218.908816 180.514716,229.836135 C185.929767,235.251278 191.338583,240.653491 196.734195,246.068634 C199.393396,248.701794 195.420916,256.879517 194.689911,260.560768 C192.554847,271.300476 192.845892,282.286041 192.858913,293.174553 C192.897425,312.745414 192.9231,332.316274 192.943274,351.893609 C192.961613,356.972317 192.968949,362.051043 192.968949,367.129769 C192.968949,367.343257 209.621968,367.233203 210.805771,367.233203 L237.170011,367.233203 C240.26899,367.233203 238.761498,361.688658 238.761498,359.133129 C238.761498,339.827528 238.761498,320.521928 238.779837,301.209853 C238.798176,290.32134 238.048832,279.07699 240.067257,268.311405 C244.731863,243.254227 268.488619,228.736216 289.28229,217.880054" id="path3641" sketch:type="MSShapeGroup"></path>
        </g>
    </g>
</svg>