<?xml version="1.0" encoding="UTF-8" standalone="no"?>
<svg width="512px" height="512px" viewBox="0 0 512 512" version="1.1" xmlns="http://www.w3.org/2000/svg" xmlns:xlink="http://www.w3.org/1999/xlink" xmlns:sketch="http://www.bohemiancoding.com/sketch/ns">
    <!-- Generator: Sketch 3.2.2 (9983) - http://www.bohemiancoding.com/sketch -->
    <title>hairpin-curve</title>
    <desc>Created with Sketch.</desc>
    <defs></defs>
    <g id="us-symbols" stroke="none" stroke-width="1" fill="none" fill-rule="evenodd" sketch:type="MSPage">
        <g id="hairpin-curve" sketch:type="MSArtboardGroup" fill="#000000">
            <path d="M112.040465,272.123439 L112.040465,272.123439 C112.040465,203.612802 167.926604,147.734116 236.444686,147.734116 C304.940417,147.734116 360.81912,203.612802 360.81912,272.123439 L360.297435,277.280549 L385.90416,268.486642 C387.297763,267.711582 388.974571,267.465643 390.561956,267.234618 C395.391161,266.548981 399.959535,271.452716 399.959535,276.62474 C399.959535,279.054257 398.968343,281.439031 397.313907,283.160561 L337.50031,364.146654 L275.406255,283.160561 C273.766712,281.424138 272.760628,279.054257 272.760628,276.62474 C272.760628,271.452716 276.978726,266.780006 282.165643,267.234618 C283.760485,267.383762 285.422378,267.711582 286.823439,268.486642 L313.339369,277.280549 L313.443727,272.123439 C313.443727,229.711396 278.841857,195.12443 236.444707,195.12443 C194.025207,195.12443 159.430794,229.711396 159.430794,272.123439 L159.110347,364.265884 L112.047944,364.265884 L112.041606,272.123439 L112.040465,272.123439 Z" id="path3721" sketch:type="MSShapeGroup"></path>
        </g>
    </g>
</svg>