<?xml version="1.0" encoding="UTF-8" standalone="no"?>
<svg width="512px" height="512px" viewBox="0 0 512 512" version="1.1" xmlns="http://www.w3.org/2000/svg" xmlns:xlink="http://www.w3.org/1999/xlink" xmlns:sketch="http://www.bohemiancoding.com/sketch/ns">
    <!-- Generator: Sketch 3.2.2 (9983) - http://www.bohemiancoding.com/sketch -->
    <title>highway-both</title>
    <desc>Created with Sketch.</desc>
    <defs></defs>
    <g id="symbols" stroke="none" stroke-width="1" fill="none" fill-rule="evenodd" sketch:type="MSPage">
        <g id="highway-both" sketch:type="MSArtboardGroup" fill="#000000">
            <path d="M181.556961,197.524884 L222.190286,238.233906 L68.9660355,238.233906 L68.9660355,273.735815 L222.387099,273.735815 L181.723495,314.475116 L226.460442,314.475116 L285.033965,256.052988 L277.23717,256.158964 L284.867431,255.947012 L226.27877,197.524884 L181.556961,197.524884 Z" id="Shape" sketch:type="MSShapeGroup" transform="translate(177.000000, 256.000000) scale(-1, -1) rotate(-60.000000) translate(-177.000000, -256.000000) "></path>
            <path d="M339.556961,197.524884 L380.190286,238.233906 L226.966035,238.233906 L226.966035,273.735815 L380.387099,273.735815 L339.723495,314.475116 L384.460442,314.475116 L443.033965,256.052988 L435.23717,256.158964 L442.867431,255.947012 L384.27877,197.524884 L339.556961,197.524884 Z" id="Shape" sketch:type="MSShapeGroup" transform="translate(335.000000, 256.000000) scale(1, -1) rotate(-60.000000) translate(-335.000000, -256.000000) "></path>
        </g>
    </g>
</svg>