<?xml version="1.0" encoding="UTF-8" standalone="no"?>
<svg width="512px" height="512px" viewBox="0 0 512 512" version="1.1" xmlns="http://www.w3.org/2000/svg" xmlns:xlink="http://www.w3.org/1999/xlink" xmlns:sketch="http://www.bohemiancoding.com/sketch/ns">
    <!-- Generator: Sketch 3.2.2 (9983) - http://www.bohemiancoding.com/sketch -->
    <title>highway-divided</title>
    <desc>Created with Sketch.</desc>
    <defs></defs>
    <g id="us-symbols" stroke="none" stroke-width="1" fill="none" fill-rule="evenodd" sketch:type="MSPage">
        <g id="highway-divided" sketch:type="MSArtboardGroup" fill="#000000">
            <g id="path3182-+-path3186-+-path3198" sketch:type="MSLayerGroup" transform="translate(124.000000, 99.000000)">
                <path d="M227.945003,113.21069 L227.945003,146.469378 C227.945003,162.761 224.165671,178.82974 217.295416,193.588122 C215.014322,198.505324 212.375546,203.287448 209.31833,207.772364 C203.689831,216.06677 197.521452,224.050488 193.330433,233.209466 C189.11244,242.429214 186.703115,252.47978 186.703115,262.638407 L186.703115,288.271376 L145.481485,288.271376 L145.481485,262.638407 C145.481485,251.459854 147.094449,240.274561 150.219137,229.535053 C153.04013,219.81547 157.069172,210.251241 162.805643,201.87577 C165.640123,197.728557 168.90655,193.885312 172.071737,190.015032 C174.89273,186.577039 177.565252,183.098512 179.502151,179.079638 C184.489513,168.819707 186.223955,157.384497 186.304934,146.057368 L186.52765,113.21069 L162.603167,121.072809 C161.84057,121.390275 161.17244,121.606418 160.342332,121.667207 C157.359362,121.903607 154.383144,120.404123 152.763428,117.877974 C151.373181,115.696306 151.076238,112.872967 151.879334,110.434623 C152.311261,109.1648 152.99965,108.502872 153.735254,107.442433 L206.922511,30.6583473 L260.939857,107.645059 C262.309864,109.57681 263.099473,110.252254 263.207445,112.542004 C263.362593,115.797628 262.296358,118.512905 259.515864,120.377108 C257.747677,121.565885 255.655553,121.88335 253.58367,121.565885 C252.989784,121.478003 252.64559,121.261937 252.078697,121.072809 L227.945003,113.21069 L227.945003,113.21069 Z" id="path3182" sketch:type="MSShapeGroup"></path>
                <path d="M83.6355443,229.615429 L107.769219,221.807341 C108.828797,221.429105 109.368696,221.172429 110.462,221.172429 C113.532703,221.172429 115.894776,222.172079 117.683203,224.752259 C119.282661,227.02851 119.545877,230.074731 118.526798,232.654911 C118.09489,233.782899 117.527979,234.269216 116.853096,235.214834 L62.6130522,312.194787 L9.60127443,235.410721 C9.08161722,234.667728 7.90057878,233.229052 7.55638974,232.121322 C7.29318748,231.317539 7.13121583,230.466484 7.1177193,229.615429 C7.0974793,226.15042 9.3515687,223.239276 12.4087729,221.861372 C13.724788,221.253475 15.0273047,221.05085 16.4243047,221.314265 C17.0721894,221.429143 17.7065757,221.469542 18.2734736,221.807341 L42.3936633,229.615429 L42.2114459,196.802544 C42.1709468,189.116016 41.3138555,181.429506 39.160991,174.046945 C37.4872903,168.244914 35.0779708,162.503654 31.3998788,157.674258 C28.1469588,153.37845 24.6105908,149.285288 21.3036828,145.023255 C18.5096828,141.396153 16.0463734,137.505616 13.9609953,133.43945 C5.56549687,117.127572 1.3475,98.7015538 1.3475,80.3971114 L1.3475,54.615546 L42.6028757,54.615546 L42.6028757,80.3971114 C42.6028757,94.5678529 47.232548,108.671054 55.1151384,120.389936 C58.1993376,124.969434 61.4252626,129.45435 64.5229583,134.02709 C67.8366174,138.924035 70.7318557,144.097912 73.1816609,149.460898 C79.9844435,164.253055 83.6355443,180.328534 83.6355443,196.606658 L83.6355443,229.615429 L83.6355443,229.615429 Z" id="path3186" sketch:type="MSShapeGroup"></path>
                <path d="M153.013137,0.424279098 C152.824129,8.30666896 152.628463,16.2025685 152.10205,24.0782054 C150.981753,40.8156212 148.36997,57.41795 144.232957,73.6690487 C140.858558,86.8468935 137.376188,100.213866 131.592464,112.587936 C131.025572,113.803728 130.337202,114.978988 129.601579,116.093459 C126.449897,120.733747 122.204892,123.624634 116.69789,124.779637 C111.319101,125.894107 105.663609,124.421658 101.209393,121.260597 C98.0712174,119.038396 95.8306035,115.708464 94.3796174,112.182665 C89.8309357,101.152726 86.4700435,89.6499715 83.5748052,78.0999372 C79.0666035,60.2277828 75.4897478,42.1259758 74.1062539,23.7337302 C73.5258557,15.9729196 73.3571252,8.19184452 73.1614209,0.424279098 L153.013137,0.424279098 L153.013137,0.424279098 Z" id="path3198" sketch:type="MSShapeGroup"></path>
            </g>
        </g>
    </g>
</svg>