<?xml version="1.0" encoding="UTF-8" standalone="no"?>
<svg width="512px" height="512px" viewBox="0 0 512 512" version="1.1" xmlns="http://www.w3.org/2000/svg" xmlns:xlink="http://www.w3.org/1999/xlink" xmlns:sketch="http://www.bohemiancoding.com/sketch/ns">
    <!-- Generator: Sketch 3.2.2 (9983) - http://www.bohemiancoding.com/sketch -->
    <title>hitch-hiking</title>
    <desc>Created with Sketch.</desc>
    <defs></defs>
    <g id="us-symbols" stroke="none" stroke-width="1" fill="none" fill-rule="evenodd" sketch:type="MSPage">
        <g id="hitch-hiking" sketch:type="MSArtboardGroup" fill="#000000">
            <g id="path5225-+-path5217-+-path5221" sketch:type="MSLayerGroup" transform="translate(156.000000, 140.000000)">
                <path d="M126.49543,70.8619737 C126.52302,70.8188684 114.255339,69.6550263 110.75421,66.6684474 L74.1694239,35.4571579 C72.2756739,33.2803421 68.4081129,33.5512895 65.9446983,34.0069737 C62.3234788,34.6566316 59.7953995,36.4947632 57.0948812,38.8932632 C55.0810398,40.6513421 53.27043,42.1631053 52.1957654,44.6355 C51.5460398,46.1472632 51.1180215,47.9053421 51.3335702,49.5618158 C51.6907654,52.1696842 53.4089971,54.2972368 55.256558,56.0337632 L95.0653385,93.4368158 C97.4764056,95.7121579 100.734271,97.0299474 104.170735,96.5650263 C112.259973,95.5366579 116.620217,85.3391842 111.231497,78.9719211 L82.9514971,45.8855526 L114.748021,79.5107368 C119.308418,84.3169737 116.64793,91.2630789 113.396223,94.7207368 C108.39857,101.682237 99.2562227,99.3052895 99.2192715,99.2714211 C98.9790885,102.476605 99.074669,108.225 96.6511617,111.513316 C93.0145459,116.430395 85.3625641,117.837474 85.2424727,117.945237 C85.2855824,117.754342 88.1123507,125.759605 84.6050641,131.757395 C81.0977776,137.745947 75.1978995,137.952237 75.2902776,138.244737 C76.6420763,142.546026 76.8052776,144.590447 75.6443934,147.324553 C71.6259483,156.850816 53.3012227,152.232395 46.5114361,151.213263 C39.4198812,150.151026 26.413052,146.049868 25.2737227,145.757368 C25.1660715,145.732737 72.2048507,157.555895 73.3472593,144.199421 C73.7444849,139.544053 68.3803995,137.019316 64.8977471,135.436737 C52.9409483,129.996237 24.6424727,113.874868 12.9227776,114.142737 C9.9759178,114.210474 7.67262512,115.719158 5.57256415,117.819 C2.88436293,120.362211 1.21232024,123.881447 2.13302146,127.560789 C3.35857024,131.350974 5.04908854,135.316658 6.56408854,138.9375 C10.126802,147.272211 15.90043,154.507737 21.7325641,161.333763 C30.5423507,171.666711 41.0457349,179.231684 52.3035398,186.710447 C58.9547593,191.131816 73.8276251,201.449368 96.608052,207.718105 C124.93732,215.504763 151.674607,232.331211 152.721558,232.805368 C152.16421,232.275789 164.887747,229.877289 176.358021,204.805421 C187.828296,179.748947 200.05915,177.187263 199.584942,177.258079 C199.126131,177.334929 181.916101,162.208184 173.928479,153.811895 C165.525156,144.996868 159.10796,133.398474 156.653784,121.495263 C154.556802,111.405553 157.183418,102.011684 158.987869,92.0943947 C160.336589,84.8065263 160.096406,78.1590789 159.338906,70.7542105 C158.578326,62.8751842 158.285796,55.8767368 160.096406,48.1762895 C160.502869,46.8985263 160.860064,45.6115263 161.38354,44.3861053 C162.14104,42.4586842 162.950887,40.5374211 163.776131,38.5515 C165.586741,34.0069737 167.511284,29.4562895 169.605186,25.0226053 C171.006253,22.0452632 172.755278,19.3080789 174.741406,16.6817368 C175.905369,15.3454737 177.361863,14.2308947 178.590491,12.8330526 C179.172473,12.1310526 179.702107,11.3182105 180.219424,10.4992105 C181.337198,8.86736842 181.802168,7.63886842 181.620491,5.65602632 C181.506435,4.43368421 180.983082,3.44226316 180.339515,2.38926316 C178.824515,0.819 177.133997,-0.110842105 174.855339,0.0615789474 C172.40732,0.234 170.131741,0.991421053 167.73915,1.404 C161.851589,2.33384211 157.063326,6.88144737 152.690765,10.4992105 C148.835521,13.6458947 144.872503,16.7402368 141.553052,20.4165 C138.920278,23.3322632 136.530765,26.5959474 135.129698,30.3307105 C133.374515,35.0445789 131.991924,41.4703421 130.932656,46.5444474 L126.49543,70.8619737 L126.49543,70.8619737 Z" id="path5225" sketch:type="MSShapeGroup"></path>
                <path d="M78.6620517,115.546737 C85.7228139,120.038921 84.5619298,131.058474 77.1470517,134.445316 C74.0031188,135.898579 70.4958322,135.612237 67.5181798,134.155895 L18.4069298,110.235553 C16.1344298,109.133289 13.8588505,107.618447 12.7472346,105.226105 C12.05132,103.705105 11.9281493,101.897763 12.1036676,100.262842 C12.3992773,97.5841579 13.6802529,95.5982368 15.08132,93.3228947 C16.9504359,90.2347105 18.8164724,87.7222895 22.0804968,86.0288684 C24.3006493,84.8650263 27.9157102,83.4641053 30.3637285,84.9851053 L78.6620517,115.546737 L78.6620517,115.546737 Z" id="path5217" sketch:type="MSShapeGroup"></path>
                <path d="M92.6880941,95.9307632 C98.9605637,101.469789 96.0876063,112.175289 88.24471,114.361342 C84.8944661,115.312737 81.4826368,114.475386 78.7728807,112.569395 L34.0003198,81.2780526 C31.9279722,79.8247895 29.91721,77.9681842 29.1966612,75.4311316 C28.7440088,73.8300789 28.9133685,72.0227368 29.3412637,70.4401579 C30.0433368,67.8322895 31.6260807,66.0803684 33.3566295,64.0421053 C35.6845563,61.2833684 37.9231844,59.0973158 41.4181539,57.9396316 C43.7861112,57.1329474 47.5766905,56.3139474 49.7598917,58.1982632 L92.687971,95.9307632 L92.6880941,95.9307632 Z" id="path5221" sketch:type="MSShapeGroup"></path>
            </g>
        </g>
    </g>
</svg>