<?xml version="1.0" encoding="UTF-8" standalone="no"?>
<svg width="256px" height="256px" viewBox="0 0 256 256" version="1.1" xmlns="http://www.w3.org/2000/svg" xmlns:xlink="http://www.w3.org/1999/xlink" xmlns:sketch="http://www.bohemiancoding.com/sketch/ns">
    <!-- Generator: Sketch 3.3.3 (12081) - http://www.bohemiancoding.com/sketch -->
    <title>kangaroo</title>
    <desc>Created with Sketch.</desc>
    <defs></defs>
    <g id="Page-1" stroke="none" stroke-width="1" fill="none" fill-rule="evenodd" sketch:type="MSPage">
        <g id="kangaroo" sketch:type="MSArtboardGroup" fill="#000000">
            <path d="M28.3067986,113.997124 C48.4125678,148.055147 75.2578962,113.335803 94.8609539,90.7675562 C114.399471,68.1993097 139.177508,69.2692516 155.022325,94.6306382 C159.124666,101.356756 165.850781,104.639164 170.455833,103.819233 C175.128092,102.918654 174.388811,99.7142068 179.31377,98.8942764 C173.329622,96.0231758 168.313261,93.2300358 166.923411,88.6357371 C171.356412,88.2244278 177.75187,90.6869073 183.416108,96.4317969 C184.236038,96.1011364 184.647346,95.281206 185.22802,95.861878 C187.518448,98.1523066 199.088876,103.407924 203.521875,109.072165 C204.013833,109.733486 203.363266,111.865305 202.621296,111.945954 C198.677567,112.354575 194.416617,111.945954 190.472886,112.765884 C188.179769,112.924493 186.367858,113.255154 184.158078,113.335803 C181.773561,115.889684 180.053049,119.080692 176.851288,120.311932 C173.818892,122.3631 172.82691,125.075591 170.77574,128.10799 C168.643921,131.23179 164.791592,133.124351 160.608605,133.363609 C157.234791,138.53858 153.871732,144.614128 150.508675,149.775657 C149.436045,151.587569 147.384875,152.488148 145.995026,152.079527 C145.253056,151.907476 144.352477,151.178948 143.782558,150.186966 C143.201886,149.127778 142.962629,147.643838 143.532544,145.673317 C145.094446,146.904556 144.683135,149.367036 147.384873,148.797117 C148.376856,143.210837 149.358085,136.0761 150.258664,130.41186 C147.968235,130.081199 145.664365,128.769311 143.373937,128.43865 C141.150718,131.312439 139.349557,134.102891 137.126338,136.97668 C137.948954,146.334637 137.70701,163.727913 141.070069,165.039802 C151.820564,169.472803 163.799611,172.755213 176.439981,175.879013 C177.59057,175.798364 178.743849,175.629002 179.972402,175.548353 C181.20364,176.779593 182.926836,177.599523 183.827415,179.400682 L181.773559,179.400682 C181.442898,179.981354 181.20364,180.551273 181.034277,181.134633 C177.340558,181.70455 173.738241,180.962582 170.125173,179.080774 C159.285961,177.190902 148.788166,175.217692 137.948954,173.747194 C134.663856,173.335885 133.435305,170.134124 132.373428,166.031783 C129.010369,154.211346 124.40531,143.872158 119.48304,134.764212 C109.2245,131.562451 100.777894,121.712535 94.1324256,115.717633 C71.9727979,128.769311 38.8959983,149.856306 28.3067986,113.997124 L28.3067986,113.997124 Z" id="path3729" sketch:type="MSShapeGroup"></path>
        </g>
    </g>
</svg>