<?xml version="1.0" encoding="UTF-8" standalone="no"?>
<svg width="256px" height="256px" viewBox="0 0 256 256" version="1.1" xmlns="http://www.w3.org/2000/svg" xmlns:xlink="http://www.w3.org/1999/xlink" xmlns:sketch="http://www.bohemiancoding.com/sketch/ns">
    <!-- Generator: Sketch 3.3.3 (12081) - http://www.bohemiancoding.com/sketch -->
    <title>koala-ugly</title>
    <desc>Created with Sketch.</desc>
    <defs></defs>
    <g id="Page-1" stroke="none" stroke-width="1" fill="none" fill-rule="evenodd" sketch:type="MSPage">
        <g id="koala-ugly" sketch:type="MSArtboardGroup" fill="#000000">
            <path d="M126.100649,180.015081 L128.568848,180.110635 C128.568848,180.110635 127.51416,172.840128 121.287598,172.840128 C116.568294,172.840128 112.346593,176.597113 110.579245,178.416014 L108.484863,178.266885 L108.424316,183.245401 L111.195801,188.277628 L112.445801,181.277628 L116.945801,182.277628 L118.445801,187.277628 L121.190918,181.527628 L123.190918,182.027628 L124.940918,186.277628 L126.100649,180.015081 L126.100649,180.015081 Z M61.5639671,180.07479 C62.0877024,180.450595 62.6060601,180.833568 63.1147461,181.235635 L47.9912109,182.374307 L48.6870117,189.18876 L59.9697266,189.18876 L58.1147461,194.235635 L64.1049805,194.68876 L64.1049805,197.372842 L79.9121094,196.18876 C79.9121094,196.18876 120.125227,195.230842 131.73877,194.68876 C140.93549,194.259488 150.088402,193.255895 153.499629,192.856782 L153.499629,192.856782 C153.455981,192.697816 153.412603,192.538975 153.369525,192.380337 C153.174076,191.660582 152.988869,190.959651 152.815503,190.281813 C151.880733,186.626986 151.346191,183.882523 151.346191,182.362589 C151.346191,180.618301 150.276645,179.029884 148.001248,176.865388 C147.8139,176.687171 146.428505,175.403671 146.068091,175.050169 C145.382295,174.377528 144.936529,173.854759 144.659113,173.35541 C142.611803,169.670253 138.96135,165.749708 135.001316,164.165694 C131.257205,162.668049 125.768386,159.119803 120.666526,154.316223 C113.476724,147.546772 107.622413,138.967374 103.867999,128.550679 L104.808759,128.211607 C108.507608,138.474133 114.272573,146.922597 121.352029,153.588153 C126.364092,158.307187 131.74687,161.786882 135.372707,163.237217 C139.585914,164.9225 143.384717,169.002372 145.53327,172.869767 C145.752514,173.264405 146.146023,173.72589 146.768318,174.336249 C147.116508,174.677761 148.493843,175.953795 148.690477,176.140845 C151.153585,178.483903 152.346191,180.25508 152.346191,182.362589 C152.346191,183.768497 152.871071,186.463353 153.784318,190.034026 C153.956416,190.706907 154.140373,191.403108 154.334577,192.118278 C154.390509,192.324252 154.446954,192.530588 154.503847,192.73711 C154.760411,192.705884 154.895996,192.68876 154.895996,192.68876 L158.932129,199.447549 C158.932129,199.447549 159.432129,192.68876 163.395996,191.18876 L167.895996,198.18876 C167.895996,198.18876 167.895996,189.18876 171.395996,189.18876 L174.265137,194.68876 C174.265137,194.68876 175.758559,194.68876 175.950482,189.217742 C175.162579,186.909778 174.247138,184.627565 173.201758,182.47036 C171.728494,179.430189 170.087105,176.832686 168.278594,174.815502 C165.32188,171.517628 161.782326,166.697147 156.651854,159.138759 C155.021518,156.736892 145.081887,141.828342 141.965366,137.259581 L142.79147,136.696065 C145.911784,141.270385 155.85227,156.180218 157.47925,158.57714 C162.58557,166.099946 166.105247,170.893357 169.023164,174.147957 C170.901202,176.242691 172.590737,178.916385 174.101661,182.034268 C175.006507,183.901475 175.814406,185.857197 176.527831,187.841405 L176.527831,187.841405 L184.276855,185.475381 L200.825195,184.84794 L200.825195,177.856729 L208.008789,174.996866 L186.243164,174.380655 C186.243164,174.380655 174.265137,164.46171 172.071289,152.595499 C170.131868,142.105445 164.841672,130.043989 161.087735,125.090869 L161.087735,125.090869 C159.681805,126.490648 158.280247,127.99936 156.968938,129.567351 C155.015758,131.902854 153.428616,134.174152 152.338178,136.30129 C151.617235,137.707647 151.128072,139.025112 150.893722,140.23592 L149.911942,140.045898 C150.165899,138.733787 150.687176,137.329832 151.448292,135.845107 C152.577129,133.643063 154.204785,131.313788 156.201837,128.925825 C157.557294,127.305045 159.005306,125.749119 160.456283,124.308538 C160.193899,124.00594 159.941381,123.744642 159.700684,123.528116 C164.552734,113.357706 165.457031,84.866983 165.457031,84.866983 C165.457031,84.866983 173.228535,85.5070576 177.657715,79.8528229 C182.086895,74.1985882 178.653886,67.5050573 177.657715,63.4748932 C176.54541,58.9748932 169.744591,55.9517176 165.457031,56.6536041 C161.754228,57.2597644 157.935587,61.1877296 156.826386,62.4078496 C157.436162,63.4678132 158.041281,64.5753449 158.611493,65.6941365 C159.117655,66.6872573 159.576156,67.6506704 159.975771,68.571154 C161.050351,71.0463706 161.651855,73.0904961 161.651855,74.5920807 L160.651855,74.5920807 C160.651855,73.2630743 160.082431,71.3279678 159.058484,68.9693809 C158.667617,68.0690478 158.217837,67.123958 157.720538,66.148228 C157.099752,64.9302079 156.43603,63.7239878 155.770488,62.579586 L155.770488,62.579586 C153.387252,61.9777452 145.800893,60.1472565 141.691406,60.1472565 C137.538498,60.1472565 131.136001,62.0166324 129.244503,62.5982486 L129.244503,62.5982486 C129.281615,62.9788295 129.318121,63.3796756 129.353122,63.7969332 C129.496912,65.5111163 129.591651,67.2128794 129.614285,68.8049806 C129.65178,71.4423482 129.48918,73.5422417 129.068987,74.9338248 L128.111677,74.6447623 C128.49437,73.3773681 128.650519,71.3607876 128.614386,68.8191957 C128.592118,67.2528309 128.498618,65.5733162 128.356622,63.8805223 C128.316929,63.4073282 128.275283,62.9555344 128.23304,62.5310081 C126.510579,61.6799778 120.352849,58.8580773 115.200684,59.2688385 C109.14522,59.751616 107.47073,59.4307708 103.614746,64.7688385 C99.7587621,70.1069063 100.465586,75.8365498 102.788086,81.4890541 C104.735352,86.2283119 110.618164,84.8669838 110.618164,84.8669838 L110.618164,89.252726 C110.618164,89.252726 95.0424805,95.1614166 75.6694336,108.243448 C56.2963867,121.325479 53.4805014,142.380613 50.1147461,150.622354 C46.7489908,158.864095 47.9109308,161.304547 51.0151367,168.614542 C53.4790765,174.416794 57.0259284,176.881953 60.4707491,179.301215 C60.6056924,179.268357 60.7604713,179.231612 60.9341415,179.191596 C61.7028769,179.014467 62.5699948,178.837503 63.517635,178.672408 C67.4809968,177.981923 71.5435884,177.706309 75.3470118,178.086286 C76.9605722,178.247487 78.4849185,178.525772 79.905427,178.931631 C88.5412738,181.399016 94.9305336,181.647143 98.7944596,179.71518 L99.2416732,180.609607 C95.1010948,182.679896 88.4850275,182.422961 79.6307058,179.893155 C78.2704403,179.504508 76.8043422,179.236857 75.2476027,179.081332 C71.5469798,178.711626 67.5704486,178.981401 63.6892669,179.657569 C62.9233025,179.791013 62.2114889,179.932262 61.5639671,180.07479 L61.5639671,180.07479 L61.5639671,180.07479 Z M139.507324,101.751697 C139.507324,101.751697 138.76709,89.8752838 145.01709,92.1252838 C151.26709,94.3752838 152.267089,99.3752835 152.26709,104.125284 C152.26709,108.875284 150.988594,112.302908 147.51709,111.625284 C139.507324,110.061808 139.507324,101.751697 139.507324,101.751697 L139.507324,101.751697 Z M124.370117,90.1164948 L127.254395,92.6199127 C127.254395,92.6199127 130.50293,87.8801666 135.62793,88.9983307 C140.75293,90.1164948 135.972168,85.408487 127.597168,87.7624909 C119.222168,90.1164948 124.370117,90.1164948 124.370117,90.1164948 L124.370117,90.1164948 Z M160.384277,84.8249909 L160.884277,87.955362 C160.884277,87.955362 154.384277,86.205362 152.384277,88.205362 C150.384277,90.205362 149.884277,87.705362 151.384277,86.580362 C152.884277,85.455362 160.384277,84.8249909 160.384277,84.8249909 L160.384277,84.8249909 Z M133.399902,96.6223541 C135.609041,96.6223541 137.399902,95.503066 137.399902,94.1223541 C137.399902,92.7416423 135.609041,91.6223541 133.399902,91.6223541 C131.190763,91.6223541 129.399902,92.7416423 129.399902,94.1223541 C129.399902,95.503066 131.190763,96.6223541 133.399902,96.6223541 L133.399902,96.6223541 Z M156.399902,95.6223541 C158.609041,95.6223541 160.399902,94.0553508 160.399902,92.1223541 C160.399902,90.1893575 158.609041,88.6223541 156.399902,88.6223541 C154.190763,88.6223541 152.399902,90.1893575 152.399902,92.1223541 C152.399902,94.0553508 154.190763,95.6223541 156.399902,95.6223541 L156.399902,95.6223541 Z M139.802771,114.195673 C140.014548,114.307134 140.394518,114.464605 140.92591,114.619129 C143.903588,115.485012 147.477714,115.123922 151.305171,112.674349 L150.766118,111.832078 C147.195813,114.117073 143.919137,114.448112 141.205136,113.658903 C140.741478,113.524076 140.423253,113.392194 140.268518,113.310754 L139.802771,114.195673 L139.802771,114.195673 Z M144.404645,117.430042 C144.571307,117.551252 144.872671,117.715632 145.308924,117.874269 C147.263655,118.585081 149.888862,118.465753 153.155632,116.980858 L152.741829,116.070491 C149.711262,117.448022 147.357178,117.555026 145.650667,116.934476 C145.305855,116.80909 145.086509,116.689447 144.992816,116.621306 L144.404645,117.430042 L144.404645,117.430042 Z M126.592903,113.452371 C126.634986,113.498533 126.716992,113.588888 126.836256,113.72092 C127.035326,113.9413 127.266332,114.198326 127.52661,114.489479 C128.270567,115.321689 129.099674,116.260226 129.992618,117.284942 C132.543758,120.212557 135.094816,123.243454 137.475065,126.216099 C138.384767,127.352208 139.25352,128.460263 140.075624,129.534854 C142.689445,132.951437 144.76883,135.945913 146.186916,138.395333 L147.052342,137.894297 C145.609147,135.401506 143.507431,132.374871 140.869854,128.927237 C140.043093,127.846559 139.169816,126.732733 138.25566,125.591062 C135.865864,122.606494 133.306159,119.565322 130.746536,116.627974 C129.850714,115.599954 129.018823,114.658266 128.272141,113.823008 C128.010695,113.530548 127.778538,113.272242 127.57833,113.050602 C127.458028,112.917421 127.374998,112.825938 127.331902,112.778665 L126.592903,113.452371 L126.592903,113.452371 Z M112.50942,92.5055648 C112.543869,92.7467067 112.63262,93.149375 112.798211,93.6607599 C113.072498,94.507821 113.469335,95.3547294 114.01303,96.1476183 C114.605744,97.011993 115.339063,97.7588914 116.227044,98.3508793 C117.334335,99.089073 117.529092,99.9505185 117.433923,102.278697 C117.432421,102.315441 117.432421,102.315441 117.430922,102.352256 C117.335269,104.704676 117.535877,105.785869 118.669912,106.806501 L119.338877,106.063207 C118.504309,105.312096 118.346074,104.459273 118.430096,102.392884 C118.431588,102.356246 118.431588,102.356246 118.433089,102.319539 C118.541772,99.6607417 118.283937,98.5202908 116.781745,97.518829 C116.004726,97.0008169 115.361045,96.3452153 114.837759,95.58209 C114.352454,94.8743539 113.995916,94.1134498 113.749578,93.3526984 C113.602794,92.8993958 113.52617,92.5517516 113.499369,92.3641435 L112.50942,92.5055648 L112.50942,92.5055648 Z M78.0736244,150.699518 C78.1447825,150.601113 78.2849645,150.413098 78.4891884,150.148311 C78.8310981,149.705007 79.2271359,149.210523 79.6722955,148.677708 C80.9445723,147.15491 82.3537813,145.632068 83.8591903,144.21217 C87.4933122,140.784476 91.0871362,138.513934 94.3966471,137.934077 C95.4657877,137.746754 96.4914496,137.740815 97.471019,137.926139 C106.91603,139.713033 122.102996,156.814276 118.537588,162.162387 C117.837465,163.212572 117.304862,164.172983 116.855317,165.152107 C116.681871,165.529878 116.526752,165.895991 116.352468,166.331019 C116.300845,166.459875 116.028722,167.151294 115.954234,167.334613 C115.536307,168.363166 115.201258,168.943755 114.624249,169.543718 C113.688911,170.516265 112.09591,171.477521 109.251793,172.732278 L109.655433,173.647196 C112.608591,172.344333 114.299516,171.323986 115.345009,170.236902 C116.025095,169.529762 116.419122,168.846974 116.880677,167.71105 C116.957684,167.521528 117.231058,166.826933 117.280744,166.702911 C117.449368,166.282011 117.598337,165.930415 117.764108,165.56936 C118.19211,164.637156 118.699219,163.722716 119.369638,162.717087 C123.454228,156.590204 107.692972,138.842283 97.6569107,136.943569 C96.5545232,136.735009 95.4079891,136.741647 94.2240668,136.949082 C90.6795816,137.570108 86.9367413,139.934797 83.1730464,143.484705 C81.6364974,144.933974 80.2009853,146.48524 78.9048874,148.036549 C78.4511158,148.579672 78.046975,149.084273 77.6973476,149.537584 C77.4866492,149.810765 77.3403277,150.007014 77.2632897,150.11355 L78.0736244,150.699518 L78.0736244,150.699518 Z" id="Path-18" sketch:type="MSShapeGroup"></path>
        </g>
    </g>
</svg>