<?xml version="1.0" encoding="UTF-8" standalone="no"?>
<svg width="256px" height="256px" viewBox="0 0 256 256" version="1.1" xmlns="http://www.w3.org/2000/svg" xmlns:xlink="http://www.w3.org/1999/xlink" xmlns:sketch="http://www.bohemiancoding.com/sketch/ns">
    <!-- Generator: Sketch 3.3.3 (12081) - http://www.bohemiancoding.com/sketch -->
    <title>koalas</title>
    <desc>Created with Sketch.</desc>
    <defs></defs>
    <g id="Page-1" stroke="none" stroke-width="1" fill="none" fill-rule="evenodd" sketch:type="MSPage">
        <g id="koalas" sketch:type="MSArtboardGroup" fill="#000000">
            <path d="M190.142594,106.210447 C190.142594,107.803308 188.089572,109.227356 185.701638,109.227356 C183.310982,109.227356 181.301523,107.762466 181.301523,106.000788 C181.301523,104.241831 183.310982,102.815061 185.701638,102.817784 C188.089572,102.81517 190.142594,104.032172 190.142594,105.540627 C189.178708,105.205718 188.258389,104.742834 187.335345,104.535898 C186.916027,104.45149 186.330615,104.241831 185.826889,104.241831 C184.988253,104.241831 184.024367,104.45149 183.229296,104.576741 C183.144888,104.576741 183.479798,104.827242 183.605049,104.952493 C184.359276,104.91165 185.072661,104.742834 185.783324,104.742834 C186.371458,104.742834 187.041278,104.996059 187.545004,105.080467 C188.130415,105.205718 188.928208,105.499785 189.429209,105.791129 L190.142594,106.210447 L190.142594,106.210447 Z M185.701638,109.856333 C188.590576,109.856333 190.98123,108.097376 190.98123,106.000788 C190.98123,103.904198 188.593298,102.188807 185.701638,102.188807 C182.809978,102.188807 180.422044,103.906921 180.422044,106.000788 C180.422044,108.097376 182.809978,109.856333 185.701638,109.856333 L185.701638,109.856333 Z M187.920756,77.3809814 C188.173981,78.4701189 191.98596,82.9110749 192.865438,83.62446 C194.2078,84.7980056 197.09946,88.7379606 198.188598,89.8270981 C199.612645,91.1667373 200.701783,93.3885778 201.496853,94.9814392 C202.210236,96.4054865 202.923621,99.7573072 203.258531,101.935582 C201.834483,102.648967 200.157214,103.02472 199.152484,104.032172 C198.188598,104.952493 197.224711,106.755014 197.140303,107.928559 C197.055895,109.646674 197.015052,111.993765 197.265554,113.586629 C197.475213,115.176769 198.482665,116.769633 199.571802,118.027587 C199.863147,118.362497 200.952284,118.446905 201.499576,118.446905 C201.665669,118.446905 202.210236,118.991474 202.379052,118.907065 L202.923621,118.572156 C202.46346,118.321654 201.665667,117.817928 201.45601,117.608269 C200.66094,116.813198 199.487394,115.596087 199.027234,114.50695 C198.523508,113.208153 198.188598,111.533604 198.188598,110.022426 C198.188598,108.892446 198.439099,107.468399 198.858417,106.545357 C199.362143,105.371811 200.451281,104.282674 201.790918,103.906921 C202.294644,103.738105 203.13328,103.362352 203.843942,103.068285 C205.227147,104.157423 206.316284,105.162152 206.69476,105.665878 C207.195763,106.335698 208.832192,108.513971 208.9166,109.856333 C209.041851,111.824949 209.167102,114.422542 208.162372,116.058971 C207.280171,117.483018 204.726144,118.446905 203.299373,119.410789 L200.407715,123.266336 C198.482665,122.803453 196.595734,121.798723 194.793212,121.673472 C193.118663,121.589064 189.598026,121.548222 188.299231,122.4277 C186.959592,123.348021 185.448414,124.311908 184.024367,125.275795 C184.528093,125.360203 184.568935,125.403768 185.113504,125.485454 C186.581117,124.565133 188.046007,123.516838 189.263116,122.887861 C190.142594,122.468543 191.441391,122.4277 192.614937,122.4277 C193.913733,122.4277 195.171687,122.596517 196.386075,122.972269 C196.889801,123.09752 198.607916,123.767339 198.901983,124.439882 L193.243913,127.582043 C192.824596,128.54593 192.865438,130.054386 192.070368,130.430138 C190.937665,130.933864 188.8438,129.21575 188.046007,130.138794 L186.62196,131.813341 L182.891664,131.813341 C181.9305,131.813341 180.631703,132.023 179.749502,132.401475 L177.740043,133.280953 L173.715682,131.268774 L173.715682,133.572298 C171.787909,131.728932 170.069794,129.55066 167.975928,128.126612 C166.048154,126.868658 163.366155,126.283247 161.397539,125.275795 L159.09129,124.102249 C159.260107,124.355474 159.4262,124.774792 159.469766,124.900042 C160.180428,125.948337 162.443111,126.408498 163.406998,126.868658 C164.580541,127.456793 166.383064,127.832545 167.346951,128.755589 C167.597452,128.965248 166.257813,130.555389 166.257813,131.227931 L166.55188,132.401475 L165.293926,134.745843 L163.534971,134.830251 L162.402268,137.596661 C160.599746,138.350888 158.840789,137.218185 158.799946,136.589209 L158.380628,132.023 L157.667243,131.268774 C158.042996,133.656706 157.667243,136.423115 158.797223,138.435297 C159.845518,140.403913 163.031245,141.073732 164.245634,143.045071 C164.959017,144.134206 164.120383,146.06198 164.580541,147.360776 C164.915451,148.196689 166.592723,148.534322 166.843225,149.370235 C167.2217,150.75344 165.963746,152.806464 166.843225,153.98001 C167.975928,155.488465 170.57352,155.657281 172.291635,156.580323 C173.424338,157.206577 174.554318,158.298438 175.727864,159.177916 C174.848385,159.553669 173.968907,159.932144 173.130271,160.307896 C176.103616,162.989898 179.414592,165.503082 182.055751,168.3539 C183.310982,169.652694 183.983524,172.375538 185.197912,173.257739 C186.330615,174.137218 188.969051,174.638221 190.812414,174.84788 C192.949846,175.101104 195.422189,175.267198 197.518778,175.267198 C198.733167,175.267198 201.33076,176.021426 201.916169,177.238537 C202.923621,179.247996 203.048872,180.045789 203.048872,181.134924 C203.048872,181.63865 203.008029,182.139653 202.713962,183.019132 C202.419895,181.63865 202.000577,180.505949 201.246351,179.585628 C200.870599,179.83613 200.492124,180.380699 200.116371,180.421541 C199.612645,180.465107 198.774009,179.961381 198.398257,180.17104 C197.938096,180.380699 197.978939,181.595085 197.518778,181.889152 C196.889801,182.224062 195.757098,182.474563 195.21253,182.180496 C193.744917,181.428991 192.909004,179.163587 191.482234,178.412083 C190.183437,177.783106 188.340074,178.033607 186.916027,177.864791 C185.491979,177.657855 183.689457,177.069721 182.978795,176.691245 C182.306252,177.154129 182.935229,176.775653 182.26541,177.27938 C183.983524,178.284109 185.029096,178.8314 186.62196,179.291561 C187.920756,179.710879 190.058186,179.876972 190.937665,181.009673 C191.525799,181.804744 191.231732,184.110992 190.646321,184.445902 C190.101752,184.696404 188.8438,183.901333 187.501438,182.853039 C188.258389,184.445902 189.137867,185.744699 189.178708,186.749428 C189.21955,187.922974 189.053457,188.718044 188.590576,189.89159 C188.005164,190.855476 186.831619,191.988179 185.867732,192.573591 C186.496709,190.899042 186.62196,190.310908 186.62196,189.347021 C186.330615,188.007382 186.371458,187.168746 185.532822,185.910792 C185.532822,187.253154 185.448414,188.88686 184.653344,189.681931 C184.484527,189.89159 183.06048,190.144814 182.935229,188.802452 C182.850821,187.462813 182.600319,184.192678 182.600319,181.889152 C182.600319,181.219332 182.137436,179.876972 181.467616,179.291561 C180.797797,178.703427 179.708659,178.703427 178.870023,178.40936 C177.530384,179.081902 176.147182,180.002223 174.848385,180.421541 C173.925341,180.674766 172.751796,180.800017 171.706224,181.009673 C170.489112,181.134924 169.024222,182.014403 167.975928,181.595085 C165.544428,180.6312 163.951567,177.823948 161.648041,176.691245 C160.809405,176.27465 159.344515,177.028878 158.505879,176.691245 C156.787765,175.980583 155.238466,174.387719 153.645603,173.257739 C153.141877,173.508241 152.638151,173.802308 152.17799,174.093652 C151.298514,173.04808 150.459878,171.999785 149.621242,170.951491 C149.201924,171.414374 148.826172,171.874535 148.447696,172.375538 C147.192465,170.910648 145.934511,169.483878 144.7174,168.059833 C144.216397,168.3539 143.756236,168.647965 143.293353,168.942032 C142.999286,167.765766 142.707942,166.635785 142.413874,165.503082 C141.449988,165.086487 140.486101,164.708012 139.565782,164.332259 C139.437808,163.368373 139.356123,162.404486 139.271715,161.440599 C138.307828,161.90076 137.343941,162.404486 136.420897,162.905489 C135.751078,160.601964 134.956007,158.254872 134.411439,155.992191 C133.948555,154.189669 133.403987,152.052236 132.987391,150.252436 C132.608916,148.700416 131.645029,146.941458 131.519779,145.348595 C131.350962,142.835412 131.225712,140.025437 131.519779,137.596661 C131.854688,134.536184 133.823304,131.562839 133.823304,128.420679 L133.823304,120.66602 L131.813846,121.254155 C131.979939,123.181928 132.568073,125.234952 132.399257,126.993909 C132.148756,129.803884 130.471484,132.526726 130.095731,135.290412 C129.676413,138.225638 130.765551,141.743552 129.551163,144.469116 C128.837778,145.977572 126.321872,146.478575 124.647323,146.772642 C121.796506,147.276368 118.695187,147.360776 115.762684,147.360776 C113.165093,147.360776 110.483092,146.606549 108.01075,146.772642 C106.796361,146.85705 105.791632,148.534322 104.574521,148.534322 C102.145746,148.534322 99.7142469,147.486027 97.4107211,147.066709 C93.6368596,146.312482 89.5308134,145.599096 85.928491,144.469116 C84.2947848,143.924548 82.7019212,142.331686 81.3187165,141.326957 C79.306535,139.859344 76.7525097,138.26648 75.0316724,136.423115 C72.8125547,134.035181 70.6751223,130.933864 68.9978506,128.126612 C67.8678704,126.198839 67.2388935,123.89259 66.1061905,121.504656 C65.9809397,122.972269 66.4438231,124.900042 66.7351674,126.073588 C67.4077098,128.921683 69.3327604,131.562839 71.0944403,133.781957 C73.5259398,136.883276 77.1282621,139.774936 79.8946692,142.707439 C80.229579,143.042348 79.4753513,145.138936 79.6006021,145.934006 C78.5523072,145.808755 77.5040146,145.433003 76.4584425,145.348595 C76.9186031,146.018414 77.3787637,146.688234 77.8824898,147.360776 C76.7089442,146.85705 75.578964,146.39689 74.446261,145.934006 C74.9064216,146.772642 75.3665822,147.652121 75.8703083,148.534322 C74.9064216,148.324663 73.9425349,148.112281 73.0222137,147.946188 C73.2727153,149.454643 73.8608496,151.006664 73.8608496,152.555962 C73.8580178,153.770351 73.2727153,155.112713 73.0222137,156.286256 C72.7689892,157.331828 72.5620531,158.883849 71.848668,159.722485 C71.0944403,160.686372 69.5424193,161.271783 68.4124392,161.731944 C67.1136427,162.320078 65.5207791,163.199556 64.0967339,163.452781 C61.9593016,163.787691 59.5713676,164.332259 57.5183434,164.038192 C55.8819142,163.828533 54.1229572,162.529737 52.9494115,161.440599 C51.2721419,159.80417 49.7228438,157.500644 48.6772718,155.404057 C48.045572,154.064418 47.209659,152.261895 47.5010033,150.837848 C48.2143883,147.445185 50.7275731,144.384708 52.1107778,141.326957 C53.0338196,139.189524 54.5422751,136.967684 54.9180275,134.705001 C55.1276865,133.406204 54.0821145,131.728932 54.3734588,130.430138 C54.6266833,129.131342 56.7641156,128.377114 56.9302091,126.993909 C57.0554599,126.030023 55.503439,125.150544 55.5061618,124.102249 C55.5061618,122.258884 56.636142,120.415519 56.9302091,118.656564 C57.2242762,117.0637 57.6844368,115.135927 57.8096876,113.458655 C58.0193466,111.195972 57.978504,108.473128 58.6483235,106.294855 C59.2364578,104.45149 60.9954149,102.733375 62.1281179,101.096946 C63.0484391,99.7164646 64.4316437,98.2488518 65.2702774,96.781239 C66.6534821,94.4777131 67.6582114,91.501647 69.2919177,89.323372 C69.9617373,88.4847361 71.3885074,87.9401674 72.4340794,87.6052576 C73.4823743,87.2295051 75.1160806,87.2703478 76.1643754,86.725779 C78.0077385,85.7618923 79.5597594,83.7497108 81.3187165,82.7014159 C83.2464899,81.6122784 85.7188321,80.942461 87.6466055,79.8124809 C88.2320169,79.4340056 88.4008332,78.0099583 89.0706528,77.8002993 C90.6199487,77.3401387 92.6321303,77.6750485 94.2249939,77.5062322 C96.5720852,77.2557305 99.0444274,75.8725259 101.432361,76.0821849 C103.400975,76.2918438 104.952996,78.7206205 106.88077,79.2243466 C109.644456,79.9377317 112.955434,79.5184137 115.762684,80.1038251 C119.996706,80.942461 124.143597,82.8702322 128.377617,83.8341189 C130.6403,84.337845 133.319578,84.4195304 135.541419,85.0076646 L140.739326,86.4317119 L138.141735,88.4438935 L140.151191,88.4438935 L137.009032,92.1741895 L139.857124,91.3355536 L136.129553,96.4898947 L139.271715,95.9453259 L136.714965,101.685081 L140.989827,99.9669662 L137.847668,104.827242 L142.163373,103.403195 L140.151191,110.316493 L144.172832,106.294855 L144.172832,112.622742 L146.729582,110.61056 L147.60906,115.470837 L151.633423,110.61056 L152.17799,115.470837 L157.667243,108.307035 L156.19963,118.068429 L158.797223,113.458655 L159.929926,120.080609 C161.648041,117.229794 163.741908,114.087632 163.954289,110.861062 L164.539699,102.270492 L162.821586,111.155129 L160.768562,115.176769 L159.889084,111.490039 L159.551451,108.304312 L159.510608,105.205718 L157.288768,105.330968 L153.645603,110.275651 L153.016626,105.622313 L148.616513,111.195972 L149.956152,105.750286 L146.228579,108.012967 L149.327175,102.188807 L144.426056,104.576741 L147.903128,99.9669662 L143.002009,101.391013 L147.317716,97.0753061 L143.293353,98.4993534 C145.850103,96.1114194 148.112786,93.053668 151.045289,91.3355536 C152.763401,90.2872587 155.235744,89.8679408 157.373176,89.8679408 C159.469766,89.8679408 161.607198,91.2919881 163.660222,91.6268979 C164.664949,91.7957142 166.132562,92.3811256 167.096449,91.8801223 C167.722703,91.501647 167.722703,90.0367571 167.387793,89.323372 C166.88679,88.4030508 165.503585,87.6896657 164.539699,87.3111905 C162.780744,86.6822135 160.643311,85.9715513 158.797223,85.8463005 C156.703356,85.6774842 154.231014,85.4269826 152.218833,86.1812103 L154.315422,86.8074644 C151.339356,87.6896657 148.447696,88.8196459 146.47908,90.7474193 L143.083694,94.09924 L139.647467,94.2680563 L143.25251,89.7835326 L141.155921,89.74269 L143.58742,87.5208494 L141.744055,87.145097 C142.204215,86.3908693 143.002009,85.2581662 143.421327,84.7135975 C144.047581,83.7905534 145.011467,82.6605733 145.890946,82.4073488 L148.238037,81.6558439 C149.874466,81.15212 150.753945,80.8172102 152.262398,80.6075512 L150.459878,79.5184137 C152.303241,79.4340056 155.279309,80.6919594 156.953858,80.8580529 C159.134856,81.1112773 161.52279,81.5278703 163.660222,81.6558439 C165.334769,81.7810947 169.149473,83.4992092 170.529955,84.7980056 C171.747066,85.9279858 171.412156,87.98101 171.412156,89.8679408 C171.412156,91.6704634 170.279453,95.7356669 169.065065,96.0705767 C167.431359,96.57158 165.838495,97.4510585 164.161226,98.2080091 C163.660222,98.4585107 162.571085,98.9186713 161.8577,99.9669662 C162.98768,100.217468 164.120383,100.007809 164.539699,99.8417154 C166.592723,99.1283303 168.35168,98.4585107 170.323019,97.7451257 C171.997568,97.1597142 172.836204,94.4368705 173.171113,92.4246911 C173.590431,89.9087834 174.009749,86.935438 172.961454,84.757163 C172.376043,83.4992092 170.154203,81.9907537 169.024222,81.4461849 C167.766269,80.9016184 165.669679,80.2726415 163.995132,79.9377317 C162.067359,79.5592564 162.067359,79.5592564 157.079109,78.973845 C159.09129,76.7520044 163.156496,75.453208 165.378335,73.1905248 C166.55188,71.9325709 167.346951,69.3758206 167.935085,67.785682 C168.185586,67.0314543 168.101178,64.4311385 168.814563,63.7613189 L170.783179,64.8940219 L172.291635,63.4264091 C173.214679,64.5155467 173.759248,64.7660483 174.763977,65.607407 L175.058044,63.9301352 L177.865294,66.9470462 L178.031387,64.6407975 L181.132707,67.9517755 L181.677275,66.7782298 L184.274868,71.3880022 L184.234026,68.4963443 L186.371458,72.9400231 C186.581117,74.1544115 187.670254,76.3326865 187.920756,77.3809814 L187.920756,77.3809814 Z M184.234026,170.238105 C185.323163,169.611851 187.460595,169.737102 188.634141,169.276942 C189.807685,168.814058 190.896822,167.68408 192.11121,167.34917 C193.034255,167.095946 194.333051,166.970695 195.33778,167.180354 C196.470483,167.430856 197.76928,168.313057 198.56435,169.148968 C199.318578,169.946761 199.737896,171.16115 199.947555,172.544354 C199.152484,171.830969 198.22944,170.657423 197.309119,170.406922 C196.76455,170.240828 196.176416,170.910648 195.716256,170.995056 C194.752369,171.245558 193.535258,172.168602 192.530528,172.293853 C191.065638,172.459946 189.557183,172.503512 188.005164,172.503512 C187.376187,172.503512 186.077391,172.754013 185.783324,172.585197 C185.323163,172.334695 184.484527,171.16115 184.234026,170.238105 L184.234026,170.238105 Z M179.079682,179.416812 C179.749502,179.416812 180.713389,179.751722 181.132707,180.29629 C181.636433,180.925265 182.096593,182.139653 181.805249,182.978289 C181.552024,183.688952 180.16882,183.691674 179.539843,184.110992 C179.03884,184.445902 178.074953,185.074879 178.159361,185.66029 C178.409863,187.043495 178.660364,189.012111 178.031387,189.89159 C177.530384,189.681931 177.614792,188.007382 177.320725,187.503656 C177.111066,187.043495 176.482092,186.580612 175.978365,186.580612 C175.267703,186.583226 174.723134,187.378405 173.80009,187.672472 C173.549589,186.790271 173.33993,186.079608 173.424338,185.409789 C173.549589,184.361494 174.303816,183.231514 174.723134,182.264904 C174.930071,181.804744 175.308546,181.050516 175.727864,180.800017 C176.69175,180.211882 177.949702,179.457655 179.079682,179.416812 L179.079682,179.416812 Z M130.515049,145.683505 C129.257095,146.143665 127.370165,147.52687 126.114936,147.652121 C124.228005,147.905345 121.546004,148.155847 119.408572,148.155847 C119.198913,148.155847 118.444685,148.365506 117.690457,148.910074 C117.900116,150.168028 118.697909,151.216323 118.738752,151.551233 C118.779595,152.136644 119.618231,153.560692 120.121957,154.399328 C120.416024,154.943896 120.791776,156.286256 121.420753,156.117442 C122.888366,155.698124 123.348527,153.813916 124.94139,152.850029 C124.312413,154.524578 123.599028,155.322372 122.970051,156.370664 C122.71955,156.871668 121.505161,157.625895 121.042278,157.87912 C119.868732,158.464531 119.367729,158.33928 118.278591,159.049943 C117.734023,159.387575 116.770136,159.80417 116.015908,160.642806 C115.680999,161.062124 114.798799,161.312626 114.798799,163.953784 C114.798799,164.122601 114.591863,166.300876 115.092864,166.886287 C115.806249,165.086487 115.762684,163.953784 116.770136,162.905489 C117.774865,161.857194 119.032819,161.312626 119.533822,161.312626 C120.162799,161.312626 119.702639,163.240399 120.247208,163.368373 C121.001435,163.493624 122.006165,163.324807 122.678707,163.115148 C123.724279,162.780239 124.856982,161.90076 125.777303,161.397034 C126.700347,160.852465 127.664232,159.847736 128.628119,159.512826 C130.011323,159.049943 131.43537,159.80417 132.943826,158.295715 C133.237893,158.004371 133.322301,157.500644 133.322301,157.122169 C133.322301,156.327099 133.19705,155.363214 133.153485,154.818645 C133.112642,153.813916 132.399257,152.51512 132.230441,151.632918 C132.064347,150.628189 131.43537,149.119733 131.184869,148.324663 C130.931644,147.652121 130.97521,146.312482 130.515049,145.683505 L130.515049,145.683505 Z M53.7444819,162.946332 C52.5300957,164.038192 50.5179142,165.965966 49.5567503,167.055103 C48.8433652,167.934582 47.7542277,169.192533 47.3349098,170.366079 C47.0408427,171.120307 47,171.329966 47,172.293853 C47,172.459946 47.5445688,173.674334 47.5445688,173.674334 C47.4601606,174.722629 47.6698196,176.315493 47.8386359,177.069721 C48.0482949,175.93974 48.255231,174.387719 48.9277734,173.843151 C49.6820011,173.173331 50.310978,172.209444 50.8555468,171.370808 C51.2721419,170.785397 52.1107778,169.818788 52.6145017,169.317784 C53.0338196,168.857624 53.7444819,167.724923 54.4578669,167.515264 C54.5831178,167.474421 53.7880474,168.647965 53.7444819,168.688807 C53.1999131,169.527443 52.573659,170.072012 51.985527,170.867082 C51.2312992,171.874535 50.4770715,172.628762 49.8480946,173.802308 C49.597593,174.346877 49.6384356,175.645673 49.6384356,176.399901 C49.6384356,176.775653 50.7275731,176.900904 50.730296,177.27938 C50.7276821,178.997494 51.3565501,179.876972 52.1107778,180.715608 C51.985527,179.416812 52.1543433,178.07445 52.9085688,177.238537 C53.3687294,176.734811 53.7444819,175.770924 54.2073653,175.310763 C54.7927767,174.766195 56.0507306,174.387719 56.4292058,173.674334 C57.0990254,172.544354 57.5183434,170.951491 57.8532531,169.737102 C57.8940958,169.483878 57.978504,168.857624 58.6891662,168.438308 C58.8988252,169.108125 58.1445974,170.322514 58.0193466,170.992333 C57.8532531,171.999785 57.1807107,173.129766 57.1807107,174.137218 C57.1807107,174.932288 57.6435942,176.105834 58.3134137,176.60956 L60.4100035,178.284109 C60.1159363,177.363788 59.5278021,176.440744 59.5713676,175.602108 C59.6122102,174.891446 60.4508461,174.137218 60.9110067,173.633492 C61.3303247,173.173331 62.4194622,172.879264 62.6291211,172.250287 C62.9640309,171.245558 62.5882785,169.903196 62.6699638,168.857624 C62.7135293,168.394742 63.5930078,167.765766 63.5930078,167.305605 L63.5521652,164.207009 C61.9593016,164.667169 59.1084841,164.958514 57.349527,164.667169 C56.0071651,164.45751 54.8771849,163.703283 53.7444819,162.946332 L53.7444819,162.946332 Z" id="path3589" sketch:type="MSShapeGroup"></path>
        </g>
    </g>
</svg>