<?xml version="1.0" encoding="UTF-8" standalone="no"?>
<svg width="512px" height="512px" viewBox="0 0 512 512" version="1.1" xmlns="http://www.w3.org/2000/svg" xmlns:xlink="http://www.w3.org/1999/xlink" xmlns:sketch="http://www.bohemiancoding.com/sketch/ns">
    <!-- Generator: Sketch 3.2.2 (9983) - http://www.bohemiancoding.com/sketch -->
    <title>light-rail</title>
    <desc>Created with Sketch.</desc>
    <defs></defs>
    <g id="us-symbols" stroke="none" stroke-width="1" fill="none" fill-rule="evenodd" sketch:type="MSPage">
        <g id="light-rail" sketch:type="MSArtboardGroup" fill="#000000">
            <path d="M384.953772,279.942122 L384.953772,281.710616 L375.975782,281.710616 L375.90735,280.649251 C375.998593,280.49226 376.084468,280.336612 376.164976,280.172912 C379.4913,280.017263 382.149408,277.293407 382.149408,273.932196 L378.663409,228.076152 C378.663409,224.611622 375.85502,221.803233 372.39049,221.803233 L276.084075,221.796524 L276.084075,216.068376 L276.030403,216.068376 L276.030403,216.061667 L256.331425,216.061667 L277.437952,194.686775 L254.564273,170.444459 L252.032295,172.83689 C252.032295,172.83689 270.522311,192.437917 272.591368,194.633103 C270.889964,196.355975 257.060023,210.368406 251.436535,216.061667 L235.909216,216.061667 L235.909216,221.796524 L139.605484,221.796524 C136.140955,221.796524 133.332565,224.607596 133.332565,228.069443 L129.846567,273.924145 C129.846567,277.390017 132.654956,280.197064 136.119486,280.197064 L136.021534,281.705248 L127.040861,281.705248 L127.040861,279.935413 L120.513,279.935413 L120.513,288.234451 L127.040861,288.234451 L127.040861,286.464616 L157.149531,286.464616 L163.70557,295.042749 L170.998257,295.042749 C170.953978,295.362098 170.900306,295.682788 170.900306,296.016896 C170.900306,299.828953 173.990473,302.91912 177.799846,302.91912 C181.613244,302.91912 184.703411,299.828953 184.703411,296.016896 C184.703411,295.682788 184.649739,295.363439 184.606802,295.042749 L194.842059,295.042749 C194.796437,295.366123 194.742765,295.685472 194.742765,296.01958 C194.742765,299.831636 197.832933,302.924487 201.642305,302.924487 C205.455703,302.924487 208.544529,299.830294 208.544529,296.01958 C208.544529,295.686813 208.492199,295.367465 208.446578,295.042749 L303.552081,295.049458 C303.505118,295.368807 303.454129,295.689497 303.454129,296.023605 C303.454129,299.835662 306.541613,302.932538 310.357695,302.932538 C314.165725,302.932538 317.257235,299.83432 317.257235,296.023605 C317.257235,295.689497 317.202221,295.370148 317.157941,295.049458 L327.393198,295.049458 C327.348919,295.368807 327.29793,295.689497 327.29793,296.023605 C327.29793,299.835662 330.385414,302.925829 334.201496,302.925829 C338.009527,302.925829 341.101036,299.835662 341.101036,296.023605 C341.101036,295.689497 341.046022,295.370148 341.001743,295.049458 L348.297114,295.049458 L354.851811,286.471325 L384.959139,286.471325 L384.959139,288.24116 L391.487,288.24116 L391.487,279.943464 L384.953772,279.943464 L384.953772,279.942122 Z M153.042278,253.063167 C153.042278,253.785056 152.481405,254.370081 151.787694,254.370081 L140.686976,254.370081 C139.994607,254.370081 139.432392,253.785056 139.432392,253.063167 L139.432392,231.2267 C139.432392,230.504811 139.993265,229.919786 140.686976,229.919786 L151.787694,229.919786 C152.480064,229.919786 153.042278,230.504811 153.042278,231.2267 L153.042278,253.063167 L153.042278,253.063167 Z M190.444977,283.351638 L164.112135,283.351638 L164.112135,229.926495 L190.444977,229.926495 L190.444977,283.351638 L190.444977,283.351638 Z M233.801247,252.843112 L201.131079,252.843112 L201.131079,229.926495 L233.801247,229.926495 L233.801247,252.843112 L233.801247,252.843112 Z M275.122004,252.859214 L239.679676,252.85653 L239.679676,229.943938 L275.122004,229.943938 L275.122004,252.859214 L275.122004,252.859214 Z M313.643765,252.849821 L280.972256,252.849821 L280.972256,229.93052 L313.643765,229.93052 L313.643765,252.849821 L313.643765,252.849821 Z M350.660025,283.358347 L324.327183,283.358347 L324.327183,229.93052 L350.660025,229.93052 L350.660025,283.358347 L350.660025,283.358347 Z M375.338427,253.067193 C375.338427,253.789082 374.777554,254.374107 374.085185,254.374107 L362.984466,254.374107 C362.292097,254.374107 361.731224,253.789082 361.731224,253.067193 L361.731224,231.230726 C361.731224,230.508837 362.292097,229.923811 362.984466,229.923811 L374.085185,229.923811 C374.777554,229.923811 375.338427,230.508837 375.338427,231.230726 L375.338427,253.067193 L375.338427,253.067193 Z" id="path28" sketch:type="MSShapeGroup"></path>
        </g>
    </g>
</svg>