<?xml version="1.0" encoding="UTF-8" standalone="no"?>
<svg width="512px" height="512px" viewBox="0 0 512 512" version="1.1" xmlns="http://www.w3.org/2000/svg" xmlns:xlink="http://www.w3.org/1999/xlink" xmlns:sketch="http://www.bohemiancoding.com/sketch/ns">
    <!-- Generator: Sketch 3.2.2 (9983) - http://www.bohemiancoding.com/sketch -->
    <title>lightground-railroad-crossing</title>
    <desc>Created with Sketch.</desc>
    <defs></defs>
    <g id="us-symbols" stroke="none" stroke-width="1" fill="none" fill-rule="evenodd" sketch:type="MSPage">
        <g id="lightground-railroad-crossing" sketch:type="MSArtboardGroup" fill="#000000">
            <path d="M234.404834,172.578441 L255.643879,191.618423 L251.123303,191.618423 L278.634954,214.509072 L264.991498,194.938322 L272.07118,195.463886 L234.404834,172.578441 L234.404834,172.578441 Z M290.13816,229.35495 L311.377205,248.394933 L306.851521,248.394933 L334.373401,271.280381 L320.724837,251.714831 L327.809627,252.245599 L290.13816,229.35495 L290.13816,229.35495 Z M241.428327,228.803368 L241.024796,231.337523 L235.395785,231.337523 L233.883818,236.254927 L240.263704,236.254927 L239.865281,238.789082 L233.122727,238.789082 L231.207228,244.934537 L238.884546,244.934537 L238.348206,248.072309 L230.226493,248.072309 L228.019839,255.29491 L237.193799,255.29491 L236.672784,258.593994 L226.9727,258.593994 L224.301218,267.294422 L235.227221,267.294422 L234.588721,271.488526 L222.968032,271.488526 L220.071798,280.891436 L233.020567,280.891436 L232.141992,286.448883 L218.33508,286.448883 L214.733943,298.089343 L230.226493,298.089343 L228.826902,306.85221 L212.006269,306.85221 L206.83187,323.519349 L226.104341,323.519349 L223.560559,339.421559 L234.997361,339.421559 L236.790267,323.519349 L290.776659,323.519349 L293.100797,339.421559 L304.537599,339.421559 L301.58007,323.519349 L321.649384,323.519349 L315.907997,306.85221 L298.438653,306.85221 L296.809202,298.089343 L312.950468,298.089343 L309.001987,286.448883 L294.607656,286.448883 L293.555409,280.891436 L307.086489,280.891436 L303.939964,271.488526 L291.823798,271.488526 L291.001411,267.294422 L302.494401,267.294422 L299.54198,258.593994 L289.382177,258.593994 L288.733461,255.29491 L298.438653,255.29491 L295.997031,248.072309 L287.41049,248.072309 L286.833287,244.934537 L294.893704,244.934537 L292.804534,238.789082 L285.658448,238.789082 L285.203836,236.254927 L291.987254,236.254927 L290.306724,231.337523 L284.274181,231.337523 L283.804246,228.803368 L395.076819,248.597873 L395.076819,242.868706 L374.358789,239.033651 L373.837774,238.908765 L373.38827,238.763064 L372.984534,238.586141 L372.810862,238.492477 L372.65231,238.383201 L372.504383,238.268722 L372.371575,238.154242 L372.244079,238.024152 L372.131703,237.909673 L371.932696,237.639086 L371.779456,237.363295 L371.66708,237.071893 L371.58004,236.76488 L371.518744,236.442257 L371.494225,236.135245 L371.47788,235.817825 L371.47788,235.495201 L371.514657,234.896787 L371.713665,234.527331 L371.800705,234.329594 L371.857097,234.12145 L372.204441,233.876881 L372.546473,233.632312 L372.858265,233.372131 L373.170057,233.106748 L373.471633,232.82055 L373.75768,232.529148 L374.033512,232.216932 L374.309344,231.904715 L374.569647,231.582092 L374.809927,231.254265 L375.034679,230.910827 L375.259431,230.551779 L375.469063,230.182323 L375.673383,229.812867 L375.867487,229.427801 L376.036255,229.042734 L376.337422,228.923051 L376.62347,228.808572 L376.883774,228.720111 L377.021485,228.693884 L377.144077,228.678482 L391.71208,228.678482 L390.613861,221.877373 L376.510686,221.346606 L376.377878,220.888689 L376.22995,220.451586 L376.061591,220.004076 L375.872391,219.572177 L375.673383,219.150685 L375.448631,218.744804 L375.223879,218.338923 L374.96848,217.964264 L374.708176,217.579197 L374.427441,217.209741 L374.146297,216.855896 L373.829601,216.517662 L373.512905,216.184632 L373.191306,215.867212 L372.843962,215.565403 L372.486403,215.279205 L372.134155,215.003414 L371.756163,214.748437 L371.35774,214.509072 L370.964628,214.274909 L370.560893,214.071969 L370.147145,213.869028 L369.723181,213.676495 L369.289002,213.520387 L368.865038,213.37989 L368.405318,213.244596 L367.950707,213.145728 L367.490987,213.052063 L367.02616,212.98962 L366.561332,212.942787 L366.076073,212.90657 L365.595921,212.901158 L365.141309,212.90657 L364.691806,212.93238 L364.252518,212.974009 L363.808123,213.026045 L363.373943,213.109302 L362.944871,213.218578 L362.520908,213.312243 L362.10716,213.45274 L361.703833,213.58283 L361.300097,213.744142 L360.906985,213.905454 L360.52409,214.092783 L360.151002,214.306131 L359.783226,214.509072 L359.420354,214.732827 L359.073011,214.977396 L358.725667,215.221965 L358.398755,215.492553 L358.077156,215.768343 L357.76046,216.059745 L357.464196,216.356351 L357.173245,216.67377 L356.912942,216.996394 L356.631798,217.334628 L356.386614,217.678066 L356.146742,218.021503 L355.911774,218.390959 L355.697239,218.760415 L355.497823,219.140278 L355.308622,219.530548 L355.134951,219.926022 L354.976398,220.34231 L303.835148,218.21924 L327.045879,202.660468 L321.197224,198.70573 L333.967213,175.705806 L309.464159,199.892152 L312.54428,203.794854 L297.787281,218.026707 L258.440404,216.439608 L258.072628,216.418794 L257.704853,216.361554 L257.352401,216.304315 L257.005057,216.236668 L256.662822,216.132596 L256.325694,216.02332 L255.988566,215.872416 L255.666763,215.726715 L255.350067,215.544589 L255.048695,215.362462 L254.752431,215.159522 L254.471492,214.935767 L254.190552,214.691198 L253.935152,214.446628 L253.695076,214.165634 L253.455001,213.895046 L238.927861,195.505514 L238.789945,195.338999 L238.62649,195.177687 L238.468142,195.016376 L238.29447,194.881082 L238.120798,194.750992 L237.952234,194.636513 L237.584459,194.423165 L237.191143,194.261853 L236.792719,194.12656 L236.378972,194.038098 L235.9499,193.960044 L235.51572,193.918416 L235.076433,193.882199 L234.632037,193.877203 L234.182534,193.882199 L233.29885,193.923827 L232.440707,193.975863 L213.689256,194.803236 L211.421302,200.589642 L224.084027,201.895747 L224.462018,201.926968 L224.855334,201.984208 L225.218002,202.077873 L225.560237,202.176741 L225.897365,202.312035 L226.219169,202.452532 L226.515432,202.619048 L226.796372,202.811581 L227.05688,203.014521 L227.276524,203.233073 L227.49106,203.462031 L227.659623,203.701397 L227.807755,203.956373 L227.915023,204.232164 L227.981427,204.507955 L228.022291,204.78895 L208.637444,204.78895 L208.346288,204.778543 L208.039809,204.762724 L207.728221,204.721095 L207.431957,204.669059 L207.120369,204.596208 L206.834322,204.507747 L206.543166,204.393268 L206.282658,204.273585 L206.037474,204.112273 L205.807615,203.935351 L205.608403,203.742818 L205.424515,203.513859 L205.286599,203.26929 L205.189547,202.993499 L205.118035,202.696893 L205.102916,202.535582 L205.0927,202.37427 L204.99054,183.146958 L204.985636,182.767095 L204.959892,182.434064 L204.908812,182.090627 L204.847516,181.794021 L204.78622,181.507823 L204.704492,181.237236 L204.587008,181.008277 L204.489956,180.774115 L204.357148,180.571175 L204.229448,180.383845 L204.081316,180.222533 L203.917861,180.061222 L203.749297,179.936335 L203.585841,179.811449 L203.412169,179.691766 L203.212957,179.613712 L203.029069,179.52525 L202.819642,179.447196 L202.41611,179.363939 L201.997254,179.285885 L201.557967,179.244256 L201.128895,179.23926 L200.699823,179.244256 L199.882544,179.311903 L191.107008,179.311903 L190.887364,179.32231 L190.657504,179.353532 L190.422537,179.39516 L190.192677,179.462807 L189.962817,179.556472 L189.722741,179.665748 L189.487773,179.775023 L189.247698,179.931131 L189.007622,180.092443 L188.75733,180.264162 L188.507038,180.482713 L188.261854,180.696061 L187.756163,181.190403 L187.250471,181.752392 L186.729456,182.392436 L186.213548,183.105329 L185.677209,183.875462 L185.156193,184.718446 L184.614746,185.629076 L184.078406,186.607354 L183.536959,187.658482 L182.985295,188.772053 L182.602195,189.557797 L182.188448,190.286301 L181.764484,190.967973 L181.325197,191.602812 L180.865477,192.19082 L180.415973,192.726791 L179.951146,193.215929 L179.486318,193.653032 L179.041923,194.043302 L178.592419,194.381536 L178.132699,194.667734 L177.703628,194.912304 L177.279664,195.099633 L176.891457,195.245334 L176.493033,195.338999 L176.135473,195.385832 L165.163499,195.385832 L164.923423,195.401234 L164.683347,195.422049 L164.44838,195.463677 L164.223628,195.505306 L164.0142,195.58336 L163.804772,195.671822 L163.610668,195.765486 L163.416564,195.874762 L163.242893,195.994445 L163.064113,196.129739 L162.895549,196.280643 L162.737201,196.436751 L162.589069,196.587656 L162.446045,196.764578 L162.190646,197.139238 L161.955678,197.539915 L161.766682,197.971814 L161.587902,198.408917 L161.455094,198.856426 L161.352934,199.324751 L161.271206,199.793075 L161.230342,200.245788 L161.214814,200.708909 L161.214814,220.18079 L161.153518,220.222419 L161.128183,220.279659 L161.102438,220.342102 L161.08691,220.409749 L161.08691,220.534635 L161.102438,220.664725 L161.128183,220.794816 L161.128183,220.930109 L161.071995,221.049792 L161.031131,221.112235 L160.969835,221.174679 L160.632707,221.559745 L160.310903,221.91359 L160.035071,222.257028 L159.794996,222.574448 L159.595784,222.865849 L159.447652,223.136437 L159.345492,223.381006 L159.294412,223.594354 L159.27398,223.786887 L159.27398,223.97942 L159.299316,224.16675 L159.334867,224.369691 L159.411487,224.588242 L159.498323,224.80159 L159.610699,225.014937 L159.743507,225.223081 L159.891639,225.462447 L160.080635,225.686202 L160.290063,225.915161 L160.504598,226.154526 L160.739566,226.399096 L161.01029,226.643665 L161.311662,226.888234 L161.618141,227.138007 L164.356027,229.505646 L164.519483,229.994785 L164.728911,230.473517 L164.968986,230.973062 L165.244818,231.44659 L165.561514,231.914915 L165.888426,232.378035 L166.251093,232.820341 L166.623977,233.23663 L166.996861,233.652918 L167.395284,234.032781 L167.7886,234.376219 L168.187024,234.709249 L168.575231,234.995447 L168.948115,235.260831 L169.295459,235.474179 L169.637694,235.656305 L116.979369,244.996772 L116.923181,248.597665 L241.430575,228.80316 L241.428327,228.803368 Z M182.870263,233.309688 L183.294227,232.742496 L183.697758,232.211728 L184.034886,231.686164 L184.341366,231.197026 L184.61209,230.71309 L184.836841,230.239563 L185.041161,229.771238 L185.199509,229.313321 L185.347641,228.844997 L185.454909,228.381876 L185.546853,227.903145 L185.613257,227.41921 L185.654121,226.904053 L185.694985,226.388897 L185.715417,225.832111 L185.715417,225.264918 L213.227084,219.769914 L213.727668,221.013575 L214.197603,222.080314 L214.412139,222.543434 L214.641999,222.996148 L214.902507,223.412436 L215.163015,223.80791 L215.438846,224.192976 L215.740218,224.572839 L216.087562,224.937091 L216.465553,225.306547 L216.899733,225.696817 L217.374777,226.07668 L217.911116,226.498172 L218.508752,226.924868 L182.870263,233.309688 L182.870263,233.309688 Z M240.263704,209.799811 L250.699339,223.381214 L250.775959,223.516508 L250.816823,223.651802 L250.816823,223.787095 L250.775959,223.896371 L250.714663,224.005647 L250.607395,224.120126 L250.489911,224.224198 L250.336671,224.312659 L250.163,224.395917 L249.98422,224.468767 L249.785008,224.526007 L249.580688,224.572839 L249.1414,224.650893 L248.921757,224.671708 L248.702113,224.682115 L235.431541,224.682115 L230.175413,225.592745 L230.563621,225.061978 L230.931397,224.557228 L231.263416,224.062886 L231.549464,223.558137 L231.820188,223.068998 L232.060264,222.605877 L232.274799,222.14796 L232.458687,221.690043 L232.622143,221.258144 L232.754951,220.821042 L232.872435,220.39955 L232.959271,219.978058 L233.035891,219.566973 L233.081863,219.166296 L233.117414,218.776026 L233.12763,218.396163 L233.137846,218.021503 L233.117414,217.657251 L233.086766,217.298203 L233.051215,216.93395 L232.928623,216.257482 L232.770275,215.591421 L232.581279,214.956581 L232.371851,214.342556 L232.157316,213.744142 L231.922348,213.176949 L240.263704,209.799811 L240.263704,209.799811 Z M361.164837,234.641811 L360.659145,234.163079 L360.178994,233.653126 L359.714166,233.106748 L359.295311,232.539555 L358.896887,231.930734 L358.539327,231.316708 L358.207512,230.687072 L357.911248,230.021011 L357.72736,230.021011 L329.117478,230.021011 L328.887822,230.047237 L328.688815,230.099273 L328.504927,230.177328 L328.372119,230.291807 L328.254431,230.421897 L328.188231,230.567598 L328.137151,230.713299 L328.116719,230.890221 L328.137151,231.051533 L328.188231,231.218048 L328.254431,231.37936 L328.372119,231.525061 L328.504927,231.660354 L328.688815,231.76963 L328.887822,231.868498 L329.117478,231.925738 L358.08492,237.160562 L358.539532,237.233413 L358.937955,237.259223 L359.300827,237.254227 L359.632643,237.202191 L359.939122,237.129341 L360.199426,237.014862 L360.424178,236.874364 L360.623185,236.702645 L360.786641,236.510112 L360.924761,236.296764 L361.037137,236.062602 L361.118865,235.797218 L361.164633,235.526631 L361.185065,235.240433 L361.185065,234.938624 L361.164633,234.642019 L361.164837,234.641811 Z M247.33317,228.818979 L276.995288,228.818979 L277.337319,231.358337 L247.046918,231.358337 L247.332966,228.818979 L247.33317,228.818979 Z M278.445958,238.804693 L246.234951,238.804693 L246.520999,236.265335 L278.098615,236.265335 L278.445958,238.804693 L278.445958,238.804693 Z M245.530048,244.93974 L279.370505,244.93974 L279.845549,248.08792 L245.182704,248.08792 L245.530048,244.93974 L245.530048,244.93974 Z M244.370533,255.284503 L280.88758,255.284503 L281.352408,258.593994 L244.033405,258.593994 L244.370533,255.284503 L244.370533,255.284503 Z M243.037346,267.284015 L282.624299,267.284015 L283.201502,271.483322 L242.577626,271.483322 L243.037346,267.284015 L243.037346,267.284015 Z M241.525379,280.881029 L284.595985,280.881029 L285.418372,286.44368 L240.897096,286.44368 L241.525379,280.881029 L241.525379,280.881029 Z M239.609881,298.089343 L287.098903,298.089343 L288.375901,306.831395 L238.624038,306.831395 L239.609881,298.089343 L239.609881,298.089343 Z" id="path3747" sketch:type="MSShapeGroup"></path>
        </g>
    </g>
</svg>