<?xml version="1.0" encoding="UTF-8" standalone="no"?>
<svg width="512px" height="512px" viewBox="0 0 512 512" version="1.1" xmlns="http://www.w3.org/2000/svg" xmlns:xlink="http://www.w3.org/1999/xlink" xmlns:sketch="http://www.bohemiancoding.com/sketch/ns">
    <!-- Generator: Sketch 3.2.2 (9983) - http://www.bohemiancoding.com/sketch -->
    <title>loop-270</title>
    <desc>Created with Sketch.</desc>
    <defs></defs>
    <g id="us-symbols" stroke="none" stroke-width="1" fill="none" fill-rule="evenodd" sketch:type="MSPage">
        <g id="loop-270" sketch:type="MSArtboardGroup" fill="#000000">
            <path d="M184.338297,240.860578 C184.299277,272.923773 184.253814,304.967495 184.22142,337.017695 L147.561067,337.017695 C147.553704,304.92853 147.548183,272.832885 147.535114,240.750198 C147.535114,187.623219 196.422065,144.528147 256.107142,144.528147 C315.792216,144.528147 364.464885,187.86347 364.464885,240.990449 C364.464885,290.79294 321.681497,331.991995 267.158492,336.952778 L272.937394,357.750343 C273.580216,360.302158 273.833443,362.43191 272.430922,364.496727 C270.327141,367.593961 266.093607,368.405601 262.996373,366.301819 L192.798885,318.739478 L262.996373,271.261528 C266.093607,269.157746 270.327141,269.95641 272.430922,273.047147 C273.898379,275.215864 273.573719,277.287178 272.78805,280.085723 L266.989656,300.058671 C301.331948,295.662799 327.765585,270.819992 327.765585,240.990449 C327.765585,208.076649 295.579016,181.233945 256.107142,181.233945 C216.635249,181.233945 184.442198,208.076649 184.338315,240.860578" id="path3359" sketch:type="MSShapeGroup"></path>
        </g>
    </g>
</svg>