<?xml version="1.0" encoding="UTF-8" standalone="no"?>
<svg width="256px" height="256px" viewBox="0 0 256 256" version="1.1" xmlns="http://www.w3.org/2000/svg" xmlns:xlink="http://www.w3.org/1999/xlink" xmlns:sketch="http://www.bohemiancoding.com/sketch/ns">
    <!-- Generator: Sketch 3.3.2 (12043) - http://www.bohemiancoding.com/sketch -->
    <title>loose_road_surface_bra</title>
    <desc>Created with Sketch.</desc>
    <defs></defs>
    <g id="Page-1" stroke="none" stroke-width="1" fill="none" fill-rule="evenodd" sketch:type="MSPage">
        <g id="loose_road_surface_bra" sketch:type="MSArtboardGroup">
            <path d="M58.2768001,104.133869 C60.6544472,97.9772807 63.0219766,91.8156336 65.3996236,85.6539866 C66.4822119,83.9238689 67.3068001,83.0082219 70.0385648,82.9070454 C85.7158589,82.8513984 102.4808,82.8008101 118.163153,82.7502219 C120.07033,82.8513984 121.562682,83.7721042 122.65033,85.5022219 C125.280918,91.8662219 127.911506,98.2302219 130.537035,104.594222 C131.305977,105.863987 130.638212,106.526692 128.533741,106.58234 C105.627388,106.531751 82.7260942,106.481163 59.8248001,106.430575 C57.3257413,105.985398 58.1351531,105.009045 58.2768001,104.133869 L58.2768001,104.133869 L58.2768001,104.133869 Z" id="path9" fill="#000000" sketch:type="MSShapeGroup"></path>
            <path d="M50.6986825,134.537398 L135.024212,134.537398 C136.132094,134.537398 137.037624,135.205163 137.037624,136.024692 L137.037624,137.178104 C137.037624,137.997634 136.127035,138.66034 135.024212,138.66034 L50.6986825,138.66034 C49.5908001,138.66034 48.6852712,137.997634 48.6852712,137.178104 L48.6852712,136.024692 C48.6852712,135.205163 49.5908001,134.537398 50.6986825,134.537398" id="path13" fill="#000000" sketch:type="MSShapeGroup"></path>
            <path d="M50.6986825,134.537398 L135.024212,134.537398 C136.142212,134.537398 137.037624,135.205163 137.037624,136.024692 L137.037624,137.178104 C137.037624,137.997634 136.137153,138.66034 135.024212,138.66034 L50.6986825,138.66034 C49.5958589,138.66034 48.6953889,137.997634 48.6953889,137.178104 L48.6953889,136.024692 C48.69033,135.205163 49.5908001,134.537398 50.6986825,134.537398 L50.6986825,134.537398 Z" id="path15" stroke="#000000" stroke-width="0.156" sketch:type="MSShapeGroup"></path>
            <path d="M56.1369178,141.559045 L63.9831531,141.559045 C64.8431531,141.559045 65.5513884,142.338104 65.5513884,143.309398 L65.5513884,151.423751 C65.5513884,152.379869 64.8431531,153.174104 63.9831531,153.174104 L56.1369178,153.174104 C55.2668001,153.174104 54.5636236,152.384928 54.5636236,151.423751 L54.5636236,143.309398 C54.5636236,142.343163 55.2668001,141.559045 56.1369178,141.559045" id="path17" fill="#000000" sketch:type="MSShapeGroup"></path>
            <path d="M56.1369178,141.559045 L63.9831531,141.559045 C64.8431531,141.559045 65.5564472,142.338104 65.5564472,143.309398 L65.5564472,151.423751 C65.5564472,152.379869 64.8482119,153.174104 63.9831531,153.174104 L56.1369178,153.174104 C55.2718589,153.174104 54.5636236,152.384928 54.5636236,151.423751 L54.5636236,143.309398 C54.5636236,142.343163 55.2718589,141.559045 56.1369178,141.559045 L56.1369178,141.559045 Z" id="path19" stroke="#000000" stroke-width="0.156" sketch:type="MSShapeGroup"></path>
            <path d="M122.124212,141.559045 L129.970447,141.559045 C130.845624,141.559045 131.5488,142.338104 131.5488,143.309398 L131.5488,151.423751 C131.5488,152.379869 130.845624,153.174104 129.970447,153.174104 L122.124212,153.174104 C121.264212,153.174104 120.561035,152.384928 120.561035,151.423751 L120.561035,143.309398 C120.561035,142.343163 121.264212,141.559045 122.124212,141.559045" id="path21" fill="#000000" sketch:type="MSShapeGroup"></path>
            <path d="M122.129271,141.559045 L129.975506,141.559045 C130.840565,141.559045 131.543741,142.338104 131.543741,143.309398 L131.543741,151.423751 C131.543741,152.379869 130.840565,153.174104 129.975506,153.174104 L122.129271,153.174104 C121.269271,153.174104 120.555977,152.384928 120.555977,151.423751 L120.555977,143.309398 C120.555977,142.343163 121.264212,141.559045 122.129271,141.559045 L122.129271,141.559045 Z" id="path23" stroke="#000000" stroke-width="0.156" sketch:type="MSShapeGroup"></path>
            <path d="M60.9883295,116.052457 C64.2765648,116.052457 66.9425648,118.683045 66.9425648,121.925751 C66.9425648,125.168457 64.2765648,127.799045 60.9883295,127.799045 C57.7000942,127.799045 55.0290354,125.168457 55.0290354,121.925751 C55.0290354,118.683045 57.7000942,116.052457 60.9883295,116.052457 L60.9883295,116.052457 L60.9883295,116.052457 Z M126.833977,116.052457 C130.112094,116.052457 132.783153,118.683045 132.783153,121.925751 C132.783153,125.168457 130.117153,127.799045 126.833977,127.799045 C123.535624,127.799045 120.869624,125.168457 120.869624,121.925751 C120.869624,118.683045 123.535624,116.052457 126.833977,116.052457 L126.833977,116.052457 L126.833977,116.052457 Z M56.5770354,110.401751 L132.085035,110.401751 C134.149035,110.502928 135.383388,111.625987 135.798212,113.76081 L135.798212,131.633634 L52.2466825,131.633634 L52.2466825,113.614104 C52.7829178,111.615869 53.9666825,110.351163 56.5770354,110.401751 L56.5770354,110.401751 L56.5770354,110.401751 Z" id="path25" fill="#000000" sketch:type="MSShapeGroup"></path>
            <path d="M60.9883295,116.057516 C64.2765648,116.057516 66.9425648,118.688104 66.9425648,121.93081 C66.9425648,125.168457 64.2765648,127.804104 60.9883295,127.804104 C57.6950354,127.804104 55.0239766,125.168457 55.0239766,121.93081 C55.0290354,118.688104 57.6950354,116.057516 60.9883295,116.057516 L60.9883295,116.057516 L60.9883295,116.057516 Z M126.828918,116.057516 C130.112094,116.057516 132.788212,118.688104 132.788212,121.93081 C132.788212,125.168457 130.117153,127.804104 126.828918,127.804104 C123.535624,127.804104 120.869624,125.168457 120.869624,121.93081 C120.869624,118.688104 123.535624,116.057516 126.828918,116.057516 L126.828918,116.057516 L126.828918,116.057516 Z M56.5770354,110.401751 L132.090094,110.401751 C134.143977,110.507987 135.37833,111.625987 135.803271,113.76081 L135.803271,131.633634 L52.2466825,131.633634 L52.2466825,113.609045 C52.7879766,111.620928 53.9666825,110.351163 56.5770354,110.401751 L56.5770354,110.401751 L56.5770354,110.401751 Z" id="path27" stroke="#000000" stroke-width="0.156" sketch:type="MSShapeGroup"></path>
            <path d="M138.590682,144.477987 C153.423153,132.225516 168.250565,119.973045 183.083035,107.715516 C184.7828,106.076457 186.7608,107.017398 184.388212,109.830104 C169.3028,121.748692 154.222447,133.667281 139.137035,145.595987 C138.125271,146.137281 137.811624,145.079987 138.590682,144.477987" id="path29" fill="#000000" sketch:type="MSShapeGroup"></path>
            <path d="M138.423741,148.170928 C153.888565,140.021163 169.677153,132.16481 185.455624,124.950928 C186.927741,123.898692 187.954682,125.385987 186.057624,126.944104 C171.235271,133.530692 156.438212,140.648457 141.636094,148.170928 C160.596565,141.71081 179.557035,135.599751 198.527624,129.751751 C200.030094,129.443163 200.581506,131.00634 198.765388,131.633634 C179.081506,137.587869 159.4128,143.623045 139.728918,150.508104 C138.266918,150.669987 137.675035,149.061281 138.423741,148.170928" id="path33" fill="#000000" sketch:type="MSShapeGroup"></path>
            <path d="M138.661506,152.273634 C157.323506,148.489634 176.0968,145.191281 195.077506,142.661869 C196.241035,142.393751 196.944212,143.855751 194.961153,144.300928 C176.31433,146.936575 157.186918,149.941516 138.545153,153.214575 C137.720565,153.052692 138.175859,152.293869 138.661506,152.273634" id="path37" fill="#000000" sketch:type="MSShapeGroup"></path>
            <path d="M197.106094,97.9823395 L196.620447,97.8710454 L196.3928,97.8710454 L195.907153,97.8710454 L194.601977,97.8710454 L194.126447,97.8710454 C194.126447,97.9823395 193.888682,98.0986925 193.77233,98.0986925 L193.655977,98.2201042 C193.655977,98.3364572 193.539624,98.4528101 193.408094,98.5691631 L193.408094,98.8069278 C193.301859,98.8069278 193.301859,98.9232807 193.301859,99.0396336 L193.301859,99.8591631 L193.301859,100.329634 C193.185506,100.329634 193.064094,100.567398 193.064094,100.683751 L192.947741,100.800104 L192.831388,100.916457 L192.583506,100.916457 L192.583506,101.386928 L192.477271,101.386928 L192.477271,102.560575 L192.477271,103.025987 L192.477271,104.315987 L192.477271,104.786457 C192.583506,104.786457 192.583506,105.019163 192.583506,105.140575 L192.709977,105.256928 L192.82633,105.373281 L193.064094,105.373281 C193.064094,105.605987 193.180447,105.373281 193.180447,105.605987 L193.534565,105.605987 L194.010094,105.605987 C194.010094,105.72234 194.126447,105.72234 194.247859,105.72234 L194.364212,105.838692 L195.907153,105.838692 C196.913859,105.777987 196.433271,105.98034 197.101035,105.955045 L197.576565,105.955045 L198.881741,105.955045 L199.357271,105.955045 L199.357271,105.838692 L199.949153,105.838692 L200.065506,105.72234 L200.181859,105.605987 L200.298212,105.489634 L200.414565,105.373281 L200.414565,105.140575 C200.530918,105.140575 200.530918,104.90281 200.530918,104.786457 L200.530918,103.61281 L200.530918,103.14234 L200.647271,103.025987 L200.763624,102.909634 C201.001388,102.909634 200.763624,102.793281 201.001388,102.793281 C201.001388,102.676928 201.117741,102.444222 201.239153,102.444222 L201.239153,101.149163 L201.239153,100.683751 C201.1228,100.683751 201.1228,100.567398 201.1228,100.451045 C201.006447,100.451045 201.006447,100.329634 201.006447,100.213281 C200.890094,100.213281 200.890094,100.096928 200.890094,99.975516 C200.773741,99.975516 200.773741,99.8591631 200.773741,99.7428101 L200.657388,99.6264572 L200.541035,99.5101042 L200.424682,99.3886925 L200.30833,99.2723395 L200.191977,99.1559866 L199.954212,99.1559866 L199.837859,99.0345748 C199.837859,98.8018689 199.721506,99.0345748 199.721506,98.8018689 L199.483741,98.8018689 C199.483741,98.6804572 199.245977,98.6804572 199.119506,98.6804572 C199.119506,98.5641042 198.891859,98.5641042 198.775506,98.5641042 L197.819388,98.5641042 L197.343859,98.5641042 L197.106094,97.9823395" id="path41" fill="#000000" sketch:type="MSShapeGroup"></path>
            <path d="M200.424682,114.519634 C200.424682,114.519634 199.8328,113.927751 199.711388,113.927751 C199.711388,113.695045 199.595035,113.927751 199.595035,113.695045 L199.357271,113.695045 C199.357271,113.578692 199.240918,113.578692 199.109388,113.578692 C199.109388,113.345987 199.003153,113.578692 199.003153,113.345987 L198.765388,113.345987 L198.649035,113.229634 L198.294918,113.229634 L198.178565,113.113281 L197.81433,113.113281 L196.863271,113.113281 L195.795859,113.113281 L195.082565,113.113281 L194.607035,113.113281 L194.369271,113.229634 L194.015153,113.229634 C193.8988,113.229634 193.777388,113.345987 193.539624,113.345987 L193.413153,113.46234 L193.306918,113.578692 L193.306918,113.927751 L193.190565,114.044104 L193.190565,114.281869 C193.074212,114.281869 193.074212,114.398222 193.074212,114.519634 L192.957859,114.635987 L192.957859,115.925987 L192.957859,116.978222 L192.957859,117.448692 L192.957859,118.738692 L192.957859,119.209163 C193.074212,119.209163 193.074212,119.325516 193.074212,119.441869 L193.190565,119.558222 L193.306918,119.679634 L193.413153,119.795987 L193.539624,119.91234 L193.777388,119.91234 L193.893741,120.028692 C194.495741,119.993281 193.792565,120.200692 194.8448,120.145045 L195.32033,120.145045 L196.625506,120.145045 L197.111153,120.145045 C197.111153,120.261398 197.217388,120.261398 197.3388,120.261398 C197.3388,120.499163 197.455153,120.261398 197.455153,120.499163 L197.703035,120.499163 L197.809271,120.615516 L198.8868,120.615516 L199.36233,120.615516 L199.478682,120.499163 L199.478682,120.261398 L199.595035,120.145045 L199.595035,119.91234 L199.711388,119.795987 L200.065506,119.795987 L200.541035,119.795987 L200.657388,119.679634 L201.132918,119.679634 L201.132918,119.441869 L201.249271,119.325516 L201.249271,118.505987 L201.249271,118.035516 L201.365624,117.919163 C201.603388,117.919163 201.365624,117.80281 201.603388,117.80281 L201.603388,117.565045 C201.841153,117.565045 201.603388,117.448692 201.841153,117.448692 L201.841153,116.396457 L201.841153,115.925987 C201.7248,115.925987 201.7248,115.809634 201.7248,115.688222 L201.608447,115.571869 L201.492094,115.455516 L201.25433,115.455516 L201.137977,115.339163 L201.021624,115.22281 L200.905271,115.106457 C200.905271,114.990104 200.788918,114.75234 200.667506,114.75234 L200.667506,114.519634 L200.551153,114.398222 L200.4348,114.281869 L200.4348,114.519634" id="path45" fill="#000000" sketch:type="MSShapeGroup"></path>
            <path d="M218.474565,118.505987 C218.358212,118.505987 217.882682,118.389634 217.882682,118.273281 L217.528565,118.273281 L217.528565,118.151869 L216.223388,118.151869 L215.747859,118.151869 L214.442682,118.151869 L213.967153,118.151869 L213.967153,118.389634 L213.602918,118.389634 C213.602918,118.505987 213.496682,118.505987 213.365153,118.505987 C212.171271,119.583516 213.375271,118.829751 212.181388,119.91234 C212.065035,119.91234 211.943624,120.028692 211.827271,120.028692 L211.710918,120.145045 L211.594565,120.261398 L211.594565,121.20234 L211.594565,121.667751 C211.478212,121.667751 211.478212,121.789163 211.478212,121.905516 C211.240447,121.905516 211.478212,122.021869 211.240447,122.021869 L211.240447,122.254575 C211.124094,122.254575 211.124094,122.375987 211.124094,122.49234 L211.007741,122.608692 L211.007741,123.544575 L211.007741,124.369163 L211.007741,124.834575 L211.007741,126.129634 L211.007741,126.595045 L211.124094,126.595045 L211.124094,126.827751 L211.124094,127.298222 L211.240447,127.414575 L211.3568,127.535987 L211.594565,127.535987 L212.070094,127.535987 L212.307859,127.65234 L212.899741,127.65234 L213.613035,127.65234 L214.088565,127.65234 L215.403859,127.65234 L215.995741,127.65234 C215.995741,127.768692 216.233506,127.768692 216.349859,127.768692 L217.533624,127.768692 L218.009153,127.768692 C218.009153,127.535987 218.125506,127.768692 218.125506,127.535987 L218.479624,127.535987 L218.479624,126.944104 L218.479624,126.478692 L218.595977,126.357281 L218.71233,126.240928 L218.828682,126.129634 L219.066447,126.129634 C219.066447,125.891869 219.1828,126.129634 219.1828,125.891869 L219.430682,125.891869 L219.536918,125.775516 L219.653271,125.659163 L219.779741,125.537751 L219.779741,125.067281 L219.896094,124.950928 L219.896094,124.25281 L219.896094,123.311869 L219.896094,122.138222 L219.896094,121.667751 L219.896094,120.377751 L219.896094,119.91234 C219.779741,119.91234 219.779741,119.795987 219.779741,119.679634 C219.531859,119.679634 219.779741,119.558222 219.531859,119.558222 L219.531859,119.320457 L219.425624,119.204104 C219.177741,119.204104 219.425624,119.087751 219.177741,119.087751 L219.177741,118.849987 C218.950094,118.849987 219.177741,118.733634 218.950094,118.733634 C218.950094,118.500928 218.702212,118.500928 218.702212,118.384575 L218.474565,118.505987" id="path49" fill="#000000" sketch:type="MSShapeGroup"></path>
            <path d="M210.046565,137.608104 C209.930212,137.608104 209.692447,137.380457 209.571035,137.264104 C209.454682,137.264104 209.216918,137.147751 209.216918,137.02634 L208.139388,137.02634 L207.663859,137.02634 C207.663859,137.142692 207.557624,137.142692 207.436212,137.142692 L207.309741,137.259045 L207.193388,137.375398 C207.193388,137.603045 207.077035,137.375398 207.077035,137.603045 C206.9708,137.603045 206.839271,137.724457 206.839271,137.84081 L206.722918,137.957163 L206.485153,137.957163 L206.485153,138.073516 L206.247388,138.073516 L205.771859,138.073516 L205.655506,138.189869 L205.179977,138.189869 L204.704447,138.189869 C204.704447,138.306222 204.577977,138.306222 204.466682,138.306222 L204.35033,138.422575 L204.233977,138.538928 L204.117624,138.655281 L204.001271,138.761516 L204.001271,138.999281 C203.884918,138.999281 203.884918,139.115634 203.884918,139.237045 L203.758447,139.34834 C203.520682,139.34834 203.758447,139.459634 203.520682,139.459634 L203.520682,139.697398 C203.282918,139.697398 203.520682,139.813751 203.282918,139.813751 L203.282918,140.754692 L203.282918,141.220104 C203.282918,141.341516 203.409388,141.457869 203.409388,141.574222 L203.409388,142.515163 L203.409388,142.980575 C203.515624,142.980575 203.515624,143.096928 203.515624,143.21834 C203.642094,143.21834 203.879859,143.456104 204.001271,143.456104 C204.239035,143.683751 204.4768,143.931634 204.714565,144.159281 C204.714565,144.397045 204.830918,144.159281 204.830918,144.397045 L205.068682,144.513398 L205.068682,144.857398 L205.185035,144.857398 L205.185035,144.973751 L205.301388,145.090104 C205.301388,145.206457 205.655506,145.565634 205.655506,145.565634 C205.893271,145.565634 206.009624,145.671869 206.131035,145.671869 L206.722918,145.671869 C206.839271,145.671869 206.9708,145.788222 207.077035,145.788222 L207.441271,145.788222 L207.906682,145.788222 C207.906682,145.904575 208.144447,145.904575 208.270918,145.904575 L208.498565,146.14234 L208.974094,146.14234 L209.697506,146.14234 L210.173035,146.14234 L211.478212,146.14234 L211.953741,146.14234 C211.953741,146.025987 212.191506,146.025987 212.307859,146.025987 L212.307859,145.312692 C212.307859,145.312692 212.424212,145.085045 212.545624,145.085045 L212.545624,144.609516 L212.672094,144.609516 L212.672094,144.144104 L212.77833,144.144104 L212.77833,143.90634 L212.77833,143.440928 L212.77833,142.145869 L212.77833,141.680457 L212.894682,141.680457 L212.894682,141.442692 L212.894682,140.977281 L213.011035,140.977281 C213.011035,140.977281 213.137506,140.623163 213.258918,140.623163 L213.258918,140.157751 L213.258918,139.21681 L213.258918,138.741281 C213.142565,138.741281 213.142565,138.513634 213.142565,138.397281 C213.016094,138.397281 213.016094,138.280928 213.016094,138.159516 L212.899741,138.043163 L212.783388,137.92681 L212.677153,137.810457 L212.535506,137.734575 L212.297741,137.734575 C212.297741,137.49681 212.181388,137.734575 212.181388,137.49681 L211.705859,137.49681 C210.491741,137.431045 211.179741,137.648575 210.400682,137.608104 L210.046565,137.608104" id="path53" fill="#000000" sketch:type="MSShapeGroup"></path>
        </g>
    </g>
</svg>