<?xml version="1.0" encoding="UTF-8" standalone="no"?>
<svg width="512px" height="512px" viewBox="0 0 512 512" version="1.1" xmlns="http://www.w3.org/2000/svg" xmlns:xlink="http://www.w3.org/1999/xlink" xmlns:sketch="http://www.bohemiancoding.com/sketch/ns">
    <!-- Generator: Sketch 3.2.2 (9983) - http://www.bohemiancoding.com/sketch -->
    <title>lorry-left</title>
    <desc>Created with Sketch.</desc>
    <defs></defs>
    <g id="symbols" stroke="none" stroke-width="1" fill="none" fill-rule="evenodd" sketch:type="MSPage">
        <g id="lorry-left" sketch:type="MSArtboardGroup" fill="#000000">
            <g id="p-+-shape" sketch:type="MSLayerGroup" transform="translate(101.858857, 160.000000)">
                <path d="M146.128769,140.208827 L146.183708,11.8566817 C146.183708,7.38219559 139.559953,0 134.175568,0 L12.0497521,0.11478357 C6.46208461,0.11478357 0.133120081,6.8084353 0.133120081,11.4118104 L0.0279166333,140.208827 L146.128769,140.208827 Z" id="p" sketch:type="MSShapeGroup"></path>
                <g id="shape" transform="translate(0.359457, 143.214162)" sketch:type="MSShapeGroup">
                    <path d="M2.44670896,0.110300701 L19.1136398,0.110300701 L21.1274301,3.03867323 L21.1899708,44.1682258 L18.0629696,47.0905925 L3.01582195,47.2709872 L0.432918658,44.7755472 L0.55800012,2.13671113 L2.44670896,0.110300701 L2.44670896,0.110300701 Z" id="p"></path>
                    <path d="M26.7537247,0.395997933 L24.8552068,2.41635721 L24.7261498,45.0565713 L27.3251617,47.5554368 L42.3660806,47.3782123 L45.4996054,44.4540081 L45.4811434,30.9849462 L47.1953953,29.2481462 L59.0659245,29.1949788 L59.0843275,29.7266523 L60.7432524,29.6912074 C60.7933888,30.8288753 67.3754719,36.6383964 73.4432736,36.6384077 L73.4432736,36.6029628 C79.5058256,36.5912972 86.0562933,30.8100016 86.1063707,29.6734849 L87.7652956,29.7089298 L87.8021606,29.1595339 L99.6726898,29.2304237 L101.313212,30.8786115 L101.276347,45.0565713 L103.856897,47.5554368 L118.897815,47.3782123 L122.03134,44.4540081 L121.95761,3.32020214 L119.948438,0.395997933 L103.28546,0.395997933 L101.386942,2.41635721 L101.350077,15.885419 L98.9722548,18.2425048 L87.7837576,18.2070599 L87.8021606,17.657664 L85.9957757,17.6399416 C85.9957757,16.0006518 79.5024045,10.7990759 73.4248116,10.7990759 L73.4248116,10.8167984 C67.3526451,10.8276474 60.8722504,16.0377924 60.8723094,17.6753865 L59.0659245,17.6753865 L59.0659245,18.2425048 L47.8773683,18.2602273 L45.4442784,15.8499741 L45.4258754,3.32020214 L43.4167036,0.395997933 L26.7537247,0.395997933 L26.7537247,0.395997933 Z" id="p"></path>
                    <path d="M127.397881,0.0573772123 L144.064812,0.0573772123 L146.078585,2.98574974 L146.141108,44.1153023 L143.01413,47.037669 L127.966959,47.2180637 L125.38405,44.7226237 L125.509155,2.08378764 L127.397881,0.0573772123 L127.397881,0.0573772123 Z" id="p"></path>
                </g>
            </g>
        </g>
    </g>
</svg>