<?xml version="1.0" encoding="UTF-8" standalone="no"?>
<svg width="512px" height="512px" viewBox="0 0 512 512" version="1.1" xmlns="http://www.w3.org/2000/svg" xmlns:xlink="http://www.w3.org/1999/xlink" xmlns:sketch="http://www.bohemiancoding.com/sketch/ns">
    <!-- Generator: Sketch 3.2.2 (9983) - http://www.bohemiancoding.com/sketch -->
    <title>lorry</title>
    <desc>Created with Sketch.</desc>
    <defs></defs>
    <g id="symbols" stroke="none" stroke-width="1" fill="none" fill-rule="evenodd" sketch:type="MSPage">
        <g id="lorry" sketch:type="MSArtboardGroup" fill="#000000">
            <path d="M346.990561,312.027243 L347.059573,150.79551 C347.059573,145.174808 338.739031,135.901538 331.975345,135.901538 L178.564922,136.045725 C171.545878,136.045725 163.595642,144.454069 163.595642,150.236677 L163.463489,312.027243 L346.990561,312.027243 Z M203.240985,178.117645 L308.759015,178.117645 L308.759015,267.305503 L203.240985,267.305503 L203.240985,178.117645 Z" id="p-2" sketch:type="MSShapeGroup"></path>
            <g id="shape" sketch:type="MSLayerGroup" transform="translate(163.879959, 315.802445)">
                <path d="M3.07347511,0.138556103 L24.009924,0.138556103 L26.5395809,3.81708111 L26.6181425,55.4826686 L22.6901068,59.1536494 L3.78837607,59.3802552 L0.543818141,56.2455658 L0.700941349,2.68406606 L3.07347511,0.138556103 L3.07347511,0.138556103 Z" id="p" sketch:type="MSShapeGroup"></path>
                <path d="M33.6071467,0.497439545 L31.2222912,3.03534824 L31.060174,56.5985791 L34.324967,59.7375714 L53.2188734,59.5149478 L57.1551039,55.841659 L57.1319126,38.9222677 L59.2852992,36.7405567 L74.1966666,36.6737696 L74.2197838,37.3416403 L76.3036705,37.2971156 C76.3666502,38.7262164 84.634846,46.0239453 92.2570183,46.0239595 L92.2570183,45.9794348 C99.8725963,45.9647808 108.101078,38.7025079 108.163983,37.2748532 L110.24787,37.319378 L110.294179,36.6292449 L125.205546,36.7182943 L127.266315,38.7886935 L127.220007,56.5985791 L130.461608,59.7375714 L149.355515,59.5149478 L153.291745,55.841659 L153.199128,4.17072844 L150.675273,0.497439545 L129.743788,0.497439545 L127.358933,3.03534824 L127.312624,19.9547395 L124.325683,22.915633 L110.271061,22.8711083 L110.294179,22.1809752 L108.025058,22.1587129 C108.025058,20.0994912 99.8682988,13.5654431 92.2338269,13.5654431 L92.2338269,13.5877054 C84.6061717,13.6013336 76.4657136,20.1461459 76.4657877,22.2032376 L74.1966666,22.2032376 L74.1966666,22.915633 L60.1419712,22.9378954 L57.085604,19.9102148 L57.0624867,4.17072844 L54.5386313,0.497439545 L33.6071467,0.497439545 L33.6071467,0.497439545 Z" id="p" sketch:type="MSShapeGroup"></path>
                <path d="M160.033017,0.0720753619 L180.969466,0.0720753619 L183.499101,3.75060037 L183.57764,55.4161879 L179.649634,59.0871686 L160.747874,59.3137745 L157.503308,56.179085 L157.660461,2.61758531 L160.033017,0.0720753619 L160.033017,0.0720753619 Z" id="p" sketch:type="MSShapeGroup"></path>
            </g>
        </g>
    </g>
</svg>