<?xml version="1.0" encoding="UTF-8" standalone="no"?>
<svg width="512px" height="512px" viewBox="0 0 512 512" version="1.1" xmlns="http://www.w3.org/2000/svg" xmlns:xlink="http://www.w3.org/1999/xlink" xmlns:sketch="http://www.bohemiancoding.com/sketch/ns">
    <!-- Generator: Sketch 3.2.2 (9983) - http://www.bohemiancoding.com/sketch -->
    <title>low-clearance</title>
    <desc>Created with Sketch.</desc>
    <defs></defs>
    <g id="us-symbols" stroke="none" stroke-width="1" fill="none" fill-rule="evenodd" sketch:type="MSPage">
        <g id="low-clearance" sketch:type="MSArtboardGroup" fill="#000000">
            <g id="Group" sketch:type="MSLayerGroup" transform="translate(109.000000, 58.000000)">
                <path d="M273.928774,139.587746 L260.71996,139.587746 L262.881402,166.717976 L271.767332,166.717976 L273.928774,139.587746 L273.928774,139.587746 Z" id="path3418-2" sketch:type="MSShapeGroup"></path>
                <path d="M293.381755,139.587746 L279.93278,139.587746 L282.100898,166.717976 L291.220313,166.717976 L293.381755,139.587746 L293.381755,139.587746 Z" id="path3422-2" sketch:type="MSShapeGroup"></path>
                <path d="M111.346256,256.992014 L111.346256,240.425771 L64.0346704,240.425771 C64.7551512,236.344233 65.2354736,234.183419 66.4362749,231.302333 C69.7985185,221.458623 77.4836486,210.654533 84.9219469,205.372543 L89.4849918,202.011276 L93.5743896,199.13019 L97.8839311,196.489195 C99.098083,195.288743 100.298884,194.328381 101.49301,193.608109 C108.217497,187.365757 111.346256,179.922952 111.346256,170.559424 C111.346256,152.312547 96.9366407,137.42693 78.6844499,137.42693 C60.1921063,137.42693 46.2628096,151.832366 45.7824872,170.559424 L62.3535487,170.559424 C62.3535487,161.435985 69.7985185,153.993181 78.6844499,153.993181 C87.80387,153.993181 95.2555113,161.435985 95.2555113,170.559424 C95.2555113,176.321595 93.3275578,179.202681 85.4022674,184.484671 C75.8025268,191.207205 73.3942527,193.127928 70.5123277,195.528833 C62.5870374,202.731547 56.583031,212.335166 51.5396637,224.81989 C47.6970996,235.143781 46.4962983,240.905952 45.7824872,256.992014 L111.346256,256.992014 L111.346256,256.992014 Z M25.8491821,256.992014 L25.8491821,139.347656 L14.7951388,139.347656 C12.1533741,144.389556 8.07732125,147.270642 1.5863209,147.750828 L1.5863209,160.475624 L9.03796228,160.475624 L9.03796228,256.992014 L25.8491821,256.992014 L25.8491821,256.992014 Z" id="path3426-2" sketch:type="MSShapeGroup"></path>
                <path d="M148.089452,139.587746 L135.114122,139.587746 L137.275565,166.717976 L146.161494,166.717976 L148.089452,139.587746 L148.089452,139.587746 Z" id="path3430-2" sketch:type="MSShapeGroup"></path>
                <path d="M175.699201,127.823309 L117.106755,127.823309 L117.106755,79.5651142 L64.9853061,90.3691875 C63.3041843,90.8493685 62.5903731,91.0894589 61.8765639,91.0894589 C58.5143203,91.0894589 55.1520748,87.7281923 55.1520748,84.1268351 C55.1520748,82.6862923 55.1520748,81.7259285 56.8331985,80.2853856 L146.406325,0.5753324 L235.505799,80.5254761 C236.953436,81.7259285 237.186921,82.9263827 236.953436,84.3669256 C236.953436,87.9682827 233.824678,91.0894589 230.215598,91.0894589 C229.748629,91.0894589 229.495118,91.0894589 228.300992,90.8493685 L175.699201,78.8448428 L175.699201,127.823309 L175.699201,127.823309 Z" id="path3434-2" sketch:type="MSShapeGroup"></path>
                <path d="M175.699201,269.229955 L117.106755,269.229955 L117.106755,317.488159 L64.9853061,306.437324 C63.3041843,306.203907 62.5903731,305.957143 61.8765639,305.957143 C58.5143203,305.957143 55.1520748,309.31841 55.1520748,312.693004 C55.1520748,314.120219 55.1520748,315.320672 56.8331985,316.774561 L146.406325,396.477945 L235.505799,316.527798 C236.953436,315.320672 237.186921,314.120219 236.953436,312.693004 C236.953436,309.084993 233.824678,305.723726 230.215598,305.723726 C229.748629,305.723726 229.495118,305.957143 228.300992,306.203907 L175.699201,318.208431 L175.699201,269.229955 L175.699201,269.229955 Z" id="path3438-2" sketch:type="MSShapeGroup"></path>
                <path d="M167.295597,193.126605 L126.228193,193.126605 L126.228193,208.732486 L167.295597,208.732486 L167.295597,193.126605 L167.295597,193.126605 Z" id="path3440-2" sketch:type="MSShapeGroup"></path>
                <path d="M237.185579,221.458623 C237.185579,233.943328 230.461091,242.586585 220.614521,242.586585 C210.52779,242.586585 204.036788,232.982966 204.036788,219.77799 C204.036788,208.733809 210.52779,199.850462 220.614521,199.850462 C230.461091,199.850462 237.185579,208.9739 237.185579,221.458623 M253.50982,221.458623 C253.50982,199.13019 240.781326,184.00449 220.614521,184.00449 C218.446403,184.00449 216.051476,184.00449 213.169553,184.484671 C217.252277,173.440509 228.066164,159.275171 237.899403,151.832366 L228.299649,138.627383 C202.835987,158.5549 187.946051,188.326119 187.946051,216.416705 C187.946051,243.306857 198.993422,259.152828 220.614521,259.152828 C240.781326,259.152828 253.50982,243.787038 253.50982,221.458623" id="path3444-2" sketch:type="MSShapeGroup"></path>
            </g>
        </g>
    </g>
</svg>