<?xml version="1.0" encoding="UTF-8" standalone="no"?>
<svg width="512px" height="512px" viewBox="0 0 512 512" version="1.1" xmlns="http://www.w3.org/2000/svg" xmlns:xlink="http://www.w3.org/1999/xlink" xmlns:sketch="http://www.bohemiancoding.com/sketch/ns">
    <!-- Generator: Sketch 3.2.2 (9983) - http://www.bohemiancoding.com/sketch -->
    <title>merge</title>
    <desc>Created with Sketch.</desc>
    <defs></defs>
    <g id="us-symbols" stroke="none" stroke-width="1" fill="none" fill-rule="evenodd" sketch:type="MSPage">
        <g id="merge" sketch:type="MSArtboardGroup" fill="#000000">
            <path d="M273.0481,326.272516 L272.881158,407.895265 L216.878071,407.757348 L216.878071,208.863629 L185.884661,218.456471 C184.751826,218.812298 183.633502,219.102768 182.449823,219.168124 C179.356299,219.342476 176.211931,218.042534 174.026129,215.84222 C171.506279,213.271526 170.467845,209.59706 171.027006,206.053308 C171.317477,204.252377 172.152575,202.741917 173.220075,201.296812 L244.785224,104.104735 L316.546421,201.296812 C318.02057,203.286545 318.85569,205.646638 318.85569,208.130177 C318.85569,212.668807 316.212393,216.648274 312.05137,218.456471 C309.792945,219.429549 307.730589,219.516684 305.406808,219.008366 C304.796823,218.870449 304.186817,218.529094 303.881835,218.456471 L272.162239,211.623105 C274.660311,222.617495 277.151095,233.65544 280.302729,244.49005 C284.964804,260.531404 291.028426,276.151555 298.043327,291.314213 C304.992892,306.295334 312.893735,320.84074 321.985525,334.623649 C328.012835,343.759016 334.584775,352.567581 341.120403,361.332589 L310.28675,383.604569 C307.527254,379.995441 304.767778,376.393599 302.08817,372.719115 C295.908368,364.280888 290.142483,355.51588 284.674334,346.598381 C280.593199,339.946573 276.802535,333.134987 273.048182,326.272577" id="path3470" sketch:type="MSShapeGroup"></path>
        </g>
    </g>
</svg>