<?xml version="1.0" encoding="UTF-8" standalone="no"?>
<svg width="512px" height="512px" viewBox="0 0 512 512" version="1.1" xmlns="http://www.w3.org/2000/svg" xmlns:xlink="http://www.w3.org/1999/xlink" xmlns:sketch="http://www.bohemiancoding.com/sketch/ns">
    <!-- Generator: Sketch 3.2.2 (9983) - http://www.bohemiancoding.com/sketch -->
    <title>metric-clearance</title>
    <desc>Created with Sketch.</desc>
    <defs></defs>
    <g id="us-symbols" stroke="none" stroke-width="1" fill="none" fill-rule="evenodd" sketch:type="MSPage">
        <g id="metric-clearance" sketch:type="MSArtboardGroup" fill="#000000">
            <g id="Group" sketch:type="MSLayerGroup" transform="translate(126.000000, 80.000000)">
                <path d="M153.007894,113.145437 L100.7199,113.087348 L100.812369,70.2968966 L54.4140242,79.9857785 C52.9061899,80.2926055 52.3111099,80.4772975 51.8129728,80.4772975 C48.7063271,80.4713397 45.8621728,77.4909473 45.8621728,74.3884198 C45.8621728,73.1521751 45.7697042,72.2272257 47.2387614,70.9269346 L126.810951,0.203310127 L206.175831,71.0609852 C207.43758,72.1870105 207.54198,73.3026097 207.54198,74.5388544 C207.530049,77.7635169 204.67098,80.5994325 201.437563,80.5934747 C200.957323,80.5934747 200.864854,80.4832553 199.707506,80.2240907 L153.112294,69.6623903 L153.007894,113.145437" id="path14" sketch:type="MSShapeGroup"></path>
                <path d="M153.007894,238.665981 L100.7199,238.72258 L100.812369,281.513032 L54.4140242,271.828618 C52.9061899,271.517323 52.3111099,271.331141 51.8129728,271.331141 C48.7063271,271.343057 45.8621728,274.324939 45.8621728,277.421508 C45.8621728,278.657753 45.7697042,279.582703 47.2387614,280.888951 L126.810951,351.606618 L206.175831,280.750432 C207.43758,279.630365 207.54198,278.514766 207.54198,277.278521 C207.530049,274.047901 204.67098,271.211985 201.437563,271.217943 C200.957323,271.217943 200.864854,271.332631 199.707506,271.587327 L153.112294,282.149027 L153.007894,238.665981" id="path16" sketch:type="MSShapeGroup"></path>
                <path d="M29.8680928,228.670272 C12.9716985,228.670272 1.21924137,216.561032 0.48396708,199.320631 L15.1760299,199.320631 C15.9113042,207.761352 21.7860414,213.996196 29.8680928,213.996196 C38.3155442,213.996196 44.5601557,207.391968 44.5601557,198.592289 C44.5601557,187.585243 38.3140528,178.416179 30.9702585,178.416179 L23.6219899,178.416179 L23.6219899,164.111487 L29.8680928,164.111487 C33.5414814,164.111487 35.0090471,163.007804 37.5802699,160.078053 C40.5198757,156.77296 41.9889328,152.741015 41.9889328,148.338196 C41.9889328,140.266859 37.2133785,135.129741 29.8680928,135.129741 C23.2550985,135.129741 19.2148185,139.167643 18.4795442,146.136787 L3.79046422,144.304762 C5.25653851,130.363496 15.9098128,120.460133 29.8680928,120.460133 C44.9285385,120.460133 56.3126128,132.194032 56.3126128,147.234513 C56.3126128,156.04015 53.7413899,163.007804 46.7644871,171.079141 C54.8435557,178.416179 58.8853271,187.950158 58.8853271,198.592289 C58.8853271,215.83269 46.7644871,228.670272 29.8680928,228.670272" id="path18" sketch:type="MSShapeGroup"></path>
                <path d="M77.6117057,227.930015 C73.2030429,227.930015 69.1612714,223.89807 69.1612714,219.495251 C69.1612714,215.093922 73.2015514,211.060487 77.6117057,211.060487 C82.02186,211.060487 86.0591571,215.093922 86.0591571,219.495251 C86.0591571,223.89807 82.02186,227.930015 77.6117057,227.930015" id="path20" sketch:type="MSShapeGroup"></path>
                <path d="M140.418746,196.021496 C140.418746,206.657669 134.541026,213.994707 125.729666,213.994707 C116.91234,213.994707 111.03462,206.656179 111.03462,196.021496 C111.03462,184.649534 116.91234,177.312496 125.729666,177.312496 C134.541026,177.313985 140.418746,184.651023 140.418746,196.021496 L140.418746,196.021496 Z M154.743917,196.021496 C154.743917,185.753217 151.440403,176.21477 144.8289,169.981416 C150.335254,164.474914 153.27486,156.77296 153.27486,148.338196 C153.27486,132.195521 141.889294,120.460133 125.731157,120.460133 C109.201654,120.460133 97.8160886,132.194032 97.8160886,148.338196 C97.8160886,156.77296 100.755694,164.109998 106.26354,169.981416 C99.6505457,176.585643 96.3470314,185.754707 96.3470314,196.021496 C96.3470314,204.092833 98.9152714,211.794787 102.948094,217.664715 C108.096506,224.994306 115.444774,228.670272 125.731157,228.670272 C133.802769,228.670272 140.056329,226.462905 144.8289,221.701129 C151.070529,215.83269 154.743917,205.930816 154.743917,196.021496 L154.743917,196.021496 Z M138.58578,148.338196 C138.58578,156.77296 133.066003,162.273504 125.729666,162.273504 C118.005557,162.273504 112.503677,156.77296 112.503677,148.338196 C112.503677,140.636243 118.005557,135.129741 125.729666,135.129741 C133.066003,135.13123 138.58578,140.636243 138.58578,148.338196 L138.58578,148.338196 Z" id="path22" sketch:type="MSShapeGroup"></path>
                <path d="M260.10738,228.531753 L260.10738,175.927306 C260.10738,158.45604 249.445157,151.002825 238.776969,150.366829 C231.740409,149.939357 223.635986,150.575352 218.087871,159.523977 C213.823877,153.13423 208.703803,150.366829 202.096774,150.366829 C198.682894,150.366829 193.56282,150.366829 186.521786,156.542095 L186.521786,152.064804 L172.238374,152.064804 L172.238374,228.530264 L186.949826,228.530264 L186.949826,175.925816 C186.949826,167.190184 191.428586,164.208302 196.755969,163.786787 C204.225043,163.786787 208.703803,166.126715 208.703803,175.925816 L208.703803,228.530264 L223.415254,228.530264 L223.415254,175.925816 C223.415254,167.190184 227.685214,163.786787 233.233329,163.786787 C240.909711,163.786787 244.960431,166.126715 244.960431,175.925816 L244.960431,228.530264 L260.10738,228.530264" id="path24" sketch:type="MSShapeGroup"></path>
            </g>
        </g>
    </g>
</svg>