<svg xmlns:svg="http://www.w3.org/2000/svg" xmlns="http://www.w3.org/2000/svg" version="1.1" width="512" height="512" viewBox="0 0 512 512">
  <path d="m418.62 218.88c-59.82-2.14-108.66 63.23-89.6 119.97 14.66 55.39 85.58 85.39 134.89 55.13 47.53-25.02 63.91-93.17 30.49-135.9-17.42-23.73-46.07-39.6-75.78-39.22zm-0.75 31.37c44.2-1.77 78.81 50.45 56.21 89.76-18 40.77-79.31 45.99-104.72 10.17-31.62-37.79-0.9-101.47 48.51-99.93z" fill="#000"/>
  <path d="M93.78 218.88C33.95 216.73-14.87 282.1 4.19 338.85 18.85 394.24 89.76 424.24 139.07 393.98 186.6 368.96 202.99 300.8 169.57 258.08 152.15 234.35 123.5 218.48 93.78 218.88zm-0.72 31.37C137.25 248.5 171.84 300.71 149.24 340.01 131.23 380.76 69.95 385.98 44.55 350.16 12.85 312.38 43.66 248.68 93.06 250.24z" fill="#000"/>
  <path d="m231.75 94.04c-31.12-3.5-71.49-1.9-78.42 36.33-24.44 62.01-53.15 122.8-75.46 185.38 10.97 29.2 36.45-4.38 39.86-23.15 23.73-55.47 47.47-110.94 71.2-166.41 14.27 0 28.55 0 42.82 0 0-10.72 0-21.44 0-32.15z" fill="#000"/>
  <path d="m160.1 162.99c23.49 3.6 53.96-5.11 73.21 5.97 8.41 13.42 16.81 26.85 25.22 40.27-4.41 21.8-22.01 45.39-18.34 66.07 8.53 13.93 16.71 28.54 36.14 21.81 49.3 0.2 98.61 0.25 147.91 0.66 29.68 11-2.76 40.65-23.62 30.1-51.42-0.53-103.2 2.15-154.39-0.6-28.05-12.53-34.94-46.92-52.98-69.32-13.19-29.79-50.38-56.37-33.99-91.28l0.87-3.69 0 0z" fill="#000"/>
  <path d="m484.21 163.73c0.83 19.98 8.1 45.96-21.63 38.08-30.83 5.53-68.44-6.24-93.77 16.15-27.92 28.51-44.28-21.65-52.28-42.08 5.42-21.69 36.87-9.05 55.03-12.14 37.55 0 75.1 0 112.65 0z" fill="#000"/>
  <path d="M97.17 221.95C115.87 184.69 28.39 202.33 65.78 225.99c10.31-2.28 20.95-2.59 31.39-4.04z" fill="#000"/>
</svg>
