<?xml version="1.0" encoding="UTF-8" standalone="no"?>
<svg width="512px" height="512px" viewBox="0 0 512 512" version="1.1" xmlns="http://www.w3.org/2000/svg" xmlns:xlink="http://www.w3.org/1999/xlink" xmlns:sketch="http://www.bohemiancoding.com/sketch/ns">
    <!-- Generator: Sketch 3.2.2 (9983) - http://www.bohemiancoding.com/sketch -->
    <title>motor-vehicles</title>
    <desc>Created with Sketch.</desc>
    <defs></defs>
    <g id="symbols" stroke="none" stroke-width="1" fill="none" fill-rule="evenodd" sketch:type="MSPage">
        <g id="motor-vehicles" sketch:type="MSArtboardGroup">
            <g id="g1971" sketch:type="MSLayerGroup" transform="translate(177.278161, 277.455612)">
                <path d="M0.274937456,70.0117522 C-0.119844553,40.9106852 -1.69897226,65.9511374 15.8406239,22.8071148 C28.5300429,-6.51954125 15.6714318,1.37609688 81.3180238,0.304546069 C139.745746,1.48889193 127.958686,-6.97072035 141.381271,24.1606531 C158.1877,64.0336255 156.890561,43.1665812 156.777766,69.1657902 C156.157394,97.7028819 166.703718,90.3712186 78.2725631,91.3299754 C-9.48181573,90.1456308 0.895308241,97.5900872 0.274937456,70.0117522 L0.274937456,70.0117522 Z M18.0401226,41.9258393 L30.0527733,14.1783106 C32.2940486,9.24945475 31.578986,9.97705079 36.8204629,9.94850404 L120.806659,9.93945255 C125.353264,9.95616276 124.686244,9.66094696 126.559194,14.000067 L138.505002,41.5874535 L18.0401226,41.9258393 L18.0401226,41.9258393 Z M9.44891694,94.5132968 L31.9138878,94.4631648 C31.8449582,122.668139 34.1823176,121.095278 21.9315453,121.277003 C7.34341372,121.220605 9.64944116,122.693205 9.44891694,94.5132968 L9.44891694,94.5132968 Z M125.138815,94.7138202 L147.641384,94.7138202 C147.490991,122.962658 149.546364,121.032614 136.81308,121.107811 C123.647416,120.932352 125.320539,123.01279 125.138815,94.7138202 L125.138815,94.7138202 Z" id="Car" fill="#000000" sketch:type="MSShapeGroup"></path>
                <ellipse id="LeftLamp" fill="#FFFFFF" sketch:type="MSShapeGroup" cx="20.620305" cy="62.6857273" rx="10.9700023" ry="10.9700023"></ellipse>
                <ellipse id="RightLamp" fill="#FFFFFF" sketch:type="MSShapeGroup" cx="136.094013" cy="62.6857273" rx="10.9700023" ry="10.9700023"></ellipse>
            </g>
            <g id="layer1" sketch:type="MSLayerGroup" transform="translate(181.198871, 113.132032)">
                <path d="M103.013982,114.377117 C86.0403986,113.521859 61.064847,116.511018 52.6853391,105.890324 C48.8456243,85.6811495 37.8734107,75.5082852 19.0342262,75.2984047 C7.46709012,52.959656 28.4641637,49.4590512 42.8169773,43.7196491 C43.7287362,54.1028913 43.1700504,64.8959289 59.5931915,70.9563265 C60.2524511,67.743234 61.5995556,65.1197211 65.9089427,65.0353105 L90.1851106,65.1339949 L107.356057,51.7130225 C110.130931,56.1262213 115.637248,61.7809884 115.645481,64.936626 L141.697956,65.0353105 C143.595167,66.6512505 145.204342,70.9391362 141.401905,75.1997229 C125.79519,74.7259748 97.4297892,76.430969 103.013982,114.377117 L103.013982,114.377117 Z" id="path4749" fill="#000000" sketch:type="MSShapeGroup"></path>
                <path d="M60.6667387,28.9579833 L60.7365187,19.7564629 L71.0404911,18.3579608 L71.0404911,11.0553735 L60.5271788,12.8027749 C61.3003345,6.22396167 65.5302653,1.46711846 74.8482742,0.0895202967 C80.6989859,0.501868582 86.8345016,0.819087199 90.3246706,11.7630904 C91.3475119,16.1039909 90.7099727,20.4958881 88.0140715,24.2789776 C79.2871584,19.4950443 72.7555967,22.7607346 66.7970946,28.1276376 L60.6667387,28.9579833 L60.6667387,28.9579833 Z" id="path5636" fill="#000000" sketch:type="MSShapeGroup"></path>
                <path d="M42.7182929,48.8511976 L73.4088964,25.6605478 C77.5341045,23.4602231 82.0835117,23.041543 87.5206519,26.3513336 C92.1685517,30.5736612 100.019908,42.2707302 106.270539,50.2327665 L88.8035418,63.3083474 L72.0273248,39.9696723 L45.4814333,60.2984971 C43.4380777,56.7320667 42.9599402,52.5463197 42.7182929,48.8511976 L42.7182929,48.8511976 Z" id="path6523" fill="#000000" sketch:type="MSShapeGroup"></path>
                <path d="M44.0979841,104.746961 C44.0998646,116.910439 34.2399449,126.771884 22.0764696,126.771884 C9.91299164,126.771884 0.0530721889,116.910439 0.0549535509,104.746961 C0.0530721889,92.5834835 9.91299164,82.7220388 22.0764696,82.7220388 C34.2399449,82.7220388 44.0998646,92.5834835 44.0979841,104.746961 L44.0979841,104.746961 L44.0979841,104.746961 Z" id="path7410" stroke="#000000" stroke-width="13.9569943" sketch:type="MSShapeGroup"></path>
                <path d="M153.292403,104.776852 C153.294284,116.94033 143.434364,126.801775 131.270889,126.801775 C119.107411,126.801775 109.247491,116.94033 109.249373,104.776852 C109.247491,92.6133745 119.107411,82.7519298 131.270889,82.7519298 C143.434364,82.7519298 153.294284,92.6133745 153.292403,104.776852 L153.292403,104.776852 L153.292403,104.776852 Z" id="path8297" stroke="#000000" stroke-width="13.9569943" sketch:type="MSShapeGroup"></path>
            </g>
        </g>
    </g>
</svg>