<?xml version="1.0" encoding="UTF-8" standalone="no"?>
<svg width="512px" height="512px" viewBox="0 0 512 512" version="1.1" xmlns="http://www.w3.org/2000/svg" xmlns:xlink="http://www.w3.org/1999/xlink" xmlns:sketch="http://www.bohemiancoding.com/sketch/ns">
    <!-- Generator: Sketch 3.2.2 (9983) - http://www.bohemiancoding.com/sketch -->
    <title>motorbike</title>
    <desc>Created with Sketch.</desc>
    <defs></defs>
    <g id="symbols" stroke="none" stroke-width="1" fill="none" fill-rule="evenodd" sketch:type="MSPage">
        <g id="motorbike" sketch:type="MSArtboardGroup">
            <g id="layer1" sketch:type="MSLayerGroup" transform="translate(115.490249, 138.760461)">
                <path d="M191.195011,212.285107 C159.691866,210.697739 113.336985,216.24565 97.7845322,196.533532 C90.6579819,159.025096 70.2934405,140.144155 35.32772,139.754615 C13.8589962,98.2936672 52.8297811,91.7965087 79.4687511,81.1441192 C81.1609849,100.415524 80.1240584,120.447513 110.605577,131.695673 C111.82917,125.73214 114.32941,120.862873 122.327677,120.706206 L167.384494,120.889366 L199.253948,95.9799025 C204.404142,104.170845 214.623924,114.666151 214.639205,120.523047 L262.992866,120.706206 C266.51411,123.705408 269.500755,131.663768 262.443393,139.57146 C233.477169,138.692179 180.830693,141.856666 191.195011,212.285107 L191.195011,212.285107 Z" id="path4749" fill="#000000" sketch:type="MSShapeGroup"></path>
                <path d="M112.598092,53.7463154 L112.727604,36.6681986 L131.851883,34.0725644 L131.851883,20.5188872 L112.339067,23.7620822 C113.774052,11.551737 121.624847,2.72298697 138.919168,0.166150593 C149.778149,0.931473259 161.16573,1.52023428 167.643519,21.8324169 C169.541923,29.8891731 168.358644,38.0405796 163.355024,45.0620326 C147.157783,36.1830032 135.035137,42.244158 123.976096,52.2051852 L112.598092,53.7463154 L112.598092,53.7463154 Z" id="path5636" fill="#000000" sketch:type="MSShapeGroup"></path>
                <path d="M79.2855917,90.668326 L136.247668,47.6262411 C143.904097,43.5424158 152.347843,42.7653412 162.439232,48.9083467 C171.065782,56.7450302 185.63798,78.4549107 197.239215,93.2325321 L164.820288,117.500945 L133.683457,74.1841235 L84.4140088,111.914632 C80.6215198,105.2953 79.7340916,97.5265108 79.2855917,90.668326 L79.2855917,90.668326 Z" id="path6523" fill="#000000" sketch:type="MSShapeGroup"></path>
                <path d="M40.974155,235.289923 C18.3986146,235.289923 0.0985025294,216.98698 0.101994357,194.41144 C0.0985025294,171.835899 18.3986146,153.532956 40.974155,153.532956 C63.5496906,153.532956 81.8498031,171.835899 81.8463128,194.41144 C81.8498031,216.98698 63.5496906,235.289923 40.974155,235.289923 Z" id="path7410" stroke="#000000" stroke-width="13.9569943" sketch:type="MSShapeGroup"></path>
                <path d="M284.51228,194.466918 C284.51577,217.042458 266.215657,235.345401 243.640122,235.345401 C221.064581,235.345401 202.764469,217.042458 202.767961,194.466918 C202.764469,171.891377 221.064581,153.588434 243.640122,153.588434 C266.215657,153.588434 284.51577,171.891377 284.51228,194.466918 L284.51228,194.466918 L284.51228,194.466918 Z" id="path8297" stroke="#000000" stroke-width="13.9569943" sketch:type="MSShapeGroup"></path>
            </g>
        </g>
    </g>
</svg>