<?xml version="1.0" encoding="UTF-8" standalone="no"?>
<svg width="512px" height="512px" viewBox="0 0 512 512" version="1.1" xmlns="http://www.w3.org/2000/svg" xmlns:xlink="http://www.w3.org/1999/xlink" xmlns:sketch="http://www.bohemiancoding.com/sketch/ns">
    <!-- Generator: Sketch 3.2.2 (9983) - http://www.bohemiancoding.com/sketch -->
    <title>no-l-or-u-turn</title>
    <desc>Created with Sketch.</desc>
    <defs></defs>
    <g id="us-symbols" stroke="none" stroke-width="1" fill="none" fill-rule="evenodd" sketch:type="MSPage">
        <g id="no-l-or-u-turn" sketch:type="MSArtboardGroup" fill="#000000">
            <path d="M220.550573,300.656235 L195.45747,292.575745 C194.183359,291.866423 192.666877,291.559569 191.181526,291.443942 C186.440853,291.003674 182.562929,295.308525 182.562929,300.062539 C182.562929,302.270554 183.472373,304.474122 184.997749,306.046194 L242.001451,385.012197 L296.906093,306.046194 C298.43814,304.474122 299.334243,302.270554 299.334243,300.062539 C299.334243,295.308525 295.138347,290.801328 290.713422,291.443942 C289.243636,291.639617 287.727154,291.866423 286.437477,292.575745 L262.925341,300.656235 L262.909331,251.61295 C262.909331,226.164075 284.015554,205.246856 309.466653,205.246856 C334.913304,205.246856 356.006186,226.164075 356.006186,251.61295 L355.995513,384.829863 L399.055143,385.025538 L398.975094,251.443958 C398.975094,202.142738 358.761647,162.285064 309.467097,162.285064 C308.757775,162.285064 308.048453,162.297516 307.361367,162.305165 L199.108589,162.305165 L206.317436,138.299393 C207.073453,135.333137 207.371413,132.842727 205.732634,130.427919 C203.282249,126.834613 198.345901,125.882921 194.73036,128.344424 L112.944857,183.749372 L194.73036,239.074271 C198.345901,241.522433 203.282249,240.584082 205.732634,236.975211 C207.444791,234.473683 207.060112,232.038863 206.150668,228.779094 L199.108589,205.158002 L232.955927,205.158002 C224.713115,218.648463 219.943535,234.487025 219.943535,251.444047 L220.550573,300.656324" id="path3841" sketch:type="MSShapeGroup"></path>
        </g>
    </g>
</svg>