<?xml version="1.0" encoding="UTF-8" standalone="no"?>
<svg width="256px" height="256px" viewBox="0 0 256 256" version="1.1" xmlns="http://www.w3.org/2000/svg" xmlns:xlink="http://www.w3.org/1999/xlink" xmlns:sketch="http://www.bohemiancoding.com/sketch/ns">
    <!-- Generator: Sketch 3.3.3 (12081) - http://www.bohemiancoding.com/sketch -->
    <title>opening-swing-bridge-ca</title>
    <desc>Created with Sketch.</desc>
    <defs></defs>
    <g id="Page-1" stroke="none" stroke-width="1" fill="none" fill-rule="evenodd" sketch:type="MSPage">
        <g id="opening-swing-bridge-ca" sketch:type="MSArtboardGroup" fill="#000000">
            <g id="Group" sketch:type="MSLayerGroup" transform="translate(41.000000, 71.000000)">
                <path d="M14.16328,107.652632 C14.16328,107.652632 16.86482,100.630952 21.71559,109.626642 C21.71559,109.626642 28.11653,119.990632 36.26455,109.528142 C36.26455,109.528142 39.5618,99.5596318 44.60613,109.626642 C44.60613,109.626642 51.00707,119.990632 59.15509,109.528142 C59.15509,109.528142 62.45234,99.5596318 67.49666,109.626642 C67.49666,109.626642 73.89761,119.990632 82.04562,109.528142 C82.04562,109.528142 85.34288,99.5596318 90.3872,109.626642 C90.3872,109.626642 96.78814,119.990632 104.93616,109.528142 C104.93616,109.528142 108.23341,99.5596318 113.27774,109.626642 C113.27774,109.626642 119.67868,119.990632 127.82503,109.528142 C127.82503,109.528142 131.12395,99.5596318 136.16828,109.626642 C136.16828,109.626642 142.56922,119.990632 150.71724,109.528142 C150.71724,109.528142 154.01449,99.5596318 159.05715,109.626642 L163.28885,100.152052 C156.11198,90.6774518 150.85407,100.464082 150.85407,100.464082 C145.61785,111.715792 139.81595,100.152052 139.81595,100.152052 C132.63909,90.6774518 127.38284,100.464082 127.38284,100.464082 C122.14494,111.715792 116.34305,100.152052 116.34305,100.152052 C109.16619,90.6774518 103.90994,100.464082 103.90994,100.464082 C98.67205,111.715792 92.87182,100.152052 92.87182,100.152052 C85.69496,90.6774518 80.43704,100.464082 80.43704,100.464082 C75.19915,111.715792 69.39893,100.152052 69.39893,100.152052 C62.22206,90.6774518 56.96582,100.464082 56.96582,100.464082 C51.72625,111.715792 45.9277,100.152052 45.9277,100.152052 C38.74916,90.6774518 33.49292,100.464082 33.49292,100.464082 C28.25503,111.715792 22.4548,100.152052 22.4548,100.152052 C15.27794,90.6774518 10,100.382322 10,100.382322 L14.16328,107.652632" id="path5021" sketch:type="MSShapeGroup"></path>
                <path d="M29.31984,73.86817 L0,73.86817 L0,67 L47.39633,67 L47.39633,92.3785 C46.42017,90.89841 45.22041,90.59138 43.51839,90.00401 C36.6569,89.22309 31.99803,91.42904 28.92938,94.83476 L28.42879,95.54393 C28.31692,94.20401 27.64619,93.71676 26.58493,93.3263 L29.31984,73.86817" id="path5023" sketch:type="MSShapeGroup"></path>
                <path d="M90.22993,-7.10542736e-15 L37,32.663824 L48.05481,66.537411 L115.38483,25.029748 L90.22993,-7.10542736e-15 L90.22993,-7.10542736e-15 Z M90.43851,4.67222 L108.41821,23.194236 L92.60776,32.997552 L90.43851,4.67222 L90.43851,4.67222 Z M86.01659,7.216911 L87.85211,28.36705 L70.49815,16.936798 L86.01659,7.216911 L86.01659,7.216911 Z M65.99279,19.856934 L89.52076,34.874783 L69.33009,47.473081 L65.99279,19.856934 L65.99279,19.856934 Z M62.69721,21.901032 L64.53272,43.051171 L47.17877,31.662633 L62.69721,21.901032 L62.69721,21.901032 Z M42.3814,34.749636 L65.7425,49.642331 L50.3492,59.111921 L42.3814,34.749636 L42.3814,34.749636 Z" id="path5025" sketch:type="MSShapeGroup"></path>
                <path d="M144.07648,73.86817 L173.39466,73.86817 L173.39466,67 L126,67 L126,92.3785 C126.97616,90.89841 128.17591,90.59138 129.87627,90.00401 C136.73943,89.22309 141.3983,91.42904 144.46695,94.83476 L144.96754,95.54393 C145.0794,94.20401 145.75014,93.71676 146.80973,93.3263 L144.07648,73.86817" id="path5037" sketch:type="MSShapeGroup"></path>
            </g>
        </g>
    </g>
</svg>