<?xml version="1.0" encoding="UTF-8" standalone="no"?>
<svg width="512px" height="512px" viewBox="0 0 512 512" version="1.1" xmlns="http://www.w3.org/2000/svg" xmlns:xlink="http://www.w3.org/1999/xlink" xmlns:sketch="http://www.bohemiancoding.com/sketch/ns">
    <!-- Generator: Sketch 3.2.2 (9983) - http://www.bohemiancoding.com/sketch -->
    <title>parking</title>
    <desc>Created with Sketch.</desc>
    <defs></defs>
    <g id="symbols" stroke="none" stroke-width="1" fill="none" fill-rule="evenodd" sketch:type="MSPage">
        <g id="parking" sketch:type="MSArtboardGroup" fill="#000000">
            <path d="M192.94453,139.647501 L192.94453,244.913481 L266.40675,244.913481 C284.77213,244.913651 298.47162,239.389061 307.50528,228.339681 C316.53853,217.290691 321.05526,205.270971 321.05547,192.280491 C321.05526,172.571361 313.96288,158.087971 299.77831,148.830271 C290.67,142.708701 278.94891,139.647771 264.61499,139.647501 L192.94453,139.647501 L192.94453,139.647501 Z M143.44712,419.16227 L143.44712,92.8377295 L261.92735,92.8377295 C274.61882,92.8380555 286.82519,94.1818755 298.54647,96.8691925 C310.26738,99.5571545 322.47374,105.828312 335.16559,115.682687 C345.02005,123.29797 353.38159,133.78723 360.25025,147.1505 C367.11841,160.51431 370.55262,176.005561 370.55288,193.62431 C370.55262,216.91741 361.85512,239.09043 344.46036,260.14345 C327.06512,281.196781 301.64453,291.72337 268.19851,291.72324 L192.94453,291.72324 L192.94453,419.16227 L143.44712,419.16227 L143.44712,419.16227 Z" id="text5426" sketch:type="MSShapeGroup"></path>
        </g>
    </g>
</svg>