<?xml version="1.0" encoding="UTF-8" standalone="no"?>
<svg width="512px" height="512px" viewBox="0 0 512 512" version="1.1" xmlns="http://www.w3.org/2000/svg" xmlns:xlink="http://www.w3.org/1999/xlink" xmlns:sketch="http://www.bohemiancoding.com/sketch/ns">
    <!-- Generator: Sketch 3.2.2 (9983) - http://www.bohemiancoding.com/sketch -->
    <title>pass-l-r</title>
    <desc>Created with Sketch.</desc>
    <defs></defs>
    <g id="us-symbols" stroke="none" stroke-width="1" fill="none" fill-rule="evenodd" sketch:type="MSPage">
        <g id="pass-l-r" sketch:type="MSArtboardGroup" fill="#000000">
            <path d="M291.5352,73.1397456 C291.355666,80.5610581 291.17791,87.9912584 290.681971,95.3983504 C289.6261,111.147531 287.16418,126.765172 283.264214,142.05041 C280.093047,154.447112 276.818781,167.030459 271.358117,178.664594 C270.821294,179.812897 270.190261,180.914984 269.482792,181.961967 C266.516044,186.327654 262.525422,189.047321 257.33317,190.135187 C252.267124,191.185725 246.939777,189.795674 242.748291,186.823593 C239.792209,184.734961 237.682245,181.6029 236.315302,178.280641 C232.034938,167.905018 228.863771,157.079678 226.133439,146.21701 C221.890403,129.401293 218.521927,112.381158 217.217198,95.0695019 C216.673265,87.7672859 216.504397,80.456182 216.326641,73.137968 L291.5352,73.137968" id="path16" sketch:type="MSShapeGroup"></path>
            <path d="M409.211442,205.381319 L353.177421,125.065825 L297.146956,205.381319 C297.146956,206.314538 296.21196,207.249534 295.275186,209.115972 C295.275186,210.985965 295.275186,213.783844 296.210182,216.587056 C298.078398,219.38849 301.811273,220.325265 304.616263,220.325265 C305.551259,220.325265 306.479146,220.325265 306.479146,219.390268 L331.69561,211.919184 L331.69561,241.803521 C330.764169,269.816087 261.654418,342.662269 256.055104,352.93301 C256.039106,352.902791 256.017776,352.86724 256.003555,352.837021 L255.99289,352.844132 C255.978669,352.877905 255.955561,352.918789 255.946673,352.94723 C250.340249,342.680044 181.234054,269.832085 180.29728,241.817741 L180.29728,211.933404 L205.513744,219.404489 C205.513744,220.339485 206.448741,220.339485 207.38196,220.339485 C210.185172,220.339485 213.919825,219.404489 215.786263,216.603054 C216.717704,213.799842 216.717704,211.001963 216.717704,209.13197 C215.786263,207.265532 214.854821,206.330536 214.854821,205.397317 L158.819023,125.080045 L102.785003,205.395539 C100.92212,208.196973 99.9853464,208.196973 99.9853464,211.000185 C99.9853464,214.734839 100.920343,217.536273 103.72,219.402711 C105.586438,220.337707 108.386094,220.337707 110.25431,220.337707 C110.25431,220.337707 111.189306,220.337707 112.12608,219.402711 L136.407548,211.931627 L136.407548,239.016307 C140.142202,308.120725 225.123785,358.548321 225.123785,402.441608 L225.123785,438.862032 L286.869105,438.849589 L286.869105,402.430942 C286.869105,358.537656 371.856021,308.108282 375.594229,239.003864 L375.594229,211.919184 L399.87392,219.390268 C400.805361,220.325265 401.736802,220.325265 401.736802,220.325265 C403.608573,220.325265 406.40823,220.325265 408.28,219.390268 C411.07788,217.522053 412.014654,214.722396 412.014654,210.985965 C412.012876,208.182753 411.076102,208.182753 409.211442,205.381319 L409.211442,205.381319 Z" id="path18" sketch:type="MSShapeGroup"></path>
        </g>
    </g>
</svg>