<?xml version="1.0" encoding="UTF-8" standalone="no"?>
<svg width="256px" height="256px" viewBox="0 0 256 256" version="1.1" xmlns="http://www.w3.org/2000/svg" xmlns:xlink="http://www.w3.org/1999/xlink" xmlns:sketch="http://www.bohemiancoding.com/sketch/ns">
    <!-- Generator: Sketch 3.3.3 (12081) - http://www.bohemiancoding.com/sketch -->
    <title>pass-either-us</title>
    <desc>Created with Sketch.</desc>
    <defs></defs>
    <g id="Page-1" stroke="none" stroke-width="1" fill="none" fill-rule="evenodd" sketch:type="MSPage">
        <g id="pass-either-us" sketch:type="MSArtboardGroup" fill="#000000">
            <g id="path15-+-path17" sketch:type="MSLayerGroup" transform="translate(60.000000, 93.000000)">
                <path d="M41.9404204,0 L19.198548,28.1216573 L11.7261524,16.8701089 C11.4831656,16.4997933 11.1783521,16.1606918 10.8129599,15.8685604 C8.95364534,14.3816461 6.23432466,14.6751141 4.7389623,16.5241338 C4.14671202,17.2563715 3.8353702,18.1227453 3.79092023,18.9946486 L0,69 L48.3019469,54.5891407 C49.1487045,54.3590634 49.9330593,53.8712231 50.5251214,53.1389853 C52.0208678,51.2897747 51.7251747,48.5851729 49.8658563,47.0987398 C49.5004641,46.8066084 49.1020464,46.5832139 48.6862558,46.4266467 L36.0316424,41.5826123 L58.7738075,13.4611459 L41.9404204,0 L41.9404204,0 Z" id="path15" sketch:type="MSShapeGroup"></path>
                <path d="M93.8537952,0 L116.595284,28.1216573 L124.068256,16.8701089 C124.311147,16.4997933 124.61548,16.1606918 124.981257,15.8685604 C126.840859,14.3816461 129.5597,14.6751141 131.055446,16.5241338 C131.647792,17.2563715 131.958846,18.1227453 132.003008,18.9946486 L135.794216,69 L87.4925529,54.5891407 C86.6457953,54.3590634 85.8614405,53.8712231 85.2690942,53.1389853 C83.7733478,51.2897747 84.069041,48.5851729 85.9286435,47.0987398 C86.2934597,46.8066084 86.6918774,46.5832139 87.1085359,46.4266467 L99.7628574,41.5826123 L77.0204082,13.4611459 L93.8537952,0 L93.8537952,0 Z" id="path17" sketch:type="MSShapeGroup"></path>
            </g>
        </g>
    </g>
</svg>