<?xml version="1.0" encoding="UTF-8" standalone="no"?>
<svg width="256px" height="256px" viewBox="0 0 256 256" version="1.1" xmlns="http://www.w3.org/2000/svg" xmlns:xlink="http://www.w3.org/1999/xlink" xmlns:sketch="http://www.bohemiancoding.com/sketch/ns">
    <!-- Generator: Sketch 3.3.3 (12081) - http://www.bohemiancoding.com/sketch -->
    <title>pavement-ends</title>
    <desc>Created with Sketch.</desc>
    <defs></defs>
    <g id="Page-1" stroke="none" stroke-width="1" fill="none" fill-rule="evenodd" sketch:type="MSPage">
        <g id="pavement-ends" sketch:type="MSArtboardGroup" fill="#000000">
            <path d="M108.00112,41.4260719 L108.00112,214.550518 L148.00112,214.550518 L148.00112,41.4260719 L108.00112,41.4260719 L108.00112,41.4260719 Z M109.473824,42.9856637 L146.560553,42.9856637 L146.560553,128.626868 L109.473824,128.626868 L109.473824,42.9856637 L109.473824,42.9856637 Z M112.766906,94.3698734 C113.159482,94.408628 113.540263,94.5227156 113.884586,94.7048051 C114.267773,94.9057838 114.610881,95.1913701 114.878904,95.5358091 C114.983481,95.7085077 115.136207,95.8319833 115.327801,95.897815 C115.58522,95.9847061 115.862627,95.9459545 116.082385,95.7837244 L117.907584,95.411247 C118.175478,95.5557849 118.490425,95.6016379 118.786608,95.5557849 C119.035843,95.516908 119.227437,95.3348274 119.455376,95.2502229 C120.162908,94.9903914 120.956244,95.3065443 121.653175,95.0292624 C121.978722,94.9057838 122.32183,94.7800218 122.571076,94.5227156 C122.714405,94.3792613 122.781443,94.1782796 122.915387,94.0161718 C123.029361,93.8727175 123.14453,93.7387705 123.287984,93.6247993 C123.517126,93.4437963 123.832082,93.4144297 124.070729,93.2322238 C124.48208,92.9172738 124.787648,92.4777617 124.912204,91.971215 C124.989708,91.6561426 125.08382,91.3212139 124.951004,91.0156519 C124.798287,90.6419686 124.376345,90.5384718 124.051888,90.346875 C123.774606,90.1835643 123.469038,90.1177325 123.192842,89.9556248 C122.943596,89.8109645 122.74382,89.592413 122.485311,89.4584659 C122.226688,89.3243995 121.97877,89.1622888 121.682587,89.1433936 C121.319378,89.114021 121.012616,89.3327009 120.680087,89.4395707 C120.325186,89.5536614 119.981953,89.6864054 119.637633,89.8109645 C119.274421,89.9367296 118.844297,89.9261387 118.538738,90.1741764 C118.175526,90.4703535 118.194418,91.0156519 117.936996,91.3894516 C117.056646,92.6504603 115.260936,92.5434711 114.066839,93.3756781 C113.617817,93.6812431 113.18649,94.0161718 112.766957,94.3698734 L112.766906,94.3698734 Z M132.002035,124.870677 L130.702275,122.940897 C130.348451,122.654102 129.977779,122.39548 129.575816,122.175725 C129.117289,121.926604 128.639026,121.737416 128.141864,121.592759 C127.778655,121.335452 127.349734,121.18261 126.90072,121.153247 C126.461208,121.123874 126.029881,121.220254 125.639712,121.421257 C124.855764,121.058045 123.984924,120.914716 123.12696,121.000518 C122.533402,121.057997 121.959946,121.220275 121.434507,121.488169 L120.774038,121.54584 L120.345117,122.950303 C120.680039,123.447456 121.0808,123.905744 121.539085,124.298319 C122.313645,124.975281 123.231546,125.463049 124.224661,125.741534 C124.921589,126.017738 125.667875,126.141089 126.413069,126.10354 C127.225181,126.065896 128.018385,125.835529 128.72483,125.433569 C129.212482,125.014033 129.804478,124.747216 130.445936,124.669713 C130.970652,124.603858 131.504999,124.679325 132.002035,124.870695 L132.002035,124.870677 Z M113.633059,60.403289 C114.417007,60.574907 115.238503,60.536033 116.002473,60.2975027 C116.996665,59.9919406 117.86763,59.3620377 118.469369,58.5110549 C118.670351,58.2913004 118.918269,58.1090915 119.185076,57.9751445 C119.462484,57.8318096 119.768043,57.7565929 120.084202,57.7272292 C120.265205,57.8035294 120.475574,57.8129143 120.665965,57.747199 C120.924471,57.6601826 121.114862,57.440431 121.183097,57.1818025 L123.351413,56.1417542 C123.504255,56.1417542 123.656972,56.0641346 123.7346,55.9301816 C123.809796,55.8068255 123.809796,55.6445984 123.744242,55.5106484 C123.332891,55.2426349 122.989658,54.8794231 122.749924,54.4493019 C122.597198,54.1824915 122.492496,53.8864337 122.434968,53.5807493 C122.44461,53.4080507 122.405596,53.2458205 122.329188,53.0930977 C122.262177,52.9590313 122.166958,52.8533644 122.042393,52.7675569 C121.764994,52.6346934 121.537055,52.4243238 121.392514,52.1469225 C121.249057,51.8790255 121.202123,51.5734634 121.249057,51.2772863 C121.09634,51.0950774 120.877663,50.9904941 120.63793,50.9904941 C120.408787,50.9904941 120.189033,51.0950774 120.045575,51.2666954 L117.514057,53.512631 C117.035793,53.8864337 116.510354,54.1824915 115.955665,54.4023654 C115.286894,54.6690565 114.569974,54.8125108 113.85427,54.8418745 C113.681565,54.8031229 113.500562,54.8700232 113.375881,55.0041046 C113.279602,55.1180728 113.232552,55.2614077 113.251325,55.41425 L113.881344,56.0735166 C114.082326,56.1417602 114.235052,56.294477 114.312671,56.4942558 C114.387864,56.6952375 114.35956,56.9244994 114.24441,57.1065859 L113.901293,58.7403138 L113.633283,60.403283 L113.633059,60.403289 Z M144.134334,68.7206723 L143.788937,68.8264586 C143.444739,68.921657 143.092118,68.9886857 142.738298,69.0462131 C141.792358,69.1896675 140.827168,69.3423903 139.890859,69.1038569 C139.537035,69.0168494 139.20367,68.8641207 138.869103,68.7312572 C137.952049,68.3775557 137.081932,67.9179454 136.163676,67.5748318 C135.735235,67.4113987 135.304389,67.2692667 134.863916,67.1258124 C134.597947,67.068288 134.31874,67.1740773 134.157471,67.3926259 C134.043141,67.554853 133.995002,67.7652226 134.043141,67.9568164 L134.081651,69.0850811 L133.928809,70.5470716 C133.795223,70.9865837 133.899914,71.4543759 134.195984,71.7986925 C134.435475,72.065503 134.76884,72.2277331 135.132293,72.2477119 L137.646365,72.9821951 C137.836517,73.3747706 138.151828,73.6803357 138.553791,73.8437688 C138.907615,73.9964886 139.308373,74.0152644 139.68025,73.9189914 C140.207376,73.8906933 140.741719,73.9189914 141.258015,74.0152704 C141.629889,74.0810961 142.00297,74.1774975 142.36642,74.3114445 C142.595082,74.398452 142.833371,74.398452 143.064438,74.3114445 C143.291897,74.225634 143.474826,74.0635293 143.587955,73.8531596 L143.799766,71.6459756 L144.526671,69.3517782 C144.71682,69.2565857 144.792639,69.0074615 144.679513,68.8264586 C144.563977,68.6360678 144.306433,68.5879283 144.134334,68.7206723 L144.134334,68.7206723 Z M134.256159,45.6724367 C134.351184,45.567734 134.389745,45.4150112 134.351184,45.2715568 C134.285042,45.0130477 133.998563,44.8697128 133.749445,44.983684 C132.774622,44.983684 131.799803,45.0130567 130.824983,45.0706915 C129.344095,45.1563797 127.863218,45.3092219 126.390636,45.5289764 C125.674923,45.7570353 125.024925,46.1600823 124.50899,46.712479 C124.030727,47.2202287 123.687494,47.8407437 123.495897,48.5095206 L124.069478,51.9224725 C124.40441,52.1986709 124.853426,52.3044572 125.27296,52.2080588 C125.685514,52.1222453 126.027428,51.8543572 126.228409,51.4923484 C127.7951,50.4698699 129.553258,49.7717294 131.399042,49.4368006 C131.723983,49.3803628 132.057348,49.3322203 132.383492,49.2933463 C132.592897,49.1218507 132.784252,48.9220719 132.927465,48.6916071 C133.176586,48.2908467 133.308969,47.8231739 133.290918,47.3529728 C133.308918,47.1438091 133.366687,46.9334395 133.44376,46.7324578 C133.606229,46.3129245 133.892657,45.9391218 134.256108,45.6724307 L134.256159,45.6724367 Z M145.346242,52.0847056 C144.71682,51.6157105 144.124707,51.0997788 143.587955,50.5274003 C143.243758,50.1631079 142.92965,49.7811232 142.632389,49.3803628 C142.48075,49.2851733 142.318281,49.2076642 142.146182,49.1312416 C141.629889,48.911487 141.076287,48.7973964 140.521484,48.7973964 L138.619981,47.7267785 C138.236071,47.5176148 137.749864,47.5833242 137.44418,47.8983965 C137.244401,48.0993782 137.148122,48.3672722 137.157752,48.6446736 C137.00491,49.0172733 136.785875,49.360387 136.50787,49.6471762 C136.145623,50.0208565 135.705149,50.287667 135.20811,50.4405092 C134.845862,50.2688942 134.453529,50.6225957 134.596744,50.9951955 C134.69302,51.252621 134.998705,51.3665893 135.236996,51.2243379 C136.211816,51.2137411 137.186635,51.3665893 138.113315,51.6639694 C139.002688,51.9507586 139.852346,52.3714978 140.617763,52.9062023 C140.960754,53.2694142 141.428907,53.4985566 141.925947,53.5654719 C142.213578,53.6043399 142.500006,53.5855611 142.776807,53.5079445 L145.346242,52.0847056 L145.346242,52.0847056 Z M122.730898,66.5546458 L122.091484,65.9728824 C121.966928,65.6943975 121.804815,65.4463599 121.622606,65.2066266 C121.460379,64.9974599 121.268782,64.815254 121.067803,64.643636 L119.998388,64.6919009 L119.033437,63.879792 L117.418604,63.8221393 C116.768726,63.6011818 116.081179,63.53535 115.401811,63.6399334 C114.599087,63.7646149 113.844631,64.1077255 113.232298,64.643636 C113.013747,64.7681981 112.840926,64.9691798 112.735136,65.1972387 C112.630559,65.436972 112.602395,65.7131703 112.659941,65.9728824 C112.792807,66.2878324 112.907975,66.6122926 112.984401,66.9472214 C113.060749,67.2727622 113.108957,67.5960195 113.12773,67.9203573 C113.137371,68.2082301 113.261683,68.4750406 113.472052,68.6666344 C113.663646,68.8394554 113.911678,68.9346508 114.170187,68.9346508 L116.262203,68.8488463 L117.379871,69.2402188 L118.03914,69.0580129 L118.994703,69.3835538 L119.377891,69.2683826 L120.055933,68.390442 L122.730919,66.5546518 L122.730898,66.5546458 Z M137.11563,56.4167556 C136.647474,56.2157739 136.179321,55.987715 135.74005,55.7280029 C135.252641,55.4518046 134.794114,55.1356516 134.353641,54.792538 C133.732642,54.5351154 133.073134,54.3529095 132.402796,54.2577141 C131.171634,54.0756276 129.910384,54.170823 128.716532,54.5351154 C128.543827,54.4963638 128.352234,54.5245186 128.199391,54.610338 C128.018385,54.7161213 127.884447,54.8889423 127.846899,55.098106 C128.046674,55.1556334 128.209982,55.2990877 128.29459,55.4800907 C128.428659,55.7479877 128.390985,56.0535497 128.19937,56.2828146 L128.648396,57.7072534 L129.384079,58.0515701 L129.393691,58.7379168 L129.89976,59.1011286 C130.044178,59.1986106 130.197021,59.2644393 130.35949,59.3031909 C130.465395,59.331489 130.579728,59.3514558 130.694057,59.3514558 C131.056305,59.1304983 131.457065,58.9682682 131.879488,58.8730727 C132.233312,58.7955696 132.58593,58.7672865 132.949384,58.7860563 C133.215352,58.7379168 133.484933,58.6720851 133.742478,58.5850746 C133.943459,58.5193652 134.134811,58.4417397 134.324964,58.3477472 C134.688414,58.0797338 135.051865,57.791861 135.396062,57.5062747 C135.671657,57.2770099 135.949662,57.0372766 136.216836,56.7904419 L137.115836,56.4167616 L137.11563,56.4167556 Z M120.824583,73.9200749 C120.671741,73.8342704 120.519015,73.7673521 120.356785,73.7190932 C119.63049,73.4911538 118.904183,73.8248795 118.187272,73.9589459 C117.175385,74.1504203 116.276259,74.7804427 115.244396,74.8662502 C114.862408,74.9050018 114.471039,74.7804486 114.087848,74.8756829 C113.715377,74.9708753 113.304025,75.0860525 113.074758,75.4209812 C112.808067,75.8029659 112.950201,76.2801459 112.989069,76.719658 C113.037209,77.3319881 113.447354,77.8467198 113.506085,78.4602528 C113.534383,78.7845906 113.52495,79.1101345 113.495607,79.4345917 C113.447369,79.8834917 113.246361,80.303025 113.199424,80.7520443 C113.171126,80.9917776 113.171126,81.2209201 113.16178,81.4595698 C113.14184,81.9767074 113.16178,82.4914361 113.1043,82.9979799 C113.066656,83.303545 112.904399,83.5915372 112.950255,83.8971022 C112.989153,84.1156538 113.027857,84.3553871 113.210084,84.5082293 C113.495673,84.7467596 113.868147,84.5646672 114.184306,84.4799313 C114.670868,84.3459842 114.948276,83.8582133 115.3784,83.6290709 C116.658298,82.9509091 118.196714,83.6573689 119.535342,83.1989467 C120.117106,82.997965 120.844613,82.9885771 121.207825,82.4349744 C121.54275,81.9284306 121.371132,81.3067127 121.332381,80.7426385 C121.264119,79.8541101 120.766984,79.0807529 120.548433,78.2298895 C120.356839,77.4942033 120.012528,76.7677796 120.071256,75.9933388 C120.127675,75.2493482 120.386203,74.5312289 120.824637,73.9201018 L120.824583,73.9200749 Z M125.330535,62.2225929 L126.172133,63.8092619 C126.354216,64.0948481 126.477692,64.420392 126.525831,64.7541177 C126.572911,65.0890465 126.543562,65.4428704 126.449388,65.7684112 L126.066314,67.7169667 C125.72308,68.5479707 126.075925,69.5034174 126.878422,69.9053779 C127.528304,70.2309217 128.312249,70.1157475 128.837572,69.6092037 L130.06079,68.2224299 C130.271401,67.7933893 130.500063,67.3832439 130.757608,66.9812805 C130.96942,66.6557367 131.188455,66.3407867 131.427946,66.0352217 L132.7939,65.4628462 C133.081531,65.3852176 133.318616,65.166669 133.434152,64.8881841 C133.530428,64.6601253 133.530428,64.4004132 133.434152,64.1723543 L133.138094,63.0253138 C132.994878,62.8724716 132.81195,62.7585033 132.621801,62.6903851 C132.441279,62.6233563 132.240297,62.5951956 132.048942,62.6151624 L128.895216,62.2990095 C128.684729,62.2990095 128.474363,62.2707413 128.265196,62.2225929 C128.00669,62.1650655 127.758649,62.0698701 127.518916,61.9451915 L126.458773,61.2095023 C126.143817,60.9227131 125.646664,60.9520768 125.369382,61.27654 C125.140114,61.5433535 125.120135,61.9358066 125.330487,62.2225988 L125.330535,62.2225929 Z M141.621465,60.403289 L139.050828,61.2824325 L137.856973,62.4094942 C137.521203,62.6962835 137.282914,63.0687608 137.167379,63.4990044 C137.062676,63.8997648 137.08198,64.3111162 137.207142,64.7024887 L137.329898,65.706072 C137.464687,65.9541096 137.674093,66.1644762 137.922011,66.2984232 C138.285462,66.499405 138.706681,66.5381566 139.099015,66.4229853 L140.312126,65.8695021 C140.770653,66.0316128 141.258063,66.0798717 141.73464,65.9928612 C142.051157,65.9353338 142.366468,65.8307505 142.643269,65.6685233 L144.75538,64.0055511 C144.937106,63.6810909 145.023755,63.3074106 145.023755,62.9348138 C145.023755,62.5622141 144.917849,62.2097155 144.737327,61.8841747 L144.047732,60.8521889 C143.952704,60.6994661 143.819071,60.5842919 143.656602,60.4984844 C143.513386,60.4220677 143.340084,60.3833132 143.178819,60.3833132 L142.537364,60.6324314 L141.621513,60.403289 L141.621465,60.403289 Z M143.094527,114.645779 C142.655257,114.559996 142.242461,114.358981 141.909096,114.064013 C141.699691,113.881807 141.527592,113.662049 141.394007,113.414009 C141.087119,113.126136 140.705615,112.926357 140.303652,112.820577 C139.893264,112.715988 139.463624,112.706603 139.041201,112.801801 C138.477972,113.012171 137.887062,113.144909 137.282914,113.202562 C136.719685,113.261292 136.146826,113.250701 135.583596,113.174264 C135.382618,113.001571 135.08656,113.012162 134.895205,113.183905 C134.770043,113.288491 134.712276,113.450722 134.721906,113.614155 C134.904834,113.872661 135.017961,114.168835 135.057677,114.474406 C135.105816,114.893939 135.018009,115.325266 134.790502,115.687275 C135.707555,116.661614 136.988059,117.197519 138.32513,117.188131 C139.405855,117.178489 140.456494,116.796758 141.297728,116.118602 C141.498709,115.802443 141.745425,115.526248 142.024632,115.286515 C142.33874,115.019698 142.700988,114.798738 143.094527,114.646021 L143.094527,114.645779 Z M145.000842,91.5104018 L145.094712,90.9838793 C144.915395,90.8311564 144.742094,90.6689293 144.580828,90.4973113 C144.322077,90.2106414 144.178864,89.8286568 143.91169,89.5418675 C143.642112,89.2644662 143.346055,89.0071601 143.001857,88.8249541 C142.650442,88.6345633 142.267735,88.4912284 141.866975,88.4712496 C141.608227,88.4523544 141.330223,88.4042119 141.101561,88.5487558 C140.872899,88.6827028 140.794673,88.9495133 140.680344,89.1798587 C140.488989,89.5418675 140.366233,89.943831 140.318093,90.3539763 C140.223068,91.1367215 140.030462,91.9029773 139.754864,92.637583 C139.544255,93.2004512 139.275881,93.736481 138.971399,94.2534992 L137.823278,95.7625427 C137.662009,96.2597015 137.652383,96.7945284 137.805278,97.3021587 C137.928035,97.7124235 138.159102,98.0849038 138.464787,98.3904659 C138.818611,98.5914476 139.179656,98.7736535 139.563566,98.9264957 C139.936646,99.0698307 140.30852,99.1931898 140.700857,99.2883852 L141.694933,100.226256 L141.799636,98.7066218 C141.818889,97.9886248 141.981361,97.2916872 142.267789,96.6323012 C142.468771,96.1834013 142.793712,95.8108045 143.022373,95.3806804 C143.193266,95.065608 143.346108,94.7506551 143.49895,94.4251143 L145.000896,91.5104018 L145.000842,91.5104018 Z M132.349841,100.954966 L131.106647,99.1685186 C130.562671,98.5761643 129.769577,98.2600084 128.966856,98.2988823 C128.33575,98.3270311 127.734011,98.5856716 127.266213,99.0157957 C127.208638,99.7596669 127.104108,100.506066 126.941881,101.241756 C126.778564,101.978648 126.568195,102.694358 126.301387,103.392499 L125.852365,106.048586 C125.736107,106.52576 125.784199,107.032312 125.995819,107.471822 C126.167434,107.825645 126.42474,108.12182 126.750287,108.341574 C127.142863,108.714171 127.620037,108.991453 128.134769,109.13491 C128.488592,109.230129 128.862267,109.278248 129.233664,109.250087 C129.635991,109.34648 130.065635,109.250087 130.380946,108.982068 C130.657747,108.752923 130.821422,108.408612 130.839473,108.046606 L130.829831,107.214518 L130.983876,106.535148 L131.153566,105.560931 L131.8913,102.28421 L132.349826,100.954966 L132.349841,100.954966 Z M141.621465,110.313723 L142.060736,108.441462 C142.14623,108.325091 142.223205,108.191138 142.280974,108.058274 C142.500006,107.561235 142.337585,107.017023 142.280974,106.501094 C142.241306,106.089743 142.203951,105.678389 142.051109,105.287019 C141.87901,104.838119 141.602209,104.427852 141.258015,104.083535 C141.06666,103.901329 140.866881,103.739221 140.635813,103.605274 C140.339759,103.595752 140.044904,103.595752 139.748849,103.614617 C138.592301,103.673348 137.0711,103.117459 136.374285,104.303251 C136.241902,104.521922 136.145623,104.772246 136.098689,105.01908 C136.385117,105.335236 136.451307,105.793521 136.279211,106.175506 C136.193714,106.3671 136.05055,106.519826 135.877248,106.634994 C135.877248,106.797224 135.897666,106.959454 135.936169,107.121568 C136.107065,107.876149 136.661868,108.487279 137.387569,108.746988 C138.180663,109.147749 139.021897,109.442717 139.890811,109.624926 C140.273518,109.702525 140.693532,109.60615 141.047356,109.797744 C141.27722,109.921106 141.468575,110.103312 141.621418,110.313682 L141.621465,110.313723 Z M129.749118,74.2667975 C128.879965,74.5535867 127.991428,74.7827292 127.084132,74.9461623 C126.262636,75.0988851 125.277706,74.6405972 124.590153,75.2411364 C124.426845,75.3844714 124.255227,75.5279257 124.169414,75.7289074 C124.073021,75.9674377 124.09297,76.2260662 124.159772,76.4645936 C124.198572,76.6079285 124.30311,76.7137148 124.341978,76.8571721 C124.446567,77.2108737 124.16916,77.5634946 124.227888,77.9265841 C124.321856,78.4813897 124.761511,78.8633744 125.115222,79.2747257 C125.411393,79.6190394 125.670025,80.0385757 126.109537,80.2008028 C126.60669,80.3923966 127.130812,80.2113996 127.627965,80.0868345 C128.832646,79.7894544 129.922165,79.073744 130.495022,77.9560702 C130.752567,77.4589113 130.935495,76.9134936 130.925868,76.3506254 C130.925868,76.1296649 130.916256,75.9203818 130.848846,75.7100122 C130.773074,75.4796668 130.638237,75.2705001 130.467341,75.0988851 L129.748864,74.2667975 L129.749118,74.2667975 Z M143.961032,125.304294 L144.151184,124.387598 C144.266717,124.043288 144.189694,123.660097 143.940573,123.393281 C143.692658,123.115999 143.311154,123.010219 142.946497,123.106611 L139.450385,122.522442 C139.191634,122.333254 138.876323,122.22627 138.552585,122.236861 C138.37086,122.246473 138.198764,122.285001 138.03509,122.350827 C137.960473,122.522442 137.902707,122.70465 137.854567,122.88674 C137.816057,123.058358 137.788425,123.240564 137.777545,123.421567 C137.586193,123.441596 137.423721,123.564899 137.347901,123.737717 C137.270878,123.899831 137.280508,124.082039 137.367154,124.234882 L137.54888,125.037477 L137.624747,125.886057 L138.753615,126.307999 L140.94034,126.44194 C141.389239,126.191616 141.858596,125.973065 142.335176,125.792062 C142.862298,125.59108 143.406274,125.427772 143.96108,125.304294 L143.961032,125.304294 Z M138.327535,43.9388209 C138.568233,44.1691663 138.737923,44.4547526 138.824575,44.7709085 C138.882341,44.9801945 138.911224,45.1999491 138.891968,45.4209096 C139.245792,46.1072533 139.848737,46.6431638 140.574435,46.9099772 C141.184601,47.1403226 141.845312,47.1696893 142.475938,46.9968683 L144.769774,47.0263603 C144.912987,47.1403316 145.123598,47.1309437 145.26681,47.0157635 C145.419653,46.8829 145.456963,46.6619396 145.341427,46.4903245 L144.961126,45.0764735 C145.160905,44.8754918 145.140445,44.5311752 144.912987,44.3595601 C144.712005,44.2068373 144.435206,44.235001 144.263108,44.4172129 C143.488064,44.7803024 142.648036,44.9718962 141.786343,44.9802005 C140.555182,44.9989763 139.351697,44.6275795 138.327535,43.9388269 L138.327535,43.9388209 Z M130.183576,161.524279 L130.183576,181.652143 L124.355115,181.652143 L124.355115,161.524279 L130.183576,161.524279 L130.183576,161.524279 Z M130.356878,130.070083 L130.356878,150.199516 L124.527811,150.199516 L124.527811,130.070083 L130.356878,130.070083 L130.356878,130.070083 Z M130.356878,192.976906 L130.356878,213.107545 L124.527811,213.107545 L124.527811,192.976906 L130.356878,192.976906 L130.356878,192.976906 Z M129.143161,92.7233905 C129.535736,92.8279738 129.94649,92.8667254 130.347248,92.8573405 C130.710702,92.8467436 131.083779,92.8373707 131.418346,92.6845195 C131.627752,92.5799362 131.838363,92.4659679 131.991206,92.2743711 C132.210238,91.9981727 132.192187,91.6151045 132.268007,91.2800564 C132.449732,90.4491718 132.325773,89.590007 132.430476,88.7485315 C132.526755,88.0410061 132.488242,87.3053169 132.82281,86.6554382 C132.937142,86.4355613 133.138124,86.2828384 133.213943,86.0443081 C133.290966,85.7856796 133.357156,85.4895054 133.213943,85.2415872 C133.061101,84.9735708 132.745787,84.8971512 132.458156,84.8302359 C132.240327,84.7831859 132.009256,84.819639 131.790224,84.8302359 C131.236621,84.8677845 130.729955,85.1075178 130.184779,85.1933283 C129.611923,85.2885177 128.962158,85.0406055 128.445026,85.3743312 C128.264023,85.4988903 128.053653,85.6046766 127.96784,85.8233506 C127.89265,86.014825 127.986705,86.2158037 127.996138,86.4155825 C128.044277,87.123111 128.130079,87.8318394 128.282921,88.527574 C128.398101,89.0823767 128.694273,89.590007 128.733024,90.1529946 C128.761143,90.5820352 128.714248,91.0227502 128.608468,91.4422865 L129.14317,92.7233905 L129.143161,92.7233905 Z M129.315982,116.205368 C129.212482,116.024362 129.163139,115.813996 129.183115,115.603626 C129.212488,115.345003 129.45932,115.173502 129.546327,114.934855 C129.660059,114.599923 129.871874,114.208548 129.6324,113.884213 C129.45934,113.653867 129.163157,113.634966 128.906941,113.568054 C128.3135,113.634966 127.711761,113.664333 127.110021,113.673846 C126.402499,113.683488 125.68558,113.644384 124.978057,113.577442 C124.806442,113.625581 124.6536,113.739556 124.549011,113.884213 C124.44323,114.027545 124.396294,114.208548 124.405682,114.389551 L124.644212,114.867817 L124.482098,115.880908 L125.08384,116.530912 L125.752495,117.065616 C126.411887,117.391163 127.166343,117.438213 127.864489,117.219662 C128.093629,117.14206 128.302909,117.046841 128.503891,116.92349 C128.485025,116.731894 128.562621,116.5403 128.695368,116.396962 C128.857598,116.234732 129.086741,116.157112 129.316,116.205368 L129.315982,116.205368 Z M141.793564,78.945573 L141.717792,78.0853247 C141.479504,77.8666508 141.202702,77.6939522 140.897018,77.5881659 C139.969132,77.2649116 139.003942,77.6363054 138.297497,78.2769185 C137.504403,78.9938319 137.560966,80.1314845 137.408124,81.1152084 C137.245655,82.1281795 137.226399,83.1695532 137.380393,84.1826437 C137.408124,84.3930103 137.435753,84.6033799 137.494722,84.8125466 C137.560868,85.0711751 137.647565,85.3390691 137.79078,85.5682116 C138.183114,86.1994368 138.840216,86.6671096 139.597207,86.6095852 C140.007594,86.5812872 140.399928,86.4086035 140.715242,86.1324051 C140.98121,85.8938748 141.238755,85.6152675 141.286895,85.2532616 C141.335034,84.9383087 141.02935,84.6692117 141.059436,84.3542587 C141.077436,84.1261999 141.202652,83.9146273 141.278471,83.7042606 C141.374747,83.4563424 141.546846,83.2270776 141.592579,82.9591835 C141.640719,82.6536185 141.536064,82.3480564 141.487877,82.0518793 C141.412009,81.5840841 141.297725,81.1152084 141.144882,80.666189 C141.011297,80.2360649 141.077489,79.7682727 141.326608,79.3945924 C141.450567,79.2135865 141.603409,79.0607442 141.793561,78.945573 L141.793564,78.945573 Z M112.420189,49.6577671 C112.401414,49.9445563 112.420189,50.2312262 112.4872,50.5180154 C112.554113,50.8048046 112.659902,51.0915939 112.802156,51.3490194 C113.346243,52.0376497 114.235983,52.3619905 115.095145,52.1904919 C115.745023,52.0659328 116.309101,51.6733573 116.653537,51.1103697 C116.921431,50.7860288 117.074273,50.3758834 117.074273,49.9445563 C117.074273,49.667152 117.006011,49.3815657 116.882679,49.1324475 C116.443167,48.5400932 116.184535,47.8325648 116.156375,47.0967562 C116.137599,46.5714366 116.223383,46.0367291 116.424269,45.5489582 C116.778093,44.8803037 116.394896,44.0586876 115.649834,43.8953769 C115.286622,43.8201542 114.904754,43.9247495 114.627356,44.1821661 C114.522769,44.4218994 114.398213,44.640451 114.235983,44.8414327 C114.111418,45.0036628 113.967964,45.1469977 113.805859,45.2810641 C113.576591,45.3479765 113.375609,45.4725385 113.213505,45.6441536 C113.003135,45.874502 112.87857,46.180064 112.87857,46.495017 L112.420169,49.6577671 L112.420189,49.6577671 Z M112.420189,124.438144 L113.366242,123.998632 C113.662422,124.179638 114.025634,124.237162 114.360557,124.141973 C114.532175,124.093833 114.70379,124.00802 114.837743,123.883464 L115.917862,123.749397 L115.878967,123.147655 L116.013034,121.934786 L116.921422,119.936882 C117.122403,119.793428 117.178841,119.506641 117.035512,119.296275 C116.910831,119.115269 116.6723,119.038968 116.472525,119.124773 C116.21389,119.219992 115.936608,119.25752 115.65921,119.248135 C115.325481,119.230434 115.010409,119.134161 114.723739,118.971931 L113.452026,119.085905 L112.9267,119.430341 C112.677579,119.353898 112.410772,119.45855 112.276822,119.68885 C112.172119,119.869853 112.172119,120.089608 112.286433,120.271817 L112.506188,120.979339 C112.764697,121.197891 112.936315,121.494071 113.003353,121.818406 C113.051492,122.067652 113.040901,122.326158 112.965709,122.574193 L112.420413,124.438144 L112.420189,124.438144 Z M113.460354,115.685828 C113.832834,115.581241 114.185455,115.437912 114.520381,115.256906 C114.892978,115.054722 115.140896,114.663349 115.542857,114.520011 C115.972984,114.367166 116.440782,114.499982 116.881497,114.443565 C117.043724,114.424789 117.205954,114.356527 117.37865,114.367118 C117.569041,114.37676 117.759432,114.424792 117.93225,114.519963 C118.009756,114.262541 118.055612,114.005235 118.055612,113.736012 C118.055612,113.220084 117.912274,112.714737 117.62669,112.28341 C117.024951,111.586478 116.135211,111.193903 115.207934,111.232654 C114.263075,111.271552 113.392119,111.739195 112.838636,112.50437 C112.75285,112.867463 112.771625,113.257749 112.896208,113.612659 C112.981995,113.860577 113.115966,114.089836 113.287581,114.290818 L113.449811,114.9407 L113.460408,115.68578 L113.460354,115.685828 Z M119.005273,48.1850663 L119.770332,48.0229556 L121.107883,47.8890086 L121.355798,47.2296226 L121.966928,47.2296226 C122.130361,47.1814831 122.254915,47.0474137 122.292463,46.885306 C122.359474,46.6372683 122.21602,46.3881471 121.977519,46.3035426 L122.11146,45.2316023 C122.407643,45.0318235 122.464081,44.6204722 122.236142,44.3537811 C122.063321,44.1422085 121.77774,44.0763798 121.528619,44.190348 C121.308739,44.3338024 121.040842,44.4019206 120.783423,44.363169 C120.487243,44.3242921 120.218143,44.1621873 120.038343,43.9235376 L118.213143,43.7977725 L118.82427,44.3913298 L119.282558,45.0976523 L119.23567,46.225917 L119.005324,48.1850663 L119.005273,48.1850663 Z M119.612917,105.37403 L120.443802,105.613763 C120.7975,105.699568 121.179485,105.660816 121.503942,105.489204 C121.762451,105.355257 121.971618,105.16366 122.115072,104.915622 L122.267798,104.571309 L122.81309,104.170548 C122.632213,103.893147 122.516919,103.587582 122.46878,103.262041 C122.42064,102.947088 122.440571,102.632138 122.516919,102.326573 L122.183187,101.809439 C122.220835,101.656596 122.211396,101.494366 122.153815,101.341643 C122.105675,101.217084 122.020951,101.102994 121.915168,101.017306 L121.188864,100.950268 L120.701212,100.797426 C120.615429,100.739898 120.50023,100.73051 120.405041,100.788083 C120.281562,100.863305 120.242811,101.017347 120.300452,101.140703 L120.080581,102.73676 C119.879599,102.86132 119.745649,103.061098 119.689208,103.291444 C119.659836,103.405415 119.659836,103.53118 119.679596,103.645268 C119.745452,103.816766 119.784174,104.00836 119.803075,104.189363 C119.841874,104.591326 119.774777,105.001472 119.612684,105.374072 L119.612917,105.37403 Z" id="path17" sketch:type="MSShapeGroup"></path>
        </g>
    </g>
</svg>