<?xml version="1.0" encoding="UTF-8" standalone="no"?>
<svg width="512px" height="512px" viewBox="0 0 512 512" version="1.1" xmlns="http://www.w3.org/2000/svg" xmlns:xlink="http://www.w3.org/1999/xlink" xmlns:sketch="http://www.bohemiancoding.com/sketch/ns">
    <!-- Generator: Sketch 3.2.2 (9983) - http://www.bohemiancoding.com/sketch -->
    <title>pedestrian</title>
    <desc>Created with Sketch.</desc>
    <defs></defs>
    <g id="symbols" stroke="none" stroke-width="1" fill="none" fill-rule="evenodd" sketch:type="MSPage">
        <g id="pedestrian" sketch:type="MSArtboardGroup" fill="#000000">
            <g id="PedestrianSymbol" sketch:type="MSLayerGroup" transform="translate(178.145644, 111.794834)">
                <circle id="Oval" sketch:type="MSShapeGroup" cx="73.1296851" cy="23.0070919" r="23.0070919"></circle>
                <path d="M4.93009113,155.297871 C67.2409665,58.0655164 61.3522438,55.3265796 84.633231,54.6418433 C98.1909816,55.0526843 98.6018226,58.7502526 121.608915,76.8272534 C149.956939,97.6431951 147.902734,97.9170863 147.491893,120.787233 C147.354947,148.313575 149.272202,146.25937 127.360687,156.530393 L127.360687,110.105369 L108.051164,92.8500496 L108.051164,158.173757 L62.03698,157.762916 L61.6261391,105.996959 C23.8287738,164.336371 26.2938194,161.049644 4.93009113,155.297871 L4.93009113,155.297871 Z M62.8586619,164.747212 L107.640323,164.747212 C107.640323,175.018235 110.92705,174.196553 134.755824,218.978214 C159.817121,265.129344 160.227962,261.979566 145.848529,288.410331 L83.8115492,177.07244 C25.0612966,290.738431 32.4564333,287.314754 0,285.123604 L32.4564333,224.319146 C60.2566707,174.059608 61.7630847,173.922658 62.8586619,164.747212 L62.8586619,164.747212 Z" id="Shape" sketch:type="MSShapeGroup"></path>
            </g>
        </g>
    </g>
</svg>