<?xml version="1.0" encoding="UTF-8" standalone="no"?>
<svg width="512px" height="512px" viewBox="0 0 512 512" version="1.1" xmlns="http://www.w3.org/2000/svg" xmlns:xlink="http://www.w3.org/1999/xlink" xmlns:sketch="http://www.bohemiancoding.com/sketch/ns">
    <!-- Generator: Sketch 3.2.2 (9983) - http://www.bohemiancoding.com/sketch -->
    <title>pedestrians</title>
    <desc>Created with Sketch.</desc>
    <defs></defs>
    <g id="symbols" stroke="none" stroke-width="1" fill="none" fill-rule="evenodd" sketch:type="MSPage">
        <g id="pedestrians" sketch:type="MSArtboardGroup" fill="#000000">
            <g id="Group" sketch:type="MSLayerGroup" transform="translate(140.000000, 97.000000)">
                <ellipse id="Oval" sketch:type="MSShapeGroup" cx="62.0478713" cy="24.0754834" rx="23.6671099" ry="23.6613431"></ellipse>
                <ellipse id="Oval" sketch:type="MSShapeGroup" cx="170.266231" cy="150.56116" rx="21.1424772" ry="21.1373255"></ellipse>
                <path d="M40.2771903,226.896678 L40.908504,296.291304 C40.9619946,302.196846 57.9465094,303.162552 57.9465094,296.291304 L57.9465094,226.896678 L40.2771903,226.896678 Z M64.6726434,226.896678 L65.3045791,311.431057 C65.3785952,321.33125 82.3419625,321.668904 82.3419625,311.431057 L82.3419625,226.896678 L64.6726434,226.896678 Z M0.389983914,220.376144 L122.64652,221.045236 C117.835475,196.214848 116.55481,174.3164 80.0362681,142.75592 L79.8129759,92.3483236 L82.9365791,92.3483236 C91.5746917,110.334203 102.423335,127.216951 108.814842,146.32586 C107.388011,150.894462 103.568408,153.775411 108.814842,163.053772 L154.326649,204.986415 L148.080064,315.168891 C148.080064,319.532288 162.358327,320.498616 162.358327,315.168891 L167.347882,263.298745 L178.421684,263.422489 L186.45274,308.700591 C186.45274,313.758575 202.292804,312.517398 202.292804,307.808883 L194.038456,258.73947 L206.978209,258.73947 L197.830692,212.346423 L224.156161,243.794973 C228.440386,241.888435 232.927378,240.317686 231.072622,228.182006 L192.030692,180.897251 C183.850981,181.939442 178.249394,185.127577 167.489694,184.020094 C144.947131,181.427674 136.977651,164.26448 121.754595,154.354337 C135.492976,146.336431 121.219067,125.989454 109.117748,103.099805 C99.0988311,84.1482203 93.9313887,64.9174327 66.8719786,60.2313041 L52.81763,60.4539201 C29.4005576,69.3672651 25.6095657,83.4847251 19.5756997,97.0332086 C18.8168794,98.7376511 17.2034531,108.188259 17.243882,115.414573 C17.2917748,124.047472 19.1701662,135.647754 19.798992,137.403809 C22.6507882,145.36575 23.2416729,154.224374 28.960815,157.066148 C7.78537265,181.504782 4.6244504,199.925322 0.389983914,220.376144 L0.389983914,220.376144 Z M36.9781877,92.3483236 L43.0014799,93.9109883 L43.0014799,142.533304 L37.0366542,148.356764 C31.3933941,111.812298 31.6788847,129.719827 36.9781877,92.3483236 L36.9781877,92.3483236 Z" id="Shape" sketch:type="MSShapeGroup"></path>
            </g>
        </g>
    </g>
</svg>