<?xml version="1.0" encoding="UTF-8" standalone="no"?>
<svg width="256px" height="256px" viewBox="0 0 256 256" version="1.1" xmlns="http://www.w3.org/2000/svg" xmlns:xlink="http://www.w3.org/1999/xlink" xmlns:sketch="http://www.bohemiancoding.com/sketch/ns">
    <!-- Generator: Sketch 3.3.3 (12081) - http://www.bohemiancoding.com/sketch -->
    <title>pedestrian-crossing-au</title>
    <desc>Created with Sketch.</desc>
    <defs></defs>
    <g id="Page-1" stroke="none" stroke-width="1" fill="none" fill-rule="evenodd" sketch:type="MSPage">
        <g id="pedestrian-crossing-au" sketch:type="MSArtboardGroup" fill="#000000">
            <g id="Group" sketch:type="MSLayerGroup" transform="translate(45.000000, 67.000000)">
                <path d="M44.3704272,0.597536058 L62.0628096,0.597536058 L73.3908608,22.7914127 L39.5030638,96.205397 L7.86070715,81.3168265 L44.3704272,0.597536058 L44.3704272,0.597536058 Z" id="path3832" sketch:type="MSShapeGroup"></path>
                <path d="M12.4724559,108.606391 L14.0635396,105.703544 C18.0883031,107.483359 19.4933844,108.512246 22.3954296,112.352071 C25.1114723,115.817552 30.915559,118.343812 35.1263214,119.655136 C46.1742541,123.214762 47.4852157,114.131883 44.0206928,112.257922 C37.2798828,108.512246 30.7273159,101.209177 30.2589579,95.0291448 C20.9903447,95.0291448 13.6892977,90.2523406 9.66453408,85.3836282 C3.48620545,87.5377885 2.36124271,92.2182056 2.08112053,98.9608749 L0.490040516,102.988992 L12.4724559,108.606391 L12.4724559,108.606391 Z" id="path3834" sketch:type="MSShapeGroup"></path>
                <path d="M137.639289,116.148018 L136.422447,113.05688 C140.44721,111.185164 142.132414,110.810819 146.907898,111.091015 C151.306904,111.373456 157.016871,108.656662 160.855635,106.316452 C170.684486,100.228324 164.6944,93.3937464 160.949755,94.7050702 C153.740587,97.3254765 144.005857,97.5137717 139.04437,93.8622375 C132.863804,100.885106 124.534155,103.225313 118.167587,103.131167 C115.828027,109.12515 118.541829,113.151029 123.409192,117.739542 L125.468637,121.579364 L137.639289,116.148018 L137.639289,116.148018 Z" id="path3836" sketch:type="MSShapeGroup"></path>
                <path d="M69.0372402,0.597536058 L106.389579,0.597536058 L146.924066,84.8742113 L115.28395,100.042981 L69.0372402,0.597536058 L69.0372402,0.597536058 Z" id="path3838" sketch:type="MSShapeGroup"></path>
            </g>
        </g>
    </g>
</svg>