<?xml version="1.0" encoding="UTF-8" standalone="no"?>
<svg width="256px" height="256px" viewBox="0 0 256 256" version="1.1" xmlns="http://www.w3.org/2000/svg" xmlns:xlink="http://www.w3.org/1999/xlink" xmlns:sketch="http://www.bohemiancoding.com/sketch/ns">
    <!-- Generator: Sketch 3.3.2 (12043) - http://www.bohemiancoding.com/sketch -->
    <title>pedestrian_crossing_bra</title>
    <desc>Created with Sketch.</desc>
    <defs></defs>
    <g id="Page-1" stroke="none" stroke-width="1" fill="none" fill-rule="evenodd" sketch:type="MSPage">
        <g id="pedestrian_crossing_bra" sketch:type="MSArtboardGroup">
            <g id="Brasil_A-32b" sketch:type="MSLayerGroup" transform="translate(36.000000, 43.000000)">
                <path d="M81.2143693,47.7211502 C83.3822909,56.0435031 85.5502124,64.3709933 87.7232713,72.6933463 C80.0738987,93.8639737 72.1162909,115.800052 64.4669183,136.975817 C60.1927222,150.568993 72.7224869,153.343111 78.6046438,142.647346 C85.2060164,126.398209 92.0077418,109.162719 98.6039771,92.9187188 C99.5646438,90.0726796 100.720526,90.463111 101.244526,92.8108365 C104.917663,108.746601 108.585663,124.677229 112.258801,140.612993 C114.087663,151.817346 129.180918,154.00068 127.665428,137.782366 C121.793546,107.174601 115.926801,75.4417776 110.054918,44.8340129 C119.379036,50.0791502 129.057624,56.0075424 138.386879,61.2475424 C148.270958,64.8230718 148.64084,57.4870718 143.246722,53.2950718 C137.061467,49.2058169 130.706683,45.640562 124.516291,41.5513071 C118.331036,37.0407973 112.150918,32.5354247 105.970801,28.0300522 C104.162487,26.5916208 101.598997,25.4254639 98.2803301,25.7131502 C93.0351928,26.4426404 87.939036,27.6087973 82.699036,28.3434247 C79.3187222,29.1653855 77.1251144,30.6551894 75.4657811,32.4275424 C71.4792713,37.0407973 67.4978987,41.6540522 63.5113889,46.2673071 C57.4340164,48.2554247 51.3566438,50.2486796 45.2792713,52.2470718 C37.7788791,54.7335031 40.3731928,63.0198953 47.4780164,61.6790718 C55.3380164,59.7936992 63.1980164,57.9083267 71.0631536,56.0178169 C72.2138987,55.1753071 73.3697811,54.3379345 74.5205262,53.500562 C76.0360164,51.3634639 77.5515065,49.2263659 79.0669967,47.0892678 C79.7759379,47.3101698 80.4951536,47.51566 81.2143693,47.7211502" id="path9" fill="#000000" sketch:type="MSShapeGroup"></path>
                <path d="M81.2143693,47.7211502 C83.3822909,56.0435031 85.5502124,64.3709933 87.7232713,72.6933463 C80.0738987,93.8639737 72.1162909,115.800052 64.4669183,136.975817 C60.1927222,150.568993 72.7224869,153.343111 78.6046438,142.647346 C85.2060164,126.398209 92.0077418,109.162719 98.6039771,92.9187188 C99.5646438,90.0726796 100.720526,90.463111 101.244526,92.8108365 C104.917663,108.746601 108.585663,124.677229 112.258801,140.612993 C114.087663,151.817346 129.180918,154.00068 127.665428,137.782366 C121.793546,107.174601 115.926801,75.4417776 110.054918,44.8340129 C119.379036,50.0791502 129.057624,56.0075424 138.386879,61.2475424 C148.270958,64.8230718 148.64084,57.4870718 143.246722,53.2950718 C137.061467,49.2058169 130.706683,45.640562 124.516291,41.5513071 C118.331036,37.0407973 112.150918,32.5354247 105.970801,28.0300522 C104.162487,26.5916208 101.598997,25.4254639 98.2803301,25.7131502 C93.0351928,26.4426404 87.939036,27.6087973 82.699036,28.3434247 C79.3187222,29.1653855 77.1251144,30.6551894 75.4657811,32.4275424 C71.4792713,37.0407973 67.4978987,41.6540522 63.5113889,46.2673071 C57.4340164,48.2554247 51.3566438,50.2486796 45.2792713,52.2470718 C37.7788791,54.7335031 40.3731928,63.0198953 47.4780164,61.6790718 C55.3380164,59.7936992 63.1980164,57.9083267 71.0631536,56.0178169 C72.2138987,55.1753071 73.3697811,54.3379345 74.5205262,53.500562 C76.0360164,51.3634639 77.5515065,49.2263659 79.0669967,47.0892678 C79.7759379,47.3101698 80.4951536,47.51566 81.2143693,47.7211502 L81.2143693,47.7211502 Z" id="path11" stroke="#000000" stroke-width="0.15700001" sketch:type="MSShapeGroup"></path>
                <path d="M88.6428399,0.8847952 C94.6637026,0.8847952 99.5440948,5.76518941 99.5440948,11.7860522 C99.5440948,17.8069149 94.6688399,22.6873071 88.6428399,22.6873071 C82.6219771,22.6873071 77.741585,17.8069149 77.741585,11.7860522 C77.741585,5.76518941 82.6219771,0.8847952 88.6428399,0.8847952" id="path13" fill="#000000" sketch:type="MSShapeGroup"></path>
                <circle id="circle15" stroke="#000000" stroke-width="0.15700001" sketch:type="MSShapeGroup" cx="88.6428406" cy="11.7860501" r="10.9012549"></circle>
                <path d="M0.944762119,108.130129 L15.1595464,83.2144423 L26.1429974,83.2144423 L11.9282131,117.83954 L0.944762119,108.130129" id="polyline17" fill="#000000" sketch:type="MSShapeGroup"></path>
                <path d="M26.1429974,83.2144423 L11.9282131,117.83954 L0.944762119,108.130129 L15.1595464,83.2144423 L26.1429974,83.2144423 Z" id="polygon19" stroke="#000000" stroke-width="0.15700001" sketch:type="MSShapeGroup"></path>
                <path d="M25.8244876,132.71703 L42.3048013,82.8959325 L54.2591935,83.8617364 L39.073468,145.339266 L25.8244876,132.71703" id="polyline21" fill="#000000" sketch:type="MSShapeGroup"></path>
                <path d="M54.2591935,83.8617364 L39.073468,145.339266 L25.8244876,132.71703 L42.3048013,82.8959325 L54.2591935,83.8617364 Z" id="polygon23" stroke="#000000" stroke-width="0.15700001" sketch:type="MSShapeGroup"></path>
                <path d="M62.0164477,150.193974 L61.6928007,163.78715 L79.1389183,163.78715 L80.1098595,145.668052 C74.4742909,152.72664 68.4380164,154.236993 62.0164477,150.193974" id="path25" fill="#000000" sketch:type="MSShapeGroup"></path>
                <path d="M62.0164477,150.193974 L61.6928007,163.78715 L79.1389183,163.78715 L80.1098595,145.668052 C74.4742909,152.72664 68.4380164,154.236993 62.0164477,150.193974 L62.0164477,150.193974 Z" id="path27" stroke="#000000" stroke-width="0.15700001" sketch:type="MSShapeGroup"></path>
                <path d="M65.2477817,125.92558 L80.4335072,84.1905207 L70.0922131,83.8617364 L65.2477817,125.92558" id="polyline29" fill="#000000" sketch:type="MSShapeGroup"></path>
                <path d="M65.2477817,125.92558 L80.4335072,84.1905207 L70.0922131,83.8617364 L65.2477817,125.92558 Z" id="polygon31" stroke="#000000" stroke-width="0.15700001" sketch:type="MSShapeGroup"></path>
                <path d="M99.4978595,99.0680129 L103.366212,162.811072 L121.788409,162.811072 C120.360252,159.980444 119.219781,157.052209 120.180448,153.425307 C113.774291,151.128954 110.53782,147.250327 110.48131,141.77915 L99.4978595,99.0680129" id="path33" fill="#000000" sketch:type="MSShapeGroup"></path>
                <path d="M99.4978595,99.0680129 L103.366212,162.811072 L121.788409,162.811072 C120.360252,159.980444 119.219781,157.052209 120.180448,153.425307 C113.774291,151.128954 110.53782,147.250327 110.48131,141.77915 L99.4978595,99.0680129 L99.4978595,99.0680129 Z" id="path35" stroke="#000000" stroke-width="0.15700001" sketch:type="MSShapeGroup"></path>
                <path d="M126.314331,84.5090305 L143.441939,146.957501 L156.367272,135.634991 L139.892095,85.4799717 L126.314331,84.5090305" id="polyline37" fill="#000000" sketch:type="MSShapeGroup"></path>
                <path d="M156.367272,135.634991 L139.892095,85.4799717 L126.314331,84.5090305 L143.441939,146.957501 L156.367272,135.634991 Z" id="polygon39" stroke="#000000" stroke-width="0.15700001" sketch:type="MSShapeGroup"></path>
                <path d="M156.367272,84.8378148 L171.876644,121.076011 L182.217939,112.013893 L167.350723,85.4799717 L156.367272,84.8378148" id="polyline41" fill="#000000" sketch:type="MSShapeGroup"></path>
                <path d="M182.217939,112.013893 L167.350723,85.4799717 L156.367272,84.8378148 L171.876644,121.076011 L182.217939,112.013893 Z" id="polygon43" stroke="#000000" stroke-width="0.15700001" sketch:type="MSShapeGroup"></path>
            </g>
        </g>
    </g>
</svg>