<?xml version="1.0" encoding="UTF-8" standalone="no"?>
<svg width="256px" height="256px" viewBox="0 0 256 256" version="1.1" xmlns="http://www.w3.org/2000/svg" xmlns:xlink="http://www.w3.org/1999/xlink" xmlns:sketch="http://www.bohemiancoding.com/sketch/ns">
    <!-- Generator: Sketch 3.3.2 (12043) - http://www.bohemiancoding.com/sketch -->
    <title>pedestrian_bra</title>
    <desc>Created with Sketch.</desc>
    <defs></defs>
    <g id="Page-1" stroke="none" stroke-width="1" fill="none" fill-rule="evenodd" sketch:type="MSPage">
        <g id="pedestrian_bra" sketch:type="MSArtboardGroup" fill="#000000">
            <g id="Brasil_R-29" sketch:type="MSLayerGroup" transform="translate(61.000000, 36.000000)">
                <path d="M51.6873913,58.9931412 C54.4332806,69.3877954 57.1845059,79.7813833 59.9357312,90.1882997 C50.2450791,116.627305 40.535751,143.072176 30.8386957,169.517046 C26.4797431,184.516441 41.3943083,189.314179 48.3758893,176.986354 C56.7464229,156.677406 65.3656126,135.737219 73.7420158,115.441066 C74.9479447,111.89621 76.4212055,112.394697 77.0780632,115.31951 C81.7406324,135.220605 86.391996,155.108905 91.0428261,175.01 C92.9536364,187.56281 111.897925,189.630331 110.583142,171.482205 C103.131996,133.250115 95.6936561,93.6179971 88.254249,55.3917723 C100.075553,61.9430115 112.336008,69.3510086 124.181858,75.895317 C136.703775,80.3715706 137.184012,71.1940778 130.3417,65.9692939 C122.489289,60.8602017 114.429842,56.4020749 106.588636,51.2983141 C98.7426285,45.6667435 90.9024901,40.0405043 83.0682213,34.4147983 C80.7790909,32.6143804 77.528419,31.1605043 73.3162055,31.5134438 C66.6686561,32.4320461 60.2035968,33.8912536 53.5693874,34.8039914 C49.2840711,35.8313545 46.5018972,37.6866859 44.3952569,39.9008213 C39.3490316,45.6667435 34.2964032,51.4268012 29.2443083,57.1921902 C21.5375692,59.6734294 13.83083,62.1615994 6.12409091,64.6551009 C-3.38460474,67.762781 -0.0971146245,78.1089193 8.90573123,76.4300576 C18.8711858,74.0762392 28.8483794,71.7165562 38.8127668,69.3627378 C40.2737549,68.3161816 41.7347431,67.2701585 43.1957312,66.2241354 C45.1188142,63.5482997 47.0365613,60.8841931 48.9543083,58.2142219 C49.8683597,58.4754611 50.7808103,58.7313689 51.6873913,58.9931412" id="Shape" sketch:type="MSShapeGroup"></path>
                <path d="M61.1048419,0.48889049 C68.7384783,0.48889049 74.9351383,6.58909222 74.9351383,14.1063833 C74.9351383,21.630072 68.7384783,27.7244092 61.1048419,27.7244092 C53.4717391,27.7244092 47.2809486,21.630072 47.2809486,14.1063833 C47.2809486,6.58909222 53.4717391,0.48889049 61.1048419,0.48889049 L61.1048419,0.48889049 Z" id="Shape" sketch:type="MSShapeGroup"></path>
            </g>
        </g>
    </g>
</svg>