<?xml version="1.0" encoding="UTF-8" standalone="no"?>
<svg width="512px" height="512px" viewBox="0 0 512 512" version="1.1" xmlns="http://www.w3.org/2000/svg" xmlns:xlink="http://www.w3.org/1999/xlink" xmlns:sketch="http://www.bohemiancoding.com/sketch/ns">
    <!-- Generator: Sketch 3.2.2 (9983) - http://www.bohemiancoding.com/sketch -->
    <title>pedestrian-crossing</title>
    <desc>Created with Sketch.</desc>
    <defs></defs>
    <g id="symbols" stroke="none" stroke-width="1" fill="none" fill-rule="evenodd" sketch:type="MSPage">
        <g id="pedestrian-crossing" sketch:type="MSArtboardGroup" fill="#000000">
            <g id="g5501" sketch:type="MSLayerGroup" transform="translate(113.052058, 164.210160)">
                <path d="M153.584952,17.4399854 C153.584952,26.8893529 145.924711,34.5495934 136.475344,34.5495934 C127.025969,34.5495934 119.365736,26.8893529 119.365736,17.4399854 C119.365736,7.99061107 127.025969,0.330370587 136.475344,0.330370587 C145.924711,0.330370587 153.584952,7.99061107 153.584952,17.4399854 L153.584952,17.4399854 L153.584952,17.4399854 Z" id="path5663" sketch:type="MSShapeGroup"></path>
                <path d="M0.271560168,238.93889 L38.0584091,238.93889 L64.9110361,178.171313 L36.480368,178.171313 L0.271560168,238.93889 L0.271560168,238.93889 Z" id="path5645" sketch:type="MSShapeGroup"></path>
                <path d="M61.3150981,239.214851 L98.7139137,239.214851 L104.500071,208.266187 C92.4484581,215.338059 84.2748488,212.72416 76.6213247,208.37826 L93.3157896,178.119498 L81.7434813,178.119498 L61.3150981,239.214851 L61.3150981,239.214851 Z" id="path5647" sketch:type="MSShapeGroup"></path>
                <path d="M122.720762,238.93889 L161.145697,238.93889 L155.359546,178.033333 L128.006813,178.033333 L122.720762,238.93889 L122.720762,238.93889 Z" id="path5649" sketch:type="MSShapeGroup"></path>
                <path d="M184.066168,239.050963 L222.163327,239.326924 L200.846804,177.731464 L196.612787,178.283386 C202.125836,189.917207 207.813299,202.723916 187.282514,214.198759 L177.785032,196.370496 L176.51218,195.391792 L184.066168,239.050963 L184.066168,239.050963 Z" id="path5651" sketch:type="MSShapeGroup"></path>
                <path d="M245.997852,239.326924 L283.456918,239.326924 L246.247905,177.757372 L218.481231,178.033333 L245.997852,239.326924 L245.997852,239.326924 Z" id="path5653" sketch:type="MSShapeGroup"></path>
                <path d="M128.006813,119.074645 L162.007514,119.074645 L162.164706,122.135034 L198.255139,189.736919 C198.961435,200.787668 193.929436,205.024191 188.888697,209.250338 L145.178627,128.855028 L103.029627,204.176853 C91.1185005,211.716206 86.7387066,208.553143 81.5648634,206.518458 L127.685088,122.740829 L128.006813,119.074645 L128.006813,119.074645 Z" id="path5659" sketch:type="MSShapeGroup"></path>
                <path d="M85.4225281,111.956852 L128.058581,47.9337787 C133.255935,41.0348479 141.092627,37.6550348 153.998961,41.034746 L187.666262,68.630897 L191.253766,75.2539689 L191.253766,101.746277 C187.990928,108.672596 183.326508,113.379738 175.661942,113.336656 L175.661942,79.2554135 L162.277804,67.3890668 L162.277804,115.268388 L127.64464,115.268388 L127.64464,76.9097402 L103.773966,111.818865 C96.8958569,115.669664 90.4719187,117.24962 85.4225281,111.956852 L85.4225281,111.956852 Z" id="path5661" sketch:type="MSShapeGroup"></path>
            </g>
        </g>
    </g>
</svg>