<?xml version="1.0" encoding="UTF-8" standalone="no"?>
<svg width="256px" height="256px" viewBox="0 0 256 256" version="1.1" xmlns="http://www.w3.org/2000/svg" xmlns:xlink="http://www.w3.org/1999/xlink" xmlns:sketch="http://www.bohemiancoding.com/sketch/ns">
    <!-- Generator: Sketch 3.3.3 (12081) - http://www.bohemiancoding.com/sketch -->
    <title>playground-ahead-ca</title>
    <desc>Created with Sketch.</desc>
    <defs></defs>
    <g id="Page-1" stroke="none" stroke-width="1" fill="none" fill-rule="evenodd" sketch:type="MSPage">
        <g id="playground-ahead-ca" sketch:type="MSArtboardGroup" fill="#000000">
            <g id="Group" sketch:type="MSLayerGroup" transform="translate(69.000000, 74.000000)">
                <path d="M4.6426805,104.095475 L8.9133305,107.904585 L104.030249,107.844085 L107.504809,104.172015 L4.6426805,104.095415" id="path3077" sketch:type="MSShapeGroup"></path>
                <path d="M23.1577605,17.143705 C27.8637205,17.143705 31.6768695,13.328549 31.6768695,8.618551 C31.6768695,3.91057 27.8637205,0.095415 23.1577605,0.095415 C18.4558305,0.095415 14.6426805,3.91057 14.6426805,8.618551 C14.6426805,13.328549 18.4558305,17.143705 23.1577605,17.143705" id="path3079" sketch:type="MSShapeGroup"></path>
                <path d="M7.1725905,67.165305 C10.7801605,67.165305 13.7045105,64.240955 13.7045105,60.631365 C13.7045105,57.021775 10.7801605,54.095415 7.1725905,54.095415 C3.5670305,54.095415 0.6426805,57.021775 0.6426805,60.631365 C0.6426805,64.240955 3.5670305,67.165305 7.1725905,67.165305" id="path3081" sketch:type="MSShapeGroup"></path>
                <path d="M67.6735595,36.591194 L54.4242995,20.014508 L62.7559695,19.008822 L82.4283195,30.162059 L85.8323395,24.150114 L65.7931795,8.095415 L34.9514795,10.471575 L31.5716495,18.279244 L31.5394495,36.490424 L17.5868205,50.555924 L22.1859705,55.481574 L39.7743895,43.622934 L41.9772195,35.587524 L51.6390695,47.155934 L27.7242905,66.229714 L13.6426805,92.581104 L22.8067205,97.877594 L36.5578095,75.772644 L62.0566895,57.966564 L85.1390895,78.487394 L114.848139,87.127424 L117.357319,76.175724 L91.8866595,69.331414 L79.8184295,54.375114 L67.6736095,36.591194" id="path3083" sketch:type="MSShapeGroup"></path>
            </g>
        </g>
    </g>
</svg>