<?xml version="1.0" encoding="UTF-8" standalone="no"?>
<svg width="512px" height="512px" viewBox="0 0 512 512" version="1.1" xmlns="http://www.w3.org/2000/svg" xmlns:xlink="http://www.w3.org/1999/xlink" xmlns:sketch="http://www.bohemiancoding.com/sketch/ns">
    <!-- Generator: Sketch 3.2.2 (9983) - http://www.bohemiancoding.com/sketch -->
    <title>play-ground</title>
    <desc>Created with Sketch.</desc>
    <defs></defs>
    <g id="us-symbols" stroke="none" stroke-width="1" fill="none" fill-rule="evenodd" sketch:type="MSPage">
        <g id="play-ground" sketch:type="MSArtboardGroup" fill="#000000">
            <g id="Group" sketch:type="MSLayerGroup" transform="translate(103.000000, 173.000000)">
                <path d="M72.2139589,25.9850748 C79.2814098,25.9850748 85.02979,20.2056504 85.02979,13.1155711 C85.02979,6.02549369 79.2814098,0.24606931 72.2139589,0.24606931 C65.1673348,0.24606931 59.4050707,6.02549369 59.4050707,13.1155711 C59.4050707,20.2056504 65.1673348,25.9850748 72.2139589,25.9850748" id="path6219" sketch:type="MSShapeGroup"></path>
                <path d="M262.077084,66.6850457 C269.130664,66.6850457 274.892917,60.8986612 274.892917,53.822516 C274.892917,46.7254824 269.130664,40.9530181 262.077084,40.9530181 C255.023522,40.9530181 249.261251,46.7254824 249.261251,53.822516 C249.261251,60.8986612 255.023522,66.6850457 262.077084,66.6850457" id="path6223" sketch:type="MSShapeGroup"></path>
                <path d="M55.6109712,18.3442376 L23.6755325,39.7817901 C19.5794653,42.1800185 18.0451758,45.9516222 19.3364783,51.284867 C19.7044301,52.9510703 20.1834617,54.3314395 20.5514135,55.9906712 C15.3584334,54.6451598 10.1376834,53.6830675 4.93081841,52.3306013 L1.45957507,67.3194591 L45.5443655,77.0796456 L58.3879659,101.82869 L73.3143123,98.342909 L70.0166311,82.3083169 L234.032879,118.037571 L224.313398,131.109249 L236.289187,140.520858 L258.505145,123.61482 L302.589935,133.375007 L305.714054,118.386149 C300.43777,117.410147 295.210077,116.050676 289.919897,115.074657 C290.954327,113.729146 292.016528,112.58581 293.044016,111.240298 C296.445834,106.938845 296.792953,102.944129 294.085389,99.0400652 L273.952177,66.0994358 C268.731427,67.0405966 263.552332,67.9399225 258.331582,68.8880605 C250.875357,73.9354656 243.398305,78.9898479 235.942063,84.0512074 C233.637163,85.6825528 232.644382,87.9761855 232.991506,90.8484801 L233.859317,94.6828391 L230.561636,101.82869 L79.9096746,69.0623495 L79.9096746,61.2193425 L82.3395449,58.0821397 C83.8738345,55.6211673 83.9224264,53.22295 82.5131071,50.7619999 C77.8616355,43.0305323 73.2657148,35.3199905 68.6281337,27.5815569 C64.2890796,24.5140698 59.9500254,21.4117248 55.6109712,18.3442376 L55.6109712,18.3442376 Z M63.5948309,39.7817901 L75.9177448,54.9449369 L74.5292474,68.0166153 L65.8511391,66.0994358 L53.354663,50.7619999 L63.5948309,39.7817901 L63.5948309,39.7817901 Z M257.637334,82.1340279 L262.323512,96.4257295 L244.620171,104.965893 L235.942063,103.048713 L240.107555,90.674191 L257.637334,82.1340279 L257.637334,82.1340279 Z" id="path6227" sketch:type="MSShapeGroup"></path>
                <path d="M138.451529,165.583636 L138.451529,115.22803 L153.600031,101.535896 L169.081785,115.22803 L169.081785,165.583636 L138.451529,165.583636 L138.451529,165.583636 Z" id="path6235" sketch:type="MSShapeGroup"></path>
            </g>
        </g>
    </g>
</svg>