<?xml version="1.0" encoding="UTF-8" standalone="no"?>
<svg width="256px" height="256px" viewBox="0 0 256 256" version="1.1" xmlns="http://www.w3.org/2000/svg" xmlns:xlink="http://www.w3.org/1999/xlink" xmlns:sketch="http://www.bohemiancoding.com/sketch/ns">
    <!-- Generator: Sketch 3.3.3 (12081) - http://www.bohemiancoding.com/sketch -->
    <title>playground-br</title>
    <desc>Created with Sketch.</desc>
    <defs></defs>
    <g id="Page-1" stroke="none" stroke-width="1" fill="none" fill-rule="evenodd" sketch:type="MSPage">
        <g id="playground-br" sketch:type="MSArtboardGroup" fill="#000000">
            <g id="path9-+-path13-+-path17" sketch:type="MSLayerGroup" transform="translate(64.000000, 56.000000)">
                <path d="M58.8831483,44.2411074 L58.8831483,70.2753143 C55.166956,80.8617971 51.4507637,91.4433143 47.7345714,102.034763 C47.297956,103.936556 47.1094175,105.84828 47.4418406,107.755038 C48.6822252,117.383176 49.9226098,127.01628 51.1629945,136.654349 C52.1007252,145.443314 62.9218406,145.051038 62.3115714,135.219314 C61.4532252,125.685521 60.5948791,116.141797 59.7365329,106.608004 C64.4003791,98.5986246 69.0741483,90.5842798 73.7479175,82.5749005 C78.7938022,90.5842798 83.8446483,98.5986246 88.8954945,106.608004 C90.8652252,109.344004 93.5345329,110.769107 96.9034175,110.893245 L118.054456,110.893245 C127.749302,110.709521 126.052456,100.18759 117.766687,100.311728 C112.715841,99.9244177 107.669956,99.5470384 102.614148,99.1696591 C100.098648,98.6929695 98.1934175,97.257935 96.9034175,94.8844177 C93.3757637,86.4877281 89.8481098,78.0860729 86.320456,69.6993143 C86.2212252,61.2082798 86.126956,52.7222109 86.0326868,44.2361419 C85.9136098,41.8626246 86.578456,41.1972453 88.0321868,42.2350384 C90.2202252,44.7128315 92.4181868,47.1906246 94.6012637,49.6684177 C94.898956,54.6289695 95.1768022,59.5895212 95.4645714,64.5500729 C95.6928022,72.9715902 103.904148,71.5514522 103.184725,64.5500729 C103.090456,58.1594522 102.996187,51.763866 102.901918,45.3782109 C102.356148,42.7315902 101.39361,41.1922798 100.321918,39.9409695 C96.511456,35.8394522 92.6960329,31.737935 88.8855714,27.6413833 C86.9704175,25.6601419 83.5568791,24.5429005 78.3968791,24.8904867 L61.1604945,25.3522798 C55.4448022,25.3373833 51.1133791,28.6444177 47.7196868,34.2206936 C45.9087252,37.0808315 44.0977637,39.9409695 42.2818406,42.8060729 C41.041456,44.6830384 39.4835329,45.8251074 38.0000329,46.2322798 C33.6090714,47.3793143 29.2280329,48.5263488 24.8469945,49.6634522 C18.2679945,51.9177971 17.5336868,59.2270384 26.5636868,59.683866 C32.4728791,58.0651074 38.3870329,56.4413833 44.2863022,54.8226246 C45.6011098,54.4204177 46.7373022,53.5812453 47.7196868,52.5285557 C50.3889945,49.5740729 53.0533406,46.6195902 55.7176868,43.6601419 C56.7298406,42.4336591 58.7194175,42.0016591 58.8831483,44.2411074" id="path9" sketch:type="MSShapeGroup"></path>
                <path d="M70.9748077,8.82053051e-15 C77.2858846,8.82053051e-15 82.4111538,5.1244128 82.4111538,11.4455162 C82.4111538,17.7666197 77.2908462,22.8910335 70.9748077,22.8910335 C64.6587692,22.8910335 59.5384615,17.7666197 59.5384615,11.4455162 C59.5384615,5.1244128 64.6637308,0 70.9748077,0" id="path13" sketch:type="MSShapeGroup"></path>
                <path d="M14.1503077,99.3103448 C21.9597692,99.3103448 28.3055769,105.641379 28.3055769,113.462069 C28.3055769,121.287724 21.9647308,127.633655 14.1503077,127.633655 C6.33588462,127.633655 8.8817842e-15,121.29269 8.8817842e-15,113.462069 C0.00496153846,105.646345 6.33588462,99.3103448 14.1503077,99.3103448" id="path17" sketch:type="MSShapeGroup"></path>
            </g>
        </g>
    </g>
</svg>