<?xml version="1.0" encoding="UTF-8" standalone="no"?>
<svg width="400px" height="400px" viewBox="0 0 400 400" version="1.1" xmlns="http://www.w3.org/2000/svg" xmlns:xlink="http://www.w3.org/1999/xlink" xmlns:sketch="http://www.bohemiancoding.com/sketch/ns">
    <!-- Generator: Sketch 3.2.2 (9983) - http://www.bohemiancoding.com/sketch -->
    <title>pretzel-loop</title>
    <desc>Created with Sketch.</desc>
    <defs></defs>
    <g id="Page-1" stroke="none" stroke-width="1" fill="none" fill-rule="evenodd" sketch:type="MSPage">
        <g id="pretzel-loop" sketch:type="MSArtboardGroup" fill="#000000">
            <path d="M315.312197,149.037529 L314.945736,146.845602 L313.970786,142.338682 L312.752441,138.076524 L312.022255,135.883229 L309.463866,129.67254 L308.488917,127.724008 L306.296989,123.705247 L305.078644,121.756715 L302.641953,118.103046 L299.841537,114.571076 L298.379796,112.865939 L295.334617,109.577364 L292.047409,106.532185 L290.340905,105.070444 L288.514071,103.610071 L284.860403,100.929985 L283.033569,99.7116395 L279.135137,97.519712 L275.116376,95.4481148 L270.326406,93.0059548 L264.683184,91.0916076 L262.610219,90.3600535 L260.489396,89.8582211 L258.316612,89.2552017 L254.005229,88.5140759 L249.715724,88.0231826 L247.495081,87.9001174 L243.082511,87.89875 L240.863235,88.0218152 L238.64396,88.2665781 L234.35172,89.0022344 L230.063582,89.9812862 L227.96327,90.5979795 L223.915793,92.0692921 L221.82642,92.9280135 L217.895171,94.8915868 L215.926128,95.9991733 L212.24101,98.4536399 L210.523567,99.6801895 L208.800655,101.032539 L207.07911,102.507954 L203.898559,105.442374 L199.59538,110.478475 L198.352421,112.216429 L195.907527,115.883771 L194.791736,117.863753 L192.832265,121.782695 L191.114822,125.830172 L190.372328,127.929117 L189.755635,130.02396 L188.28569,136.385062 L187.545932,142.893842 L187.543197,144.92305 L187.338088,144.92305 L187.338088,192.288102 L148.091234,192.288102 C149.174207,188.853216 151.636878,180.673484 152.311002,178.651113 L152.311002,176.36757 C152.311002,172.307787 150.027459,170.024244 145.967676,170.024244 L144.698737,170.024244 C143.9371,170.024244 143.176831,170.024244 142.669529,170.532913 L83.8006184,211.130747 L83.8006184,212.145351 L142.162227,252.235883 C143.431166,252.99752 144.698737,253.250487 146.22201,253.250487 C150.281794,253.250487 152.312369,250.459643 152.312369,246.654194 L152.312369,244.624986 L147.611279,229.877676 L187.344925,229.877676 L187.344925,311.96625 L225.728953,311.96625 L225.728953,230.276954 L225.728953,229.876308 L251.528884,229.876308 L254.534409,229.668465 L256.846667,229.425069 L259.039962,229.058609 L261.233257,228.571817 L266.380116,227.115546 L267.509581,227.115546 L267.509581,226.796944 L267.690076,226.746351 L269.882004,226.016164 L274.022463,224.30966 L278.041225,222.361128 L281.939656,220.167833 L283.888188,218.949488 L285.715022,217.610812 L287.541856,216.392467 L291.075194,213.590683 L292.780331,212.128943 L294.4841,210.546871 L296.067538,208.963433 L299.114085,205.676225 L301.914501,202.144255 L303.254544,200.317421 L304.471522,198.490586 L305.691235,196.542054 L308.978443,190.573393 L310.805277,186.554632 L311.658529,184.484402 L312.390083,182.292474 L314.216917,175.837022 L314.702341,173.645095 L315.433895,169.138175 L315.919318,164.752952 L316.042384,162.439327 L316.042384,155.740479 L315.312197,149.037529 L315.312197,149.037529 Z M277.311038,162.191829 L277.066275,164.505454 L276.701182,166.575684 L275.482836,170.960907 L273.7777,174.979668 L272.681053,176.9282 L271.462707,178.755034 L270.122664,180.581869 L268.783989,182.288372 L267.199183,183.871811 L265.617112,185.333552 L263.78891,186.795293 L260.135242,189.230616 L256.11648,191.179148 L255.130591,191.526465 L254.04625,191.909334 L251.852955,192.517823 L251.527516,192.517823 L251.527516,192.285367 L225.728953,192.285367 L225.728953,144.920315 L225.410351,144.920315 L225.54709,143.555659 L225.913551,141.242034 L226.643738,138.928409 L227.618688,136.736481 L228.837033,134.666252 L230.177076,132.839417 L231.882212,131.134281 L233.709046,129.550842 L235.779276,128.332497 L237.849506,127.237217 L240.163131,126.505663 L242.476756,125.897174 L244.790382,125.775476 L247.225705,125.775476 L249.53933,126.14057 L250.381643,126.362087 L250.51428,126.383965 L251.077645,126.545317 L251.852955,126.749059 L251.835179,126.761365 L254.77507,127.600943 L256.845299,128.454195 L258.916896,129.427777 L260.743731,130.524425 L260.853122,130.585957 L262.69363,131.619705 L264.398766,132.95838 L266.102535,134.420121 L267.809039,136.00356 L269.269413,137.586998 L270.609456,139.292135 L271.948131,141.118969 L273.044779,143.067501 L274.994678,147.086263 L275.724865,149.156492 L276.333354,151.226722 L276.820145,153.420017 L277.186605,155.611944 L277.430001,159.997167 L277.311038,162.191829 L277.311038,162.191829 Z" id="path14" sketch:type="MSShapeGroup"></path>
        </g>
    </g>
</svg>