<svg xmlns:svg="http://www.w3.org/2000/svg" xmlns="http://www.w3.org/2000/svg" version="1.1" width="512px" height="512px" viewBox="0 0 113.4 120.2">
<g transform="translate(-389.01267,-277.97817)">
	<path d="m411.8 398.2c8.3 0.6 11.5-12.4 3.7-15.5-6.6-3.5-14.8 4.4-11 11 1.4 2.7 4.3 4.6 7.3 4.5zM431.3 398.2c8.3 0.6 11.4-12.4 3.6-15.5-6.6-3.5-14.9 4.4-11 11 1.4 2.7 4.3 4.6 7.4 4.5zM450.8 398.2c8.3 0.6 11.5-12.4 3.6-15.5-6.6-3.5-14.8 4.4-11 11 1.4 2.7 4.3 4.6 7.3 4.5zM470.3 398.2c8.3 0.6 11.5-12.4 3.6-15.5-6.6-3.5-14.8 4.4-11 11 1.4 2.7 4.3 4.6 7.3 4.5zM479.6 386.9c0-2.3 0-4.5 0-6.8-25.6 0-51.3 0-76.9 0 0 2.5 0 5.1 0 7.6-4.5 0-9 0-13.5 0 0-2.2 0-4.4 0-6.5 4.1-1.1-0.2-9.1 0.4-12.8-1-6.2 0.2-12.3 0.5-18.5 2.2 0 4.5 0 6.7 0 0-3.4 0-6.9 0-10.3 3.8 0 7.5 0 11.3 0 0 3.2 0 6.4 0 9.6 8 0 16 0 24-0.1 0.6-7.7 9.6-3.3 11.8 0 3.8-0.3 8.5 1.7 7.9-3.5 3-5.9 10.2-2.2 10.1 3.4 3.8 0.9 9.1 0.8 7.1-4.6 1-2.3 4.7-0.6 7-1.1 8.8 0 17.7 0 26.5 0 0.2 3.3 0.5 5.9-2.7 6.6-0.2 9.8 0 19.6-0.1 29.4 4.2-1.7 4.3 9.3 0.1 7.6-6.7 0-13.5 0-20.2 0zM402.6 324c-6.7 2.5-3.5 12.6 3.3 11.8 4.5-1.1 4.7-7 9.8-6.6 4.6-4 6.5 5.8 12.2 3.5 7.3-0.3 8.1-9.6 15.7-9.8 5.9-1.7 5.9-9.9 10.9-12 5 3.7 12.1 5.8 18.1 3.1 8.6-4.7 9.7-17.6 4.3-25.1-3.7-5.8-10.7-6-16.6-4.3-3.6-2.8-7.1-7.5-12.8-6.7-7.3-1.3-7.9 8.9-14.7 7.6-5.5-0.6-11.1 1.7-15 5.6-4.9 5.1-5.4 12.8-3.6 19.3-1.5 3.1-8.5 0.3-9.8 5.6-1.3 2.4-1.8 5.3-1.7 8" fill="#000"/>
</g>
</svg>
