<?xml version="1.0" encoding="UTF-8" standalone="no"?>
<svg width="256px" height="256px" viewBox="0 0 256 256" version="1.1" xmlns="http://www.w3.org/2000/svg" xmlns:xlink="http://www.w3.org/1999/xlink" xmlns:sketch="http://www.bohemiancoding.com/sketch/ns">
    <!-- Generator: Sketch 3.3.3 (12081) - http://www.bohemiancoding.com/sketch -->
    <title>railroad-barriers</title>
    <desc>Created with Sketch.</desc>
    <defs></defs>
    <g id="Page-1" stroke="none" stroke-width="1" fill="none" fill-rule="evenodd" sketch:type="MSPage">
        <g id="railroad-barriers" sketch:type="MSArtboardGroup" fill="#000000">
            <path d="M118.28475,64 L137.249875,64 L137.249875,112.844125 L155.262375,112.844125 L155.262375,106.580375 L155.262375,106.557875 L168.419875,106.557875 L168.419875,112.779125 L180.84625,112.779125 L180.84625,106.504125 L193.9775,106.504125 L193.9775,112.745375 L206.52625,112.745375 L206.52625,122.834125 L190.61,122.834125 L190.61,132.07425 L206.5175,132.07425 L206.5175,142.024125 L194.04625,142.024125 L194.04625,148.16925 L180.94375,148.16925 L180.94375,142.057125 L168.516125,142.057125 L168.516125,148.222875 L155.324875,148.222875 L155.324875,142.19625 L137.249875,142.19625 L137.249875,190.73875 L118.28475,190.73875 L118.28475,142.19625 L100.20125,142.19625 L100.20125,148.222875 L87.009125,148.222875 L87.009125,142.057125 L74.58225,142.057125 L74.58225,148.16925 L61.47925,148.16925 L61.47925,142.024125 L49.008625,142.024125 L49.008625,132.07425 L64.9155,132.07425 L64.9155,122.834125 L49,122.834125 L49,112.745375 L61.557375,112.745375 L61.557375,106.504125 L74.6885,106.504125 L74.6885,112.779125 L87.1055,112.779125 L87.1055,106.557875 L100.26225,106.557875 L100.26225,106.580375 L100.26225,112.844125 L118.28475,112.844125 L118.28475,64 L118.28475,64 Z M137.249875,132.214625 L158.479875,132.214625 L158.479875,122.911625 L137.249875,122.911625 L137.249875,132.214625 L137.249875,132.214625 Z M118.28475,122.911625 L97.045625,122.911625 L97.045625,132.214625 L118.28475,132.214625 L118.28475,122.911625 L118.28475,122.911625 Z M165.264875,122.860375 L165.264875,132.06075 L183.74875,132.06075 L183.74875,122.860375 L165.264875,122.860375 L165.264875,122.860375 Z M90.204875,122.860375 L71.721,122.860375 L71.721,132.06075 L90.204875,132.06075 L90.204875,122.860375 L90.204875,122.860375 Z" id="path17" sketch:type="MSShapeGroup"></path>
        </g>
    </g>
</svg>