<?xml version="1.0" encoding="UTF-8" standalone="no"?>
<svg width="256px" height="256px" viewBox="0 0 256 256" version="1.1" xmlns="http://www.w3.org/2000/svg" xmlns:xlink="http://www.w3.org/1999/xlink" xmlns:sketch="http://www.bohemiancoding.com/sketch/ns">
    <!-- Generator: Sketch 3.3.3 (12081) - http://www.bohemiancoding.com/sketch -->
    <title>railway-flashing-au</title>
    <desc>Created with Sketch.</desc>
    <defs></defs>
    <g id="Page-1" stroke="none" stroke-width="1" fill="none" fill-rule="evenodd" sketch:type="MSPage">
        <g id="railway-flashing-au" sketch:type="MSArtboardGroup" fill="#000000">
            <path d="M75.2196165,44.4375 L66.8546791,59.598949 L111.218722,85.1418828 L66.3318705,111.282312 L75.817112,125.323457 L121.674894,99.7805233 L121.674894,137.273368 L90.4557525,137.348055 C77.0061281,137.348055 65.3609403,149.079999 65.3609403,163.189736 C65.3609403,177.290631 77.0179585,188.956731 91.1279349,188.956731 C105.228829,188.956731 116.969617,177.290631 116.969617,163.189736 C116.969617,156.175139 114.033045,149.647381 109.351549,144.966123 L121.676089,144.966123 L121.676089,211.4375 L134.969169,211.4375 L134.969169,144.966123 L147.367201,144.966123 C142.685705,149.647381 139.749133,156.175139 139.749133,163.189736 C139.749133,177.290631 151.415234,188.956731 165.516128,188.956731 C179.626105,188.956731 191.35781,177.290631 191.35781,163.189736 C191.35781,149.079999 179.637935,137.348055 166.188311,137.348055 L134.969169,137.273368 L134.969169,99.7805233 L180.901638,125.323457 L190.312193,111.282312 L145.425341,85.1418828 L189.789384,59.598949 L181.499133,44.4375 L134.969169,70.5779293 L134.969169,65.8726521 L121.674894,65.8726521 L121.674894,70.5779293 L75.2196165,44.4375 Z M91.4266827,150.268895 C98.3695807,150.268895 103.974089,155.94809 103.974089,162.890988 C103.974089,169.836754 98.3695807,175.438394 91.4266827,175.438394 C84.4837847,175.438394 78.8792766,169.836754 78.8792766,162.890988 C78.8792766,155.94809 84.4837847,150.268895 91.4266827,150.268895 L91.4266827,150.268895 Z M165.292067,150.268895 C172.234965,150.268895 177.839473,155.94809 177.839473,162.890988 C177.839473,169.836754 172.234965,175.438394 165.292067,175.438394 C158.349169,175.438394 152.669974,169.836754 152.669974,162.890988 C152.669974,155.94809 158.349169,150.268895 165.292067,150.268895 L165.292067,150.268895 Z" id="1" sketch:type="MSShapeGroup"></path>
        </g>
    </g>
</svg>