<?xml version="1.0" encoding="UTF-8" standalone="no"?>
<svg width="512px" height="512px" viewBox="0 0 512 512" version="1.1" xmlns="http://www.w3.org/2000/svg" xmlns:xlink="http://www.w3.org/1999/xlink" xmlns:sketch="http://www.bohemiancoding.com/sketch/ns">
    <!-- Generator: Sketch 3.2.2 (9983) - http://www.bohemiancoding.com/sketch -->
    <title>railroad</title>
    <desc>Created with Sketch.</desc>
    <defs></defs>
    <g id="us-symbols" stroke="none" stroke-width="1" fill="none" fill-rule="evenodd" sketch:type="MSPage">
        <g id="railroad" sketch:type="MSArtboardGroup" fill="#000000">
            <path d="M59.1289062,296 L59.1289062,187.195312 L97.0546875,187.195312 C106.752653,187.195312 113.679667,188.172516 117.835938,190.126953 C121.992208,192.08139 125.406237,195.470679 128.078125,200.294922 C130.750013,205.119165 132.085938,210.8958 132.085938,217.625 C132.085938,226.135459 130.044942,232.988255 125.962891,238.183594 C121.880839,243.378932 116.079465,246.644525 108.558594,247.980469 C112.417988,250.751316 115.609362,253.781885 118.132812,257.072266 C120.656263,260.362647 124.09503,266.262978 128.449219,274.773438 L139.285156,296 L117.835938,296 L104.773438,272.324219 C100.072893,263.76428 96.8815188,258.408214 95.1992188,256.255859 C93.5169187,254.103505 91.7356865,252.619145 89.8554688,251.802734 C87.975251,250.986324 84.957052,250.578125 80.8007812,250.578125 L77.0898438,250.578125 L77.0898438,296 L59.1289062,296 Z M77.0898438,233.210938 L90.4492188,233.210938 C98.6133221,233.210938 103.808583,232.852217 106.035156,232.134766 C108.26173,231.417314 110.067701,229.970063 111.453125,227.792969 C112.838549,225.615875 113.53125,222.721372 113.53125,219.109375 C113.53125,215.645816 112.838549,212.862641 111.453125,210.759766 C110.067701,208.656891 108.187512,207.209639 105.8125,206.417969 C104.1302,205.873695 99.2565507,205.601562 91.1914062,205.601562 L77.0898438,205.601562 L77.0898438,233.210938 Z" id="R" sketch:type="MSShapeGroup"></path>
            <path d="M383.128906,296 L383.128906,187.195312 L421.054688,187.195312 C430.752653,187.195312 437.679667,188.172516 441.835938,190.126953 C445.992208,192.08139 449.406237,195.470679 452.078125,200.294922 C454.750013,205.119165 456.085938,210.8958 456.085938,217.625 C456.085938,226.135459 454.044942,232.988255 449.962891,238.183594 C445.880839,243.378932 440.079465,246.644525 432.558594,247.980469 C436.417988,250.751316 439.609362,253.781885 442.132812,257.072266 C444.656263,260.362647 448.09503,266.262978 452.449219,274.773438 L463.285156,296 L441.835938,296 L428.773438,272.324219 C424.072893,263.76428 420.881519,258.408214 419.199219,256.255859 C417.516919,254.103505 415.735686,252.619145 413.855469,251.802734 C411.975251,250.986324 408.957052,250.578125 404.800781,250.578125 L401.089844,250.578125 L401.089844,296 L383.128906,296 Z M401.089844,233.210938 L414.449219,233.210938 C422.613322,233.210938 427.808583,232.852217 430.035156,232.134766 C432.26173,231.417314 434.067701,229.970063 435.453125,227.792969 C436.838549,225.615875 437.53125,222.721372 437.53125,219.109375 C437.53125,215.645816 436.838549,212.862641 435.453125,210.759766 C434.067701,208.656891 432.187512,207.209639 429.8125,206.417969 C428.1302,205.873695 423.256551,205.601562 415.191406,205.601562 L401.089844,205.601562 L401.089844,233.210938 Z" id="R" sketch:type="MSShapeGroup"></path>
        </g>
    </g>
</svg>