<svg xmlns:svg="http://www.w3.org/2000/svg" xmlns="http://www.w3.org/2000/svg" version="1.1" width="110.47" height="92.93">
  <g transform="translate(-99.048594,-357.32329)">
    <path d="m194.62 357.32c2.03 3.59 4.46 7.07 6.25 10.74 0 27.4 0 54.8 0 82.2-4.13 0-8.26 0-12.39 0 0-27.52 0-55.03 0-82.55 2.05-3.46 4.1-6.93 6.15-10.39zM174.43 357.32 174.43 357.32" fill="#000"/>
    <path d="m174.43 357.32c2.03 3.59 4.46 7.07 6.25 10.74 0 27.4 0 54.8 0 82.2-4.13 0-8.27 0-12.4 0 0-27.52 0-55.03 0-82.55 2.05-3.46 4.1-6.93 6.15-10.39z" fill="#000"/>
    <path d="m154.22 357.32c2.03 3.59 4.46 7.07 6.25 10.74 0 27.4 0 54.8 0 82.2-4.12 0-8.24 0-12.37 0 0-27.52 0-55.03 0-82.55 2.04-3.46 4.08-6.93 6.12-10.39z" fill="#000"/>
    <path d="m134.02 357.32c2.03 3.59 4.46 7.07 6.25 10.74 0 27.4 0 54.8 0 82.2-4.12 0-8.24 0-12.36 0 0-27.52 0-55.03 0-82.55 2.04-3.46 4.08-6.93 6.11-10.39z" fill="#000"/>
    <path d="m113.81 357.32c2.03 3.59 4.46 7.07 6.25 10.74 0 27.4 0 54.8 0 82.2-4.12 0-8.24 0-12.36 0 0-27.52 0-55.03 0-82.55 2.04-3.46 4.08-6.93 6.11-10.39z" fill="#000"/>
    <path d="m99.05 394.17c36.82 0 73.65 0 110.47 0 0-4.36 0-8.72 0-13.08-36.82 0-73.65 0-110.47 0 0 4.36 0 8.72 0 13.08z" fill="#000"/>
    <path d="m99.05 437.91c36.82 0 73.65 0 110.47 0 0-4.36 0-8.73 0-13.09-36.82 0-73.65 0-110.47 0 0 4.36 0 8.73 0 13.09z" fill="#000"/>
  </g>
</svg>
