<?xml version="1.0" encoding="UTF-8" standalone="no"?>
<svg width="256px" height="256px" viewBox="0 0 256 256" version="1.1" xmlns="http://www.w3.org/2000/svg" xmlns:xlink="http://www.w3.org/1999/xlink" xmlns:sketch="http://www.bohemiancoding.com/sketch/ns">
    <!-- Generator: Sketch 3.3.3 (12081) - http://www.bohemiancoding.com/sketch -->
    <title>reverse-curve-ontario</title>
    <desc>Created with Sketch.</desc>
    <defs></defs>
    <g id="Page-1" stroke="none" stroke-width="1" fill="none" fill-rule="evenodd" sketch:type="MSPage">
        <g id="reverse-curve-ontario" sketch:type="MSArtboardGroup" fill="#000000">
            <path d="M112.090922,208.078205 L90.7170624,208.078205 L90.7170624,174.409436 C92.3284924,160.066635 98.9207424,147.332855 110.392142,137.444586 C119.164442,131.619186 124.340952,122.379795 124.916672,112.168225 C124.841172,105.710545 125.725932,99.2575475 125.426302,93.0853795 L125.407602,93.1114595 L111.074232,96.7543265 C110.019522,96.7235665 109.186652,96.0276655 108.417522,95.3316365 C107.360472,94.2840815 107.195342,92.5970785 107.636562,91.1979305 L136.388282,47.9216645 L165.052742,90.9855875 C165.496292,92.3870765 165.331102,94.0740795 164.274122,95.1192935 C163.504912,95.8176635 162.672052,96.5136925 161.617412,96.5443915 L147.281632,92.9014575 C146.127942,104.191215 148.194752,116.922586 144.167262,127.183656 C141.229782,135.795495 136.251442,144.145445 129.010382,150.419135 C117.576692,158.113176 110.953822,170.497715 112.091062,184.337976 L112.091062,208.078336" id="path3156" sketch:type="MSShapeGroup"></path>
        </g>
    </g>
</svg>