<?xml version="1.0" encoding="UTF-8" standalone="no"?>
<svg width="512px" height="512px" viewBox="0 0 512 512" version="1.1" xmlns="http://www.w3.org/2000/svg" xmlns:xlink="http://www.w3.org/1999/xlink" xmlns:sketch="http://www.bohemiancoding.com/sketch/ns">
    <!-- Generator: Sketch 3.2.2 (9983) - http://www.bohemiancoding.com/sketch -->
    <title>roadworks</title>
    <desc>Created with Sketch.</desc>
    <defs></defs>
    <g id="symbols" stroke="none" stroke-width="1" fill="none" fill-rule="evenodd" sketch:type="MSPage">
        <g id="roadworks" sketch:type="MSArtboardGroup" fill="#000000">
            <path d="M210.858274,308.599477 C210.823663,307.503148 210.489713,306.435817 209.894776,305.516285 L185.86066,268.368314 L148.246842,248.457592 L91.2395981,356.124222 C89.3893088,359.636779 88.4136507,363.542217 88.4136507,367.508459 C88.4136507,376.525112 93.3939036,384.782191 101.361934,389.001 L161.476691,275.451423 L186.74371,314.514229 L188.635158,365.588012 C189.118778,378.658838 199.855694,389.001 212.935874,389.001 C213.353077,389.001 213.427912,389.001 213.841374,388.990711 L210.858274,308.599477 L210.858274,308.599477 Z M160.656315,218.517143 L155.853795,227.582438 L141.500489,215.716452 L135.063765,227.886454 C128.092908,224.190553 123.731912,216.958709 123.731912,209.071126 C123.731912,205.605342 124.579416,202.185394 126.206137,199.117169 L143.724017,166.051433 C146.351652,161.07118 151.519927,157.957119 157.151242,157.957119 L210.797471,157.957119 C224.231244,157.957119 235.10754,168.850253 235.10754,182.284962 C235.10754,182.809741 235.102863,183.31394 235.059833,183.84246 L229.126372,275.077249 L286.171969,322.513129 C283.963409,325.128603 281.162718,327.164108 277.992531,328.466233 L228.326576,287.443692 L227.656805,297.75405 C216.468074,297.033766 207.757309,287.740225 207.757309,276.519689 C207.757309,276.04823 207.775082,275.624479 207.796597,275.156761 L208.089388,270.720931 L194.149544,259.205734 L198.949258,250.149793 L208.884507,258.350747 L211.345635,220.236471 L188.709058,262.996114 L151.092434,243.074167 L184.885937,179.243865 L160.813468,179.243865 L146.29272,206.65677 L160.656315,218.517143 L160.656315,218.517143 Z M253.349447,122.999 C240.754758,122.999 230.549168,133.204589 230.549168,145.796472 C230.549168,158.393967 240.754758,168.601427 253.349447,168.601427 C265.945071,168.601427 276.14879,158.393967 276.14879,145.796472 C276.14879,133.204589 265.945071,122.999 253.349447,122.999 L253.349447,122.999 Z M277.392917,331.92734 C281.71556,330.52606 285.562066,327.944261 288.495588,324.478476 L312.212593,296.409831 C317.987965,289.583031 326.479838,285.645787 335.425397,285.645787 C344.878898,285.645787 353.779556,290.026427 359.537155,297.515515 L422.332867,379.220098 C423.149501,380.285558 423.586349,381.580199 423.586349,382.926289 C423.586349,386.283563 420.871719,388.99913 417.51538,388.99913 L235.105669,388.99913 C231.755879,388.99913 229.031894,386.283563 229.031894,382.926289 C229.031894,381.479172 229.534222,380.099407 230.464044,379.003077 L265.34078,337.74013 C266.810348,336.002093 268.732666,334.714935 270.894454,334.009618 L277.392917,331.92734 L277.392917,331.92734 Z" id="path7" sketch:type="MSShapeGroup"></path>
        </g>
    </g>
</svg>