<?xml version="1.0" encoding="UTF-8" standalone="no"?>
<svg width="256px" height="256px" viewBox="0 0 256 256" version="1.1" xmlns="http://www.w3.org/2000/svg" xmlns:xlink="http://www.w3.org/1999/xlink" xmlns:sketch="http://www.bohemiancoding.com/sketch/ns">
    <!-- Generator: Sketch 3.3.2 (12043) - http://www.bohemiancoding.com/sketch -->
    <title>roadworks_bra</title>
    <desc>Created with Sketch.</desc>
    <defs></defs>
    <g id="Page-1" stroke="none" stroke-width="1" fill="none" fill-rule="evenodd" sketch:type="MSPage">
        <g id="roadworks_bra" sketch:type="MSArtboardGroup" fill="#000000">
            <path d="M112.336734,53.3307974 C119.374429,53.3307974 125.085751,58.9579839 125.085751,65.8966957 C125.085751,72.8354076 119.374429,78.462594 112.336734,78.462594 C105.29409,78.462594 99.5877172,72.8354076 99.5877172,65.8966957 C99.582768,58.9579839 105.29409,53.3307974 112.336734,53.3307974" id="path17" sketch:type="MSShapeGroup"></path>
            <path d="M109.099988,87.8610347 C107.635039,88.8855093 106.526429,90.1277466 105.967175,91.6768313 L99.4986324,118.486391 L93.5547002,133.660492 C92.2728697,136.278594 97.3061578,139.584628 99.5431748,135.828221 L106.486836,119.07534 L111.079649,101.753306 L119.240802,127.825441 L109.476124,157.074933 L109.476124,190.14517 C109.14948,198.514187 118.20148,201.859814 119.864395,190.14517 L120.463243,157.663882 L130.247717,140.732831 L139.032463,171.249306 L148.614022,190.348086 C153.543378,199.236764 161.655039,194.906255 157.997615,186.007679 L149.811717,162.588289 L147.020395,129.904086 L137.636802,86.994933 L152.810904,93.6861873 L152.810904,108.449509 C152.751514,113.908425 160.303921,114.383543 160.996802,108.449509 L161.189819,91.3204923 L136.038226,75.379272 C134.266429,74.6913398 132.643107,74.4884245 131.247446,74.9734415 L109.099988,87.8610347 Z" id="path19" sketch:type="MSShapeGroup"></path>
            <path d="M56.7726005,147.622049 L176.284736,104.505032 L177.086499,106.657914 L57.569414,149.774931 L56.7726005,147.622049" id="polyline21" sketch:type="MSShapeGroup"></path>
            <path d="M78.9497511,140.198323 C68.9524629,136.159814 61.0437172,136.912086 57.7079883,148.201103 C64.7852765,145.533509 71.8675138,142.865916 78.9497511,140.198323" id="path23" sketch:type="MSShapeGroup"></path>
        </g>
    </g>
</svg>