<?xml version="1.0" encoding="UTF-8" standalone="no"?>
<svg width="512px" height="512px" viewBox="0 0 512 512" version="1.1" xmlns="http://www.w3.org/2000/svg" xmlns:xlink="http://www.w3.org/1999/xlink" xmlns:sketch="http://www.bohemiancoding.com/sketch/ns">
    <!-- Generator: Sketch 3.2.2 (9983) - http://www.bohemiancoding.com/sketch -->
    <title>roadworks</title>
    <desc>Created with Sketch.</desc>
    <defs></defs>
    <g id="symbols" stroke="none" stroke-width="1" fill="none" fill-rule="evenodd" sketch:type="MSPage">
        <g id="roadworks" sketch:type="MSArtboardGroup" fill="#000000">
            <path d="M230.858274,308.599477 C230.823663,307.503148 230.489713,306.435817 229.894776,305.516285 L205.86066,268.368314 L168.246842,248.457592 L111.239598,356.124222 C109.389309,359.636779 108.413651,363.542217 108.413651,367.508459 C108.413651,376.525112 113.393904,384.782191 121.361934,389.001 L181.476691,275.451423 L206.74371,314.514229 L208.635158,365.588012 C209.118778,378.658838 219.855694,389.001 232.935874,389.001 C233.353077,389.001 233.427912,389.001 233.841374,388.990711 L230.858274,308.599477 L230.858274,308.599477 Z M180.656315,218.517143 L175.853795,227.582438 L161.500489,215.716452 L155.063765,227.886454 C148.092908,224.190553 143.731912,216.958709 143.731912,209.071126 C143.731912,205.605342 144.579416,202.185394 146.206137,199.117169 L163.724017,166.051433 C166.351652,161.07118 171.519927,157.957119 177.151242,157.957119 L230.797471,157.957119 C244.231244,157.957119 255.10754,168.850253 255.10754,182.284962 C255.10754,182.809741 255.102863,183.31394 255.059833,183.84246 L249.126372,275.077249 L306.171969,322.513129 C303.963409,325.128603 301.162718,327.164108 297.992531,328.466233 L248.326576,287.443692 L247.656805,297.75405 C236.468074,297.033766 227.757309,287.740225 227.757309,276.519689 C227.757309,276.04823 227.775082,275.624479 227.796597,275.156761 L228.089388,270.720931 L214.149544,259.205734 L218.949258,250.149793 L228.884507,258.350747 L231.345635,220.236471 L208.709058,262.996114 L171.092434,243.074167 L204.885937,179.243865 L180.813468,179.243865 L166.29272,206.65677 L180.656315,218.517143 L180.656315,218.517143 Z M273.349447,122.999 C260.754758,122.999 250.549168,133.204589 250.549168,145.796472 C250.549168,158.393967 260.754758,168.601427 273.349447,168.601427 C285.945071,168.601427 296.14879,158.393967 296.14879,145.796472 C296.14879,133.204589 285.945071,122.999 273.349447,122.999 L273.349447,122.999 Z M297.392917,331.92734 C301.71556,330.52606 305.562066,327.944261 308.495588,324.478476 L332.212593,296.409831 C337.987965,289.583031 346.479838,285.645787 355.425397,285.645787 C364.878898,285.645787 373.779556,290.026427 379.537155,297.515515 L442.332867,379.220098 C443.149501,380.285558 443.586349,381.580199 443.586349,382.926289 C443.586349,386.283563 440.871719,388.99913 437.51538,388.99913 L255.105669,388.99913 C251.755879,388.99913 249.031894,386.283563 249.031894,382.926289 C249.031894,381.479172 249.534222,380.099407 250.464044,379.003077 L285.34078,337.74013 C286.810348,336.002093 288.732666,334.714935 290.894454,334.009618 L297.392917,331.92734 L297.392917,331.92734 Z" id="path7" sketch:type="MSShapeGroup"></path>
        </g>
    </g>
</svg>