<?xml version="1.0" encoding="UTF-8" standalone="no"?>
<svg width="512px" height="512px" viewBox="0 0 512 512" version="1.1" xmlns="http://www.w3.org/2000/svg" xmlns:xlink="http://www.w3.org/1999/xlink" xmlns:sketch="http://www.bohemiancoding.com/sketch/ns">
    <!-- Generator: Sketch 3.2.2 (9983) - http://www.bohemiancoding.com/sketch -->
    <title>rollerblading</title>
    <desc>Created with Sketch.</desc>
    <defs></defs>
    <g id="us-symbols" stroke="none" stroke-width="1" fill="none" fill-rule="evenodd" sketch:type="MSPage">
        <g id="rollerblading" sketch:type="MSArtboardGroup" fill="#000000">
            <g id="Group" sketch:type="MSLayerGroup" transform="translate(79.000000, 112.000000)">
                <path d="M307.691413,0.758980259 C324.428304,0.758980259 336.1581,13.5482307 336.1581,20.9734235 C336.1581,24.0354161 334.800605,26.0111348 332.410413,27.2775259 C332.510796,28.1962165 332.5705,29.1302264 332.5705,30.076306 C332.5705,43.8645571 321.432005,55.0397159 307.691413,55.0397159 C293.949414,55.0397159 282.811845,43.8645571 282.811845,30.076306 C282.811845,27.4799257 283.208378,24.9768535 283.938927,22.6241885 L271.605355,22.6241885 C260.090241,22.6241885 279.320037,0.758980259 307.691413,0.758980259 L307.691413,0.758980259 Z" id="path15" sketch:type="MSShapeGroup"></path>
                <path d="M221.197101,271.526696 L222.428748,267.567386 L220.382788,261.611448 L233.95219,242.581229 L254.508945,242.581229 L265.622455,255.07245 L289.047329,262.850914 L287.490882,271.234721 C291.654053,272.002986 294.804442,275.66059 294.804442,280.060464 C294.804442,285.017401 290.79673,289.0394 285.856262,289.0394 C280.91161,289.0394 276.905305,285.017401 276.905305,280.060464 L276.905305,280.060464 L274.181061,280.060464 L274.181061,280.060464 C274.181061,285.017401 270.176126,289.0394 265.23103,289.0394 C260.289636,289.0394 256.281925,285.017401 256.281925,280.060464 L253.55905,280.060464 C253.55905,285.017401 249.551339,289.0394 244.6095,289.0394 C239.664405,289.0394 235.66132,285.017401 235.66132,280.060464 L232.934762,280.060464 C232.934762,285.017401 228.930753,289.0394 223.985657,289.0394 C219.045651,289.0394 215.036089,285.017401 215.036089,280.060464 C215.036089,276.079317 217.620605,272.704886 221.197101,271.526696 L221.197101,271.526696 Z" id="path17" sketch:type="MSShapeGroup"></path>
                <path d="M0.199259716,243.942321 C0.206218384,242.146719 0.747532387,240.337191 1.86628624,238.764861 C4.17273288,235.52368 8.22532387,234.289784 11.8175509,235.415535 L15.1206046,232.907821 L16.9023751,226.865538 L38.966533,219.292259 L55.698797,231.282124 L57.5041641,247.927665 L72.0623072,267.917407 L65.939235,273.834313 C68.8763109,276.888841 69.3260333,281.697228 66.7794571,285.278255 C63.9048427,289.315109 58.3175509,290.248673 54.2954966,287.364904 C50.2729796,284.48262 49.3402221,278.876221 52.2134485,274.839813 L49.9967613,273.250325 C47.1244602,277.287142 41.534855,278.2226 37.5123381,275.339313 C33.4902838,272.457884 32.5566009,266.851076 35.4293646,262.816525 L35.4301049,262.816525 L33.212955,261.227037 C30.3406539,265.26248 24.7538248,266.198346 20.7285318,263.316025 C16.7069402,260.430919 15.7760333,254.824074 18.6492597,250.788595 L16.4325725,249.199107 C13.5598088,253.233658 7.97066626,254.169525 3.94814929,251.287129 C1.49318322,249.528183 0.188895743,246.752632 0.199074645,243.941355 L0.199259716,243.942321 Z" id="path19" sketch:type="MSShapeGroup"></path>
                <path d="M148.046422,128.432837 C142.702036,109.867767 217.247224,56.99733 224.235965,52.8718103 L148.306909,54.7662906 L140.494602,42.4890743 C140.494602,42.4890743 229.715916,30.7378189 239.954503,30.4727495 C263.570019,29.862765 276.284837,39.4855734 285.253374,50.0642101 C300.444923,67.9724102 298.384639,91.9131444 298.795941,103.877477 L352.169031,114.066169 L345.659161,127.12838 L282.562443,124.559853 L278.488587,92.6447545 L211.837138,134.702588 L263.385873,168.399361 L255.132634,237.356901 L233.461752,237.356901 L227.976249,178.588518 L174.863664,157.168496 L60.4953732,228.299048 L43.1250771,215.850535 L148.046422,128.432837 L148.046422,128.432837 Z" id="path21" sketch:type="MSShapeGroup"></path>
            </g>
        </g>
    </g>
</svg>