<?xml version="1.0" encoding="UTF-8" standalone="no"?>
<svg width="512px" height="512px" viewBox="0 0 512 512" version="1.1" xmlns="http://www.w3.org/2000/svg" xmlns:xlink="http://www.w3.org/1999/xlink" xmlns:sketch="http://www.bohemiancoding.com/sketch/ns">
    <!-- Generator: Sketch 3.2.2 (9983) - http://www.bohemiancoding.com/sketch -->
    <title>roundabout</title>
    <desc>Created with Sketch.</desc>
    <defs></defs>
    <g id="symbols" stroke="none" stroke-width="1" fill="none" fill-rule="evenodd" sketch:type="MSPage">
        <g id="roundabout" sketch:type="MSArtboardGroup" fill="#000000">
            <g id="path2806-+-path3753-+-path3755" sketch:type="MSLayerGroup" transform="translate(91.000000, 115.000000)">
                <path d="M93.2284409,133.323094 L93.014123,105.660978 L58.6691272,139.200186 C57.5299403,85.5513443 103.78613,40.4924916 147.231591,34.6972433 L143.382544,11.484032 C67.1003217,26.5632748 36.3806551,86.1188337 34.9128934,139.003772 L0.241445855,105.339556 L0.0836693008,134.105738 L46.5691221,180.715222 L93.2284409,133.323094 Z" id="path2806" sketch:type="MSShapeGroup"></path>
                <path d="M260.593627,223.071712 L196.100148,206.673463 L172.276735,220.786356 L218.585337,233.534098 C172.745708,261.52944 110.473785,244.304225 83.5851969,209.734887 L65.4407687,224.744012 C116.894647,282.972268 183.885399,279.492537 230.37676,254.131241 L218.710046,300.997835 L243.675965,286.650091 L260.593627,223.071712 L260.593627,223.071712 Z" id="path3753" sketch:type="MSShapeGroup"></path>
                <path d="M190.097424,17.3922687 L208.279248,81.3272189 L232.461935,94.8169084 L220.249505,48.4206985 C267.50794,73.9549508 283.858215,136.386411 267.42354,176.966547 L289.530916,185.101442 C314.118914,111.425827 277.469896,55.3146863 232.165179,27.8950063 L278.607114,14.4397601 L253.647405,0.0812392641 L190.097424,17.3922687 L190.097424,17.3922687 Z" id="path3755" sketch:type="MSShapeGroup"></path>
            </g>
        </g>
    </g>
</svg>