<?xml version="1.0" encoding="UTF-8" standalone="no"?>
<svg width="256px" height="256px" viewBox="0 0 256 256" version="1.1" xmlns="http://www.w3.org/2000/svg" xmlns:xlink="http://www.w3.org/1999/xlink" xmlns:sketch="http://www.bohemiancoding.com/sketch/ns">
    <!-- Generator: Sketch 3.3.2 (12043) - http://www.bohemiancoding.com/sketch -->
    <title>school_zone_bra</title>
    <desc>Created with Sketch.</desc>
    <defs></defs>
    <g id="Page-1" stroke="none" stroke-width="1" fill="none" fill-rule="evenodd" sketch:type="MSPage">
        <g id="school_zone_bra" sketch:type="MSArtboardGroup" fill="#000000">
            <path d="M136.575959,115.03651 L119.710351,172.203882 C115.292312,186.819372 126.455567,190.441137 130.950665,179.781333 L146.886429,133.474117 C147.996076,129.836941 151.196586,130.042431 151.818194,132.965529 L162.159488,178.687098 C163.885606,189.208196 177.036978,191.674078 175.613959,176.43698 L158.008586,93.8607448 C157.4589,91.6568625 158.321959,91.204784 160.315214,92.8332938 L175.213253,109.698902 C183.247919,116.64447 186.592272,108.609804 182.225606,102.691686 L156.313292,73.2552154 C154.032351,70.1677252 150.996233,68.8474507 147.210076,69.2892546 L129.198861,71.6780782 C125.741488,71.8887056 122.797841,74.5446664 121.457017,76.6509409 L114.716939,93.7528625 L104.437292,103.960588 C98.108194,107.936823 104.231802,116.731804 110.098547,110.366745 L121.241253,100.410745 L127.113135,91.3743135 C127.893998,89.1190585 128.931723,88.6310193 130.226312,89.9050585 L136.575959,115.03651" id="path9" sketch:type="MSShapeGroup"></path>
            <path d="M133.848076,47.0038429 C139.509331,47.0038429 144.086625,51.5914115 144.086625,57.2475291 C144.086625,62.9036468 139.504194,67.4860782 133.848076,67.4860782 C128.191959,67.4860782 123.60439,62.9036468 123.60439,57.2475291 C123.60439,51.5914115 128.191959,47.0038429 133.848076,47.0038429" id="path13" sketch:type="MSShapeGroup"></path>
            <path d="M86.2719587,89.591686 C90.8184293,89.591686 94.501841,93.280235 94.501841,97.8215684 C94.501841,102.378313 90.8184293,106.061725 86.2719587,106.061725 C81.7254881,106.061725 78.0369391,102.373176 78.0369391,97.8215684 C78.0369391,93.280235 81.7254881,89.591686 86.2719587,89.591686" id="path17" sketch:type="MSShapeGroup"></path>
            <path d="M88.6453704,108.599529 L82.2238018,108.599529 C80.2716449,108.825568 78.6893704,109.678353 77.4821155,111.671608 C74.87239,114.933764 72.2729391,118.195921 69.6632136,121.458078 C66.8736842,123.872588 64.0841547,126.297372 61.2894881,128.717019 C57.801292,132.230902 60.8836449,136.130078 66.0363116,132.909019 C68.3634881,130.864392 70.6855273,128.80949 73.0127038,126.764862 C74.9032136,124.720235 77.430743,123.672235 75.8022332,128.43447 C73.3877234,135.148862 70.9680763,141.847843 68.543292,148.562235 L76.6396057,148.973215 L69.9303508,177.068862 C69.1905861,183.552078 73.9939195,184.20451 76.2388998,178.461059 L82.7837626,148.973215 L86.4106645,149.117059 C88.3628214,158.523372 90.3149783,167.929686 92.2722724,177.341137 C92.929841,186.850196 100.933684,185.699451 98.411292,176.221215 C97.0190959,167.282392 95.6217626,158.071294 94.2244293,149.127333 C96.7365469,148.849921 99.2486645,148.839647 101.760782,148.562235 C99.9010959,139.335725 98.0414096,130.114353 96.1817234,120.887843 C100.183645,123.220157 104.180429,125.547333 108.182351,127.879647 C107.437449,128.711882 106.68741,129.554392 105.947645,130.391764 C107.807331,131.979176 109.667017,133.551176 111.531841,135.143725 C114.603919,131.321608 117.670861,127.504627 120.742939,123.687647 C118.878116,122.100235 117.018429,120.517961 115.158743,118.935686 C114.043959,120.240549 112.924037,121.545411 111.809253,122.845137 L88.6453704,108.599529" id="path21" sketch:type="MSShapeGroup"></path>
        </g>
    </g>
</svg>