<?xml version="1.0" encoding="UTF-8" standalone="no"?>
<svg width="256px" height="256px" viewBox="0 0 256 256" version="1.1" xmlns="http://www.w3.org/2000/svg" xmlns:xlink="http://www.w3.org/1999/xlink" xmlns:sketch="http://www.bohemiancoding.com/sketch/ns">
    <!-- Generator: Sketch 3.3.3 (12081) - http://www.bohemiancoding.com/sketch -->
    <title>series-of-curves-left</title>
    <desc>Created with Sketch.</desc>
    <defs></defs>
    <g id="Page-1" stroke="none" stroke-width="1" fill="none" fill-rule="evenodd" sketch:type="MSPage">
        <g id="series-of-curves-left" sketch:type="MSArtboardGroup" fill="#000000">
            <path d="M136.049365,92.3519308 C136.110926,94.7775115 137.859317,97.8967028 139.730831,98.7113879 C150.709567,102.142497 158.93849,112.747755 158.93849,125.16297 C158.93849,138.382598 149.400328,149.429056 136.855836,152.047533 L124.379071,154.419761 C121.450723,154.481328 118.834293,157.159319 118.834293,160.4673 C118.834293,162.903148 120.393889,165.025018 122.074559,165.769929 C130.375305,170.257872 136.170439,179.553891 136.170439,189.976507 L136.170439,206.569795 L114.65006,206.569795 L114.65006,189.847224 C114.65006,187.854636 113.593232,185.983117 112.345554,185.108924 C103.48048,180.932898 97.1825842,171.50555 97.1825842,160.528867 C97.1825842,147.116336 106.540158,135.889296 118.702958,133.33238 L131.432139,130.958099 C134.610844,131.027868 137.235475,128.403236 137.235475,125.101403 C137.235475,122.224361 135.296241,119.669492 132.991734,119.357574 C122.507552,115.864898 114.779342,104.697366 114.65006,92.4114385 L100.86405,96.5895174 C99.0540978,96.5895174 97.0615096,94.717998 97.0615096,92.5940741 C97.0615096,91.8491636 97.5560632,90.8538962 97.8679812,90.4804114 L125.696518,49.4302045 L153.143362,90.1684934 C153.455279,90.663047 153.949833,91.6583202 153.949833,92.5940741 C153.949833,94.717998 152.269163,96.5895174 150.085731,96.5895174 L136.049365,92.3519308" id="path3410" sketch:type="MSShapeGroup"></path>
        </g>
    </g>
</svg>