<?xml version="1.0" encoding="UTF-8" standalone="no"?>
<svg width="256px" height="256px" viewBox="0 0 256 256" version="1.1" xmlns="http://www.w3.org/2000/svg" xmlns:xlink="http://www.w3.org/1999/xlink" xmlns:sketch="http://www.bohemiancoding.com/sketch/ns">
    <!-- Generator: Sketch 3.3.3 (12081) - http://www.bohemiancoding.com/sketch -->
    <title>share-road</title>
    <desc>Created with Sketch.</desc>
    <defs></defs>
    <g id="Page-1" stroke="none" stroke-width="1" fill="none" fill-rule="evenodd" sketch:type="MSPage">
        <g id="share-road" sketch:type="MSArtboardGroup" fill="#000000">
            <g id="Group" sketch:type="MSLayerGroup" transform="translate(46.000000, 98.000000)">
                <ellipse id="Oval-1" sketch:type="MSShapeGroup" cx="46.5159574" cy="35.9888889" rx="9.65425532" ry="9.65555556"></ellipse>
                <rect id="Rectangle-1" sketch:type="MSShapeGroup" x="0" y="73.7333333" width="165" height="5.26666667"></rect>
                <path d="M96.5425532,63.0016775 L106.447093,63.0016775 C106.447093,63.0016775 106.447092,49.9381836 106.447092,43.9334635 C106.447092,39.4082791 96.4748431,31.9488824 96.4748431,31.9488824 L85.4449593,10.6121962 L34.3829995,10.6121962 L25.4606986,33.0358181 C25.4606986,33.0358181 15.9135794,38.4884983 15.9135794,45.2038411 L15.9135794,63.0016775 L24.5744681,63.0016775 L24.5744681,63.0016775 L24.5744681,75.4888889 L35.106383,75.4888889 L35.106383,63.0016775 L86.0106383,63.0016775 L86.0106383,75.4888889 L96.5425532,75.4888889 L96.5425532,63.0016775 Z M37.3845267,13.6389865 L30.5809508,31.960026 L90.8437656,31.960026 L82.5,13.6389865 L37.3845267,13.6389865 Z" id="Path-139" sketch:type="MSShapeGroup"></path>
                <ellipse id="Oval-2" sketch:type="MSShapeGroup" cx="45.6382979" cy="21.0666667" rx="5.26595745" ry="5.26666667"></ellipse>
                <path d="M143.93617,49.1555556 L149.202128,49.1555556 L149.202128,15.8 L133.404255,15.8 L133.404255,49.1555556 L138.670213,49.1555556 L138.670213,71.9777778 L143.93617,71.9777778 L143.93617,49.1555556 Z" id="Rectangle-4" sketch:type="MSShapeGroup"></path>
                <path d="M130.748676,35.9696879 C130.72581,35.8206784 130.686361,35.502068 130.645356,35.0429513 C130.412024,32.4304874 130.501334,29.5427789 131.131885,26.8880501 C132.374795,21.6551786 135.303448,18.7824528 140.878932,18.7824528 C146.536079,18.7824528 149.77896,21.6911999 151.438852,26.8951803 C152.373001,29.8238579 152.637756,32.9508735 152.527679,35.5072867 C152.520983,35.6627915 152.514814,35.7626114 152.511784,35.8009763 C152.402138,37.1891298 153.440462,38.4031873 154.830947,38.5126496 C156.221431,38.6221119 157.437527,37.5855279 157.547173,36.1973744 C157.554833,36.1003991 157.5647,35.9407454 157.574039,35.7238503 C157.707357,32.6276849 157.396263,28.9533606 156.251753,25.3651713 C153.976802,18.2329022 148.967679,13.7398996 140.878932,13.7398996 C132.708523,13.7398996 127.956637,18.4010402 126.217144,25.7246127 C125.441894,28.988555 125.336864,32.3845653 125.614295,35.490793 C125.665138,36.0600549 125.717538,36.4832661 125.755905,36.7332852 C125.967121,38.1096897 127.256015,39.054549 128.63473,38.8436875 C130.013446,38.6328259 130.959892,37.3460925 130.748676,35.9696879 L130.748676,35.9696879 Z" id="Shape" sketch:type="MSShapeGroup"></path>
                <rect id="Rectangle-6" sketch:type="MSShapeGroup" x="122.87234" y="33.3555556" width="36.8617021" height="5.26666667"></rect>
                <ellipse id="Oval-2-Copy" sketch:type="MSShapeGroup" cx="141.303191" cy="6.14444444" rx="6.14361702" ry="6.14444444"></ellipse>
                <rect id="Rectangle-7" sketch:type="MSShapeGroup" x="133.404255" y="45.6444444" width="3.5106383" height="15.8"></rect>
                <rect id="Rectangle-8" sketch:type="MSShapeGroup" x="145.691489" y="45.6444444" width="3.5106383" height="12.2888889"></rect>
                <rect id="Rectangle-9" sketch:type="MSShapeGroup" x="133.404255" y="59.6888889" width="15.7978723" height="3.51111111"></rect>
            </g>
        </g>
    </g>
</svg>