<?xml version="1.0" encoding="UTF-8" standalone="no"?>
<svg width="512px" height="512px" viewBox="0 0 512 512" version="1.1" xmlns="http://www.w3.org/2000/svg" xmlns:xlink="http://www.w3.org/1999/xlink" xmlns:sketch="http://www.bohemiancoding.com/sketch/ns">
    <!-- Generator: Sketch 3.2.2 (9983) - http://www.bohemiancoding.com/sketch -->
    <title>shared-path-lines</title>
    <desc>Created with Sketch.</desc>
    <defs></defs>
    <g id="symbols" stroke="none" stroke-width="1" fill="none" fill-rule="evenodd" sketch:type="MSPage">
        <g id="shared-path-lines" sketch:type="MSArtboardGroup" fill="#000000">
            <g id="g1953" sketch:type="MSLayerGroup" transform="translate(81.519304, 144.115763)">
                <path d="M24.4216145,137.966586 L35.1814156,137.966586 L35.1814156,180.237226 C35.1814156,184.423307 24.8058865,183.834889 24.8058865,180.237226 L24.4216145,137.966586 L24.4216145,137.966586 Z" id="path1914" sketch:type="MSShapeGroup"></path>
                <path d="M39.2784001,137.966586 L50.0382012,137.966586 L50.0382012,189.459908 C50.0382012,195.695052 39.6626721,195.489209 39.6626721,189.459908 L39.2784001,137.966586 L39.2784001,137.966586 Z" id="path1916" sketch:type="MSShapeGroup"></path>
                <path d="M0.13060413,133.994445 C3.19627274,119.186965 5.33755914,106.125853 26.0804392,86.5782536 L26.0804392,56.9601255 L22.4121358,56.0090793 L22.4448382,90.1157369 C20.7428183,91.8249577 19.1397699,93.6331604 17.5210646,95.4257062 C14.0469392,93.6994603 13.6902673,88.3018455 11.9506894,83.4534038 L9.82652062,70.0589194 L11.8148183,58.8622076 C15.4968755,50.6114439 17.7971788,42.0103246 32.0584071,36.580676 L40.6177713,36.4448049 C57.0963381,39.2998671 60.2431096,51.0133273 66.3443881,62.5575453 C73.7135945,76.5008015 82.4059804,88.8949853 74.040074,93.7789893 C83.3108275,99.8154699 88.1636618,110.26987 101.891991,111.848774 C108.444356,112.523676 111.85572,110.581093 116.836916,109.946692 L140.612937,138.749645 C141.742391,146.142059 139.010053,147.098167 136.40119,148.260056 L120.369359,129.103374 L125.939734,157.362874 L118.059684,157.362874 L123.086616,187.252734 C123.086616,190.120418 113.440344,190.876875 113.440344,187.796187 L108.549273,160.216002 L101.80557,160.140413 L98.7671412,191.736212 C98.7671412,194.982696 90.0719058,194.393671 90.0719058,191.736212 L93.87607,124.619896 L66.160024,99.0776532 C62.9645845,93.4254756 65.2912534,91.6712592 66.160024,88.8879284 C62.267093,77.2480925 55.6615751,66.96455 50.3999137,56.0090793 L48.4978316,56.0090793 L48.6336924,86.7141144 C70.8737982,105.938289 71.6533185,119.277399 74.5835275,134.402028 L0.13060413,133.994445 L0.13060413,133.994445 Z" id="path1918" sketch:type="MSShapeGroup"></path>
                <path d="M52.0896509,14.421025 C52.0926548,22.3818282 45.6400022,28.8369188 37.6792093,28.8369188 C29.7184061,28.8369188 23.2657535,22.3818282 23.2687573,14.421025 C23.2657535,6.46023215 29.7184061,0.0051312417 37.6792093,0.0051312417 C45.6400022,0.0051312417 52.0926548,6.46023215 52.0896509,14.421025 L52.0896509,14.421025 L52.0896509,14.421025 Z" id="path1922" sketch:type="MSShapeGroup"></path>
                <path d="M116.456204,91.4688002 C116.458887,98.5804399 110.69452,104.346999 103.58288,104.346999 C96.4712325,104.346999 90.7068655,98.5804399 90.7095484,91.4688002 C90.7068655,84.3571605 96.4712325,78.5906116 103.58288,78.5906116 C110.69452,78.5906116 116.458887,84.3571605 116.456204,91.4688002 L116.456204,91.4688002 L116.456204,91.4688002 Z" id="path1924" sketch:type="MSShapeGroup"></path>
            </g>
            <g id="BikeSymbol" sketch:type="MSLayerGroup" transform="translate(280.588893, 189.527914)">
                <path d="M70.8847442,0.086905072 C46.0341877,0.327288894 50.248609,-2.46116088 36.8787192,40.1828936 C25.9869778,74.2554592 27.1733503,70.5397213 27.1163876,72.929727 C27.0764667,74.7864993 28.5866773,76.2586565 30.4844222,76.3846668 C34.4310738,75.9886193 32.771023,76.8082881 46.4540134,34.6380446 C96.4511609,86.9829133 77.693485,78.4947006 104.60012,79.5577295 C139.962512,79.2211923 142.836716,81.3846452 143.256544,76.2404353 C143.208101,74.4936474 142.384595,73.4519857 118.115336,19.8464392 L120.440535,13.5003111 L128.433404,13.356081 L128.142755,6.72149294 L98.3511496,6.72149294 C95.719155,10.2951962 99.4168671,10.2791706 112.738316,13.2118507 L110.413118,19.7022076 L50.975233,19.8464392 C54.9797414,5.96829128 52.7191316,6.83367226 70.7394198,6.8657232 L70.8847442,0.086905072 L70.8847442,0.086905072 Z M49.2577508,26.9598355 L107.418894,26.8574901 L90.6099117,71.6849394 L49.2577508,26.9598355 L49.2577508,26.9598355 Z M114.43123,29.6208254 L97.9316145,72.6060511 L134.024521,72.7083965 L114.43123,29.6208254 L114.43123,29.6208254 Z" id="Frame" sketch:type="MSShapeGroup"></path>
                <path d="M64.6078536,73.3018175 C64.6078536,54.7040785 49.4169751,39.6276323 30.6780769,39.6276323 C11.9391786,39.6276323 -3.25169987,54.7040785 -3.25169987,73.3018175 C-3.25169987,91.8995564 11.9391786,106.976003 30.6780769,106.976003 C49.4169751,106.976003 64.6078536,91.8995564 64.6078536,73.3018175 Z M4.24659333,73.3018175 C4.24659333,58.8140761 16.0803716,47.0694412 30.6780769,47.0694412 C45.2757821,47.0694412 57.1095604,58.8140761 57.1095604,73.3018175 C57.1095604,87.7895589 45.2757821,99.5341938 30.6780769,99.5341938 C16.0803716,99.5341938 4.24659333,87.7895589 4.24659333,73.3018175 Z" id="FrontWheel" sketch:type="MSShapeGroup"></path>
                <path d="M172.395818,72.7436818 C172.395818,54.1459429 157.20494,39.0694966 138.466042,39.0694966 C119.727143,39.0694966 104.536265,54.1459429 104.536265,72.7436818 C104.536265,91.3414208 119.727143,106.417867 138.466042,106.417867 C157.20494,106.417867 172.395818,91.3414208 172.395818,72.7436818 Z M112.034558,72.7436818 C112.034558,58.2559404 123.868336,46.5113055 138.466042,46.5113055 C153.063747,46.5113055 164.897525,58.2559404 164.897525,72.7436818 C164.897525,87.2314232 153.063747,98.9760581 138.466042,98.9760581 C123.868336,98.9760581 112.034558,87.2314232 112.034558,72.7436818 Z" id="RearWheel" sketch:type="MSShapeGroup"></path>
            </g>
            <rect id="Rectangle-5" sketch:type="MSShapeGroup" x="244" y="48" width="12" height="371"></rect>
        </g>
    </g>
</svg>