<?xml version="1.0" encoding="UTF-8" standalone="no"?>
<svg width="512px" height="512px" viewBox="0 0 512 512" version="1.1" xmlns="http://www.w3.org/2000/svg" xmlns:xlink="http://www.w3.org/1999/xlink" xmlns:sketch="http://www.bohemiancoding.com/sketch/ns">
    <!-- Generator: Sketch 3.2.2 (9983) - http://www.bohemiancoding.com/sketch -->
    <title>share-roads</title>
    <desc>Created with Sketch.</desc>
    <defs></defs>
    <g id="us-symbols" stroke="none" stroke-width="1" fill="none" fill-rule="evenodd" sketch:type="MSPage">
        <g id="share-roads" sketch:type="MSArtboardGroup">
            <g id="Group" sketch:type="MSLayerGroup" transform="translate(91.000000, 127.000000)">
                <path d="M54.3829239,60.7306061 C54.3829239,56.5369142 50.9736239,53.123234 46.7819602,53.123234 C42.5902966,53.123234 39.1809966,56.5369142 39.1809966,60.7306061 C39.1809966,64.9258038 42.5902966,68.3379782 46.7819602,68.3379782 C50.9736239,68.3379782 54.3829239,64.924298 54.3829239,60.7306061 L54.3829239,60.7306061 Z" id="path14" fill="#000000" sketch:type="MSShapeGroup"></path>
                <path d="M39.4924375,94.5135422 L43.1078602,107.279833 L49.7007784,105.233432 C49.7007784,105.233432 47.5643239,99.3456991 47.3040375,98.6349549 C47.9269193,98.4587747 54.9877511,96.4364666 57.6252193,95.6820538 C55.6046148,99.2086701 43.8240239,119.760019 43.8240239,119.760019 L50.1310784,122.917711 L70.458992,89.5503794 L55.7009057,67.3938328 L44.9464148,74.0194142 L31.4250648,85.5012456 L35.0991648,90.0969898 C35.0991648,90.0969898 48.0262193,81.3451991 48.6686602,80.9100189 C48.9018648,81.2668968 51.6356239,85.4846817 54.0729875,89.2446991 L39.4924375,94.5135422 L39.4924375,94.5135422 Z" id="path16" fill="#000000" sketch:type="MSShapeGroup"></path>
                <path d="M100.856828,115.850926 C100.856828,105.07231 92.0928511,96.2994375 81.3233148,96.2994375 C70.5522739,96.2994375 61.7882966,105.07231 61.7882966,115.850926 C61.7882966,126.629542 70.5522739,135.402414 81.3233148,135.402414 C92.0928511,135.402414 100.856828,126.629542 100.856828,115.850926 L100.856828,115.850926 Z M67.4709648,115.850926 C67.4709648,108.207414 73.6847375,101.988403 81.3218102,101.988403 C88.9573784,101.988403 95.1726557,108.207414 95.1726557,115.850926 C95.1726557,119.553722 93.7313011,123.035164 91.1148966,125.653775 C88.498492,128.272385 85.0214875,129.713449 81.3218102,129.713449 C73.6847375,129.713449 67.4709648,123.494437 67.4709648,115.850926 L67.4709648,115.850926 Z" id="path18" fill="#000000" sketch:type="MSShapeGroup"></path>
                <path d="M39.2712693,115.850926 C39.2712693,105.07231 30.507292,96.2994375 19.7362511,96.2994375 C8.96521023,96.2994375 0.201232955,105.07231 0.201232955,115.850926 C0.201232955,121.073089 2.23537841,125.983548 5.92301932,129.675804 C9.61366932,133.36806 14.5184875,135.40392 19.7362511,135.40392 C30.507292,135.402414 39.2712693,126.629542 39.2712693,115.850926 L39.2712693,115.850926 Z M5.88691023,115.850926 C5.88691023,108.207414 12.100683,101.988403 19.7362511,101.988403 C27.3733239,101.988403 33.5870966,108.207414 33.5870966,115.850926 C33.5870966,123.492932 27.3733239,129.713449 19.7362511,129.713449 C12.100683,129.713449 5.88691023,123.492932 5.88691023,115.850926 L5.88691023,115.850926 Z" id="path20" fill="#000000" sketch:type="MSShapeGroup"></path>
                <ellipse id="circle22" fill="#000000" sketch:type="MSShapeGroup" cx="220.228969" cy="92.5333968" rx="5.41786833" ry="5.4224362"></ellipse>
                <path d="M96.9585511,38.8044491 C94.7935102,40.7379142 91.7483102,41.8507108 88.412733,41.8507108 C81.6813966,41.8507108 76.7660466,37.8678328 74.1315875,31.8927631 L80.0444511,29.7258968 C81.6829011,33.4166468 84.725092,35.5247863 88.4142375,35.5247863 C92.0416966,35.5247863 94.5001239,33.0055596 94.5001239,29.7258968 C94.5001239,24.5127689 88.4142375,23.6333735 83.3213511,21.5839608 C80.9802784,20.6458387 75.771542,18.3027922 75.771542,11.8006875 C75.771542,4.12705959 80.9802784,1.19825145 88.0034966,1.19825145 C93.5041148,1.19825145 97.250433,4.36196657 99.1822693,9.22423983 L93.6816511,10.8640712 C93.6816511,10.8640712 92.2764057,7.52568169 87.886142,7.4082282 L87.4769057,7.4082282 C84.7852739,7.4082282 81.858933,8.46229797 81.858933,11.5672863 L81.858933,11.9768677 C82.3870284,19.2409142 100.822224,14.4373677 100.822224,29.8433503 C100.822224,33.415141 99.4169784,36.5788561 96.9585511,38.8044491 L96.9585511,38.8044491 Z" id="path24" fill="#000000" sketch:type="MSShapeGroup"></path>
                <path d="M127.917583,41.1474956 L127.917583,24.0429549 L113.637942,24.0429549 L113.637942,41.1474956 L107.433197,41.1474956 L107.433197,1.90146657 L113.637942,1.90146657 L113.637942,17.7170305 L127.917583,17.7170305 L127.917583,1.90146657 L134.122328,1.90146657 L134.122328,41.1474956 L127.917583,41.1474956 L127.917583,41.1474956 Z" id="path26" fill="#000000" sketch:type="MSShapeGroup"></path>
                <path d="M166.605465,41.1474956 L162.743297,30.1354782 L150.509837,30.1354782 L146.647669,41.1474956 L140.033687,41.1474956 L153.552028,1.90146657 L159.698097,1.90146657 L173.217942,41.1474956 L166.605465,41.1474956 L166.605465,41.1474956 Z M156.713078,12.7975363 L152.674878,23.8095538 L160.518074,23.8095538 L156.713078,12.7975363 L156.713078,12.7975363 Z" id="path28" fill="#000000" sketch:type="MSShapeGroup"></path>
                <path d="M199.087097,41.1474956 L192.766501,24.0429549 L185.334047,24.0429549 L185.334047,41.1474956 L179.130806,41.1474956 L179.130806,1.90146657 L192.065383,1.90146657 C195.107574,1.90146657 197.158269,2.19510029 199.088601,3.13171657 C202.541533,4.77154797 204.99996,8.93211192 204.99996,12.9149898 C204.99996,17.074048 202.541533,21.1743794 198.914074,22.8142108 L205.819938,41.1490015 L199.087097,41.1490015 L199.087097,41.1474956 Z M196.336788,8.81315262 C195.283606,8.22739099 194.814188,8.1099375 192.766501,8.1099375 L185.334047,8.1099375 L185.334047,17.7170305 L192.766501,17.7170305 C194.698338,17.7170305 195.342283,17.599577 196.336788,17.0725422 C197.859388,16.1946526 198.795215,14.5548212 198.795215,12.913484 C198.795215,11.2721468 197.859388,9.63382122 196.336788,8.81315262 L196.336788,8.81315262 Z" id="path30" fill="#000000" sketch:type="MSShapeGroup"></path>
                <path d="M212.43091,41.1474956 L212.43091,1.90146657 L235.548251,1.90146657 L235.548251,8.11144331 L218.634151,8.11144331 L218.634151,17.7185363 L230.047633,17.7185363 L230.047633,24.0444608 L218.634151,24.0444608 L218.634151,34.823077 L236.778969,34.823077 L236.778969,41.1490015 L212.43091,41.1490015 L212.43091,41.1474956 Z" id="path32" fill="#000000" sketch:type="MSShapeGroup"></path>
                <path d="M125.400478,169.750031 L125.400478,203.489298 L119.197238,203.489298 L119.197238,169.750031 L110.242183,169.750031 L110.242183,164.243269 L134.472888,164.243269 L134.472888,169.750031 L125.400478,169.750031 L125.400478,169.750031 Z" id="path34" fill="#000000" sketch:type="MSShapeGroup"></path>
                <path d="M160.752783,203.489298 L160.752783,186.384757 L146.471637,186.384757 L146.471637,203.489298 L140.268397,203.489298 L140.268397,164.243269 L146.471637,164.243269 L146.471637,180.058833 L160.752783,180.058833 L160.752783,164.243269 L166.957528,164.243269 L166.957528,203.489298 L160.752783,203.489298 L160.752783,203.489298 Z" id="path36" fill="#000000" sketch:type="MSShapeGroup"></path>
                <path d="M176.320315,203.489298 L176.320315,164.243269 L199.437656,164.243269 L199.437656,170.453246 L182.523556,170.453246 L182.523556,180.058833 L193.937038,180.058833 L193.937038,186.384757 L182.523556,186.384757 L182.523556,197.163374 L200.668374,197.163374 L200.668374,203.489298 L176.320315,203.489298 L176.320315,203.489298 Z" id="path38" fill="#000000" sketch:type="MSShapeGroup"></path>
                <path d="M109.775774,257.88231 L103.455178,240.777769 L96.0227239,240.777769 L96.0227239,257.88231 L89.8179784,257.88231 L89.8179784,218.636281 L102.752556,218.636281 C105.796251,218.636281 107.843937,218.928408 109.775774,219.866531 C113.228706,221.506362 115.687133,225.66542 115.687133,229.648298 C115.687133,233.807356 113.228706,237.907688 109.599742,239.547519 L116.505606,257.88231 L109.775774,257.88231 L109.775774,257.88231 Z M107.025465,225.549472 C105.972283,224.962205 105.502865,224.846257 103.455178,224.846257 L96.0227239,224.846257 L96.0227239,234.451844 L103.455178,234.451844 C105.387015,234.451844 106.029456,234.335897 107.025465,233.807356 C108.54656,232.929467 109.483892,231.288129 109.483892,229.648298 C109.483892,228.008467 108.54656,226.368635 107.025465,225.549472 L107.025465,225.549472 Z" id="path40" fill="#000000" sketch:type="MSShapeGroup"></path>
                <path d="M145.827692,254.19156 C143.602469,257.179094 140.442924,258.585525 136.346047,258.585525 C130.845428,258.585525 127.390992,256.358426 125.049919,251.556385 C123.411469,248.21649 122.29961,243.003362 122.29961,238.317269 C122.29961,231.875397 123.93806,226.075001 126.572519,222.327031 C128.913592,219.339496 132.074642,217.933065 136.580756,217.933065 C141.556287,217.933065 145.009219,220.160164 147.466142,224.962205 C149.104592,228.419554 150.100601,233.397775 150.100601,238.317269 C150.100601,244.527246 148.578001,250.735717 145.827692,254.19156 L145.827692,254.19156 Z M141.554783,227.306757 C140.325569,225.255839 138.802969,224.436676 136.463401,224.260496 L136.112842,224.260496 C133.303856,224.260496 131.430697,225.784379 130.142806,229.122769 C129.146797,231.465815 128.620206,235.039112 128.620206,238.317269 C128.620206,242.477833 129.440183,246.754344 130.961278,249.213339 C132.190492,251.262751 133.828942,252.258094 136.346047,252.258094 C139.21371,252.258094 141.028192,250.734211 142.37476,247.278368 C143.194737,245.228955 143.89736,241.362025 143.89736,238.315763 C143.895856,233.92481 143.075878,229.941932 141.554783,227.306757 L141.554783,227.306757 Z" id="path42" fill="#000000" sketch:type="MSShapeGroup"></path>
                <path d="M181.87961,257.88231 L178.018947,246.870292 L165.785487,246.870292 L161.924824,257.88231 L155.310842,257.88231 L168.830687,218.636281 L174.975251,218.636281 L188.495097,257.88231 L181.87961,257.88231 L181.87961,257.88231 Z M171.987224,229.530844 L167.949024,240.542862 L175.792219,240.542862 L171.987224,229.530844 L171.987224,229.530844 Z" id="path44" fill="#000000" sketch:type="MSShapeGroup"></path>
                <path d="M214.188219,255.656717 C212.724297,257.063147 210.617933,257.764856 208.570247,257.883815 L206.345024,257.883815 L194.404951,257.883815 L194.404951,218.637786 L207.046142,218.637786 C211.025665,218.637786 212.54676,219.047368 214.654628,220.687199 C218.751506,224.260496 221.092578,230.470472 221.092578,238.202827 C221.094083,246.051129 218.634151,252.2596 214.188219,255.656717 L214.188219,255.656717 Z M211.610933,226.486089 C210.617933,225.549472 209.271365,224.846257 207.63141,224.846257 L200.608192,224.846257 L200.608192,251.556385 L206.811433,251.556385 C208.859119,251.556385 210.088333,251.146804 211.201697,250.032501 C213.541265,247.689455 214.771983,243.412943 214.771983,238.201321 C214.773487,232.929467 213.541265,228.535501 211.610933,226.486089 L211.610933,226.486089 Z" id="path46" fill="#000000" sketch:type="MSShapeGroup"></path>
                <path d="M232.865647,85.0193852 L232.865647,99.2975131 L257.021124,99.2975131 L257.021124,96.3566584 C256.705169,96.0163445 246.778178,85.3581933 246.463728,85.0193852 L232.865647,85.0193852 L232.865647,85.0193852 Z" id="path48" sketch:type="MSShapeGroup"></path>
                <path d="M231.371633,85.0193852 L217.791606,85.0193852 C217.489192,85.303984 205.746215,96.4394782 204.667456,97.4604201 C205.553633,98.0040189 207.461397,99.177048 207.661501,99.2975131 L231.371633,99.2975131 L231.371633,85.0193852 L231.371633,85.0193852 Z" id="path50" sketch:type="MSShapeGroup"></path>
                <path d="M330.005119,105.771007 C330.005119,104.349519 328.789447,103.042472 328.205683,102.414548 C326.759815,100.860548 324.001983,99.9585654 323.77931,99.8998387 C323.77931,99.8998387 281.209701,95.2649433 280.925342,95.2333212 C280.689128,95.0601526 260.213769,80.0095422 260.213769,80.0095422 L218.390415,80.0095422 C218.244474,80.0095422 214.722333,80.0200828 212.731819,80.9371235 C212.275942,81.0500596 211.911842,81.4671701 211.592878,81.8601875 L211.064783,82.4158328 L210.944419,82.5046759 L196.875415,95.8687747 C196.624156,95.9847224 196.383428,96.2407108 196.07951,96.5614491 L195.63266,97.0086759 L195.486719,97.0719201 C194.800647,97.5643212 193.825701,97.8474142 192.807124,97.8474142 C192.486656,97.8474142 176.893547,99.0264666 167.175688,99.8983328 C152.897551,101.346926 129.81331,105.126519 129.632765,105.159647 C129.539483,105.168682 127.383469,105.347874 126.13921,107.66231 C124.463147,110.779344 125.298169,116.037647 128.573565,123.169182 C128.928638,124.690054 130.248124,126.263629 131.818869,126.263629 L137.289397,126.555757 C139.795969,126.555757 141.526197,125.769722 142.908874,123.985333 C143.846206,122.706897 144.676715,121.13031 145.559883,119.463374 C148.648715,113.604251 152.149792,106.962106 162.603374,106.962106 C177.375001,106.962106 180.132833,120.356321 181.309388,126.072391 C181.309388,126.072391 181.372578,126.370542 181.375588,126.3856 C182.14441,129.693874 185.449897,129.474025 188.365706,129.279775 L190.362238,129.189426 L250.447765,129.183403 C250.557597,129.198461 253.190551,129.484565 255.26231,127.255961 C256.417801,126.016676 257.344601,124.053094 258.414333,121.779315 C261.345188,115.567833 264.990701,107.841501 275.818915,107.841501 C286.966092,107.841501 291.239001,117.121833 293.06251,121.086641 C293.06251,121.086641 293.273147,121.538385 293.286688,121.570007 C294.418106,123.700734 296.348438,123.664594 298.050078,123.63749 C298.050078,123.63749 298.678978,123.631467 298.716592,123.629961 L323.719128,121.875687 C325.754778,121.875687 327.555719,120.963164 328.798474,119.293217 C329.010615,118.989042 329.388256,118.112658 329.938919,116.804106 L330.560297,115.384124 L330.005119,105.771007 L330.005119,105.771007 Z M204.667456,97.4619259 C205.746215,96.440984 217.487688,85.3054898 217.791606,85.020891 L231.371633,85.020891 L231.371633,99.2990189 L207.661501,99.2990189 C207.461397,99.177048 205.553633,98.0055247 204.667456,97.4619259 L204.667456,97.4619259 Z M257.021124,99.2975131 L232.865647,99.2975131 L232.865647,85.0193852 L246.463728,85.0193852 C246.778178,85.3596991 256.705169,96.0178503 257.021124,96.3566584 L257.021124,99.2975131 L257.021124,99.2975131 Z" id="path52" fill="#000000" sketch:type="MSShapeGroup"></path>
                <path d="M276.608801,110.898304 C268.595592,110.898304 261.823633,117.606705 261.823633,125.54385 C261.823633,133.46142 268.455669,139.901786 276.608801,139.901786 C284.300037,139.901786 290.802683,133.327403 290.802683,125.54385 C290.802683,117.46817 284.433942,110.898304 276.608801,110.898304 L276.608801,110.898304 Z M276.315415,132.484147 C272.40811,132.484147 269.242547,129.314408 269.242547,125.40381 C269.242547,121.494717 272.40811,118.324978 276.315415,118.324978 C280.222719,118.324978 283.389787,121.494717 283.389787,125.40381 C283.389787,129.314408 280.222719,132.484147 276.315415,132.484147 L276.315415,132.484147 Z" id="path54" fill="#000000" sketch:type="MSShapeGroup"></path>
                <path d="M163.369188,110.167984 C155.377042,110.167984 148.875901,116.671594 148.875901,124.664455 C148.875901,132.663339 155.377042,139.169961 163.369188,139.169961 C171.35381,139.169961 177.853447,132.663339 177.853447,124.664455 C177.853447,116.6731 171.352306,110.167984 163.369188,110.167984 L163.369188,110.167984 Z M163.363169,132.484147 C159.455865,132.484147 156.288797,129.314408 156.288797,125.40381 C156.288797,121.494717 159.455865,118.324978 163.363169,118.324978 C167.270474,118.324978 170.437542,121.494717 170.437542,125.40381 C170.437542,129.314408 167.270474,132.484147 163.363169,132.484147 L163.363169,132.484147 Z" id="path56" fill="#000000" sketch:type="MSShapeGroup"></path>
            </g>
        </g>
    </g>
</svg>