<?xml version="1.0" encoding="UTF-8" standalone="no"?>
<svg width="512px" height="512px" viewBox="0 0 512 512" version="1.1" xmlns="http://www.w3.org/2000/svg" xmlns:xlink="http://www.w3.org/1999/xlink" xmlns:sketch="http://www.bohemiancoding.com/sketch/ns">
    <!-- Generator: Sketch 3.2.2 (9983) - http://www.bohemiancoding.com/sketch -->
    <title>shared-path</title>
    <desc>Created with Sketch.</desc>
    <defs></defs>
    <g id="symbols" stroke="none" stroke-width="1" fill="none" fill-rule="evenodd" sketch:type="MSPage">
        <g id="shared-path" sketch:type="MSArtboardGroup" fill="#000000">
            <g id="g1953" sketch:type="MSLayerGroup" transform="translate(197.889098, 92.543190)">
                <path d="M21.0065665,118.673738 L30.2617481,118.673738 L30.2617481,155.033373 C30.2617481,158.634085 21.337103,158.127949 21.337103,155.033373 L21.0065665,118.673738 L21.0065665,118.673738 Z" id="path1914" sketch:type="MSShapeGroup"></path>
                <path d="M33.7858221,118.673738 L43.0410038,118.673738 L43.0410038,162.966383 C43.0410038,168.329622 34.1163587,168.152563 34.1163587,162.966383 L33.7858221,118.673738 L33.7858221,118.673738 Z" id="path1916" sketch:type="MSShapeGroup"></path>
                <path d="M0.112340826,115.257049 C2.7493152,102.520205 4.5911703,91.2855203 22.4334259,74.4714009 L22.4334259,48.9949862 L19.2780875,48.1769316 L19.3062169,77.5142127 C17.8422026,78.9844211 16.4633198,80.5397699 15.0709696,82.0816513 C12.0826558,80.5967986 11.7758599,75.9539707 10.2795395,71.783521 L8.45240838,60.2620827 L10.1626683,50.6310866 C13.3298372,43.5340859 15.3084727,36.1357222 27.5754521,31.46534 L34.9378996,31.3484687 C49.1121512,33.8042873 51.8188873,43.8797711 57.0669807,53.809679 C63.4056985,65.8031506 70.8825663,76.4641676 63.686524,80.6652066 C71.6608822,85.8575631 75.8351102,94.8500498 87.6437096,96.2081651 C93.2798106,96.78869 96.2141396,95.117753 100.498779,94.5720647 L120.95003,119.347296 C121.921545,125.705976 119.571289,126.528384 117.327242,127.527798 L103.537255,111.049931 L108.328685,135.357704 L101.550559,135.357704 L105.874539,161.067853 C105.874539,163.534528 97.5771746,164.185204 97.5771746,161.535311 L93.3700567,137.811859 L87.5693732,137.74684 L84.9558297,164.924374 C84.9558297,167.716879 77.4765109,167.210222 77.4765109,164.924374 L80.7487118,107.19341 L56.9083975,85.2229206 C54.159799,80.3611271 56.1611133,78.8522153 56.9083975,76.4580975 C53.5598427,66.4459425 47.8780214,57.6004209 43.3521355,48.1769316 L41.716035,48.1769316 L41.8328975,74.5882633 C60.9630111,91.1241853 61.6335255,102.597992 64.1539826,115.607637 L0.112340826,115.257049 L0.112340826,115.257049 Z" id="path1918" sketch:type="MSShapeGroup"></path>
                <path d="M44.8055847,12.4044306 C44.8081685,19.252018 39.2578362,24.8044475 32.4102576,24.8044475 C25.5626701,24.8044475 20.0123378,19.252018 20.0149216,12.4044306 C20.0123378,5.55685196 25.5626701,0.00441370369 32.4102576,0.00441370369 C39.2578362,0.00441370369 44.8081685,5.55685196 44.8055847,12.4044306 L44.8055847,12.4044306 L44.8055847,12.4044306 Z" id="path1922" sketch:type="MSShapeGroup"></path>
                <path d="M100.171305,78.6780676 C100.173613,84.7952362 95.2153185,89.7554163 89.0981499,89.7554163 C82.9809742,89.7554163 78.0226797,84.7952362 78.0249874,78.6780676 C78.0226797,72.560899 82.9809742,67.6007277 89.0981499,67.6007277 C95.2153185,67.6007277 100.173613,72.560899 100.171305,78.6780676 L100.171305,78.6780676 L100.171305,78.6780676 Z" id="path1924" sketch:type="MSShapeGroup"></path>
            </g>
            <g id="BikeSymbol" sketch:type="MSLayerGroup" transform="translate(150.604862, 269.112986)">
                <path d="M88.3338571,0.108297777 C57.366044,0.407854902 62.6178947,-3.06700455 45.9568494,50.0743851 C32.3839778,92.5343133 33.8623898,87.9039027 33.7914051,90.8822365 C33.7416572,93.1960751 35.6236239,95.0306211 37.988521,95.1876503 C42.9066873,94.6941111 40.8379954,95.7155509 57.8892147,43.1646063 C120.193748,108.39478 96.8186494,97.8170937 130.348669,99.1417996 C174.415929,98.7224199 177.997653,101.418432 178.520826,95.0079145 C178.460458,92.8311342 177.434237,91.5330553 147.190815,24.7318734 L150.088388,16.8235713 L160.048796,16.6438373 L159.6866,8.37606743 L122.561441,8.37606743 C119.28155,12.8294797 123.889497,12.8095093 140.490178,16.4641031 L137.592604,24.5521376 L63.5233857,24.7318734 C68.513651,7.43745633 65.6965655,8.515861 88.1527594,8.55580166 L88.3338571,0.108297777 L88.3338571,0.108297777 Z M61.3831251,33.5963158 L133.861317,33.468777 L112.914606,89.3310298 L61.3831251,33.5963158 L61.3831251,33.5963158 Z M142.599822,36.9123397 L122.038632,90.478884 L167.016233,90.6064228 L142.599822,36.9123397 L142.599822,36.9123397 Z" id="Frame" sketch:type="MSShapeGroup"></path>
                <path d="M80.5118361,91.3459214 C80.5118361,68.1701304 61.5815443,49.3824397 38.229846,49.3824397 C14.8781478,49.3824397 -4.05214401,68.1701304 -4.05214401,91.3459214 C-4.05214401,114.521712 14.8781478,133.309403 38.229846,133.309403 C61.5815443,133.309403 80.5118361,114.521712 80.5118361,91.3459214 Z M5.29194219,91.3459214 C5.29194219,73.2918522 20.0387441,58.6561373 38.229846,58.6561373 C56.420948,58.6561373 71.1677499,73.2918522 71.1677499,91.3459214 C71.1677499,109.399991 56.420948,124.035705 38.229846,124.035705 C20.0387441,124.035705 5.29194219,109.399991 5.29194219,91.3459214 Z" id="FrontWheel" sketch:type="MSShapeGroup"></path>
                <path d="M214.833075,90.6503941 C214.833075,67.4746031 195.902783,48.6869124 172.551085,48.6869124 C149.199387,48.6869124 130.269095,67.4746031 130.269095,90.6503941 C130.269095,113.826185 149.199387,132.613876 172.551085,132.613876 C195.902783,132.613876 214.833075,113.826185 214.833075,90.6503941 Z M139.613181,90.6503941 C139.613181,72.5963249 154.359983,57.96061 172.551085,57.96061 C190.742187,57.96061 205.488989,72.5963249 205.488989,90.6503941 C205.488989,108.704463 190.742187,123.340178 172.551085,123.340178 C154.359983,123.340178 139.613181,108.704463 139.613181,90.6503941 Z" id="RearWheel" sketch:type="MSShapeGroup"></path>
            </g>
        </g>
    </g>
</svg>