<?xml version="1.0" encoding="UTF-8" standalone="no"?>
<svg width="512px" height="512px" viewBox="0 0 512 512" version="1.1" xmlns="http://www.w3.org/2000/svg" xmlns:xlink="http://www.w3.org/1999/xlink" xmlns:sketch="http://www.bohemiancoding.com/sketch/ns">
    <!-- Generator: Sketch 3.2.2 (9983) - http://www.bohemiancoding.com/sketch -->
    <title>single-2-reverse-curve</title>
    <desc>Created with Sketch.</desc>
    <defs></defs>
    <g id="us-symbols" stroke="none" stroke-width="1" fill="none" fill-rule="evenodd" sketch:type="MSPage">
        <g id="single-2-reverse-curve" sketch:type="MSArtboardGroup" fill="#000000">
            <path d="M285.65396,277.727423 C285.629178,282.361616 283.00231,286.673645 279.012444,288.972154 L234.59111,319.658189 C225.719234,325.779302 221.8223,337.649773 221.8223,348.578536 L221.782649,378.960994 L248.057527,378.960994 L248.062484,348.733423 C248.062484,344.570084 250.076003,340.629782 253.402957,338.17019 L292.483818,311.585525 C304.329507,304.665214 311.869337,291.437941 311.869337,277.597319 C311.869337,277.597319 311.869337,277.436238 311.869337,277.597319 C311.856946,261.309497 311.856946,245.034065 311.869337,228.746243 L311.869337,228.756155 C311.869337,214.915533 304.329507,201.67587 292.483818,194.755559 L253.402957,168.170908 C250.076251,165.711317 248.062732,161.764819 248.062732,157.607676 L248.057775,145.842528 L262.524137,150.160752 C264.537656,150.718342 266.012172,150.959965 267.561033,149.906987 C269.760416,148.407689 270.342787,145.384313 268.84349,143.166344 L234.923434,93.0390059 L200.9724,143.166344 C199.460712,145.384313 200.043084,148.407689 202.254857,149.906987 C203.716982,150.910649 205.253452,150.730981 207.068717,150.27227 L221.782897,145.842528 L221.822548,157.762562 C221.822548,168.691325 225.719482,180.561796 234.591358,186.682895 L279.012692,217.368929 C283.002558,219.67983 285.629426,223.985664 285.654208,228.619856 C285.67899,244.982023 285.67899,261.356582 285.654208,277.724945" id="path4171" sketch:type="MSShapeGroup"></path>
        </g>
    </g>
</svg>