<?xml version="1.0" encoding="UTF-8" standalone="no"?>
<svg width="512px" height="512px" viewBox="0 0 512 512" version="1.1" xmlns="http://www.w3.org/2000/svg" xmlns:xlink="http://www.w3.org/1999/xlink" xmlns:sketch="http://www.bohemiancoding.com/sketch/ns">
    <!-- Generator: Sketch 3.2.2 (9983) - http://www.bohemiancoding.com/sketch -->
    <title>skewed-railroads</title>
    <desc>Created with Sketch.</desc>
    <defs></defs>
    <g id="us-symbols" stroke="none" stroke-width="1" fill="none" fill-rule="evenodd" sketch:type="MSPage">
        <g id="skewed-railroads" sketch:type="MSArtboardGroup" fill="#000000">
            <g id="path3634-+-path3638-+-path3666" sketch:type="MSLayerGroup" transform="translate(168.000000, 102.000000)">
                <path d="M61.1208612,239.057403 L61.1706214,306.908228 L114.151057,306.908228 L114.151057,186.655765 L61.1208259,239.057403 L61.1208612,239.057403 Z" id="path3634" sketch:type="MSShapeGroup"></path>
                <path d="M130.118706,67.3422332 L120.158799,77.2974147 L130.118706,87.4081558 L120.158799,97.5188969 L110.043294,87.4081558 L99.9277709,97.5188969 L110.043294,107.474078 L100.23902,117.273736 L90.2791122,107.318536 L80.1635893,117.273736 L90.2791122,127.384477 L80.1635893,137.4952 L70.0480664,127.384477 L59.9325434,137.4952 L70.0480664,147.605941 L60.0881766,157.56114 L49.9726537,147.450399 L40.1683813,157.405581 L50.1282693,167.36078 L40.0127481,177.471521 L30.0528584,167.516322 L20.092951,177.315961 L30.2084739,187.426703 L20.2485842,197.381902 L10.1330613,187.271161 L0.173153888,197.226342 L10.2886768,207.337083 L0.173153888,217.447824 L4.9974832,222.269873 L15.1130061,212.159132 L30.0528584,227.091922 L19.9373354,237.202645 L24.9172803,242.180254 L34.8771877,232.069513 L44.992693,242.180254 L54.9525986,232.225055 L44.8370774,222.114313 L54.796983,212.159132 L64.912506,222.269873 L74.8723957,212.314674 L64.7568727,202.203933 L74.8723957,192.093192 L84.9879186,202.203933 L94.9478083,192.248751 L84.8322854,182.13801 L94.7921928,172.182829 L104.907716,182.293552 L115.023239,172.182829 L104.907716,162.072088 L115.023239,152.116888 L124.983128,162.22763 L135.098651,152.116888 L124.983128,142.006147 L134.787403,132.206508 L144.902925,142.317249 L154.862833,132.362067 L144.74731,122.251326 L154.862833,112.140585 L164.978338,122.251326 L175.093861,112.140585 L164.978338,102.029844 L174.782612,92.3857465 L169.802667,87.4081558 L159.998393,97.0522533 L145.058559,82.2750054 L154.862833,72.4753659 L150.038504,67.6533348 L140.234229,77.4529743 L130.118706,67.3422332 L130.118706,67.3422332 Z M135.098651,92.2302045 L150.038504,107.162994 L139.922981,117.429278 L124.827513,102.340946 L135.098651,92.2302045 L135.098651,92.2302045 Z M114.867605,112.296127 L129.963073,127.384477 L120.158799,137.184116 L105.063331,122.095767 L114.867605,112.296127 L114.867605,112.296127 Z M95.1034415,132.206508 L110.043294,147.139298 L99.9277709,157.250039 L84.9879186,142.317249 L95.1034415,132.206508 L95.1034415,132.206508 Z M74.8723957,152.42799 L89.8122479,167.36078 L80.0079738,177.315961 L64.912506,162.22763 L74.8723957,152.42799 L74.8723957,152.42799 Z M54.9525986,172.182829 L70.0480664,187.271161 L59.9325434,197.226342 L44.992693,182.293552 L54.9525986,172.182829 L54.9525986,172.182829 Z M35.0328032,192.248751 L49.9726537,207.181541 L40.0127481,217.136723 L25.0729135,202.203933 L35.0328032,192.248751 L35.0328032,192.248751 Z" id="path3638" sketch:type="MSShapeGroup"></path>
                <path d="M114.151146,69.6698603 L114.113737,1.81901709 L61.1208612,1.81901709 L61.1208612,122.065254 L114.151093,69.6698603 L114.151146,69.6698603 Z" id="path3666" sketch:type="MSShapeGroup"></path>
            </g>
        </g>
    </g>
</svg>