<?xml version="1.0" encoding="UTF-8" standalone="no"?>
<svg width="512px" height="512px" viewBox="0 0 512 512" version="1.1" xmlns="http://www.w3.org/2000/svg" xmlns:xlink="http://www.w3.org/1999/xlink" xmlns:sketch="http://www.bohemiancoding.com/sketch/ns">
    <!-- Generator: Sketch 3.2.2 (9983) - http://www.bohemiancoding.com/sketch -->
    <title>slippery</title>
    <desc>Created with Sketch.</desc>
    <defs></defs>
    <g id="us-symbols" stroke="none" stroke-width="1" fill="none" fill-rule="evenodd" sketch:type="MSPage">
        <g id="slippery" sketch:type="MSArtboardGroup" fill="#000000">
            <path d="M264.020608,164.345497 C263.376014,163.374815 262.769337,162.510299 261.684903,161.971874 C260.691469,161.478948 259.735953,161.077025 258.590849,161.077025 C257.453329,161.077025 256.202059,161.084549 255.178292,160.500682 C254.222773,159.947089 253.426511,159.438998 252.637831,158.657899 C251.924986,157.93747 252.971503,156.762035 253.418927,156.200858 C253.942187,155.54868 254.586781,154.456661 254.586781,153.59973 C254.586781,153.038553 254.457867,152.530461 254.571518,151.976868 C254.677689,151.461192 254.897608,150.99102 254.981025,150.467761 C255.155533,149.383326 254.670198,148.382309 254.753617,147.350958 C254.821868,146.342356 254.943194,145.402008 254.670189,144.385822 C254.040763,142.050117 252.599905,140.806429 250.590288,139.661325 C246.942641,137.575873 240.87587,139.873667 239.442596,143.809479 C238.646332,146.008684 238.464328,148.25339 238.858669,150.566346 C239.222675,152.765548 240.754536,154.58558 241.110957,156.708949 C241.17162,157.072957 241.437047,157.846469 241.330879,158.187725 C241.171633,158.718569 240.587698,158.491063 240.08719,158.362147 C239.253008,158.157394 237.804568,158.392478 237.046222,158.771654 C236.151373,159.226662 235.203441,159.598252 234.149338,159.598252 C233.133154,159.598252 232.079053,159.021909 231.08562,159.165995 C227.020884,159.742338 224.950598,163.003228 224.950598,166.923877 L216.146197,166.923877 L217.70839,138.144636 L337.102433,138.144636 L339.134812,167.469886 L264.885104,167.469886 C264.680458,166.408201 264.657607,165.293433 264.020599,164.345499 M366.351867,324.796421 C364.349819,320.769603 361.354356,317.296361 357.767377,314.604235 C351.313849,309.773579 343.480121,307.566778 335.904243,305.215907 C324.369799,301.613773 312.835354,298.019205 301.293321,294.424637 C298.093105,293.423634 294.991472,292.233033 291.92017,290.867989 C287.764416,289.017641 283.631427,287.121764 280.059624,284.270392 C278.315426,282.875037 276.836644,281.145994 276.032806,279.068128 C275.221381,276.937187 275.661219,274.768305 276.85182,272.864861 C278.004501,271.006903 279.665294,269.505378 281.128899,267.890115 C282.691088,266.161072 284.518692,264.924963 286.513152,263.764693 C290.441388,261.451742 294.908044,260.541734 299.276118,259.472459 C303.522866,258.448691 307.799924,257.500764 312.069415,256.567991 C321.472919,254.520456 330.209066,252.814177 339.604982,250.789386 C339.680864,250.774338 339.749008,250.759076 339.809628,250.743813 C343.040175,249.970308 346.847085,247.225085 347.468912,243.751864 L347.529532,232.399424 C347.544579,232.23259 347.551888,232.058168 347.551888,231.891332 L358.623751,231.891332 L358.623751,230.185053 C358.623751,229.639044 358.471987,228.918615 358.78304,228.463606 C359.382145,227.561174 359.761321,226.620825 359.928155,225.566724 C360.094967,224.429204 360.011561,223.45852 359.647562,222.374086 C359.473226,221.88116 359.245643,221.426152 359.04089,220.948394 C358.91965,220.660223 359.374557,219.689539 359.442808,219.325534 C359.958486,216.944325 359.436359,214.927124 358.297694,212.811339 C357.873032,212.022658 358.092833,210.505965 358.176454,209.611116 C358.252336,208.852772 358.237074,208.094425 358.237074,207.320911 C358.237074,202.141405 358.274692,196.954317 358.108095,191.774811 C357.95633,187.497738 357.675845,183.015912 355.560059,179.216597 C354.468041,177.260063 352.936184,175.788872 351.146478,174.454182 C350.623212,174.067427 350.304721,174.044675 350.228881,173.437999 C350.137951,172.763071 350.046806,172.088142 349.955877,171.413214 C349.182328,165.414701 348.401234,159.408597 347.620139,153.41008 C346.884532,147.745232 346.148946,142.08797 345.413338,136.423123 C345.246526,135.118767 345.072082,134.117749 344.480586,132.927146 C343.471974,130.909945 341.143868,129.795175 338.974986,129.643507 C337.458306,129.544924 225.769051,129.643507 217.214905,129.643507 C215.023284,129.643507 212.702743,129.65103 211.011632,131.342202 C209.858944,132.494889 209.108181,133.776493 208.895846,135.406939 C208.660757,137.27247 208.418086,139.138003 208.182999,141.003534 C206.780058,151.938886 205.384701,162.87424 203.981761,173.817179 C203.928686,174.226686 202.252734,174.96228 201.903895,175.31112 C201.153132,176.061883 200.288617,176.751978 199.644023,177.616494 C198.25625,179.459275 197.596488,181.468892 196.94431,183.645347 C196.3528,185.601881 196.246631,187.975505 196.17838,190.007872 C196.094974,192.328411 196.057054,194.64895 195.988803,196.954324 C195.829557,201.716739 196.026723,206.479154 196.026723,211.233985 C196.026723,211.613158 196.163225,212.181917 196.094974,212.545924 C196.019134,213.000931 195.450378,213.615191 195.238042,214.070199 C194.7527,215.131884 194.540363,216.185985 194.540363,217.353839 C194.540363,218.544444 194.752705,219.621294 195.177373,220.736065 C195.313875,221.084902 194.790618,221.615746 194.676865,221.979751 C194.4797,222.556096 194.350777,223.094521 194.25219,223.701198 C194.047437,225.028303 194.29011,226.393326 194.889203,227.599097 C195.192541,228.190608 195.548964,228.547032 195.56413,229.229543 C195.594462,230.116808 195.609638,231.004073 195.632381,231.891338 L206.704234,231.807911 L206.704234,239.816049 C206.704234,239.861557 206.719496,239.914632 206.741852,239.975295 L206.749161,241.810501 C205.308303,242.128992 203.366939,242.546087 202.138419,242.82668 C197.54284,243.865602 192.939677,244.912134 188.351682,245.935901 C183.824356,246.95208 179.334946,248.11235 174.830367,249.166449 C170.54571,250.167473 166.025967,250.925824 162.037064,252.852011 C157.631073,254.975385 153.687672,257.379352 150.214447,260.852572 C147.052142,264.014868 144.701267,267.950692 143.760919,272.333942 C142.744733,277.058427 143.396911,281.64643 145.414114,285.999328 C147.302395,290.08683 150.805955,293.552462 154.612854,295.873002 C158.389419,298.185953 162.666492,299.786061 166.769145,301.462008 C170.977969,303.175875 175.194373,304.995913 179.532115,306.376091 C189.815292,309.667323 200.113634,312.943378 210.396806,316.23461 C213.794198,317.311452 217.153672,318.456566 220.42973,319.836744 C224.646133,321.611274 228.938374,323.446467 232.479852,326.388855 C236.119915,329.41467 236.529422,334.169486 235.808993,338.522405 C235.482903,340.486512 234.58047,342.587143 233.723541,344.376828 C232.684606,346.538121 231.660838,348.661495 230.401982,350.716597 C227.929775,354.72826 225.085976,358.489661 221.65825,361.758128 C218.215357,365.041772 214.45396,367.817304 210.389224,370.289522 C210.207214,370.395715 210.010051,370.517019 209.828047,370.630778 L217.077837,382.400308 C224.668885,377.273883 231.933843,371.199531 237.318102,363.70708 C240.139149,359.786433 242.649276,355.827866 244.810563,351.505279 C245.879832,349.36675 246.903599,347.235788 247.828782,345.036596 C248.632628,343.117976 248.935966,340.706442 249.163471,338.666496 C250.202361,329.354007 245.879789,320.693699 238.56933,315.07434 C234.876183,312.230556 230.591527,310.47877 226.367537,308.575326 C225.487856,308.173386 224.53234,307.945889 223.607157,307.657729 C221.347285,306.960041 219.087413,306.247198 216.835125,305.557099 C205.209675,301.939787 193.591812,298.322476 181.98153,294.712754 C178.887478,293.749649 175.876843,292.627299 172.911708,291.315351 C168.73322,289.457415 164.463731,287.569126 160.846418,284.732909 C159.064304,283.329966 157.540029,281.593356 156.637596,279.500313 C155.727581,277.369373 156.190172,275.071577 157.335275,273.145389 C158.427294,271.33294 160.163906,269.611484 161.657848,268.125136 C163.288294,266.494675 165.05524,265.159983 167.034525,263.992147 C170.977926,261.679174 175.482502,260.731246 179.873328,259.699891 C184.446155,258.607872 189.049318,257.622025 193.637313,256.583103 C202.820887,254.474884 212.07271,252.654867 221.27145,250.607333 C221.45346,250.569069 221.62029,250.516403 221.749208,250.44052 C225.025264,249.42432 228.369572,247.293379 228.392322,243.759474 L228.407584,231.807943 L326.097746,231.807943 L326.082698,241.552694 C324.596349,241.89395 322.586735,242.356531 321.449208,242.614381 C316.868793,243.645737 312.311142,244.699835 307.730727,245.731191 C303.150311,246.754958 298.59266,247.915228 294.012245,248.984481 C289.651759,249.993094 285.321584,250.918278 281.203772,252.745883 C276.820521,254.694835 272.892307,257.341475 269.494905,260.731268 C266.416015,263.817746 263.655641,268.284403 263.071715,272.660065 C262.760793,274.988192 262.571205,277.172229 262.912469,279.5231 C263.223391,281.72988 263.921071,284.004932 264.967586,285.961451 C267.121291,289.935194 270.222924,293.279501 274.082908,295.645548 C277.798802,297.905403 281.931791,299.460024 285.935866,301.098052 C290.2281,302.857405 294.550687,304.715363 298.979424,306.133461 C309.141258,309.386773 319.303091,312.640085 329.472534,315.893375 C332.892659,316.985394 336.282473,318.092589 339.596448,319.472788 C343.767356,321.194222 348.188505,323.01426 351.68449,325.926316 C353.337694,327.298906 354.649621,329.285778 355.172887,331.37882 C355.756816,333.729691 355.643057,335.784814 355.21846,338.150839 C354.816541,340.32731 353.959607,342.321748 353.064754,344.331363 C352.162313,346.333411 351.184053,348.449197 349.985864,350.28439 C347.354401,354.311207 344.6092,358.118117 341.158722,361.50791 C337.76132,364.829473 333.916512,367.589851 329.866929,370.046892 C329.684854,370.168132 329.487754,370.281977 329.305765,370.395736 L336.555542,382.172854 C344.161773,377.031274 351.457058,370.911414 356.848899,363.411354 C359.707859,359.414889 362.248307,355.334975 364.44752,350.944158 C366.525386,346.795993 368.398499,342.511346 368.656348,337.817172 C368.899021,333.342927 368.390932,328.861116 366.350964,324.796378" id="path7904" sketch:type="MSShapeGroup"></path>
        </g>
    </g>
</svg>