<?xml version="1.0" encoding="UTF-8" standalone="no"?>
<svg width="256px" height="256px" viewBox="0 0 256 256" version="1.1" xmlns="http://www.w3.org/2000/svg" xmlns:xlink="http://www.w3.org/1999/xlink" xmlns:sketch="http://www.bohemiancoding.com/sketch/ns">
    <!-- Generator: Sketch 3.3.3 (12081) - http://www.bohemiancoding.com/sketch -->
    <title>slippery-motorcycle</title>
    <desc>Created with Sketch.</desc>
    <defs></defs>
    <g id="Page-1" stroke="none" stroke-width="1" fill="none" fill-rule="evenodd" sketch:type="MSPage">
        <g id="slippery-motorcycle" sketch:type="MSArtboardGroup" fill="#000000">
            <g id="Group" sketch:type="MSLayerGroup" transform="translate(80.000000, 57.000000)">
                <path d="M34,118.0525 L37.885,115 L89.490002,119.16125 L91.155002,119.25375 L92.727502,119.80875 L94.115002,120.82625 L95.038752,122.12125 L95.686252,123.69375 L95.686252,125.35875 L95.316252,126.93 L94.485002,128.3175 L88.472502,135.06875 L81.628752,133.12625 L90.600002,126.005 L91.155002,125.82 L91.617502,125.35875 L91.802502,124.80375 L91.802502,124.15625 L91.617502,123.60125 L91.247502,123.23125 L90.692502,122.95375 L90.045002,122.86125 L34,118.0525 L34,118.0525 Z" id="path9614" sketch:type="MSShapeGroup"></path>
                <path d="M25.16125,114.0925 L25.16125,114.0925 L52.445002,98 L54.571252,98.6475 L29.23125,115.3875 L29.04625,115.7575 L28.86125,116.1275 L28.76875,116.59 L28.86125,117.0525 L28.95375,117.4225 L29.13875,117.7925 L29.41625,118.1625 L29.78625,118.3475 L38.2025,122.32375 L39.40375,122.97125 L40.32875,123.89625 L41.16125,124.91375 L41.716252,126.115 L42.086252,127.41 L42.178752,128.705 L41.993752,130 L41.531252,131.2025 L30.43375,141.005 L21,140.5425 L35.705,130.0925 L36.3525,129.7225 L36.815,129.075 L37,128.4275 L37,127.6875 L36.7225,126.9475 L36.1675,126.3925 L35.52,126.115 L34.78,125.93 L26.17875,122.23125 L25.06875,121.67625 L24.0525,120.75125 L23.405,119.73375 L23.1275,118.44 L23.1275,117.2375 L23.4975,116.035 L24.2375,114.925 L25.16125,114.0925 L25.16125,114.0925 Z" id="path9618" sketch:type="MSShapeGroup"></path>
                <path d="M11.375,102.35875 L12.9475,101.52625 L14.52,100.78625 L16.0925,100.04625 L17.66375,99.39875 L19.23625,98.65875 L20.90125,98.10375 L22.56625,97.55 L24.23,96.995 L25.895,96.44 L27.56,96.07 L29.3175,95.6075 L30.9825,95.2375 L32.73875,94.96 L34.40375,94.6825 L36.16125,94.405 L34.95875,92 L33.20125,92.185 L31.44375,92.4625 L29.78,92.74 L28.0225,93.0175 L26.3575,93.295 L24.6,93.665 L22.93625,94.035 L21.27125,94.4975 L19.60625,94.96 L17.94125,95.4225 L16.2775,95.9775 L14.6125,96.44 L12.9475,97.0875 L11.2825,97.6425 L9.71125,98.28875 L8.04625,98.93625 L6.47375,99.58375 L4.71625,100.13875 L3.05125,101.06375 L1.7575,102.35875 L0.74,103.83875 L0.185,105.595 L0,107.445 L0.37,109.295 L1.11,110.96 L2.22,112.43875 L3.60625,113.54875 L5.08625,114.47375 L6.65875,115.30625 L8.32375,116.04625 L9.9875,116.60125 L11.745,116.97125 L13.5025,117.34125 L15.26,117.43375 L17.01625,117.43375 L18.77375,117.34125 L20.53125,117.06375 L21.45625,114.01125 L20.06875,114.01125 L18.77375,113.91875 L17.38625,113.82625 L16.0925,113.64125 L14.705,113.45625 L13.41,113.17875 L12.0225,112.80875 L10.7275,112.43875 L9.15625,111.7 L7.95375,110.4975 L7.12125,108.925 L6.93625,107.1675 L7.39875,105.5025 L8.32375,104.02375 L9.71125,102.91375 L11.375,102.35875 L11.375,102.35875 Z" id="path9622" sketch:type="MSShapeGroup"></path>
                <path d="M64.65375,95.31125 L64.65375,95.31125 L64.00625,96.32875 L63.26625,97.06875 L62.24875,97.62375 L61.23125,97.9 L60.12125,97.9 L59.0125,97.62375 L58.0875,97.06875 L57.255,96.32875 L53,63.49625 L53.6475,62.57125 L54.3875,61.8325 L55.3125,61.2775 L56.33,61 L57.44,61 L58.4575,61.2775 L59.38125,61.8325 L60.21375,62.57125 L64.65375,95.31125 L64.65375,95.31125 Z" id="path9654" sketch:type="MSShapeGroup"></path>
                <path d="M56.4275,3.145 L56.15,2.8675 L55.78,2.4975 L55.5025,2.22 L55.1325,1.9425 L54.7625,1.665 L54.3925,1.3875 L54.0225,1.2025 L53.6525,0.925 L52.82125,0.555 L51.98875,0.2775 L51.06375,0.0925 L50.13875,0 L49.21375,0 L48.38125,0.0925 L47.45625,0.2775 L46.53125,0.555 L45.4225,1.11 L44.4975,1.85 L43.5725,2.775 L42.925,3.7925 L42.37,4.9025 L42.0925,6.10375 L42,7.39875 L42.0925,8.60125 L42.0925,8.87875 L42.0925,9.15625 L42.0925,9.43375 L42.185,9.80375 L42.185,10.08125 L42.185,10.35875 L42.2775,10.63625 L42.2775,10.91375 L42.555,11.93125 L43.0175,12.855 L43.665,13.78 L44.4975,14.4275 L45.4225,14.9825 L46.34625,15.3525 L47.45625,15.5375 L48.47375,15.5375 L49.58375,15.3525 L50.69375,15.26 L51.80375,15.1675 L52.91375,15.075 L54.0225,14.9825 L55.1325,14.9825 L56.2425,14.9825 L57.3525,14.9825 L57.7225,14.7975 L58.0925,14.52 L58.37,14.15 L58.6475,13.6875 L58.74,13.225 L58.8325,12.7625 L58.8325,12.30125 L58.74,11.83875 L58.6475,11.00625 L58.555,10.17375 L58.37,9.34125 L58.2775,8.41625 L58.0925,7.58375 L57.9075,6.75125 L57.7225,5.91875 L57.445,5.0875 L57.3525,4.9025 L57.3525,4.7175 L57.26,4.5325 L57.1675,4.3475 L57.075,4.1625 L56.9825,4.07 L56.89,3.885 L56.7975,3.7 L56.89,3.885 L56.9825,4.07 L57.075,4.1625 L57.1675,4.3475 L57.26,4.5325 L57.3525,4.7175 L57.3525,4.9025 L57.445,5.0875 L57.7225,5.91875 L57.9075,6.75125 L58.0925,7.58375 L58.2775,8.41625 L58.37,9.34125 L58.555,10.17375 L58.6475,11.00625 L58.74,11.83875 L58.6475,11.00625 L58.555,10.17375 L58.37,9.34125 L58.2775,8.41625 L58.0925,7.58375 L57.9075,6.75125 L57.7225,5.91875 L57.445,5.0875 L57.3525,4.9025 L57.3525,4.7175 L57.26,4.5325 L57.1675,4.3475 L57.075,4.1625 L56.9825,4.07 L56.89,3.885 L56.7975,3.7 L56.7975,3.6075 L56.705,3.6075 L56.705,3.515 L56.6125,3.4225 L56.6125,3.33 L56.52,3.33 L56.52,3.2375 L56.4275,3.145 L56.4275,3.145 Z M57.26,5.18 L57.1675,4.9025 L57.075,4.625 L56.9825,4.3475 L56.7975,4.07 L56.705,3.885 L56.52,3.6075 L56.335,3.4225 L56.15,3.145 L55.8725,3.0525 L55.595,3.0525 L55.3175,3.0525 L55.04,3.145 L54.7625,3.33 L54.5775,3.515 L54.3925,3.7925 L54.3,4.07 L54.115,5.18 L54.0225,6.28875 L54.115,7.39875 L54.3,8.41625 L54.67,9.43375 L55.225,10.45125 L55.78,11.37625 L56.52,12.11625 L58.555,11.93125 L58.4625,11.00625 L58.37,10.17375 L58.185,9.34125 L58.0925,8.50875 L57.9075,7.67625 L57.7225,6.84375 L57.5375,5.91875 L57.26,5.18 L57.26,5.18 Z" id="path10708" sketch:type="MSShapeGroup"></path>
                <path d="M58.780002,17 L60.721252,17.4625 L62.571252,18.11 L64.328752,18.9425 L66.086252,19.95875 L67.657502,21.16125 L69.045002,22.45625 L70.432502,23.93625 L71.542502,25.50875 L71.820002,25.41625 L72.005002,25.32375 L72.282502,25.23125 L72.467502,25.13875 L72.745002,25.04625 L72.930002,24.95375 L73.207502,24.95375 L73.392502,24.86125 L74.040002,24.86125 L74.686252,25.04625 L75.241252,25.50875 L75.611252,25.97125 L75.888752,26.61875 L75.888752,27.265 L75.703752,27.9125 L75.426252,28.56 L75.241252,28.8375 L74.963752,29.115 L74.778752,29.3925 L74.593752,29.5775 L74.316252,29.855 L74.040002,30.04 L73.762502,30.3175 L73.485002,30.5025 L73.670002,30.965 L73.855002,31.52 L73.947502,31.9825 L74.040002,32.5375 L74.040002,33 L74.040002,33.555 L74.040002,34.11 L73.947502,34.57125 L74.501252,34.94125 L74.963752,35.40375 L75.241252,36.05125 L75.333752,36.60625 L75.241252,37.25375 L74.963752,37.90125 L74.501252,38.36375 L73.947502,38.64125 L73.577502,38.91875 L73.115002,39.01125 L72.652502,39.19625 L72.190002,39.38125 L71.727502,39.47375 L71.265002,39.65875 L70.802502,39.75125 L70.340002,39.84375 L70.247502,40.12125 L70.155002,40.39875 L70.155002,40.67625 L70.062502,40.86125 L69.970002,41.13875 L69.877502,41.415 L69.877502,41.6925 L69.785002,41.8775 L70.895002,42.6175 L71.912502,43.265 L73.022502,44.005 L73.947502,44.8375 L74.963752,45.67 L75.888752,46.595 L76.721252,47.6125 L77.553752,48.53625 L78.108752,49.36875 L78.571252,50.29375 L78.941252,51.21875 L79.218752,52.14375 L79.311252,53.16125 L79.311252,54.08625 L79.218752,55.10375 L78.941252,56.0275 L78.571252,58.0625 L78.016252,60.005 L77.276252,61.9475 L76.443752,63.79625 L75.426252,65.55375 L74.316252,67.21875 L73.115002,68.88375 L71.727502,70.3625 L71.820002,71.75 L71.635002,73.045 L71.172502,74.34 L70.617502,75.5425 L69.785002,76.65125 L68.860002,77.66875 L67.750002,78.40875 L66.548752,79.05625 L66.641252,80.16625 L66.641252,80.53625 L66.641252,80.90625 L66.548752,81.27625 L66.456252,81.64625 L66.363752,82.01625 L66.086252,82.38625 L65.901252,82.66375 L65.623752,82.94125 L62.848752,62.04 L61.646252,60.745 L60.166252,59.82 L58.502502,59.3575 L56.837502,59.3575 L55.080002,59.82 L53.692502,60.745 L52.491252,61.9475 L51.658752,63.51875 L54.340002,84.235 L54.062502,84.05 L53.785002,83.77375 L53.507502,83.49625 L53.230002,83.21875 L53.045002,82.84875 L52.952502,82.47875 L52.768752,82.10875 L52.676252,81.73875 L51.936252,81.27625 L51.103752,80.62875 L50.456252,80.07375 L49.716252,79.33375 L49.161252,78.59375 L48.606252,77.85375 L48.143752,77.02125 L47.681252,76.19 L47.496252,75.7275 L47.311252,75.265 L47.126252,74.8025 L47.033752,74.34 L46.848752,73.8775 L46.756252,73.415 L46.663752,72.86 L46.571252,72.3975 L45.277502,71.4725 L44.075002,70.3625 L42.965002,69.16125 L41.947502,67.86625 L41.115,66.57125 L40.375,65.09125 L39.7275,63.61125 L39.265,62.04 L39.08,60.56 L38.9875,59.08 L39.08,57.6 L39.265,56.12 L39.7275,54.64125 L40.2825,53.25375 L40.93,51.86625 L41.855002,50.66375 L41.485002,50.20125 L41.115,49.64625 L40.745,49.18375 L40.4675,48.72125 L40.0975,48.1675 L39.82,47.705 L39.5425,47.15 L39.1725,46.595 L38.61875,46.965 L37.87875,47.15 L37.13875,47.0575 L36.49125,46.78 L35.93625,46.225 L35.65875,45.5775 L35.56625,44.8375 L35.65875,44.19 L34.82625,43.45 L34.08625,42.525 L33.53125,41.6 L33.16125,40.49125 L32.97625,39.38125 L33.06875,38.27125 L33.25375,37.16125 L33.71625,36.14375 L33.25375,36.05125 L32.79125,35.95875 L32.23625,35.77375 L31.77375,35.58875 L31.405,35.40375 L30.9425,35.21875 L30.48,34.94125 L30.11,34.66375 L29.555,34.2025 L29.185,33.6475 L29,33 L29,32.3525 L29.185,31.705 L29.555,31.15 L30.11,30.78 L30.7575,30.5025 L31.405,30.41 L32.05125,30.41 L32.60625,30.41 L33.25375,30.41 L33.90125,30.5025 L34.45625,30.6875 L35.10375,30.78 L35.65875,30.965 L36.21375,29.485 L36.95375,27.9125 L37.69375,26.43375 L38.43375,25.04625 L39.3575,23.56625 L40.2825,22.27125 L41.3,20.97625 L42.410002,19.6825 L44.352502,19.035 L46.386252,18.48 L48.421252,17.925 L50.456252,17.555 L52.583752,17.2775 L54.617502,17.0925 L56.745002,17 L58.780002,17 L58.780002,17 Z M42.965002,35.12625 L42.965002,35.12625 L43.057502,35.95875 L43.057502,36.88375 L43.150002,37.71625 L43.242502,38.64125 L43.427502,39.47375 L43.520002,40.39875 L43.705002,41.23125 L43.890002,42.155 L41.577502,42.71 L41.392502,42.4325 L41.2075,42.0625 L41.0225,41.785 L40.8375,41.415 L40.745,41.13875 L40.56,40.86125 L40.375,40.49125 L40.2825,40.21375 L40.375,39.84375 L40.4675,39.47375 L40.6525,39.10375 L40.745,38.64125 L40.8375,38.27125 L41.0225,37.90125 L41.115,37.53125 L41.3,37.16125 L41.3925,36.88375 L41.485,36.60625 L41.67,36.32875 L41.7625,36.05125 L41.855,35.77375 L41.9475,35.49625 L42.1325,35.21875 L42.225,34.94125 L42.3175,34.84875 L42.41,34.75625 L42.5025,34.75625 L42.6875,34.75625 L42.78,34.75625 L42.8725,34.84875 L42.965,35.03375 L42.965,35.12625 L42.965002,35.12625 Z M62.29375,27.9125 L62.29375,27.9125 L62.57125,29.0225 L62.94125,30.1325 L63.31125,31.2425 L63.58875,32.3525 L63.86625,33.555 L64.14375,34.66375 L64.42125,35.77375 L64.60625,36.97625 L66.27125,36.51375 L66.27125,36.05125 L66.36375,35.68125 L66.45625,35.21875 L66.54875,34.75625 L66.54875,34.29375 L66.64125,33.925 L66.73375,33.4625 L66.73375,33 L66.36375,32.26 L65.99375,31.52 L65.53125,30.78 L65.06875,30.04 L64.60625,29.3925 L64.05125,28.745 L63.49625,28.0975 L62.94125,27.45 L62.75625,27.45 L62.66375,27.3575 L62.57125,27.3575 L62.38625,27.45 L62.29375,27.5425 L62.20125,27.635 L62.20125,27.82 L62.29375,27.9125 L62.29375,27.9125 Z M71.1725,56.12 L71.1725,56.12 L70.9875,55.75 L70.71,55.4725 L70.525,55.10375 L70.2475,54.73375 L70.0625,54.45625 L69.785,54.08625 L69.5075,53.80875 L69.23,53.53125 L69.1375,53.80875 L69.045,53.99375 L68.86,54.27125 L68.7675,54.54875 L68.5825,54.73375 L68.49,55.01125 L68.305,55.28875 L68.2125,55.4725 L68.3975,56.12 L68.675,56.86 L68.86,57.5075 L68.9525,58.2475 L69.1375,58.895 L69.23,59.635 L69.23,60.375 L69.23,61.0225 L69.6,60.4675 L69.8775,59.82 L70.155,59.265 L70.34,58.6175 L70.6175,58.0625 L70.8025,57.415 L70.9875,56.7675 L71.1725,56.12 L71.1725,56.12 Z" id="path10712" sketch:type="MSShapeGroup"></path>
            </g>
        </g>
    </g>
</svg>