<?xml version="1.0" encoding="UTF-8" standalone="no"?>
<svg width="512px" height="512px" viewBox="0 0 512 512" version="1.1" xmlns="http://www.w3.org/2000/svg" xmlns:xlink="http://www.w3.org/1999/xlink" xmlns:sketch="http://www.bohemiancoding.com/sketch/ns">
    <!-- Generator: Sketch 3.2.2 (9983) - http://www.bohemiancoding.com/sketch -->
    <title>slippery-road</title>
    <desc>Created with Sketch.</desc>
    <defs></defs>
    <g id="symbols" stroke="none" stroke-width="1" fill="none" fill-rule="evenodd" sketch:type="MSPage">
        <g id="slippery-road" sketch:type="MSArtboardGroup" fill="#000000">
            <path d="M224.62739,291.260694 C226.715397,291.260694 228.425241,292.115189 228.425241,293.155778 C228.425241,294.098198 227.050025,294.910012 225.211281,295.038058 L216.788399,295.693655 C168.923859,299.398459 137.12144,309.032659 137.12144,319.792811 C137.12144,323.155306 140.655517,326.248903 146.421012,327.973259 L147.497454,328.286546 C149.108276,328.771414 150.026795,330.452234 149.54278,332.076714 C149.222664,333.189009 148.275122,334.015334 147.134657,334.215087 L145.474324,334.485691 C132.277878,336.67955 118.710098,331.876962 115.146998,323.739197 C114.577619,322.457027 114.299332,321.130468 114.299332,319.791958 C114.297624,304.030319 163.686768,291.260694 224.62739,291.260694 L224.62739,291.260694 Z M156.140576,369.245978 C149.307175,369.245978 142.494261,368.561357 135.795735,367.221994 C132.204465,366.481033 129.867194,362.975127 130.601326,359.369344 C131.328628,355.763562 134.833681,353.441657 138.440317,354.168106 C138.597387,354.195423 138.746774,354.238958 138.889332,354.282494 L142.074269,355.151501 C148.50902,356.933051 155.16401,357.84474 161.848877,357.84474 C184.965493,357.84474 203.698658,351.018168 203.698658,342.638822 C203.698658,339.759489 200.506038,337.051738 195.190412,335.49811 L188.185429,333.388762 C181.301663,331.351119 177.069308,327.602779 177.069308,323.584687 C177.069308,310.472752 217.09571,299.812475 266.470341,299.812475 C268.572861,299.812475 270.275876,300.667824 270.275876,301.722072 C270.275876,302.662785 268.936512,303.446428 267.083256,303.588986 L261.025815,304.088366 C223.023397,307.222938 197.998039,314.9612 197.998039,323.584687 C197.998039,326.463167 201.189805,329.127383 206.498603,330.724546 L213.495903,332.818529 C220.394181,334.871537 224.626536,338.590854 224.626536,342.638822 C224.62739,357.318044 193.965436,369.245978 156.140576,369.245978 L156.140576,369.245978 Z M287.392244,308.377062 C288.817825,308.377062 289.985607,308.961806 289.985607,309.674597 C289.985607,310.116784 289.530616,310.529946 288.759778,310.757868 L286.151903,311.585047 C279.895563,313.551837 275.983324,317.441882 275.983324,321.689603 C275.983324,331.294779 293.149203,339.389862 316.009726,340.573009 L359.049483,342.795892 C381.310749,343.950869 397.700668,350.335255 397.700668,357.846448 C397.700668,364.146323 386.640887,369.247685 372.987743,369.247685 C372.560923,369.247685 372.23227,368.905375 372.23227,368.478554 C372.23227,368.279656 372.318488,368.064538 372.460193,367.92198 L374.013821,366.512618 C375.809883,364.844602 376.778766,362.806106 376.778766,360.683099 C376.778766,354.839922 366.431776,349.9238 352.834972,349.339055 L304.635805,347.257877 C277.543781,346.07473 256.949676,336.69833 256.949676,325.495991 C256.95053,316.058983 270.582333,308.377062 287.392244,308.377062 L287.392244,308.377062 Z M170.678093,194.319443 C171.376372,191.697056 172.908658,189.388809 175.024836,187.707989 L178.309649,185.156454 C180.596555,183.346734 182.670904,181.264702 184.494282,178.985479 L210.211944,146.675997 C212.791649,143.440695 217.053028,142.044138 221.050631,143.099239 L321.654004,170.077729 C325.672095,171.146488 328.665817,174.481666 329.278731,178.571463 L335.392513,219.431873 C335.834699,222.324864 336.590172,225.132492 337.672589,227.840243 L339.240729,231.702118 C340.237782,234.210117 340.409364,236.98872 339.696574,239.611961 L332.699273,265.750467 C331.201986,271.307674 325.502221,274.614682 319.94416,273.118248 L171.028086,233.241233 C165.469172,231.730288 162.1707,226.029669 163.659451,220.457096 L170.678093,194.319443 L170.678093,194.319443 Z M169.943961,237.245666 L164.022249,259.378886 C163.131901,262.71321 165.097837,266.149118 168.440698,267.032637 L180.512044,270.282451 C183.839539,271.16597 187.267764,269.184668 188.158112,265.850343 L194.101165,243.717123 L169.943961,237.245666 L169.943961,237.245666 Z M294.718196,270.681101 L318.859182,277.150851 L312.931494,299.283218 C312.032609,302.618396 308.599263,304.599698 305.264085,303.716179 L293.208104,300.466365 C289.872927,299.582846 287.877112,296.147792 288.788802,292.812614 L294.718196,270.681101 L294.718196,270.681101 Z" id="path9" sketch:type="MSShapeGroup"></path>
        </g>
    </g>
</svg>