<?xml version="1.0" encoding="UTF-8" standalone="no"?>
<svg width="512px" height="512px" viewBox="0 0 512 512" version="1.1" xmlns="http://www.w3.org/2000/svg" xmlns:xlink="http://www.w3.org/1999/xlink" xmlns:sketch="http://www.bohemiancoding.com/sketch/ns">
    <!-- Generator: Sketch 3.2.2 (9983) - http://www.bohemiancoding.com/sketch -->
    <title>snowflake</title>
    <desc>Created with Sketch.</desc>
    <defs></defs>
    <g id="symbols" stroke="none" stroke-width="1" fill="none" fill-rule="evenodd" sketch:type="MSPage">
        <g id="snowflake" sketch:type="MSArtboardGroup" fill="#000000">
            <path d="M266.336267,273.902939 L266.336267,330.364087 L296.701766,360.729586 L282.084077,375.347275 L266.336267,359.599464 L266.336267,359.599464 L266.336267,376.439979 L245.663733,376.439979 L245.663733,359.599464 L229.915923,375.347275 L215.298234,360.729586 L245.663733,330.364087 L245.663733,273.902939 L245.663733,273.902939 L196.766945,302.133513 L185.652401,343.613557 L165.684267,338.263111 L171.448366,316.751202 L156.864052,325.171459 L146.527785,307.26852 L161.112099,298.848262 L139.600189,293.084164 L144.950635,273.11603 L186.430678,284.230574 L186.430678,284.230574 L235.327466,256 L195.771342,233.162261 L154.291299,244.276805 L148.940853,224.308671 L170.452763,218.544572 L146.527785,204.73148 L156.864052,186.828541 L180.78903,200.641633 L180.78903,200.641633 L175.024931,179.129724 L194.993065,173.779278 L206.107609,215.259322 L245.663733,238.097061 L245.663733,192.421583 L245.663733,192.421583 L215.298234,162.056084 L229.915923,147.438395 L245.663733,163.186205 L245.663733,135.560021 L266.336267,135.560021 L266.336267,163.186205 L266.336267,163.186205 L282.084077,147.438395 L296.701766,162.056084 L266.336267,192.421583 L266.336267,238.097061 L305.892391,215.259322 L317.006935,173.779278 L336.975069,179.129724 L331.21097,200.641633 L355.135948,186.828541 L365.472215,204.73148 L341.547237,218.544572 L363.059147,224.308671 L357.708701,244.276805 L316.228658,233.162261 L276.672534,256 L325.569322,284.230574 L367.049365,273.11603 L372.399811,293.084164 L350.887901,298.848262 L350.887901,298.848262 L365.472215,307.26852 L355.135948,325.171459 L340.551634,316.751202 L346.315733,338.263111 L326.347599,343.613557 L315.233055,302.133513 L315.233055,302.133513 L266.336267,273.902939 L266.336267,273.902939 Z" id="Rectangle-4" sketch:type="MSShapeGroup"></path>
        </g>
    </g>
</svg>