<?xml version="1.0" encoding="UTF-8" standalone="no"?>
<svg width="512px" height="512px" viewBox="0 0 512 512" version="1.1" xmlns="http://www.w3.org/2000/svg" xmlns:xlink="http://www.w3.org/1999/xlink" xmlns:sketch="http://www.bohemiancoding.com/sketch/ns">
    <!-- Generator: Sketch 3.2.2 (9983) - http://www.bohemiancoding.com/sketch -->
    <title>steep-hill</title>
    <desc>Created with Sketch.</desc>
    <defs></defs>
    <g id="us-symbols" stroke="none" stroke-width="1" fill="none" fill-rule="evenodd" sketch:type="MSPage">
        <g id="steep-hill" sketch:type="MSArtboardGroup" fill="#000000">
            <path d="M258.365923,297.462884 C261.109042,292.982508 261.604337,287.252436 259.112678,282.269248 C257.619212,279.030856 254.632237,276.546714 251.393845,275.296975 L327.096289,236.207536 C326.349556,239.445927 326.601016,243.179592 328.338317,246.410424 C331.081435,251.39383 336.064796,254.380805 341.284324,254.632222 L258.365923,297.462884 L258.365923,297.462884 Z M171.706244,341.787142 C174.700822,337.550622 175.196117,331.82811 172.704437,326.844922 C172.704437,326.59329 172.460602,326.349649 172.209164,326.098016 L214.04172,304.435157 L210.064198,296.464778 L231.475738,285.50764 C230.729005,288.997448 230.972841,292.479696 232.717766,295.969504 C235.209425,300.945132 240.436599,303.680691 245.663773,303.939883 L171.706244,341.787142 L171.706244,341.787142 Z M130.871881,347.265819 L145.814252,339.539297 C146.058087,339.798467 146.058087,340.042346 146.309547,340.293741 C148.801205,345.26939 153.784544,348.256344 159.004094,348.507782 L124.897974,365.941919 L394.577024,366.688609 L391.84153,228.481229 L353.986474,247.90402 C356.973428,243.675081 357.476347,237.944988 354.984667,232.969144 C353.239741,229.479336 350.504247,227.23905 347.265834,225.997087 L364.699885,216.777185 L327.843044,145.311391 L177.687776,222.758696 L211.054766,287.496292 L206.574347,289.744138 L186.648637,250.898557 L153.784544,267.829645 L153.784544,297.706741 L119.914635,315.140878 L117.422976,321.617662 L130.871881,347.265819 L130.871881,347.265819 Z" id="path3344" sketch:type="MSShapeGroup"></path>
        </g>
    </g>
</svg>