<?xml version="1.0" encoding="UTF-8" standalone="no"?>
<svg width="256px" height="256px" viewBox="0 0 256 256" version="1.1" xmlns="http://www.w3.org/2000/svg" xmlns:xlink="http://www.w3.org/1999/xlink" xmlns:sketch="http://www.bohemiancoding.com/sketch/ns">
    <!-- Generator: Sketch 3.3.3 (12081) - http://www.bohemiancoding.com/sketch -->
    <title>steep-hill-downwards</title>
    <desc>Created with Sketch.</desc>
    <defs></defs>
    <g id="Page-1" stroke="none" stroke-width="1" fill="none" fill-rule="evenodd" sketch:type="MSPage">
        <g id="steep-hill-downwards" sketch:type="MSArtboardGroup" fill="#000000">
            <path d="M201,163.654054 L201,97.1685297 L55,163.654054 L201,163.654054 L201,163.654054 Z M115.484434,108.729603 L111.753688,99.4513374 L121.570258,95.339293 L131.768128,101.734143 L115.484434,108.729603 L115.484434,108.729603 Z M112.969856,109.868515 L109.396116,100.665014 L100.342142,104.238752 C97.2244643,106.140261 96.5366314,107.513435 96.7708934,109.636745 L97.605763,116.569901 L112.969856,109.868515 L112.969856,109.868515 Z M88.7063019,139.308261 C86.8047929,133.075398 86.3412533,124.175937 91.6669739,118.850217 C90.3760412,113.442255 94.1815514,105.91846 96.1578249,103.857453 C98.1340984,101.88118 97.6780353,101.88118 99.507272,101.193347 L119.140413,92.6776787 C121.423221,91.9898458 123.32473,92.445909 124.919705,93.3655116 L135.411649,100.286207 L150.247407,93.4377839 C152.614945,92.7524432 155.351324,93.893847 156.492728,96.7872311 L160.824081,106.446795 L159.757442,107.894733 L158.394237,108.348304 C153.524579,97.6968651 136.71255,104.089223 141.582207,115.807304 L113.348663,128.584547 C107.726377,117.098237 92.6588489,125.539142 96.5366314,135.884049 L88.7063019,139.308261 L88.7063019,139.308261 Z M155.804895,116.716938 C158.469001,113.674025 158.162467,108.961373 155.119554,106.212533 C152.001877,103.550919 147.289227,103.857453 144.627613,106.900366 C141.878773,110.018044 142.185307,114.740664 145.302985,117.404771 C148.345898,120.14115 153.068516,119.834615 155.804895,116.716938 L155.804895,116.716938 Z M110.53752,136.803652 C113.201626,133.685975 112.820328,128.88859 109.852179,126.30174 C106.734502,123.490597 101.937117,123.797131 99.2007378,126.914808 C96.5366314,129.957721 96.8431657,134.742646 99.960843,137.491485 C103.003756,140.153099 107.801141,139.846565 110.53752,136.803652 L110.53752,136.803652 Z" id="path3221" sketch:type="MSShapeGroup"></path>
        </g>
    </g>
</svg>