<?xml version="1.0" encoding="UTF-8" standalone="no"?>
<svg width="256px" height="256px" viewBox="0 0 256 256" version="1.1" xmlns="http://www.w3.org/2000/svg" xmlns:xlink="http://www.w3.org/1999/xlink" xmlns:sketch="http://www.bohemiancoding.com/sketch/ns">
    <!-- Generator: Sketch 3.3.3 (12081) - http://www.bohemiancoding.com/sketch -->
    <title>steep-hill-upwards</title>
    <desc>Created with Sketch.</desc>
    <defs></defs>
    <g id="Page-1" stroke="none" stroke-width="1" fill="none" fill-rule="evenodd" sketch:type="MSPage">
        <g id="steep-hill-upwards" sketch:type="MSArtboardGroup" fill="#000000">
            <path d="M58,163.821906 L58,100.06866 L198,163.821906 L58,163.821906 L58,163.821906 Z M112.937522,123.332691 C116.868629,123.332691 120.080428,120.0492 120.080428,116.189786 C120.080428,112.24673 116.868629,108.965629 112.937522,108.965629 C108.996855,108.965629 105.785056,112.24673 105.785056,116.189786 C105.785056,120.0492 108.996855,123.332691 112.937522,123.332691 L112.937522,123.332691 Z M156.053049,143.325182 C159.993718,143.325182 163.195956,140.110993 163.195956,136.179886 C163.195956,132.239219 159.993718,129.02742 156.053049,129.02742 C152.109993,129.02742 148.898196,132.239219 148.898196,136.179886 C148.898196,140.110993 152.109993,143.325182 156.053049,143.325182 L156.053049,143.325182 Z M97.3230203,109.187874 C100.534819,103.928076 106.657308,97.9513584 113.950768,98.4579814 C117.021572,94.0799939 124.893347,92.043943 127.598522,92.1849371 C130.294139,92.328321 129.930898,92.043943 131.613271,92.9161948 L150.145634,101.66978 C152.109993,102.905271 152.982245,104.587642 153.345486,106.270012 L155.027856,118.154144 L169.325616,124.580131 C171.301924,125.815622 172.171788,128.520797 170.855046,131.216414 L166.630001,140.40493 L164.875938,140.557873 L163.712139,139.898307 C168.302811,129.534043 153.132798,121.509326 147.732007,132.451905 L120.599,120.202143 C125.340226,108.893937 109.725723,103.421453 104.762253,112.753353 L97.3230203,109.187874 L97.3230203,109.187874 Z M133.871567,108.165069 L138.249552,99.7030313 L129.930898,95.3967358 C126.647407,94.3739308 125.187284,94.8088619 123.79885,96.2689876 L119.35156,101.234849 L133.871567,108.165069 L133.871567,108.165069 Z M136.354497,109.187874 L140.57954,100.646975 L149.780005,105.094265 L151.675064,116.483723 L136.354497,109.187874 L136.354497,109.187874 Z" id="path3133" sketch:type="MSShapeGroup"></path>
        </g>
    </g>
</svg>