<?xml version="1.0" encoding="UTF-8" standalone="no"?>
<svg width="512px" height="512px" viewBox="0 0 512 512" version="1.1" xmlns="http://www.w3.org/2000/svg" xmlns:xlink="http://www.w3.org/1999/xlink" xmlns:sketch="http://www.bohemiancoding.com/sketch/ns">
    <!-- Generator: Sketch 3.2.2 (9983) - http://www.bohemiancoding.com/sketch -->
    <title>stop</title>
    <desc>Created with Sketch.</desc>
    <defs></defs>
    <g id="Page-1" stroke="none" stroke-width="1" fill="none" fill-rule="evenodd" sketch:type="MSPage">
        <g id="stop" sketch:type="MSArtboardGroup" fill="#000000">
            <path d="M90.1289062,280.230469 C90.821618,285.22789 92.1822815,288.963529 94.2109375,291.4375 C97.9218936,295.940127 104.279903,298.191406 113.285156,298.191406 C118.678412,298.191406 123.057275,297.597662 126.421875,296.410156 C132.804719,294.134103 135.996094,289.903677 135.996094,283.71875 C135.996094,280.106753 134.412776,277.311208 131.246094,275.332031 C128.079411,273.402334 123.106805,271.69532 116.328125,270.210938 L104.75,267.613281 C93.3697348,265.040352 85.5026259,262.244807 81.1484375,259.226562 C73.7760048,254.179662 70.0898438,246.287814 70.0898438,235.550781 C70.0898438,225.753857 73.6523081,217.614616 80.7773438,211.132812 C87.9023794,204.651009 98.3671185,201.410156 112.171875,201.410156 C123.700578,201.410156 133.534465,204.465464 141.673828,210.576172 C149.813192,216.68688 154.080727,225.555931 154.476562,237.183594 L132.507812,237.183594 C132.111977,230.602832 129.242214,225.927097 123.898438,223.15625 C120.33592,221.325512 115.907579,220.410156 110.613281,220.410156 C104.725231,220.410156 100.024757,221.597644 96.5117188,223.972656 C92.9986804,226.347668 91.2421875,229.662739 91.2421875,233.917969 C91.2421875,237.826842 92.973941,240.746084 96.4375,242.675781 C98.6640736,243.962246 103.414026,245.471346 110.6875,247.203125 L129.539062,251.730469 C137.802125,253.709645 144.036437,256.356754 148.242188,259.671875 C154.77347,264.817734 158.039062,272.264274 158.039062,282.011719 C158.039062,292.00656 154.216835,300.306608 146.572266,306.912109 C138.927696,313.517611 128.128976,316.820312 114.175781,316.820312 C99.92571,316.820312 88.7187908,313.56709 80.5546875,307.060547 C72.3905842,300.554004 68.3085938,291.610734 68.3085938,280.230469 L90.1289062,280.230469 Z M246.449219,204.601562 L246.449219,223.972656 L213.71875,223.972656 L213.71875,314 L190.710938,314 L190.710938,223.972656 L157.832031,223.972656 L157.832031,204.601562 L246.449219,204.601562 Z M319.087891,287.652344 C324.406928,280.972623 327.066406,271.472718 327.066406,259.152344 C327.066406,246.881449 324.406928,237.393914 319.087891,230.689453 C313.768854,223.984993 306.582077,220.632812 297.527344,220.632812 C288.472611,220.632812 281.248725,223.972623 275.855469,230.652344 C270.462213,237.332065 267.765625,246.83197 267.765625,259.152344 C267.765625,271.472718 270.462213,280.972623 275.855469,287.652344 C281.248725,294.332065 288.472611,297.671875 297.527344,297.671875 C306.582077,297.671875 313.768854,294.332065 319.087891,287.652344 L319.087891,287.652344 Z M333.375,304.277344 C325.111938,312.787803 313.162839,317.042969 297.527344,317.042969 C281.891849,317.042969 269.94275,312.787803 261.679688,304.277344 C250.596299,293.837187 245.054688,278.795671 245.054688,259.152344 C245.054688,239.113181 250.596299,224.071665 261.679688,214.027344 C269.94275,205.516885 281.891849,201.261719 297.527344,201.261719 C313.162839,201.261719 325.111938,205.516885 333.375,214.027344 C344.408909,224.071665 349.925781,239.113181 349.925781,259.152344 C349.925781,278.795671 344.408909,293.837187 333.375,304.277344 L333.375,304.277344 Z M416.478516,227.238281 C413.485011,224.81379 409.291694,223.601562 403.898438,223.601562 L382.597656,223.601562 L382.597656,255.8125 L403.898438,255.8125 C409.291694,255.8125 413.485011,254.501315 416.478516,251.878906 C419.47202,249.256497 420.96875,245.100289 420.96875,239.410156 C420.96875,233.720024 419.47202,229.662773 416.478516,227.238281 L416.478516,227.238281 Z M433.808594,266.648438 C427.277311,271.992214 417.950581,274.664062 405.828125,274.664062 L382.597656,274.664062 L382.597656,314 L359.886719,314 L359.886719,204.601562 L407.535156,204.601562 C418.519586,204.601562 427.277311,207.421847 433.808594,213.0625 C440.339876,218.703153 443.605469,227.436139 443.605469,239.261719 C443.605469,252.175846 440.339876,261.304661 433.808594,266.648438 L433.808594,266.648438 Z" id="STOP" sketch:type="MSShapeGroup"></path>
        </g>
    </g>
</svg>