<?xml version="1.0" encoding="UTF-8" standalone="no"?>
<svg width="512px" height="512px" viewBox="0 0 512 512" version="1.1" xmlns="http://www.w3.org/2000/svg" xmlns:xlink="http://www.w3.org/1999/xlink" xmlns:sketch="http://www.bohemiancoding.com/sketch/ns">
    <!-- Generator: Sketch 3.2.2 (9983) - http://www.bohemiancoding.com/sketch -->
    <title>t-2-traverse-curve</title>
    <desc>Created with Sketch.</desc>
    <defs></defs>
    <g id="us-symbols" stroke="none" stroke-width="1" fill="none" fill-rule="evenodd" sketch:type="MSPage">
        <g id="t-2-traverse-curve" sketch:type="MSArtboardGroup" fill="#000000">
            <path d="M368.958105,290.220769 C368.929327,294.028406 366.778188,297.591318 363.475938,299.48434 L326.913771,324.748626 C319.604216,329.794285 316.402688,339.576098 316.402688,348.573351 L316.37391,373.585714 L338.00041,373.585714 L338.014799,348.702911 C338.014799,345.276758 339.662327,342.023351 342.396216,340.000769 L374.576966,318.097856 C384.332632,312.404395 390.541438,301.506922 390.541438,290.105604 C390.541438,290.105604 390.541438,289.983241 390.541438,290.105604 C390.527049,276.696098 390.527049,263.286593 390.541438,249.877087 L390.541438,249.891483 C390.541438,238.490164 384.332632,227.592692 374.576966,221.884835 L342.396216,199.996318 C339.662327,197.973736 338.014799,194.713131 338.014799,191.294175 L338.00041,181.605933 L349.91441,185.161648 C351.561938,185.629505 352.784994,185.80945 354.065605,184.952911 C355.87141,183.714889 356.353438,181.217252 355.115994,179.403406 L327.194355,138.109615 L299.229549,179.403406 C297.999299,181.217252 298.474132,183.714889 300.301521,184.952911 C301.510188,185.780659 302.77641,185.629505 304.26566,185.248021 L316.37391,181.605933 L316.402688,191.423736 C316.402688,200.420988 319.604216,210.188406 326.913771,215.234065 L363.475938,240.512747 C366.778188,242.405769 368.929327,245.954285 368.958105,249.776318 C368.972494,263.257802 368.972494,276.739285 368.958105,290.220769" id="path3939" sketch:type="MSShapeGroup"></path>
            <path d="M291.970355,290.220769 C291.955966,294.028406 289.804827,297.591318 286.502577,299.48434 L249.94041,324.748626 C242.630855,329.794285 239.429327,339.576098 239.429327,348.573351 L239.400549,373.585714 L261.027049,373.585714 L261.041438,348.702911 C261.041438,345.276758 262.681771,342.023351 265.422855,340.000769 L297.603605,318.097856 C307.352077,312.404395 313.568077,301.506922 313.568077,290.105604 C313.568077,290.105604 313.568077,289.983241 313.568077,290.105604 C313.553688,276.696098 313.553688,263.286593 313.568077,249.877087 L313.568077,249.891483 C313.568077,238.490164 307.352077,227.592692 297.603605,221.884835 L265.422855,199.996318 C262.681771,197.973736 261.041438,194.713131 261.041438,191.294175 L261.027049,181.605933 L272.941049,185.161648 C274.588577,185.629505 275.811632,185.80945 277.085049,184.952911 C278.898049,183.714889 279.380077,181.217252 278.142632,179.403406 L250.220994,138.109615 L222.256188,179.403406 C221.018744,181.217252 221.500771,183.714889 223.32816,184.952911 C224.536827,185.780659 225.795855,185.629505 227.285105,185.248021 L239.400549,181.605933 L239.429327,191.423736 C239.429327,200.420988 242.630855,210.188406 249.94041,215.234065 L286.502577,240.512747 C289.804827,242.405769 291.955966,245.954285 291.970355,249.776318 C291.999132,263.257802 291.999132,276.739285 291.970355,290.220769" id="path3943" sketch:type="MSShapeGroup"></path>
            <path d="M215.032966,290.220769 C215.004188,294.028406 212.860244,297.591318 209.557994,299.48434 L172.995827,324.748626 C165.686271,329.794285 162.484744,339.576098 162.484744,348.573351 L162.455966,373.585714 L184.082466,373.585714 L184.096855,348.702911 C184.096855,345.276758 185.737188,342.023351 188.478271,340.000769 L220.659021,318.097856 C230.407494,312.404395 236.616299,301.506922 236.616299,290.105604 C236.616299,290.105604 236.616299,289.983241 236.616299,290.105604 C236.60191,276.696098 236.60191,263.286593 236.616299,249.877087 L236.616299,249.891483 C236.616299,238.490164 230.407494,227.592692 220.659021,221.884835 L188.478271,199.996318 C185.737188,197.973736 184.096855,194.713131 184.096855,191.294175 L184.082466,181.605933 L195.996466,185.161648 C197.636799,185.629505 198.859855,185.80945 200.140466,184.952911 C201.953466,183.714889 202.428299,181.217252 201.190855,179.403406 L173.27641,138.109615 L145.311605,179.403406 C144.07416,181.217252 144.548994,183.714889 146.376382,184.952911 C147.585049,185.780659 148.851271,185.629505 150.340521,185.248021 L162.455966,181.605933 L162.484744,191.423736 C162.484744,200.420988 165.686271,210.188406 172.995827,215.234065 L209.557994,240.512747 C212.860244,242.405769 215.004188,245.954285 215.032966,249.776318 C215.047355,263.257802 215.047355,276.739285 215.032966,290.220769" id="path3947" sketch:type="MSShapeGroup"></path>
        </g>
    </g>
</svg>