<svg xmlns:svg="http://www.w3.org/2000/svg" xmlns="http://www.w3.org/2000/svg" version="1.1" width="182.1" height="150" viewBox="0 0 182.1 150">
<path d="M28.5 103.8C13.9 103.2 1.9 118.7 6 132.7 9.2 146.8 27 154.6 39.5 147.2 52.4 140.8 55.7 121.7 45.6 111.3 41.3 106.5 34.9 103.7 28.5 103.8zM28.4 117c8.4-0.5 13.3 11.2 7 16.8-5.6 6.3-17.3 1.5-16.8-7-0.1-5.3 4.5-10 9.8-9.8zM139.4 64.8c-21.2-0.5-40.6 17.1-42.3 38.2-2.6 21 12.9 42.3 33.7 46.1 20.4 4.6 42.7-8.2 49-28.1 7.1-19.7-2.9-43.4-21.9-52.1-5.7-2.8-12.1-4.2-18.5-4.2zm-0.1 18.1c15-0.5 27.5 14.9 24 29.4-2.5 14.7-20 23.9-33.5 17.6-13.9-5.3-19.5-24.2-10.8-36.3 4.4-6.7 12.3-10.9 20.3-10.8zM139.3 125.8c12.8 0.5 22.4-14.2 17-25.7-4.4-11.8-21.6-15.2-30.1-5.9-9.9 9-5.4 27.3 7.6 30.8 1.8 0.6 3.6 0.8 5.5 0.8zM87.3 0c0.4 5.4 2.2 10.8 0.1 16C84.2 30.5 80.8 45.1 77.5 59.6 53.2 59.6 28.9 59.5 4.6 59.6-1.4 60.3 0.2 67.2 0 71.4c0 12 0 24.1 0 36.1 3.3 0 6.6 0 9.9 0 10.9-11.2 31.1-9.5 40.1 3.3 2 4.3 4 7.2 9.1 6 11.5 0 22.9 0.1 34.4 0.1-5.1-22.1 8.5-46.3 29.9-53.7 16.8-6.3 36.9-1.9 49.4 10.9 1.5-2 5-3.9 5.5-5.9-5.5-6-11-12-16.4-18 0-16.7 0-33.5 0-50.2-24.8 0-49.6 0-74.4 0zm9.2 11c18.1 0 36.1 0 54.2 0 0 13.1 0 26.2 0 39.3-14.9 0-29.8 0-44.7 0-2.5 3.1-5 6.2-7.6 9.3-4.4 0-8.8 0-13.2 0 3.7-16.2 7.4-32.4 11.2-48.6z" fill="#000"/>
</svg>
