<?xml version="1.0" encoding="UTF-8"?>
<svg xmlns:svg="http://www.w3.org/2000/svg" xmlns="http://www.w3.org/2000/svg" version="1.1" width="512" height="512" viewBox="0 0 512 512">
  <path d="m80.2 336c-41-1.7-74.8 41.9-63.2 81.2 9 39.6 59 61.6 94.2 40.8 36.3-18 45.5-71.7 17.1-100.9C116.2 343.6 98.2 335.8 80.2 336zm-0.3 37.1c23.6-1.4 37.4 31.5 19.7 47.2-15.7 17.7-48.6 4.2-47.2-19.7-0.3-14.9 12.6-28.1 27.5-27.5zM391.9 226.4c-59.6-1.4-114.1 48.1-118.9 107.4-7.3 59 36.3 118.9 94.7 129.6 57.3 12.9 120-23.1 137.7-79 20-55.4-8.2-122-61.6-146.5-16-7.9-34-11.8-52-11.8zm-0.3 50.9c42.2-1.4 77.3 41.9 67.5 82.6-7 41.3-56.2 67.2-94.2 49.5-39.1-14.9-54.8-68-30.4-102 12.4-18.8 34.6-30.6 57.1-30.4zm0 120.6c36 1.4 63-39.9 47.8-72.2-12.4-33.2-60.7-42.7-84.6-16.6-27.8 25.3-15.2 76.7 21.4 86.6 5.1 1.7 10.1 2.2 15.5 2.2zM245.5 44.3c1.1 15.2 6.2 30.4 0.3 45-9 40.8-18.6 81.8-27.8 122.6-68.3 0-136.6-0.3-204.9 0-16.9 2-12.4 21.4-12.9 33.2 0 33.7 0 67.7 0 101.5 9.3 0 18.6 0 27.8 0 30.6-31.5 87.4-26.7 112.7 9.3 5.6 12.1 11.2 20.2 25.6 16.9 32.3 0 64.4 0.3 96.7 0.3-14.3-62.1 23.9-130.1 84-151 47.2-17.7 103.7-5.3 138.9 30.6 4.2-5.6 14.1-11 15.5-16.6-15.5-16.9-30.9-33.7-46.1-50.6 0-46.9 0-94.2 0-141.1-69.7 0-139.4 0-209.1 0zm25.9 30.9c50.9 0 101.5 0 152.4 0 0 36.8 0 73.6 0 110.5-41.9 0-83.8 0-125.7 0-7 8.7-14.1 17.4-21.4 26.1-12.4 0-24.7 0-37.1 0 10.4-45.5 20.8-91.1 31.5-136.6z" fill="#000"/>
</svg>
