<?xml version="1.0" encoding="UTF-8" standalone="no"?>
<svg width="256px" height="256px" viewBox="0 0 256 256" version="1.1" xmlns="http://www.w3.org/2000/svg" xmlns:xlink="http://www.w3.org/1999/xlink" xmlns:sketch="http://www.bohemiancoding.com/sketch/ns">
    <!-- Generator: Sketch 3.3.3 (12081) - http://www.bohemiancoding.com/sketch -->
    <title>traffic-signal-au</title>
    <desc>Created with Sketch.</desc>
    <defs></defs>
    <g id="Page-1" stroke="none" stroke-width="1" fill="none" fill-rule="evenodd" sketch:type="MSPage">
        <g id="traffic-signal-au" sketch:type="MSArtboardGroup" fill="#000000">
            <path d="M130.841701,66.791555 C131.645707,66.8535727 133.313516,67.6575781 133.313516,68.6454173 L133.313516,71.3653027 L141.594983,72.4151596 L141.594983,83.044411 L168.536888,84.9602855 L164.459277,101.890897 C163.779307,103.744754 162.789254,104.856629 160.071582,105.22873 L143.076744,107.02058 L141.594983,107.70055 L141.594983,114.374006 L168.536888,116.289886 L164.953199,133.036658 C164.581098,134.704468 163.099337,136.372277 161.36951,136.620348 L142.582822,138.660257 L141.594983,139.462049 L141.594983,145.581784 L168.846971,147.867551 L165.447116,163.872336 C164.705128,166.220115 163.779307,167.024121 162.171296,167.394008 L141.594983,169.92784 L141.594983,180.557086 L134.919313,180.557086 L134.919313,189.208445 L121.078473,189.208445 L121.078473,180.557086 L114.405012,180.557086 L114.405012,169.92784 L93.8264845,167.394008 C92.220693,167.024121 91.2926522,166.220115 90.5506645,163.872336 L87.1530285,147.867551 L114.405012,145.581784 L114.405012,139.462049 L113.414959,138.660257 L94.6304899,136.620348 C92.8984491,136.372277 91.4166876,134.704468 91.0445868,133.036658 L87.4608977,116.289886 L114.405012,114.374006 L114.405012,107.70055 L112.921036,107.02058 L95.9284121,105.22873 C93.2085322,104.856629 92.220693,103.744754 91.5407231,101.890897 L87.4608977,84.9602855 L114.405012,83.044411 L114.405012,72.4151596 L122.684265,71.3653027 L122.684265,68.6454173 C122.684265,67.6575781 124.354293,66.8535727 125.156085,66.791555 L130.841701,66.791555 L130.841701,66.791555 Z M127.813947,170.237923 C134.549426,170.237923 140.04899,164.738354 140.04899,158.062679 C140.04899,151.327205 134.549426,145.827636 127.813947,145.827636 C121.140491,145.827636 115.640922,151.327205 115.640922,158.062679 C115.640922,164.738354 121.140491,170.237923 127.813947,170.237923 L127.813947,170.237923 Z M127.813947,138.104323 C134.549426,138.104323 140.04899,132.604754 140.04899,125.929078 C140.04899,119.193605 134.549426,113.694036 127.813947,113.694036 C121.140491,113.694036 115.640922,119.193605 115.640922,125.929078 C115.640922,132.604754 121.140491,138.104323 127.813947,138.104323 L127.813947,138.104323 Z M127.813947,106.032735 C134.549426,106.032735 140.04899,100.530952 140.04899,93.8574961 C140.04899,87.1220169 134.549426,81.6224478 127.813947,81.6224478 C121.140491,81.6224478 115.640922,87.1220169 115.640922,93.8574961 C115.640922,100.530952 121.140491,106.032735 127.813947,106.032735 L127.813947,106.032735 Z" id="path8397" sketch:type="MSShapeGroup"></path>
        </g>
    </g>
</svg>