<?xml version="1.0" encoding="UTF-8" standalone="no"?>
<svg id="svg2" xmlns="http://www.w3.org/2000/svg" height="500px" width="500px" viewBox="0 0 500 500" version="1.0">
  <path fill-rule="evenodd" transform="scale(1.9365) translate(-4.55,-12)"
    d="m259.2 214.28h-230.69c-10.88 0-23.86-17.1-23.86-28.23-0.24-18.83 0.66-37.08 1.27-55.49 2.93-20.98 10.99-40.168 18.98-59.383 1.96-4.017 4.32-7.941 9.11-7.941h83.6c7.6 3.422 15.81 6.031 19.27 14.895 23.99 59.059 71.4 87.289 125.72 97.249l0.1 35.75c0 1.41-2 3.15-3.5 3.15z
    M163.61,136.36 v34.92 l-15.98,-7.34 v-44.77z
    M187.81,155.41 v26.87 l-15.28,-6.4  v-31.37z
    M195.69,160.18 v23.99 l 14.93, 4.2  v-22.09z
    M216.8 ,169.25 v20.93 l 11.87, 2.15 v-20.03z
    M234.77,174.36 v18.79 l  9.73, 1.16 v-18.06z
    M249.69,177.24 v17.81 l  7.81, 0.82 v-17.56z
    M43.88,36.976 c-3.16,0 -3.06,6.13 0,6.13 h13.59 c11.49,4.64 18.28,11.25 21.44,20.13 h10.37 c3.16,-8.88 9.95,-15.45 21.44,-20.09 h13.28 c3.28,0 2.78,-6.13 0,-6.13z m52.65,6.13 c-5.4,4.55 -11.25,9.18 -11.25,16.28 h-2.5 c0,-7.13 -5.89,-11.72 -11.31,-16.28z
    M125.52,114.14 c2.55,0 3.5,-5.28 2.3,-8.57 c-3.8,-10.144 -8.43,-29.966 -13.68,-29.966 h-80.79 c-4.38,0 -10.22,20.142 -15.33,30.216 c-1.01,4 -0.01,8.32 2.41,8.32z
    M109,155 a 10,10 0 1 1 -.01,0z
    M 30,155 a 10,10 0 1 1 -.01,0z
    M4.66,229.21 h19.93 v-9.98 h30.04 v9.86 h44 v-9.89 h164.07 v10.04 c-46.21,1.69 -93.32,3.01 -117.79,14.03 H4.66z"/>
</svg>
