<svg xmlns:svg="http://www.w3.org/2000/svg" xmlns="http://www.w3.org/2000/svg" version="1.1" width="164.1" height="94.2" viewBox="0 0 164.1 94.2">
<path d="m27.6 0c0 24.2 0 48.4 0 72.5-9.2 0-18.4 0-27.6 0C-0.8 75.7 3.4 73.9 5.3 74.4c7.4 0 14.9 0 22.3 0 1.5 0.9 4.6 0.1 6.8 0.4 14 0 28 0 42 0-0.3-11.1 10.9-20.5 21.8-17.9 8.5 1.5 15.3 9.3 15.2 17.9 16.9 0 33.9 0 50.8 0 0-24.9 0-49.8 0-74.7C118.6 0 73.1 0 27.6 0z" fill="#000"/>
<path d="m-6.3 59.1a15.3 16.2 0 1 1-30.6 0 15.3 16.2 0 1 1 30.6 0z" transform="matrix(1.0808824,0,0,1,118.03545,15.505413)" fill="#000"/>
</svg>
