<?xml version="1.0" encoding="UTF-8" standalone="no"?>
<svg width="256px" height="256px" viewBox="0 0 256 256" version="1.1" xmlns="http://www.w3.org/2000/svg" xmlns:xlink="http://www.w3.org/1999/xlink" xmlns:sketch="http://www.bohemiancoding.com/sketch/ns">
    <!-- Generator: Sketch 3.3.3 (12081) - http://www.bohemiancoding.com/sketch -->
    <title>train-au</title>
    <desc>Created with Sketch.</desc>
    <defs></defs>
    <g id="Page-1" stroke="none" stroke-width="1" fill="none" fill-rule="evenodd" sketch:type="MSPage">
        <g id="train-au" sketch:type="MSArtboardGroup" fill="#000000">
            <path d="M88.3751665,100.838334 C94.3039988,93.9410197 101.066787,90.3499975 105.473536,87.0438874 C117.889541,86.2121191 115.273746,83.8651947 122.715547,78.902475 C129.200349,79.3149868 137.621934,75.0425819 139.412888,69.8018769 C141.338187,64.1419155 141.616172,63.1736156 140.23536,59.457181 C138.722391,55.4514596 135.963137,53.1045352 130.993673,52.8289197 C120.790248,52.0040783 118.57785,57.798384 117.064882,63.0390889 C109.755055,62.2142475 102.992267,66.6209968 99.2669008,72.8301841 C97.4759469,75.5872506 97.0636173,78.0776336 97.0636173,81.2493994 C89.4758057,85.2438191 83.4035148,90.3499975 84.2374704,100.838334 L88.3753488,100.838334 L88.3751665,100.838334 Z M153.407849,156.97075 C152.373379,158.973702 151.682882,161.254457 151.682882,163.601381 C151.682882,171.186823 157.8897,177.25 165.342985,177.25 C172.930797,177.25 179.137432,171.186823 179.137432,163.601381 C179.137432,161.254457 178.515292,158.973702 177.480822,156.97075 L190.306969,156.97075 L190.306969,132.421465 C180.38153,128.971714 180.38153,117.802177 190.450975,112.007872 L190.450975,101.107205 L167.134486,101.107205 L167.134486,111.873345 L140.235907,111.873345 C136.098028,102.907273 122.994079,101.250664 118.033546,112.142216 L92.2356065,112.142216 L92.2356065,103.176144 L77.0627175,103.176144 L77.0627175,112.830343 L72.5123273,112.830343 L70.9902443,147.047681 L65.5490254,149.663476 L65.5490254,156.904763 L121.759095,156.904763 C120.724626,158.907533 120.168655,161.110998 120.168655,163.52391 C120.168655,171.111539 126.240946,177.184013 133.828575,177.184013 C141.548362,177.184013 147.623022,171.111539 147.623022,163.52391 C147.623022,161.110998 146.998695,158.907533 145.964225,156.97075 L153.408396,156.97075 L153.407849,156.97075 Z M93.4040558,167.805429 C93.4040558,162.767426 97.8199194,158.351562 102.857741,158.351562 C108.098446,158.351562 112.304681,162.767426 112.304681,167.805429 C112.304681,173.046134 108.098446,177.25 102.857741,177.25 C97.8199194,177.25 93.4040558,173.046134 93.4040558,167.805429 L93.4040558,167.805429 Z M70.6435375,167.805429 C70.6435375,162.767426 74.9934137,158.351562 80.0995921,158.351562 C85.3381096,158.351562 89.544345,162.767426 89.544345,167.805429 C89.544345,173.046134 85.3381096,177.25 80.0995921,177.25 C74.9934137,177.25 70.6435375,173.046134 70.6435375,167.805429 L70.6435375,167.805429 Z" id="train" sketch:type="MSShapeGroup" transform="translate(128.000000, 115.000000) scale(-1, 1) translate(-128.000000, -115.000000) "></path>
        </g>
    </g>
</svg>