<svg xmlns:svg="http://www.w3.org/2000/svg" xmlns="http://www.w3.org/2000/svg" version="1.1" width="512" height="512" viewBox="0 0 512 512">
<path d="m86.3 121.3c0 75.4 0 150.8 0 225.9-28.7 0-57.3 0-86 0-2.5 10 10.6 4.4 16.5 5.9 23.1 0 46.4 0 69.5 0 4.7 2.8 14.3 0.3 21.2 1.2 43.6 0 87.3 0 130.9 0-0.9-34.6 34-63.9 67.9-55.8 26.5 4.7 47.7 29 47.4 55.8 52.7 0 105.6 0 158.3 0 0-77.6 0-155.2 0-232.8-142.1-0.3-283.9-0.3-425.7-0.3z" fill="#000"/>
<path d="m365.4 381.5a49.9 49.9 0 1 1-99.9 0 49.9 49.9 0 1 1 99.9 0z" transform="translate(-19.292107,-23.831402)" fill="#000"/>
</svg>
