<svg xmlns:dc="http://purl.org/dc/elements/1.1/" xmlns:cc="http://creativecommons.org/ns#" xmlns:rdf="http://www.w3.org/1999/02/22-rdf-syntax-ns#" xmlns:svg="http://www.w3.org/2000/svg" xmlns="http://www.w3.org/2000/svg" version="1.1" width="146.92" height="78.14" id="svg3034">
<g transform="translate(-57.971043,-76.148617)" id="layer1">
	<path d="m46.88 0-25.97 17.59 21.41 14.5-38.97 0L4.06 36.63 0 52.06l0 19.75 12.34 0 1.13-4.75 41.84 0 1.06 4.75 34.16 0 1.06-4.75 41.84 0 1.13 4.75 12.34 0 0-19.75-4.06-15.44 0.72-4.53-92.12 0 21.44-14.5L46.88 0zm0 4.06 19.97 13.53 0 0.03-19.97 13.5-19.97-13.5 0-0.03L46.88 4.06zM87.9 149.89" transform="translate(57.971043,76.148617)" id="path6" fill="#000"/>
	<path d="m87.9 149.89c-0.85 2.58-3.29 4.4-6.19 4.4-3.57 0-6.47-2.86-6.47-6.4l0-1.61 34.29 0 0.03 1.61c0 3.54-2.89 6.4-6.47 6.4-2.9 0-5.3-1.83-6.15-4.4l-9.04 0" id="path10" fill="#000"/>
	<path d="m174.96 149.89c0.84 2.58 3.28 4.4 6.18 4.4 3.58 0 6.47-2.86 6.47-6.4l0-1.61-34.29 0-0.03 1.61c0 3.54 2.9 6.4 6.48 6.4 2.86 0 5.3-1.83 6.18-4.4l9.01 0" id="path12" fill="#000"/>
	<g id="g3106">
		<path d="m187.21 112.77 11.07 0 4.1 15.44-15.17 0 0-15.44M165.59 128.21l18.74 0 0-15.47-18.74 0 0 15.47" id="path16" fill="#f7fbf5"/>
		<path d="m165.59 128.21 18.74 0 0-15.47-18.74 0 0 15.47" id="path18" fill="#fff"/>
		<path d="m143.92 128.21 18.77 0 0-15.47-18.77 0 0 15.47" id="path20" fill="#fff"/>
		<path d="m121.8 128.21 19.25 0 0-15.47-19.25 0 0 15.47" id="path22" fill="#fff"/>
		<path d="m75.63 112.77-11.06 0-4.1 15.44 15.16 0 0-15.44" id="path24" fill="#fff"/>
		<path d="m78.53 128.21 18.74 0 0-15.47-18.74 0 0 15.47" id="path26" fill="#fff"/>
		<path d="m100.16 128.21 18.77 0 0-15.47-18.77 0 0 15.47" id="path28" fill="#fff"/>
	</g>
</g>
</svg>
