<?xml version="1.0" encoding="UTF-8" standalone="no"?>
<svg width="512px" height="512px" viewBox="0 0 512 512" version="1.1" xmlns="http://www.w3.org/2000/svg" xmlns:xlink="http://www.w3.org/1999/xlink" xmlns:sketch="http://www.bohemiancoding.com/sketch/ns">
    <!-- Generator: Sketch 3.2.2 (9983) - http://www.bohemiancoding.com/sketch -->
    <title>truck-rollover-speed</title>
    <desc>Created with Sketch.</desc>
    <defs></defs>
    <g id="us-symbols" stroke="none" stroke-width="1" fill="none" fill-rule="evenodd" sketch:type="MSPage">
        <g id="truck-rollover-speed" sketch:type="MSArtboardGroup" fill="#000000">
            <g id="Group" sketch:type="MSLayerGroup" transform="translate(132.000000, 87.000000)">
                <path d="M108.583426,184.082252 L111.751283,182.250631 C113.449183,181.283693 115.511431,181.45053 117.015491,182.521517 C116.834214,180.684514 117.711881,178.820602 119.409781,177.844694 L122.584818,176.009485 C124.896546,174.680169 127.875948,175.473094 129.200525,177.776524 L137.291574,191.778291 C138.626921,194.088897 137.821046,197.066851 135.509318,198.403343 L132.346845,200.225994 C130.648945,201.201902 128.586697,201.040447 127.082637,199.962284 C127.265709,201.799287 126.386247,203.664993 124.695526,204.653459 L121.520489,206.472523 C119.201582,207.80722 116.236539,207.014295 114.892219,204.710865 L106.808348,190.71448 C105.478387,188.40208 106.278876,185.424126 108.583426,184.082252" id="path14" sketch:type="MSShapeGroup"></path>
                <path d="M160.112713,154.345764 L163.28775,152.506966 C164.994624,151.540028 167.040719,151.706865 168.546573,152.785028 C168.370681,150.948025 169.257322,149.084113 170.948042,148.102823 L174.123079,146.26582 C176.427628,144.936504 179.414209,145.729429 180.75135,148.040035 L188.83522,162.03642 C190.158003,164.33985 189.371872,167.32498 187.060143,168.661472 L183.885106,170.485917 C182.185412,171.467207 180.123163,171.30037 178.633462,170.222207 C178.802176,172.05921 177.922714,173.923123 176.231993,174.904412 L173.056956,176.728858 C170.745228,178.065349 167.765826,177.2796 166.435865,174.968994 L158.337636,160.974403 C157.014853,158.667385 157.808164,155.680461 160.112713,154.345764" id="path16" sketch:type="MSShapeGroup"></path>
                <path d="M53.2527083,98.2113238 L127.403909,55.4256541 L176.65557,140.690228 L102.504369,183.483074 L53.2527083,98.2113238" id="polyline18" sketch:type="MSShapeGroup"></path>
                <rect id="rect20" sketch:type="MSShapeGroup" x="7.89939063" y="221.579362" width="241.918428" height="12.5953116"></rect>
                <path d="M238.733016,59.8925857 C237.202035,59.7885367 236.24719,60.5545526 235.078762,61.758292 L226.605416,70.7226522 L219.864072,58.9956115 C187.447824,2.8396443 115.204517,-16.5062954 59.0463886,15.9031766 C23.6938154,36.302164 3.06774188,72.4896914 0.616017512,110.501664 L0.379101248,110.501664 L0.379101248,179.552533 L22.0533498,179.552533 L22.0533498,110.675677 C24.3955901,80.0063353 41.1789536,50.9246375 69.7542858,34.4364577 C115.699888,7.91472436 174.81229,23.748113 201.3164,69.6983077 L208.041591,81.4325243 L195.843993,84.2992538 C194.368651,84.710068 193.218171,85.2123736 192.591779,86.520162 C191.63873,88.4970931 192.473321,90.8489595 194.429675,91.8015461 L238.864038,113.361218 L242.380091,64.1316858 C242.541625,61.9538324 240.906544,60.0594229 238.733016,59.8925857 L238.733016,59.8925857 Z" id="path22" sketch:type="MSShapeGroup"></path>
                <path d="M188.993165,309.732193 C188.993165,293.705058 176.224814,281.748392 158.538656,281.748392 C153.65136,281.748392 149.849931,282.277607 143.598573,283.649977 L144.411626,272.50597 L182.74719,272.50597 L183.011029,258.922192 L131.356104,258.922192 L128.913354,295.333963 L142.776545,298.869836 C148.485868,296.677631 152.565494,295.87753 157.732781,295.87753 C163.442104,295.87753 167.521731,296.962868 170.230114,299.133546 C173.231054,301.582286 175.129973,305.654548 175.129973,309.732193 C175.129973,318.431049 168.056587,323.588651 156.366923,323.588651 C148.484073,323.588651 140.604812,321.409003 133.816803,317.340328 L126.470604,329.017139 C136.259553,335.001751 145.777484,337.771607 156.366923,337.771607 C175.402786,337.769813 188.993165,326.03739 188.993165,309.732193 L188.993165,309.732193 Z M115.593993,312.188109 C115.593993,304.845478 113.415082,300.769627 105.805044,293.970562 C110.421321,287.991332 112.056403,284.462636 112.056403,279.285301 C112.056403,266.79942 100.637757,257.549822 85.1394844,257.549822 C73.9864718,257.549822 64.4739248,261.622085 56.865682,269.506488 L67.1984618,279.014415 C71.8147393,274.133081 77.7950802,271.406279 84.3264308,271.406279 C92.4856834,271.406279 97.9239885,274.943946 97.9239885,279.579508 C97.9239885,283.922657 93.5787289,287.178674 87.5840295,287.178674 L84.3264308,287.178674 L84.3264308,301.040513 L88.1350393,301.040513 C91.1162356,301.040513 93.5805237,301.58408 95.7522561,302.676594 C99.2826674,304.576385 101.725418,308.917741 101.725418,312.726293 C101.725418,319.247296 95.194067,323.590445 85.6779304,323.590445 C76.7163933,323.590445 69.6501862,320.605315 64.2064966,313.540746 L53.073227,321.959746 C55.7816106,325.215762 57.1474688,326.580957 59.0481834,328.208068 C65.8361933,334.458184 75.3541247,337.769813 84.8720562,337.769813 C102.269248,337.769813 115.593993,326.579163 115.593993,312.188109 L115.593993,312.188109 Z" id="path24" sketch:type="MSShapeGroup"></path>
            </g>
        </g>
    </g>
</svg>