<?xml version="1.0" encoding="UTF-8" standalone="no"?>
<svg width="256px" height="256px" viewBox="0 0 256 256" version="1.1" xmlns="http://www.w3.org/2000/svg" xmlns:xlink="http://www.w3.org/1999/xlink" xmlns:sketch="http://www.bohemiancoding.com/sketch/ns">
    <!-- Generator: Sketch 3.3.3 (12081) - http://www.bohemiancoding.com/sketch -->
    <title>tunnel</title>
    <desc>Created with Sketch.</desc>
    <defs></defs>
    <g id="Page-1" stroke="none" stroke-width="1" fill="none" fill-rule="evenodd" sketch:type="MSPage">
        <g id="tunnel" sketch:type="MSArtboardGroup" fill="#000000">
            <path d="M191.154286,182.960999 L191.154286,172.051632 L175.18618,172.051632 L175.18618,182.960999 L191.154286,182.960999 L191.154286,182.960999 Z M191.154286,155.606205 L191.154286,144.467051 L175.18618,144.467051 L175.18618,155.606205 L191.154286,155.606205 L191.154286,155.606205 Z M191.154286,128.141483 L191.154286,113.991729 L174.203692,118.852806 C174.629651,121.594773 174.906845,124.657833 175.05454,128.141483 L191.154286,128.141483 L191.154286,128.141483 Z M180.78572,95.0365687 L170.36043,77.8235416 L158.99792,92.9067659 L159.620805,93.4868491 C163.109823,96.7810735 165.911725,99.7253268 168.122858,102.875059 L180.78572,95.0365687 L180.78572,95.0365687 Z M153.597447,75.254526 L139.488363,75.254526 L137.990015,82.9031544 C141.657756,83.5859814 144.931654,84.4550145 148.018242,85.7468043 L153.597447,75.254526 L153.597447,75.254526 Z M127.999255,72.9196722 L118.968491,72.9196722 L120.896017,84.2816429 C122.179236,84.040837 122.910224,83.9380931 124.210567,83.8139358 C125.683238,83.6726715 126.520163,83.6352129 127.999255,83.6448451 C129.4794,83.6352557 130.316343,83.6726715 131.788996,83.8139358 C133.089348,83.9380931 133.821406,84.040837 135.104625,84.2816429 L137.032151,72.9196722 L127.999255,72.9196722 L127.999255,72.9196722 Z M102.402116,75.254526 L116.512279,75.254526 L118.009557,82.9031544 C114.341807,83.5859814 111.068988,84.4550145 107.98133,85.7468043 L102.402116,75.254526 L102.402116,75.254526 Z M75.2144944,95.0365687 L85.6377546,77.8235416 L97.0016431,92.9067659 L96.3787672,93.4868491 C92.8897575,96.7810735 90.0878473,99.7253268 87.8777844,102.875059 L75.2144944,95.0365687 L75.2144944,95.0365687 Z M64.8455002,128.141483 L64.8455002,113.991729 L81.7955629,118.852806 C81.3706658,121.594773 81.0924098,124.657833 80.9436367,128.141483 L64.8455002,128.141483 L64.8455002,128.141483 Z M64.8455002,155.606205 L64.8455002,144.467051 L80.8130749,144.467051 L80.8130749,155.606205 L64.8455002,155.606205 L64.8455002,155.606205 Z M64.8455002,169.322499 L64.8455002,158.334259 L80.8130749,158.334259 L80.8130749,169.322499 L64.8455002,169.322499 L64.8455002,169.322499 Z M127.999255,185.689063 L62.1165809,185.689063 L62.1165809,111.032501 L85.5350107,72.526677 L116.161238,72.526677 L116.161238,70.3109375 L127.999255,70.3109375 L139.839413,70.3109375 L139.839413,72.526677 L170.464244,72.526677 L193.883419,111.032501 L193.883419,185.689063 L127.999255,185.689063 L127.999255,185.689063 Z M64.8455002,182.960999 L64.8455002,172.051632 L80.8130664,172.051632 L80.8130664,182.960999 L64.8455002,182.960999 L64.8455002,182.960999 Z M64.8455002,141.738988 L64.8455002,130.870616 L80.8558763,130.870616 C80.8270224,132.147431 80.8130664,133.476679 80.8130664,134.864783 L80.8130664,141.738988 L64.8455002,141.738988 L64.8455002,141.738988 Z M65.3638172,111.301125 L73.800371,97.3707804 L86.3976223,105.167531 C84.5225472,108.344037 83.1804558,111.837328 82.2825174,116.152569 L65.3638172,111.301125 L65.3638172,111.301125 Z M87.1607094,75.3099563 L99.3123094,75.2545603 L105.502626,86.8984344 C103.319319,88.0179056 101.202368,89.3953238 99.073644,91.1216259 L87.1607094,75.3099991 L87.1607094,75.3099563 Z M168.838862,75.3099563 L156.688333,75.2545603 L150.496946,86.8984344 C152.681314,88.0179056 154.796125,89.3953238 156.926998,91.1216259 L168.838862,75.3099991 L168.838862,75.3099563 Z M190.636286,111.301125 L182.199518,97.3707804 L169.601624,105.167531 C171.476699,108.344037 172.818791,111.837328 173.716729,116.152569 L190.636286,111.301125 L190.636286,111.301125 Z M191.154286,141.738988 L191.154286,130.870616 L175.14337,130.870616 C175.171197,132.147431 175.18618,133.476679 175.18618,134.864783 L175.18618,141.738988 L191.154286,141.738988 L191.154286,141.738988 Z M191.154286,169.322499 L191.154286,158.334259 L175.18618,158.334259 L175.18618,169.322499 L191.154286,169.322499 L191.154286,169.322499 Z M127.999247,91.0274183 C117.593222,91.0239935 110.853868,93.5478532 103.007877,100.38674 C94.3752537,107.909516 90.7385497,115.29744 90.0396775,126.725553 L90.0396775,182.960999 L83.5421997,182.960999 L83.5421997,125.255023 C84.3941174,113.023163 88.0179784,105.272415 96.8582299,96.7767925 C103.768824,90.1337609 109.248495,87.2751275 118.651697,85.4118251 L119.05304,87.4174706 C120.900289,86.9251563 121.968397,86.7164579 123.865947,86.4810033 C125.469179,86.2819285 126.384242,86.2219946 127.999247,86.2080899 C129.615322,86.2219603 130.530384,86.2818942 132.134686,86.4810033 C134.031166,86.7164579 135.099274,86.9251563 136.947593,87.4174706 L137.348936,85.4118251 C146.752138,87.2751275 152.230748,90.1337609 159.142412,96.7767925 C167.981594,105.272415 171.605129,113.023163 172.457047,125.255023 L172.457047,182.960999 L165.960965,182.960999 L165.960965,126.725553 C165.261022,115.29744 161.623248,107.909516 152.991695,100.386732 C145.145696,93.5478532 138.407412,91.024199 127.999247,91.0274183 L127.999247,91.0274183 Z" id="path17" sketch:type="MSShapeGroup"></path>
        </g>
    </g>
</svg>