<?xml version="1.0" encoding="UTF-8" standalone="no"?>
<svg width="512px" height="512px" viewBox="0 0 512 512" version="1.1" xmlns="http://www.w3.org/2000/svg" xmlns:xlink="http://www.w3.org/1999/xlink" xmlns:sketch="http://www.bohemiancoding.com/sketch/ns">
    <!-- Generator: Sketch 3.2.2 (9983) - http://www.bohemiancoding.com/sketch -->
    <title>turn-90-l</title>
    <desc>Created with Sketch.</desc>
    <defs></defs>
    <g id="us-symbols" stroke="none" stroke-width="1" fill="none" fill-rule="evenodd" sketch:type="MSPage">
        <g id="turn-90-l" sketch:type="MSArtboardGroup" fill="#000000">
            <path d="M205.316245,128.379903 C206.979789,127.215422 209.006686,126.532494 211.191181,126.532494 C216.853797,126.532494 221.446053,131.122561 221.446053,136.787366 C221.446053,137.848969 221.284077,138.873362 220.984201,139.836466 L211.898187,170.115152 L343.931031,170.115152 L343.931031,385.467506 L292.656672,385.467506 L292.656672,221.389573 L211.898187,221.389573 L220.984201,251.668241 C221.284077,252.631346 221.446053,253.655703 221.446053,254.717342 C221.446053,260.37994 216.853797,264.972214 211.191181,264.972214 C209.006686,264.972214 206.979789,264.289285 205.316245,263.124752 L108.068969,195.751299 L205.316245,128.379903 L205.316245,128.379903 Z" id="path3842" sketch:type="MSShapeGroup"></path>
        </g>
    </g>
</svg>