<?xml version="1.0" encoding="UTF-8" standalone="no"?>
<svg width="512px" height="512px" viewBox="0 0 512 512" version="1.1" xmlns="http://www.w3.org/2000/svg" xmlns:xlink="http://www.w3.org/1999/xlink" xmlns:sketch="http://www.bohemiancoding.com/sketch/ns">
    <!-- Generator: Sketch 3.2.2 (9983) - http://www.bohemiancoding.com/sketch -->
    <title>turn-reverse-right</title>
    <desc>Created with Sketch.</desc>
    <defs></defs>
    <g id="us-symbols" stroke="none" stroke-width="1" fill="none" fill-rule="evenodd" sketch:type="MSPage">
        <g id="turn-reverse-right" sketch:type="MSArtboardGroup" fill="#000000">
            <path d="M299.429189,316.57901 L299.497574,382.278325 L343.720343,382.278325 L343.674753,292.701346 C343.674753,276.256449 329.96378,262.752421 313.43845,262.752421 L257.29134,262.752421 C251.380783,262.752421 246.555916,257.927554 246.555916,252.016997 L246.578711,215.99665 L270.226472,223.050208 C273.500634,223.963469 275.924547,224.342516 278.440437,222.630944 C282.053283,220.178212 282.995348,215.232695 280.536933,211.625401 L225.136519,129.721675 L169.649965,211.624749 C167.191535,215.23188 168.133453,220.177398 171.735048,222.63013 C174.1474,224.272829 176.651746,223.974215 179.621434,223.215959 L203.665664,215.995835 L203.699856,275.876588 L203.699856,275.756101 C203.699856,292.195299 216.968445,305.699327 233.419211,305.825676 L288.670319,305.841958 C294.580712,305.841958 299.4287,310.666825 299.4287,316.577381" id="path3179" sketch:type="MSShapeGroup" transform="translate(256.000000, 256.000000) scale(-1, 1) translate(-256.000000, -256.000000) "></path>
        </g>
    </g>
</svg>