<?xml version="1.0" encoding="UTF-8" standalone="no"?>
<svg width="512px" height="512px" viewBox="0 0 512 512" version="1.1" xmlns="http://www.w3.org/2000/svg" xmlns:xlink="http://www.w3.org/1999/xlink" xmlns:sketch="http://www.bohemiancoding.com/sketch/ns">
    <!-- Generator: Sketch 3.2.2 (9983) - http://www.bohemiancoding.com/sketch -->
    <title>turn-90-r</title>
    <desc>Created with Sketch.</desc>
    <defs></defs>
    <g id="us-symbols" stroke="none" stroke-width="1" fill="none" fill-rule="evenodd" sketch:type="MSPage">
        <g id="turn-90-r" sketch:type="MSArtboardGroup" fill="#000000">
            <path d="M280.316245,128.379903 C281.979789,127.215422 284.006686,126.532494 286.191181,126.532494 C291.853797,126.532494 296.446053,131.122561 296.446053,136.787366 C296.446053,137.848969 296.284077,138.873362 295.984201,139.836466 L286.898187,170.115152 L418.931031,170.115152 L418.931031,385.467506 L367.656672,385.467506 L367.656672,221.389573 L286.898187,221.389573 L295.984201,251.668241 C296.284077,252.631346 296.446053,253.655703 296.446053,254.717342 C296.446053,260.37994 291.853797,264.972214 286.191181,264.972214 C284.006686,264.972214 281.979789,264.289285 280.316245,263.124752 L183.068969,195.751299 L280.316245,128.379903 L280.316245,128.379903 Z" id="path3842" sketch:type="MSShapeGroup" transform="translate(301.000000, 256.000000) scale(-1, 1) translate(-301.000000, -256.000000) "></path>
        </g>
    </g>
</svg>