<?xml version="1.0" encoding="UTF-8" standalone="no"?>
<svg width="400px" height="400px" viewBox="0 0 400 400" version="1.1" xmlns="http://www.w3.org/2000/svg" xmlns:xlink="http://www.w3.org/1999/xlink" xmlns:sketch="http://www.bohemiancoding.com/sketch/ns">
    <!-- Generator: Sketch 3.2.2 (9983) - http://www.bohemiancoding.com/sketch -->
    <title>turn-curve-speed</title>
    <desc>Created with Sketch.</desc>
    <defs></defs>
    <g id="Page-1" stroke="none" stroke-width="1" fill="none" fill-rule="evenodd" sketch:type="MSPage">
        <g id="turn-curve-speed" sketch:type="MSArtboardGroup" fill="#000000">
            <path d="M253.256,235.048 C256.752017,235.048 259.956652,235.753326 262.87,237.164 C265.783348,238.574674 268.297989,240.690653 270.414,243.512 C272.530011,246.333347 274.185994,249.813979 275.382,253.954 C276.578006,258.094021 277.176,262.86264 277.176,268.26 C277.176,273.718694 276.578006,278.502646 275.382,282.612 C274.185994,286.721354 272.530011,290.155986 270.414,292.916 C268.297989,295.676014 265.783348,297.761326 262.87,299.172 C259.956652,300.582674 256.752017,301.288 253.256,301.288 C249.759983,301.288 246.555348,300.582674 243.642,299.172 C240.728652,297.761326 238.214011,295.676014 236.098,292.916 C233.981989,290.155986 232.341339,286.721354 231.176,282.612 C230.010661,278.502646 229.428,273.718694 229.428,268.26 C229.428,262.86264 230.010661,258.094021 231.176,253.954 C232.341339,249.813979 233.981989,246.333347 236.098,243.512 C238.214011,240.690653 240.728652,238.574674 243.642,237.164 C246.555348,235.753326 249.759983,235.048 253.256,235.048 L253.256,235.048 Z M253.256,244.248 C248.655977,244.248 245.037347,246.22598 242.4,250.182 C239.762653,254.13802 238.444,260.16396 238.444,268.26 C238.444,276.35604 239.762653,282.38198 242.4,286.338 C245.037347,290.29402 248.655977,292.272 253.256,292.272 C257.856023,292.272 261.489987,290.29402 264.158,286.338 C266.826013,282.38198 268.16,276.35604 268.16,268.26 C268.16,260.16396 266.826013,254.13802 264.158,250.182 C261.489987,246.22598 257.856023,244.248 253.256,244.248 L253.256,244.248 Z M311.86,235.048 C315.356017,235.048 318.560652,235.753326 321.474,237.164 C324.387348,238.574674 326.901989,240.690653 329.018,243.512 C331.134011,246.333347 332.789994,249.813979 333.986,253.954 C335.182006,258.094021 335.78,262.86264 335.78,268.26 C335.78,273.718694 335.182006,278.502646 333.986,282.612 C332.789994,286.721354 331.134011,290.155986 329.018,292.916 C326.901989,295.676014 324.387348,297.761326 321.474,299.172 C318.560652,300.582674 315.356017,301.288 311.86,301.288 C308.363983,301.288 305.159348,300.582674 302.246,299.172 C299.332652,297.761326 296.818011,295.676014 294.702,292.916 C292.585989,290.155986 290.945339,286.721354 289.78,282.612 C288.614661,278.502646 288.032,273.718694 288.032,268.26 C288.032,262.86264 288.614661,258.094021 289.78,253.954 C290.945339,249.813979 292.585989,246.333347 294.702,243.512 C296.818011,240.690653 299.332652,238.574674 302.246,237.164 C305.159348,235.753326 308.363983,235.048 311.86,235.048 L311.86,235.048 Z M311.86,244.248 C307.259977,244.248 303.641347,246.22598 301.004,250.182 C298.366653,254.13802 297.048,260.16396 297.048,268.26 C297.048,276.35604 298.366653,282.38198 301.004,286.338 C303.641347,290.29402 307.259977,292.272 311.86,292.272 C316.460023,292.272 320.093987,290.29402 322.762,286.338 C325.430013,282.38198 326.764,276.35604 326.764,268.26 C326.764,260.16396 325.430013,254.13802 322.762,250.182 C320.093987,246.22598 316.460023,244.248 311.86,244.248 L311.86,244.248 Z" id="00" sketch:type="MSShapeGroup"></path>
        </g>
    </g>
</svg>