<?xml version="1.0" encoding="UTF-8" standalone="no"?>
<svg width="400px" height="400px" viewBox="0 0 400 400" version="1.1" xmlns="http://www.w3.org/2000/svg" xmlns:xlink="http://www.w3.org/1999/xlink" xmlns:sketch="http://www.bohemiancoding.com/sketch/ns">
    <!-- Generator: Sketch 3.2.2 (9983) - http://www.bohemiancoding.com/sketch -->
    <title>turn-l-curve</title>
    <desc>Created with Sketch.</desc>
    <defs></defs>
    <g id="Page-1" stroke="none" stroke-width="1" fill="none" fill-rule="evenodd" sketch:type="MSPage">
        <g id="turn-l-curve" sketch:type="MSArtboardGroup" fill="#000000">
            <path d="M178.773651,180.752024 C176.635377,187.842091 174.503342,194.932157 172.371342,202.015843 C171.533543,204.798169 170.908312,207.911737 169.43277,210.450195 C166.231616,215.958488 158.516319,216.971354 154.058465,212.319612 C151.595064,209.749961 150.257088,205.973555 148.719019,202.834998 C145.555357,196.420176 142.391722,190.005354 139.234325,183.590532 C126.160849,157.074694 113.087356,130.56506 100.020136,104.049222 C129.605836,104.049222 159.204076,104.049222 188.796033,104.031499 L209.909933,104.031499 C213.623777,104.031499 217.812791,103.637518 221.439102,104.587823 C227.472526,106.175976 231.455227,113.009769 227.29122,118.611816 C225.359277,121.206456 222.745815,123.563608 220.557527,125.976943 C215.586984,131.472652 210.622679,136.968362 205.652136,142.457869 C228.560431,152.861595 250.793394,168.823593 264.385833,190.362649 C277.903305,211.814153 280.028995,235.091476 279.979017,259.769089 C279.954205,277.450568 279.916986,295.131869 279.885085,312.813347 C279.885085,313.169579 280.09138,315.595496 279.709628,315.595496 L271.894321,315.595496 L242.833822,315.595496 C240.401702,315.595496 231.817289,317.264821 231.817289,314.201232 C231.817289,307.011208 231.804883,299.827387 231.804883,292.637186 C231.792477,277.656863 231.930007,262.663956 231.767311,247.677252 C231.648567,235.854094 229.072571,224.693953 222.645255,214.671447 C212.672888,199.10343 194.560086,189.005957 178.77312,180.746707" id="path3147" sketch:type="MSShapeGroup"></path>
        </g>
    </g>
</svg>