<?xml version="1.0" encoding="UTF-8" standalone="no"?>
<svg width="256px" height="256px" viewBox="0 0 256 256" version="1.1" xmlns="http://www.w3.org/2000/svg" xmlns:xlink="http://www.w3.org/1999/xlink" xmlns:sketch="http://www.bohemiancoding.com/sketch/ns">
    <!-- Generator: Sketch 3.3.3 (12081) - http://www.bohemiancoding.com/sketch -->
    <title>turn-right-curve-ontario</title>
    <desc>Created with Sketch.</desc>
    <defs></defs>
    <g id="Page-1" stroke="none" stroke-width="1" fill="none" fill-rule="evenodd" sketch:type="MSPage">
        <g id="turn-right-curve-ontario" sketch:type="MSArtboardGroup" fill="#000000">
            <path d="M89.183095,198.805706 L89.183095,145.164636 C90.292015,128.106176 96.546795,112.895096 107.815305,100.845666 L123.771945,82.96845 C119.423565,80.120602 114.159745,77.862709 109.653275,75.137588 C107.867205,73.922499 107.227805,71.891064 107.525095,70.055389 C107.820025,68.31415 109.044545,66.966972 110.818825,66.546961 L166.816905,57.163664 L161.338375,115.785346 C160.901885,117.403926 159.273895,118.788886 157.565685,118.921046 C155.305375,119.069656 153.283365,117.621016 152.136695,115.709896 C149.557865,111.597406 146.721865,106.687496 144.095845,102.518486 C135.502895,111.479496 125.654755,119.843526 121.011445,131.270166 C117.307185,139.730976 115.256865,148.901926 115.136535,159.125246 L115.108235,198.836336 L89.183105,198.805536" id="path3052" sketch:type="MSShapeGroup"></path>
        </g>
    </g>
</svg>