<?xml version="1.0" encoding="UTF-8" standalone="no"?>
<svg width="256px" height="256px" viewBox="0 0 256 256" version="1.1" xmlns="http://www.w3.org/2000/svg" xmlns:xlink="http://www.w3.org/1999/xlink" xmlns:sketch="http://www.bohemiancoding.com/sketch/ns">
    <!-- Generator: Sketch 3.3.2 (12043) - http://www.bohemiancoding.com/sketch -->
    <title>two_way_arrows_bra</title>
    <desc>Created with Sketch.</desc>
    <defs></defs>
    <g id="Page-1" stroke="none" stroke-width="1" fill="none" fill-rule="evenodd" sketch:type="MSPage">
        <g id="two_way_arrows_bra" sketch:type="MSArtboardGroup" fill="#000000">
            <path d="M150.763605,214.559597 C150.734973,209.805867 149.941413,82.7478536 149.935209,82.7478536 C149.88081,82.7478536 149.062913,82.9945589 143.660209,84.7038403 C140.71931,85.6343536 138.172089,86.4236198 138.014141,86.4589316 C137.798452,86.506173 137.591354,86.5286008 137.148048,86.5166711 C136.456127,86.4990152 136.110644,86.4264829 135.544702,86.1597357 C134.443356,85.6415114 133.70658,84.6642338 133.44031,83.4030304 C133.373504,83.0871331 133.38257,82.9167776 133.394023,82.3665817 C133.410247,81.6326692 133.453194,81.2805057 133.673177,80.8157262 C133.75907,80.6348726 156.688827,46.5003042 159.474641,42.4036597 C159.552422,42.2881806 159.616842,42.1932205 159.618274,42.191789 C159.633067,42.1793821 162.502865,46.3075209 177.791914,68.4236749 C182.276034,74.9095913 185.989498,80.343789 186.059167,80.4869449 C186.285354,80.9493384 186.359317,81.3005475 186.384608,82.0335057 C186.402741,82.5827471 186.414671,82.754057 186.351205,83.0709087 C186.05201,84.5807262 185.0022,85.7126122 183.561097,86.1206065 C183.132584,86.2418118 182.218772,86.270443 181.802665,86.1845494 C181.643762,86.1511464 179.086998,85.3938517 176.133692,84.5000817 C170.693768,82.8533118 169.877779,82.6228308 169.821949,82.623308 C169.818608,82.623308 170.609306,209.680367 170.636029,214.434574 L150.763605,214.559597 L150.763605,214.559597 Z" id="path38" sketch:type="MSShapeGroup"></path>
            <path d="M105.985873,42.1908346 C106.014504,46.9445646 106.808542,174.002101 106.814268,174.002101 C106.868667,174.002101 107.687042,173.755395 113.089745,172.046591 C116.030644,171.116078 118.577388,170.326812 118.735814,170.291023 C118.951502,170.243781 119.158124,170.221354 119.601907,170.233283 C120.294304,170.251416 120.638833,170.323949 121.205253,170.590696 C122.306599,171.10892 123.043852,172.086198 123.310122,173.346924 C123.376451,173.663298 123.367861,173.833654 123.355932,174.38385 C123.339707,175.117285 123.296283,175.469449 123.076778,175.934705 C122.990884,176.115559 100.061127,210.24965 97.2753137,214.346772 C97.1975323,214.462251 97.1335894,214.557211 97.1321578,214.558643 C97.117365,214.570572 94.2475665,210.442433 78.9585171,188.326279 C74.4743973,181.840363 70.7609335,176.406165 70.6912643,176.263487 C70.4650779,175.801093 70.3911141,175.449884 70.3658232,174.716926 C70.3472129,174.167684 70.3357605,173.995897 70.3992262,173.679046 C70.6979449,172.169705 71.7482319,171.037342 73.1893346,170.629348 C73.6178479,170.50862 74.5321369,170.479989 74.9477662,170.565405 C75.1066692,170.598331 77.6634335,171.356103 80.6167395,172.249395 C86.0566635,173.896643 86.8726521,174.126646 86.9280057,174.126169 C86.931346,174.126646 86.1406483,47.0695875 86.114403,42.3153802 L105.985873,42.1908346 L105.985873,42.1908346 Z" id="path38_1_" sketch:type="MSShapeGroup"></path>
        </g>
    </g>
</svg>