<?xml version="1.0" encoding="UTF-8" standalone="no"?>
<svg width="256px" height="256px" viewBox="0 0 256 256" version="1.1" xmlns="http://www.w3.org/2000/svg" xmlns:xlink="http://www.w3.org/1999/xlink" xmlns:sketch="http://www.bohemiancoding.com/sketch/ns">
    <!-- Generator: Sketch 3.3.3 (12081) - http://www.bohemiancoding.com/sketch -->
    <title>u-turn-au</title>
    <desc>Created with Sketch.</desc>
    <defs></defs>
    <g id="Page-1" stroke="none" stroke-width="1" fill="none" fill-rule="evenodd" sketch:type="MSPage">
        <g id="u-turn-au" sketch:type="MSArtboardGroup" fill="#000000">
            <path d="M99.8476204,110.721996 C99.7628032,102.199641 100.035323,97.4079444 101.199065,92.3836379 C103.83951,80.9838497 109.809062,75.8426637 126.590402,75.8426637 C145.270426,75.8426638 151.921958,81.6151313 154.735487,94.3169827 C155.885947,99.5108082 156.168432,104.279839 156.167821,113.427582 C156.167811,113.56665 156.167811,158.694285 156.167811,162.515118 L175.977526,181.713332 L193.008033,162.515115 C193.008033,158.694282 193.008031,122.076915 193.008031,113.705559 C193.008827,101.703621 192.608755,94.9494341 190.703887,86.3497883 C184.274496,57.3239012 163.16294,39.0024415 126.590402,39.0024414 C92.0335843,39.0024413 71.6895602,56.5234247 65.3089967,84.0706964 C63.2968459,92.7579014 62.8967945,99.7919742 63.0092224,111.088624 C63.0251382,112.687825 63.0284256,214.724896 63.0284256,216.997559 L99.868648,216.997559 C99.868648,214.724896 99.8649973,112.468002 99.8476204,110.721996 Z" id="Shape" sketch:type="MSShapeGroup"></path>
        </g>
    </g>
</svg>