<?xml version="1.0" encoding="UTF-8" standalone="no"?>
<svg width="512px" height="512px" viewBox="0 0 512 512" version="1.1" xmlns="http://www.w3.org/2000/svg" xmlns:xlink="http://www.w3.org/1999/xlink" xmlns:sketch="http://www.bohemiancoding.com/sketch/ns">
    <!-- Generator: Sketch 3.2.2 (9983) - http://www.bohemiancoding.com/sketch -->
    <title>u-turn</title>
    <desc>Created with Sketch.</desc>
    <defs></defs>
    <g id="us-symbols" stroke="none" stroke-width="1" fill="none" fill-rule="evenodd" sketch:type="MSPage">
        <g id="u-turn" sketch:type="MSArtboardGroup" fill="#000000">
            <path d="M259.319763,94.59318 C198.710164,94.59318 149.578325,143.725019 149.578325,204.334674 L149.578325,274.295115 L117.175906,264.571813 C116.14525,264.250904 115.049007,264.077567 113.912943,264.077567 C107.853154,264.077567 102.938799,268.991922 102.938799,275.05171 C102.938799,277.389426 103.669628,279.558488 104.915785,281.338675 L177.012513,385.40682 L249.111584,281.338675 C250.357741,279.558469 251.088569,277.391749 251.088569,275.05171 C251.088569,268.991922 246.176557,264.077567 240.114426,264.077567 C238.978362,264.077567 237.882118,264.250904 236.851462,264.571813 L204.449044,274.295115 L204.449044,204.334656 C204.449044,174.03099 229.016135,149.463899 259.319763,149.463899 C289.623391,149.463899 314.190482,174.03099 314.190482,204.334656 L314.190482,385.40682 L369.061201,385.40682 L369.061201,204.334656 C369.061201,143.725019 319.929362,94.59318 259.319763,94.59318" id="path3842" sketch:type="MSShapeGroup"></path>
        </g>
    </g>
</svg>