<?xml version="1.0" encoding="UTF-8" standalone="no"?>
<svg width="512px" height="512px" viewBox="0 0 512 512" version="1.1" xmlns="http://www.w3.org/2000/svg" xmlns:xlink="http://www.w3.org/1999/xlink" xmlns:sketch="http://www.bohemiancoding.com/sketch/ns">
    <!-- Generator: Sketch 3.2.2 (9983) - http://www.bohemiancoding.com/sketch -->
    <title>animal</title>
    <desc>Created with Sketch.</desc>
    <defs></defs>
    <g id="symbols" stroke="none" stroke-width="1" fill="none" fill-rule="evenodd" sketch:type="MSPage">
        <g id="animal" sketch:type="MSArtboardGroup" fill="#000000">
            <path d="M205.168872,159.861768 L213.496288,153.246588 L223.90555,131.312051 C225.856048,129.184296 227.832948,126.877738 228.763214,131.660218 L225.293454,149.764919 L229.973273,147.931739 C236.631802,141.68521 238.881946,132.67398 243.33618,125.045039 L246.80594,125.393207 L244.030132,138.971725 L246.111988,140.364396 C252.630515,135.228235 256.344018,128.966219 258.950083,122.259696 C260.267067,122.26137 261.321325,120.549483 263.113786,123.652367 C263.048422,131.481931 259.904107,137.595092 255.133356,142.801571 L224.252526,161.254439 L224.599502,162.995278 L244.030132,163.691614 C242.04551,167.735075 239.003781,170.717799 234.661798,172.395792 L227.028334,174.136631 C231.766985,201.350895 241.158892,224.942017 259.644035,235.065921 L340.836306,259.437633 C353.347243,266.024306 370.93107,268.284209 362.348792,292.8617 L362.348792,302.262213 C366.198446,313.43583 373.345392,323.966099 390.453813,332.55277 L407.108635,365.628669 C410.218178,368.424742 409.95318,371.19979 418.766855,372.312411 L421.474344,390.209899 C404.997909,384.242725 393.534539,367.855666 382.126398,351.353805 C369.473702,342.914984 355.366867,338.811553 342.015417,333.527944 C324.083203,320.980589 319.376839,311.147813 317.588949,301.914045 C289.950583,300.025892 262.248041,298.636881 236.049702,285.550184 L233.273894,290.772693 L189.554978,279.283172 C195.677726,286.211584 194.339096,300.419041 212.45536,295.647033 L222.170679,312.010903 C209.929,311.085778 197.571628,310.8804 187.126146,298.780544 L170.8183,269.534482 C169.780718,265.144028 171.552989,262.271768 175.32898,260.482136 L216.546918,268.349023 C212.167731,264.869304 210.508581,259.829945 208.638632,254.911451 L200.658193,186.670655 L171.859229,178.662804 L172.553172,168.914123 L205.168872,159.861768 Z" id="path5712" sketch:type="MSShapeGroup"></path>
        </g>
    </g>
</svg>