<?xml version="1.0" encoding="UTF-8" standalone="no"?>
<svg width="512px" height="512px" viewBox="0 0 512 512" version="1.1" xmlns="http://www.w3.org/2000/svg" xmlns:xlink="http://www.w3.org/1999/xlink" xmlns:sketch="http://www.bohemiancoding.com/sketch/ns">
    <!-- Generator: Sketch 3.2.2 (9983) - http://www.bohemiancoding.com/sketch -->
    <title>winding-road</title>
    <desc>Created with Sketch.</desc>
    <defs></defs>
    <g id="us-symbols" stroke="none" stroke-width="1" fill="none" fill-rule="evenodd" sketch:type="MSPage">
        <g id="winding-road" sketch:type="MSArtboardGroup" fill="#000000">
            <path d="M263.76064,367.844872 L263.750966,385.936443 L229.469129,385.902448 C229.318002,380.066932 229.41551,373.539141 229.41551,367.708503 C229.41551,350.216576 241.286424,333.748433 257.501067,327.220643 C260.265259,325.733735 261.952048,322.837915 261.952048,319.742214 C261.952048,316.144377 259.655858,312.882928 256.292036,311.669019 C241.783681,305.389864 226.46118,302.879186 213.215488,291.915035 C203.860145,284.168472 198.755887,271.902688 198.755887,259.622255 C198.755887,235.914562 218.387985,217.325734 241.812936,216.570098 C246.527174,216.423836 250.417522,212.669993 250.417522,207.931379 L250.407849,195.299952 L231.433892,200.959964 C228.806207,201.696114 226.861026,201.998368 224.842727,200.62359 C221.946907,198.654031 221.186393,194.685687 223.160816,191.789867 L267.617021,126.063557 L312.146343,191.789867 C314.120766,194.685687 313.355374,198.654031 310.464432,200.62359 C308.529007,201.939871 306.530207,201.700978 304.141401,201.09647 L284.850556,195.299952 L284.860229,207.941135 C284.860229,231.965717 265.208619,251.012805 241.812936,251.012805 C237.069444,251.012805 233.19373,254.883641 233.19373,259.622255 C233.19373,262.854463 234.953637,266.052537 237.907967,267.295702 C247.726448,271.420051 257.808199,274.910623 267.636437,279.044729 C284.830974,286.289157 296.389877,301.582403 296.389877,319.742214 C296.389877,336.224991 283.344066,353.131895 268.367695,360.025315 C264.852677,361.638848 263.76064,364.305545 263.76064,367.844872 Z" id="path3557" sketch:type="MSShapeGroup"></path>
        </g>
    </g>
</svg>