<svg xmlns:svg="http://www.w3.org/2000/svg" xmlns="http://www.w3.org/2000/svg" version="1" width="512" height="512">
  <path d="m8.94 512 0-451.91 0 0C8.67 59.96 6.53 58.49 6.13 58.35 3.72 56.48 1.85 54.21 0.78 51.26-0.7 46.85-0.03 42.43 2.38 38.29 4.79 34.14 9.2 31.2 14.15 30.39c4.15-0.67 8.7 0.27 12.04 2.68 1.61 1.07 4.28 4.01 4.15 4.01l0 0 155.05-35.59 0 0c0.13 0 0.54-0.13 0.67-0.13l0 0 3.61-0.54 0 0c2.54-0.54 5.89-0.94 8.29-0.8 2.81 0.13 5.75 0.8 8.29 2.01l0 0 7.36 4.95 288.43 236.66 0 0c0.13 0.13 6.56 6.15 7.49 7.76 1.34 2.14 2.01 4.28 2.27 6.82 0.67 6.42-1.74 13.91-3.75 20.33-2.68 8.96-7.22 20.33-11.37 28.76-2.27 4.82-11.51 19.26-14.45 23.81-4.01 6.29-12.17 16.99-17.26 22.34-1.87 2.01-4.01 4.15-6.69 5.48-3.34 1.74-7.89 2.01-11.77 1.74-2.41-0.13-6.15-1.2-8.29-1.87l0 0-355.99-121.47-7.49-2.94 0 0c-2.41-1.47-4.68-4.01-6.02-6.69-0.54-0.8-1.47-3.75-2.01-4.82l0 0-39.2-128.7 0 417.79-18.6 0z" fill="#000" />
  <path d="m172.15 18.22-140.2 31.84-4.15 7.89 40.4 130.17 0 0c8.56-32.51 21.94-63.68 39.46-92.31 17.66-28.9 39.33-54.98 64.48-77.59zM260.31 263.44l-0.13 0.27-0.27 0.13-0.27 0.4-0.4 0.27-0.27 0.27-0.27 0.27-0.4 0.4-0.27 0.27-0.4 0.27-0.27 0.4-0.8 0.67-0.8 0.67-0.67 0.67-0.8 0.67-0.8 0.67-0.4 0.4-0.4 0.27-0.4 0.27-0.4 0.27-0.4 0.27-0.27 0.27-0.4 0.27-0.4 0.27-0.27 0.13-0.4 0.13-0.27 0.27-0.27 0.13c-3.34 1.47-7.36 2.94-10.57 3.21-4.28 0.4-9.1-0.4-13.38-1.87l0 0-50.17-17.39 0 0c27.16-25.28 50.03-54.85 67.69-87.36 16.32-30.1 27.96-62.48 34.52-96.05l0 0 46.56 38.13 0 0c0.67 0.4 2.27 1.74 2.81 2.27 1.2 1.2 2.41 2.68 3.21 4.28 1.07 1.61 1.74 3.61 2.01 5.48 0.27 2.14 0.27 4.28 0 6.42-0.13 1.74-0.4 3.48-0.67 5.08-4.82 22.88-13.51 45.08-24.48 65.69-12.17 23.14-27.83 44.41-46.42 62.88zM83.05 171.4l-0.8 2.54-0.8 2.54-0.8 2.54-0.8 2.54-0.67 2.68-0.8 2.54-0.67 2.54-0.67 2.54c-1.2 4.68-2.14 9.36-2.54 14.05-0.4 3.88-1.34 8.7 0.4 12.58 1.2 2.54 3.48 4.41 6.15 5.08 3.61 0.94 8.56 0.13 11.91-1.34 32.51-14.85 60.07-52.98 77.73-83.88 18.46-32.24 31.04-67.29 36.66-103.95 0.54-3.21 0.8-6.82 0.8-10.17 0-2.14-0.27-4.41-0.94-6.42-1.34-3.88-6.56-5.75-10.84-5.08-2.94 0.54-6.56 2.81-8.96 4.41-16.86 11.37-31.57 26.89-44.41 42.68-10.84 13.11-21.54 28.09-29.7 43.08-10.97 20.6-21.81 46.69-30.23 68.5zM394.49 323.37l-0.27 0.27-0.27 0.4-0.4 0.27-0.27 0.27-0.4 0.13-0.4 0.27-0.27 0.27-0.4 0.27-0.4 0.13-0.4 0.27-0.4 0.13-0.4 0.27-0.4 0.13-0.4 0.13-0.4 0.13-0.4 0.13-0.4 0.13-0.4 0.13-0.4 0.13-0.4 0-0.4 0.13-0.4 0-0.4 0.13-0.4 0-0.54 0-0.4 0-0.4 0-0.4 0-0.4 0-0.4 0-0.4-0.13-0.4 0 0 0-60.07-20.74 0 0c19.26-20.33 35.85-43.08 49.36-67.69 11.51-21 20.74-43.08 27.42-65.95l0 0 43.34 35.72 4.95 5.22 0 0c2.01 3.34 1.61 7.63 0.94 11.51-2.68 17.39-7.76 35.32-16.45 50.57-9.77 17.66-22.47 33.44-37.06 47.36z" fill="#fff" />
</svg>
