<?xml version="1.0" encoding="UTF-8" standalone="no"?>
<svg width="256px" height="256px" viewBox="0 0 256 256" version="1.1" xmlns="http://www.w3.org/2000/svg" xmlns:xlink="http://www.w3.org/1999/xlink" xmlns:sketch="http://www.bohemiancoding.com/sketch/ns">
    <!-- Generator: Sketch 3.3.3 (12081) - http://www.bohemiancoding.com/sketch -->
    <title>wombat</title>
    <desc>Created with Sketch.</desc>
    <defs></defs>
    <g id="Page-1" stroke="none" stroke-width="1" fill="none" fill-rule="evenodd" sketch:type="MSPage">
        <g id="wombat" sketch:type="MSArtboardGroup" fill="#000000">
            <path d="M52.1256412,108.156594 C53.8306141,103.634828 57.1094081,102.931142 59.8635951,99.4935255 C65.4022348,92.584617 72.864431,86.0023019 81.5305331,82.8609708 C88.8313118,80.214576 96.986261,77.3931017 105.564929,77.0496764 C112.438626,76.7769563 119.093734,77.6624548 126.206195,78.8408749 C128.990648,79.3021422 131.92979,80.9182611 134.953006,82.2347247 C137.737459,83.4468139 139.40544,85.3827897 142.623703,86.0662733 C145.741076,86.7261885 148.99633,89.1503643 151.952289,90.106568 C153.835494,90.7092456 155.066303,91.9247018 156.912516,92.584617 C162.95222,94.7428092 168.874227,97.0222102 174.893756,98.0592199 C175.135882,98.0996229 175.569692,98.2881701 175.606684,98.0559877 C176.208634,94.3894178 181.62621,88.1471584 182.668699,89.2515064 C183.997031,90.6521428 185.143768,92.0628799 186.451923,93.4803509 C187.860963,95.012297 186.135813,102.527247 187.548217,104.035625 C191.082586,107.796468 195.360151,110.644878 198.453987,114.267678 C198.692751,114.547132 198.931514,114.826586 199.163552,115.10604 C201.470478,117.850072 200.485158,121.085677 202.27084,123.792676 C203.777404,126.075444 204.09015,128.950789 205.442022,131.065209 C209.073914,136.731726 209.716222,141.85617 208.310544,147.448612 C207.738857,149.717912 205.778309,151.852536 203.44448,153.40805 C201.369592,154.791852 195.804049,155.997208 190.914445,155.027536 C190.608425,154.966932 190.571433,153.640368 189.576025,153.010755 C188.294773,152.195961 186.004661,152.037716 185.617932,152.007414 C185.009253,151.95691 171.830185,145.856061 166.728718,147.872843 C164.647104,148.697737 158.99413,147.849409 157.336237,148.414916 C158.27784,147.728066 158.94705,146.778596 158.94705,145.697819 C158.94705,144.593471 160.342639,143.761843 161.317867,144.03793 L163.967806,144.03793 C164.246923,143.899887 163.967806,143.6238 164.384801,143.6238 C164.663919,143.6238 164.663919,143.485756 164.943037,143.347713 C164.943037,143.347713 165.363395,142.381408 165.222154,142.243365 C165.084277,142.105321 164.526041,142.381408 164.526041,142.381408 C164.384801,142.381408 162.992575,142.657495 162.992575,142.657495 C162.155221,142.657495 158.94705,143.6238 158.667932,144.175974 C158.667932,144.175974 158.388814,145.004235 158.388814,145.142278 C158.250937,145.421732 157.830578,146.111947 157.830578,146.388034 C157.692701,147.071517 157.554823,147.751634 157.282431,148.435118 C157.006676,148.539492 156.855347,148.691003 156.872162,148.899752 C157.121014,151.960277 155.772505,157.350707 153.637085,162.360673 C150.512983,169.687079 145.704085,176.198692 141.719092,173.441189 C140.649701,172.700468 141.809889,170.905902 141.708869,169.875626 C141.621434,168.959826 141.702143,168.151766 140.626026,167.606326 C140.13841,167.360541 140.071153,164.85219 140.276288,163.963325 C140.330094,163.727641 141.227979,162.734401 140.424254,161.582916 C138.369543,158.646969 131.579917,153.67067 130.793007,153.589864 C126.676862,153.175733 121.195391,153.48549 115.142233,154.232945 C112.660441,154.539334 109.21014,154.515765 106.630822,155.199249 C104.12885,155.859164 104.750981,157.010649 102.723173,159.020697 C101.1359,160.596413 98.9399514,166.784799 100.093412,169.92613 C100.264918,170.394131 100.564213,171.350335 100.967757,171.313299 C105.20833,170.946305 107.861631,174.663379 106.832594,175.26269 C105.726212,175.912504 103.752209,176.13472 101.2536,176.057281 C98.9702172,175.986576 99.1484491,179.424193 96.2395703,178.956192 C94.4538886,178.666637 92.516878,178.218838 90.5193358,177.673398 C88.7740085,177.195296 86.9715125,176.909108 85.1723794,176.333368 C82.472001,175.464704 85.4380458,163.101395 82.9831566,162.108155 C82.1424401,161.764729 81.2748208,160.478571 80.2592354,160.613247 C74.7744042,161.343865 67.6922091,160.094743 66.6598094,159.764785 C65.5635179,159.414626 63.7811991,164.741082 64.8505903,166.087848 C65.634138,167.070987 71.6906564,169.845324 71.3846356,170.397498 C70.5371935,171.919343 66.3571542,171.757732 61.4877247,171.821703 C54.6005758,171.91261 51.9708149,172.101157 49.8152207,169.20561 C48.1573279,166.976713 53.2251638,162.071119 52.9594974,158.798481 C52.2801985,150.391295 47.1955484,153.067992 46.3951863,144.990767 C46.2573088,143.586764 45.7125246,139.098667 46.1967773,135.28732 C46.6238612,131.927139 48.0530791,129.216776 48.4532601,127.87001 L50.08425,122.371838 L52.1255067,108.156728 L52.1256412,108.156594 Z M198.275756,142.933448 C197.71752,143.347578 197.297162,143.899752 197.159284,144.313883 C197.018044,144.58997 196.459808,144.869423 196.459808,145.14551 C196.321931,145.559641 195.067582,146.663986 194.647224,146.80203 L193.671992,147.906378 C193.113757,148.461918 191.58029,148.738005 190.742939,148.738005 C190.463821,148.738005 190.325944,148.738005 190.325944,148.458552 C190.325944,147.768334 191.718168,146.940073 192.276403,146.80203 C192.834639,146.663986 193.254997,145.973769 193.671992,145.973769 C193.95111,145.973769 194.647224,145.14551 194.788464,145.14551 C195.904935,144.869423 196.742289,143.071491 198.275756,142.933448 L198.275756,142.933448 Z M204.298648,142.388008 C204.298648,142.872843 204.053159,143.721306 203.932096,143.963723 C203.932096,144.084932 203.686606,145.175813 203.686606,145.418231 C203.686606,145.660648 203.320054,146.145481 203.320054,146.145481 C203.320054,146.387899 202.832439,147.115153 202.708012,147.236362 C202.465886,147.478779 202.220397,147.963615 201.974908,148.084824 C201.732781,148.206033 201.974908,148.448451 201.487292,148.56966 C201.366229,148.56966 200.875251,149.054495 200.754188,149.054495 C200.266572,149.175704 199.775594,149.418122 199.166915,149.418122 C198.675937,149.418122 198.063895,149.539331 197.57628,149.539331 C197.455216,149.539331 196.597686,149.539331 196.722112,149.296913 C196.843175,148.933287 197.57628,148.690869 197.942832,148.690869 C198.309384,148.690869 199.90002,147.963615 200.266572,147.721197 C200.754188,147.478779 200.999677,147.236362 201.487292,146.751526 C201.732781,146.509108 202.220397,145.660648 202.465886,145.297022 C202.586949,145.175813 203.074565,144.206141 203.198991,144.084932 C203.320054,143.963723 204.298648,142.994052 204.298648,142.388008 L204.298648,142.388008 Z M194.610232,131.765392 C194.875898,131.896702 195.410594,132.293998 195.410594,132.687927 C195.410594,133.085223 194.875898,133.482519 194.475717,133.613828 C193.80987,133.879815 191.677813,132.953913 191.412147,132.687927 C190.877454,132.159321 190.346121,131.630716 190.077092,130.970801 C190.077092,130.970801 189.811425,129.516296 190.211606,129.516296 C190.611787,129.516296 191.011968,129.516296 191.143118,129.913592 C191.277632,130.176211 192.212509,131.236787 192.478175,131.368097 C192.61269,131.368097 193.009508,131.499406 193.278537,131.630716 C193.409689,131.630716 194.210051,131.499406 194.610232,131.765392 L194.610232,131.765392 Z M191.011968,127.664493 C191.543299,127.398507 192.212509,127.135888 192.878356,127.135888 C193.678718,127.135888 194.475717,127.135888 195.010413,127.795803 C195.410594,128.324409 195.94529,128.987691 195.94529,129.778916 C195.94529,130.307521 195.810775,130.970801 195.276079,130.970801 C194.610232,130.970801 194.744747,130.704814 194.210051,130.442198 C193.80987,130.307521 193.009508,129.384987 192.61269,128.987691 C192.343661,128.721704 192.077994,128.459085 191.812328,128.324409 L191.412147,128.324409 C191.143118,128.324409 190.611787,127.927113 191.011968,127.664493 L191.011968,127.664493 Z M187.410339,133.351209 C187.410339,132.691294 187.679369,131.896702 187.945035,131.630716 C188.210701,131.368097 188.745397,131.10211 189.145578,131.10211 C189.545759,131.10211 190.346121,132.687927 190.746302,132.822604 C191.143118,132.953913 192.343661,133.748505 192.478175,134.145801 C192.61269,134.53973 193.012871,135.334322 192.343661,135.600308 C191.812328,135.862927 190.211606,135.597076 189.676911,135.600308 C189.411244,135.600308 189.011063,134.937026 188.745397,134.674406 C188.479731,134.40842 187.81052,134.40842 187.410339,133.351209 L187.410339,133.351209 Z M197.276984,128.193099 C197.942832,128.193099 197.81168,128.193099 198.077346,128.459085 L198.077346,128.853014 C198.077346,128.987691 198.208498,129.119 198.208498,129.25031 C198.208498,129.38162 198.208498,129.778916 198.343013,129.913592 L198.608679,130.176211 L198.877709,130.442198 L199.00886,130.704817 L199.143375,130.970803 L199.143375,131.233423 C199.143375,131.368099 199.00886,131.630719 199.00886,131.630719 L198.743194,131.762028 C198.608679,131.76526 198.608679,132.028014 198.608679,132.159324 C198.608679,132.294001 198.477528,132.55662 198.343013,132.55662 L198.077346,132.68793 L197.942832,132.691162 L197.808317,132.691162 L197.677165,132.556485 L197.542651,132.556485 L197.411499,132.556485 L197.276984,132.425176 L197.276984,132.293866 L197.276984,132.159189 L197.276984,132.02788 L197.276984,131.761894 L197.14247,131.499274 C197.14247,131.499274 197.011318,131.101978 197.011318,130.839359 C197.011318,130.704682 197.14247,130.573373 197.14247,130.442066 L197.14247,129.91346 C197.14247,129.778784 197.276984,129.516164 197.276984,129.516164 L197.276984,129.381488 L197.276984,129.118868 C197.276984,128.852882 197.411499,128.721572 197.276984,128.192967 L197.276984,128.193099 Z M193.80987,125.81269 C193.80987,125.284085 193.678718,124.620803 193.278537,124.489493 C192.878356,124.358183 191.412147,124.226874 191.277632,124.092197 C190.746302,123.563591 190.477273,123.034986 189.680274,123.034986 C189.145578,123.034986 189.011063,124.092197 189.011063,124.489493 C189.011063,125.018099 188.345216,125.546704 187.945035,125.944 C187.279188,126.607282 186.744492,127.795803 186.744492,128.721704 C186.744492,128.853014 186.744492,128.987691 187.010158,128.590395 C187.010158,128.459085 187.410339,128.324409 187.410339,128.193099 C187.544854,127.927113 188.345216,126.341296 188.745397,126.209986 C188.879912,126.209986 190.077092,126.078677 190.211606,126.078677 C190.877454,126.078677 191.94348,126.075444 192.61269,126.078677 C192.743842,126.078677 192.878356,125.944 193.012871,125.944 L193.544204,125.681381 C193.678718,125.681381 194.078899,125.152775 193.80987,125.81269 L193.80987,125.81269 Z M176.21536,103.860411 C176.21536,105.712214 177.547054,108.092622 179.547959,106.769425 C180.613988,106.10951 182.746045,103.331805 182.746045,101.877301 C182.746045,100.156808 183.011711,97.9077087 183.011711,96.1905824 C183.011711,94.867385 182.880559,93.5441876 182.880559,92.2209902 C182.880559,91.8236943 182.880559,91.1637791 183.411892,91.1637791 C186.213159,91.1637791 184.212254,103.463115 183.546407,104.786312 C182.746045,106.503439 179.813626,108.355242 178.08175,109.149833 C177.146873,109.547129 175.94633,108.355242 175.94633,107.42934 C175.94633,107.032044 175.815179,105.974833 175.815179,105.446228 C175.815179,105.183608 176.346511,104.389016 176.21536,103.860411 L176.21536,103.860411 Z M172.748248,100.419427 C168.215105,104.389016 165.817382,108.752538 167.014562,115.233845 C167.814924,119.20007 170.481676,122.375071 170.481676,126.472606 C170.481676,127.267197 169.149982,135.994237 170.881857,130.573505 C171.547705,128.459085 173.282943,125.681381 172.882762,123.166296 C172.613733,121.711789 170.747343,118.671465 170.081495,117.614254 C168.615286,115.099171 167.949438,110.075735 168.615286,107.035411 C168.880952,105.974833 173.414095,100.288117 172.748248,100.419427 L172.748248,100.419427 Z M130.224817,153.320376 C128.358429,149.61677 125.130078,134.132333 126.757705,130.839491 C128.462678,127.388406 130.379509,125.704949 133.157236,123.432282 C135.709651,121.341428 137.687016,117.085648 139.953587,115.631141 C141.288645,114.836552 136.254435,122.324567 134.357779,124.226874 C130.039859,128.549992 127.648865,132.698028 128.624096,138.640632 C129.081445,141.431804 129.468175,144.980532 130.090302,147.764967 C130.265171,148.549458 131.290845,153.848982 130.224817,153.320376 L130.224817,153.320376 Z M95.3485454,115.223744 C99.4310616,129.863088 114.237759,121.748825 107.599462,154.707545 C106.849543,154.667142 106.550248,155.178913 106.076084,155.165445 C106.859632,150.044368 110.545333,138.505955 106.281219,131.856299 C102.565252,126.055108 99.9186771,124.62417 98.3448587,123.18313 C96.3069621,121.31786 94.807124,115.907228 94.8407527,115.600839 C94.8609299,115.405558 95.1534992,115.277615 95.3485454,115.223744 L95.3485454,115.223744 Z" id="path3681" sketch:type="MSShapeGroup"></path>
        </g>
    </g>
</svg>