<?xml version="1.0" encoding="UTF-8" standalone="yes"?>
<!DOCTYPE svg PUBLIC "-//W3C//DTD SVG 1.1//EN" "http://www.w3.org/Graphics/SVG/1.1/DTD/svg11.dtd">
<svg xmlns="http://www.w3.org/2000/svg" version="1.1" width="512" height="512" viewBox="0 0 512 512">
  <path d="m 149.575,112.161 7.738,0 14.763,21.896 14.656,-21.896 7.738,0 -18.829,27.887 0,25.355 -7.239,0 0,-25.355 -18.829,-27.887" />
  <path d="m 201.533,112.161 7.203,0 0,53.242 -7.203,0 0,-53.242" />
  <path d="m 223.073,112.161 33.664,0 0,6.062 -26.46,0 0,15.762 25.355,0 0,6.062 -25.355,0 0,19.292 27.102,0 0,6.062 -34.306,0 0,-53.242" />
  <path d="m 269.29,112.161 7.203,0 0,47.179 25.925,0 0,6.062 -33.129,0 0,-53.242" />
  <path d="m 317.147,118.08 0,41.402 8.701,0 c 7.346,0 12.719,-1.664 16.118,-4.992 3.423,-3.328 5.135,-8.582 5.135,-15.762 0,-7.132 -1.711,-12.35 -5.135,-15.655 -3.399,-3.328 -8.772,-4.992 -16.118,-4.992 l -8.701,0z
    m -7.203,-5.919 14.799,0 c 10.317,0 17.89,2.151 22.716,6.454 4.826,4.279 7.239,10.983 7.239,20.112 0,9.176 -2.425,15.916 -7.274,20.219 -4.849,4.303 -12.41,6.454 -22.68,6.454 l -14.799,0 0,-53.242z"/>
</svg>
